G04*
G04 #@! TF.GenerationSoftware,Altium Limited,Altium Designer,18.1.6 (161)*
G04*
G04 Layer_Physical_Order=1*
G04 Layer_Color=255*
%FSTAX24Y24*%
%MOIN*%
G70*
G01*
G75*
%ADD10C,0.0100*%
%ADD15C,0.0080*%
%ADD18R,0.0354X0.0157*%
%ADD19R,0.0531X0.0413*%
G04:AMPARAMS|DCode=20|XSize=61.4mil|YSize=11mil|CornerRadius=2.8mil|HoleSize=0mil|Usage=FLASHONLY|Rotation=0.000|XOffset=0mil|YOffset=0mil|HoleType=Round|Shape=RoundedRectangle|*
%AMROUNDEDRECTD20*
21,1,0.0614,0.0055,0,0,0.0*
21,1,0.0559,0.0110,0,0,0.0*
1,1,0.0055,0.0280,-0.0028*
1,1,0.0055,-0.0280,-0.0028*
1,1,0.0055,-0.0280,0.0028*
1,1,0.0055,0.0280,0.0028*
%
%ADD20ROUNDEDRECTD20*%
G04:AMPARAMS|DCode=21|XSize=61.4mil|YSize=11mil|CornerRadius=2.8mil|HoleSize=0mil|Usage=FLASHONLY|Rotation=270.000|XOffset=0mil|YOffset=0mil|HoleType=Round|Shape=RoundedRectangle|*
%AMROUNDEDRECTD21*
21,1,0.0614,0.0055,0,0,270.0*
21,1,0.0559,0.0110,0,0,270.0*
1,1,0.0055,-0.0028,-0.0280*
1,1,0.0055,-0.0028,0.0280*
1,1,0.0055,0.0028,0.0280*
1,1,0.0055,0.0028,-0.0280*
%
%ADD21ROUNDEDRECTD21*%
%ADD22R,0.0236X0.0394*%
%ADD23R,0.0472X0.0591*%
%ADD24R,0.0591X0.0472*%
%ADD25R,0.0472X0.0512*%
%ADD26R,0.0413X0.0531*%
%ADD27R,0.1358X0.0453*%
%ADD28R,0.1299X0.0650*%
%ADD29R,0.0374X0.0650*%
%ADD30O,0.0572X0.0139*%
%ADD31R,0.0709X0.0304*%
%ADD32R,0.0709X0.0304*%
%ADD33R,0.1500X0.0787*%
%ADD60C,0.0200*%
%ADD61C,0.0350*%
%ADD62C,0.0300*%
%ADD63C,0.0551*%
%ADD64R,0.0551X0.0551*%
%ADD65C,0.2362*%
%ADD66R,0.0551X0.0551*%
%ADD67R,0.1100X0.1200*%
%ADD68O,0.1100X0.1200*%
%ADD69R,0.1200X0.1100*%
%ADD70O,0.1200X0.1100*%
%ADD71R,0.0709X0.0709*%
%ADD72C,0.0709*%
%ADD73C,0.0236*%
G36*
X036902Y049118D02*
X036746Y049053D01*
X036567Y04895D01*
X036403Y048824D01*
X036257Y048678D01*
X036131Y048515D01*
X036028Y048336D01*
X035949Y048145D01*
X035896Y047946D01*
X035869Y047741D01*
X035869Y047638D01*
X035869Y047638D01*
X035869Y047535D01*
X035896Y04733D01*
X035949Y047131D01*
X036028Y04694D01*
X036131Y046761D01*
X036257Y046597D01*
X036403Y046451D01*
X036565Y046327D01*
X036566Y046321D01*
X036556Y046274D01*
X036529Y046268D01*
X036457Y04622D01*
X036409Y046148D01*
X036402Y046113D01*
X036827D01*
X036822Y046137D01*
X036856Y046177D01*
X036936Y046143D01*
X037136Y04609D01*
X03734Y046063D01*
X037444D01*
X037547Y046063D01*
X037752Y04609D01*
X037951Y046143D01*
X038142Y046222D01*
X03832Y046326D01*
X038484Y046451D01*
X03863Y046597D01*
X038756Y046761D01*
X038859Y04694D01*
X038898Y047033D01*
X038948Y047024D01*
Y040972D01*
Y031436D01*
Y02171D01*
X038898Y0217D01*
X038865Y021778D01*
X038762Y021957D01*
X038637Y022121D01*
X038491Y022267D01*
X038327Y022392D01*
X038148Y022495D01*
X037957Y022574D01*
X037758Y022628D01*
X037553Y022655D01*
X03745Y022655D01*
X03745Y022655D01*
X037347Y022655D01*
X037142Y022628D01*
X036943Y022574D01*
X036752Y022495D01*
X036573Y022392D01*
X036409Y022267D01*
X036263Y022121D01*
X036138Y021957D01*
X036035Y021778D01*
X035956Y021587D01*
X035902Y021388D01*
X035875Y021183D01*
X035875Y02108D01*
X035875Y02108D01*
X035875Y020977D01*
X035902Y020772D01*
X035956Y020573D01*
X036035Y020382D01*
X036138Y020203D01*
X036263Y020039D01*
X036409Y019893D01*
X036573Y019768D01*
X036752Y019665D01*
X036943Y019586D01*
X036957Y019582D01*
X036951Y019532D01*
X021167D01*
X02116Y019582D01*
X021247Y019606D01*
X021438Y019685D01*
X021617Y019788D01*
X021781Y019913D01*
X021927Y020059D01*
X022052Y020223D01*
X022155Y020402D01*
X022234Y020593D01*
X022288Y020792D01*
X022315Y020997D01*
X022315Y0211D01*
X022315Y0211D01*
X022315Y0211D01*
X022315Y021203D01*
X022288Y021408D01*
X022234Y021607D01*
X022155Y021798D01*
X022052Y021977D01*
X021927Y022141D01*
X021781Y022287D01*
X021617Y022412D01*
X021438Y022515D01*
X021247Y022594D01*
X021048Y022648D01*
X020843Y022675D01*
X02074Y022675D01*
X02074Y022675D01*
X020637Y022675D01*
X020432Y022648D01*
X020233Y022594D01*
X020042Y022515D01*
X019863Y022412D01*
X019699Y022287D01*
X019553Y022141D01*
X019428Y021977D01*
X019325Y021798D01*
X019282Y021696D01*
X019232Y021706D01*
Y047211D01*
X019282Y047218D01*
X019306Y047131D01*
X019385Y04694D01*
X019488Y046761D01*
X019613Y046597D01*
X019759Y046451D01*
X019923Y046326D01*
X019959Y046305D01*
X019961Y046246D01*
X019921Y04622D01*
X019873Y046148D01*
X019866Y046113D01*
X020319D01*
X020339Y046131D01*
X020492Y04609D01*
X020697Y046063D01*
X0208D01*
X020903Y046063D01*
X021108Y04609D01*
X021307Y046143D01*
X021498Y046222D01*
X021677Y046326D01*
X021841Y046451D01*
X021987Y046597D01*
X022112Y046761D01*
X022215Y04694D01*
X022294Y04713D01*
X022348Y04733D01*
X022375Y047535D01*
X022375Y047638D01*
X022375Y047638D01*
X022375Y047638D01*
X022375Y047741D01*
X022348Y047946D01*
X022294Y048145D01*
X022263Y048222D01*
X022303Y048255D01*
X022356Y04822D01*
X022391Y048213D01*
Y048425D01*
Y048638D01*
X022356Y048631D01*
X022284Y048582D01*
X022235Y04851D01*
X022219Y048429D01*
X022209Y048423D01*
X02217Y048415D01*
X022112Y048515D01*
X021987Y048678D01*
X021841Y048824D01*
X021677Y04895D01*
X021498Y049053D01*
X021342Y049118D01*
X021352Y049168D01*
X036892D01*
X036902Y049118D01*
D02*
G37*
%LPC*%
G36*
X035483Y048638D02*
Y048475D01*
X035645D01*
X035639Y04851D01*
X03559Y048582D01*
X035518Y048631D01*
X035483Y048638D01*
D02*
G37*
G36*
X035383D02*
X035348Y048631D01*
X035276Y048582D01*
X035228Y04851D01*
X035221Y048475D01*
X035383D01*
Y048638D01*
D02*
G37*
G36*
X034302D02*
Y048475D01*
X034464D01*
X034457Y04851D01*
X034409Y048582D01*
X034337Y048631D01*
X034302Y048638D01*
D02*
G37*
G36*
X034202D02*
X034167Y048631D01*
X034095Y048582D01*
X034046Y04851D01*
X03404Y048475D01*
X034202D01*
Y048638D01*
D02*
G37*
G36*
X026034D02*
Y048475D01*
X026197D01*
X02619Y04851D01*
X026141Y048582D01*
X026069Y048631D01*
X026034Y048638D01*
D02*
G37*
G36*
X025934D02*
X025899Y048631D01*
X025827Y048582D01*
X025779Y04851D01*
X025772Y048475D01*
X025934D01*
Y048638D01*
D02*
G37*
G36*
X024853D02*
Y048475D01*
X025016D01*
X025009Y04851D01*
X02496Y048582D01*
X024888Y048631D01*
X024853Y048638D01*
D02*
G37*
G36*
X024753D02*
X024718Y048631D01*
X024646Y048582D01*
X024598Y04851D01*
X024591Y048475D01*
X024753D01*
Y048638D01*
D02*
G37*
G36*
X023672D02*
Y048475D01*
X023834D01*
X023827Y04851D01*
X023779Y048582D01*
X023707Y048631D01*
X023672Y048638D01*
D02*
G37*
G36*
X023572D02*
X023537Y048631D01*
X023465Y048582D01*
X023417Y04851D01*
X02341Y048475D01*
X023572D01*
Y048638D01*
D02*
G37*
G36*
X022491D02*
Y048475D01*
X022653D01*
X022646Y04851D01*
X022598Y048582D01*
X022526Y048631D01*
X022491Y048638D01*
D02*
G37*
G36*
X035645Y048375D02*
X035483D01*
Y048213D01*
X035518Y04822D01*
X03559Y048268D01*
X035639Y04834D01*
X035645Y048375D01*
D02*
G37*
G36*
X035383D02*
X035221D01*
X035228Y04834D01*
X035276Y048268D01*
X035348Y04822D01*
X035383Y048213D01*
Y048375D01*
D02*
G37*
G36*
X034464D02*
X034302D01*
Y048213D01*
X034337Y04822D01*
X034409Y048268D01*
X034457Y04834D01*
X034464Y048375D01*
D02*
G37*
G36*
X034202D02*
X03404D01*
X034046Y04834D01*
X034095Y048268D01*
X034167Y04822D01*
X034202Y048213D01*
Y048375D01*
D02*
G37*
G36*
X026197D02*
X026034D01*
Y048213D01*
X026069Y04822D01*
X026141Y048268D01*
X02619Y04834D01*
X026197Y048375D01*
D02*
G37*
G36*
X025934D02*
X025772D01*
X025779Y04834D01*
X025827Y048268D01*
X025899Y04822D01*
X025934Y048213D01*
Y048375D01*
D02*
G37*
G36*
X025016D02*
X024853D01*
Y048213D01*
X024888Y04822D01*
X02496Y048268D01*
X025009Y04834D01*
X025016Y048375D01*
D02*
G37*
G36*
X024753D02*
X024591D01*
X024598Y04834D01*
X024646Y048268D01*
X024718Y04822D01*
X024753Y048213D01*
Y048375D01*
D02*
G37*
G36*
X023834D02*
X023672D01*
Y048213D01*
X023707Y04822D01*
X023779Y048268D01*
X023827Y04834D01*
X023834Y048375D01*
D02*
G37*
G36*
X023572D02*
X02341D01*
X023417Y04834D01*
X023465Y048268D01*
X023537Y04822D01*
X023572Y048213D01*
Y048375D01*
D02*
G37*
G36*
X022653D02*
X022491D01*
Y048213D01*
X022526Y04822D01*
X022598Y048268D01*
X022646Y04834D01*
X022653Y048375D01*
D02*
G37*
G36*
X034893Y047457D02*
Y047294D01*
X035055D01*
X035048Y047329D01*
X035Y047401D01*
X034928Y04745D01*
X034893Y047457D01*
D02*
G37*
G36*
X034793D02*
X034757Y04745D01*
X034685Y047401D01*
X034637Y047329D01*
X03463Y047294D01*
X034793D01*
Y047457D01*
D02*
G37*
G36*
X033711D02*
Y047294D01*
X033874D01*
X033867Y047329D01*
X033819Y047401D01*
X033747Y04745D01*
X033711Y047457D01*
D02*
G37*
G36*
X033611D02*
X033576Y04745D01*
X033504Y047401D01*
X033456Y047329D01*
X033449Y047294D01*
X033611D01*
Y047457D01*
D02*
G37*
G36*
X031349D02*
Y047294D01*
X031512D01*
X031505Y047329D01*
X031456Y047401D01*
X031384Y04745D01*
X031349Y047457D01*
D02*
G37*
G36*
X031249D02*
X031214Y04745D01*
X031142Y047401D01*
X031094Y047329D01*
X031087Y047294D01*
X031249D01*
Y047457D01*
D02*
G37*
G36*
X026625D02*
Y047294D01*
X026787D01*
X02678Y047329D01*
X026732Y047401D01*
X02666Y04745D01*
X026625Y047457D01*
D02*
G37*
G36*
X026525D02*
X02649Y04745D01*
X026418Y047401D01*
X026369Y047329D01*
X026362Y047294D01*
X026525D01*
Y047457D01*
D02*
G37*
G36*
X025444D02*
Y047294D01*
X025606D01*
X025599Y047329D01*
X025551Y047401D01*
X025479Y04745D01*
X025444Y047457D01*
D02*
G37*
G36*
X025344D02*
X025309Y04745D01*
X025236Y047401D01*
X025188Y047329D01*
X025181Y047294D01*
X025344D01*
Y047457D01*
D02*
G37*
G36*
X024263D02*
Y047294D01*
X024425D01*
X024418Y047329D01*
X02437Y047401D01*
X024298Y04745D01*
X024263Y047457D01*
D02*
G37*
G36*
X024163D02*
X024127Y04745D01*
X024055Y047401D01*
X024007Y047329D01*
X024Y047294D01*
X024163D01*
Y047457D01*
D02*
G37*
G36*
X023081D02*
Y047294D01*
X023244D01*
X023237Y047329D01*
X023189Y047401D01*
X023117Y04745D01*
X023081Y047457D01*
D02*
G37*
G36*
X022981D02*
X022946Y04745D01*
X022874Y047401D01*
X022826Y047329D01*
X022819Y047294D01*
X022981D01*
Y047457D01*
D02*
G37*
G36*
X035055Y047194D02*
X034893D01*
Y047032D01*
X034928Y047039D01*
X035Y047087D01*
X035048Y047159D01*
X035055Y047194D01*
D02*
G37*
G36*
X034793D02*
X03463D01*
X034637Y047159D01*
X034685Y047087D01*
X034757Y047039D01*
X034793Y047032D01*
Y047194D01*
D02*
G37*
G36*
X033874D02*
X033711D01*
Y047032D01*
X033747Y047039D01*
X033819Y047087D01*
X033867Y047159D01*
X033874Y047194D01*
D02*
G37*
G36*
X033611D02*
X033449D01*
X033456Y047159D01*
X033504Y047087D01*
X033576Y047039D01*
X033611Y047032D01*
Y047194D01*
D02*
G37*
G36*
X031512D02*
X031349D01*
Y047032D01*
X031384Y047039D01*
X031456Y047087D01*
X031505Y047159D01*
X031512Y047194D01*
D02*
G37*
G36*
X031249D02*
X031087D01*
X031094Y047159D01*
X031142Y047087D01*
X031214Y047039D01*
X031249Y047032D01*
Y047194D01*
D02*
G37*
G36*
X026787D02*
X026625D01*
Y047032D01*
X02666Y047039D01*
X026732Y047087D01*
X02678Y047159D01*
X026787Y047194D01*
D02*
G37*
G36*
X026525D02*
X026362D01*
X026369Y047159D01*
X026418Y047087D01*
X02649Y047039D01*
X026525Y047032D01*
Y047194D01*
D02*
G37*
G36*
X025606D02*
X025444D01*
Y047032D01*
X025479Y047039D01*
X025551Y047087D01*
X025599Y047159D01*
X025606Y047194D01*
D02*
G37*
G36*
X025344D02*
X025181D01*
X025188Y047159D01*
X025236Y047087D01*
X025309Y047039D01*
X025344Y047032D01*
Y047194D01*
D02*
G37*
G36*
X024425D02*
X024263D01*
Y047032D01*
X024298Y047039D01*
X02437Y047087D01*
X024418Y047159D01*
X024425Y047194D01*
D02*
G37*
G36*
X024163D02*
X024D01*
X024007Y047159D01*
X024055Y047087D01*
X024127Y047039D01*
X024163Y047032D01*
Y047194D01*
D02*
G37*
G36*
X023244D02*
X023081D01*
Y047032D01*
X023117Y047039D01*
X023189Y047087D01*
X023237Y047159D01*
X023244Y047194D01*
D02*
G37*
G36*
X022981D02*
X022819D01*
X022826Y047159D01*
X022874Y047087D01*
X022946Y047039D01*
X022981Y047032D01*
Y047194D01*
D02*
G37*
G36*
X032825Y048258D02*
X031605D01*
Y046938D01*
X032825D01*
Y048258D01*
D02*
G37*
G36*
X035483Y046275D02*
Y046113D01*
X035645D01*
X035639Y046148D01*
X03559Y04622D01*
X035518Y046268D01*
X035483Y046275D01*
D02*
G37*
G36*
X034302D02*
Y046113D01*
X034464D01*
X034457Y046148D01*
X034409Y04622D01*
X034337Y046268D01*
X034302Y046275D01*
D02*
G37*
G36*
X034202D02*
X034167Y046268D01*
X034095Y04622D01*
X034046Y046148D01*
X03404Y046113D01*
X034202D01*
Y046275D01*
D02*
G37*
G36*
X033121D02*
Y046113D01*
X033283D01*
X033276Y046148D01*
X033228Y04622D01*
X033156Y046268D01*
X033121Y046275D01*
D02*
G37*
G36*
X033021D02*
X032986Y046268D01*
X032914Y04622D01*
X032865Y046148D01*
X032858Y046113D01*
X033021D01*
Y046275D01*
D02*
G37*
G36*
X029578D02*
Y046113D01*
X02974D01*
X029733Y046148D01*
X029685Y04622D01*
X029613Y046268D01*
X029578Y046275D01*
D02*
G37*
G36*
X029478D02*
X029442Y046268D01*
X02937Y04622D01*
X029322Y046148D01*
X029315Y046113D01*
X029478D01*
Y046275D01*
D02*
G37*
G36*
X027215D02*
Y046113D01*
X027378D01*
X027371Y046148D01*
X027323Y04622D01*
X02725Y046268D01*
X027215Y046275D01*
D02*
G37*
G36*
X027115D02*
X02708Y046268D01*
X027008Y04622D01*
X02696Y046148D01*
X026953Y046113D01*
X027115D01*
Y046275D01*
D02*
G37*
G36*
X024853D02*
Y046113D01*
X025016D01*
X025009Y046148D01*
X02496Y04622D01*
X024888Y046268D01*
X024853Y046275D01*
D02*
G37*
G36*
X024753D02*
X024718Y046268D01*
X024646Y04622D01*
X024598Y046148D01*
X024591Y046113D01*
X024753D01*
Y046275D01*
D02*
G37*
G36*
X023672D02*
Y046113D01*
X023834D01*
X023827Y046148D01*
X023779Y04622D01*
X023707Y046268D01*
X023672Y046275D01*
D02*
G37*
G36*
X023572D02*
X023537Y046268D01*
X023465Y04622D01*
X023417Y046148D01*
X02341Y046113D01*
X023572D01*
Y046275D01*
D02*
G37*
G36*
X022491D02*
Y046113D01*
X022653D01*
X022646Y046148D01*
X022598Y04622D01*
X022526Y046268D01*
X022491Y046275D01*
D02*
G37*
G36*
X022391D02*
X022356Y046268D01*
X022284Y04622D01*
X022235Y046148D01*
X022229Y046113D01*
X022391D01*
Y046275D01*
D02*
G37*
G36*
X036827Y046013D02*
X036664D01*
Y045851D01*
X036699Y045858D01*
X036771Y045906D01*
X03682Y045978D01*
X036827Y046013D01*
D02*
G37*
G36*
X036564D02*
X036402D01*
X036409Y045978D01*
X036457Y045906D01*
X036529Y045858D01*
X036564Y045851D01*
Y046013D01*
D02*
G37*
G36*
X034464D02*
X034302D01*
Y045851D01*
X034337Y045858D01*
X034409Y045906D01*
X034457Y045978D01*
X034464Y046013D01*
D02*
G37*
G36*
X034202D02*
X03404D01*
X034046Y045978D01*
X034095Y045906D01*
X034167Y045858D01*
X034202Y045851D01*
Y046013D01*
D02*
G37*
G36*
X033283D02*
X033121D01*
Y045851D01*
X033156Y045858D01*
X033228Y045906D01*
X033276Y045978D01*
X033283Y046013D01*
D02*
G37*
G36*
X033021D02*
X032858D01*
X032865Y045978D01*
X032914Y045906D01*
X032986Y045858D01*
X033021Y045851D01*
Y046013D01*
D02*
G37*
G36*
X02974D02*
X029578D01*
Y045851D01*
X029613Y045858D01*
X029685Y045906D01*
X029733Y045978D01*
X02974Y046013D01*
D02*
G37*
G36*
X029478D02*
X029315D01*
X029322Y045978D01*
X02937Y045906D01*
X029442Y045858D01*
X029478Y045851D01*
Y046013D01*
D02*
G37*
G36*
X027378D02*
X027215D01*
Y045851D01*
X02725Y045858D01*
X027323Y045906D01*
X027371Y045978D01*
X027378Y046013D01*
D02*
G37*
G36*
X027115D02*
X026953D01*
X02696Y045978D01*
X027008Y045906D01*
X02708Y045858D01*
X027115Y045851D01*
Y046013D01*
D02*
G37*
G36*
X025016D02*
X024853D01*
Y045851D01*
X024888Y045858D01*
X02496Y045906D01*
X025009Y045978D01*
X025016Y046013D01*
D02*
G37*
G36*
X024753D02*
X024591D01*
X024598Y045978D01*
X024646Y045906D01*
X024718Y045858D01*
X024753Y045851D01*
Y046013D01*
D02*
G37*
G36*
X023834D02*
X023672D01*
Y045851D01*
X023707Y045858D01*
X023779Y045906D01*
X023827Y045978D01*
X023834Y046013D01*
D02*
G37*
G36*
X023572D02*
X02341D01*
X023417Y045978D01*
X023465Y045906D01*
X023537Y045858D01*
X023572Y045851D01*
Y046013D01*
D02*
G37*
G36*
X022653D02*
X022491D01*
Y045851D01*
X022526Y045858D01*
X022598Y045906D01*
X022646Y045978D01*
X022653Y046013D01*
D02*
G37*
G36*
X022391D02*
X022229D01*
X022235Y045978D01*
X022284Y045906D01*
X022356Y045858D01*
X022391Y045851D01*
Y046013D01*
D02*
G37*
G36*
X020291D02*
X020129D01*
Y045851D01*
X020164Y045858D01*
X020236Y045906D01*
X020284Y045978D01*
X020291Y046013D01*
D02*
G37*
G36*
X020029D02*
X019866D01*
X019873Y045978D01*
X019921Y045906D01*
X019994Y045858D01*
X020029Y045851D01*
Y046013D01*
D02*
G37*
G36*
X038436Y045094D02*
Y044932D01*
X038598D01*
X038591Y044967D01*
X038543Y045039D01*
X038471Y045087D01*
X038436Y045094D01*
D02*
G37*
G36*
X038336D02*
X038301Y045087D01*
X038229Y045039D01*
X03818Y044967D01*
X038173Y044932D01*
X038336D01*
Y045094D01*
D02*
G37*
G36*
X037255D02*
Y044932D01*
X037417D01*
X03741Y044967D01*
X037362Y045039D01*
X03729Y045087D01*
X037255Y045094D01*
D02*
G37*
G36*
X037155D02*
X03712Y045087D01*
X037047Y045039D01*
X036999Y044967D01*
X036992Y044932D01*
X037155D01*
Y045094D01*
D02*
G37*
G36*
X034893D02*
Y044932D01*
X035055D01*
X035048Y044967D01*
X035Y045039D01*
X034928Y045087D01*
X034893Y045094D01*
D02*
G37*
G36*
X034793D02*
X034757Y045087D01*
X034685Y045039D01*
X034637Y044967D01*
X03463Y044932D01*
X034793D01*
Y045094D01*
D02*
G37*
G36*
X033711D02*
Y044932D01*
X033874D01*
X033867Y044967D01*
X033819Y045039D01*
X033747Y045087D01*
X033711Y045094D01*
D02*
G37*
G36*
X033611D02*
X033576Y045087D01*
X033504Y045039D01*
X033456Y044967D01*
X033449Y044932D01*
X033611D01*
Y045094D01*
D02*
G37*
G36*
X030168D02*
Y044932D01*
X030331D01*
X030324Y044967D01*
X030275Y045039D01*
X030203Y045087D01*
X030168Y045094D01*
D02*
G37*
G36*
X030068D02*
X030033Y045087D01*
X029961Y045039D01*
X029913Y044967D01*
X029906Y044932D01*
X030068D01*
Y045094D01*
D02*
G37*
G36*
X026625D02*
Y044932D01*
X026787D01*
X02678Y044967D01*
X026732Y045039D01*
X02666Y045087D01*
X026625Y045094D01*
D02*
G37*
G36*
X026525D02*
X02649Y045087D01*
X026418Y045039D01*
X026369Y044967D01*
X026362Y044932D01*
X026525D01*
Y045094D01*
D02*
G37*
G36*
X025444D02*
Y044932D01*
X025606D01*
X025599Y044967D01*
X025551Y045039D01*
X025479Y045087D01*
X025444Y045094D01*
D02*
G37*
G36*
X025344D02*
X025309Y045087D01*
X025236Y045039D01*
X025188Y044967D01*
X025181Y044932D01*
X025344D01*
Y045094D01*
D02*
G37*
G36*
X024263D02*
Y044932D01*
X024425D01*
X024418Y044967D01*
X02437Y045039D01*
X024298Y045087D01*
X024263Y045094D01*
D02*
G37*
G36*
X024163D02*
X024127Y045087D01*
X024055Y045039D01*
X024007Y044967D01*
X024Y044932D01*
X024163D01*
Y045094D01*
D02*
G37*
G36*
X023081D02*
Y044932D01*
X023244D01*
X023237Y044967D01*
X023189Y045039D01*
X023117Y045087D01*
X023081Y045094D01*
D02*
G37*
G36*
X022981D02*
X022946Y045087D01*
X022874Y045039D01*
X022826Y044967D01*
X022819Y044932D01*
X022981D01*
Y045094D01*
D02*
G37*
G36*
X0219D02*
Y044932D01*
X022063D01*
X022056Y044967D01*
X022008Y045039D01*
X021935Y045087D01*
X0219Y045094D01*
D02*
G37*
G36*
X0218D02*
X021765Y045087D01*
X021693Y045039D01*
X021645Y044967D01*
X021638Y044932D01*
X0218D01*
Y045094D01*
D02*
G37*
G36*
X020719D02*
Y044932D01*
X020882D01*
X020875Y044967D01*
X020827Y045039D01*
X020754Y045087D01*
X020719Y045094D01*
D02*
G37*
G36*
X020619D02*
X020584Y045087D01*
X020512Y045039D01*
X020464Y044967D01*
X020457Y044932D01*
X020619D01*
Y045094D01*
D02*
G37*
G36*
X038598Y044832D02*
X038436D01*
Y044669D01*
X038471Y044676D01*
X038543Y044725D01*
X038591Y044797D01*
X038598Y044832D01*
D02*
G37*
G36*
X038336D02*
X038173D01*
X03818Y044797D01*
X038229Y044725D01*
X038301Y044676D01*
X038336Y044669D01*
Y044832D01*
D02*
G37*
G36*
X037417D02*
X037255D01*
Y044669D01*
X03729Y044676D01*
X037362Y044725D01*
X03741Y044797D01*
X037417Y044832D01*
D02*
G37*
G36*
X037155D02*
X036992D01*
X036999Y044797D01*
X037047Y044725D01*
X03712Y044676D01*
X037155Y044669D01*
Y044832D01*
D02*
G37*
G36*
X035055D02*
X034893D01*
Y044669D01*
X034928Y044676D01*
X035Y044725D01*
X035048Y044797D01*
X035055Y044832D01*
D02*
G37*
G36*
X034793D02*
X03463D01*
X034637Y044797D01*
X034685Y044725D01*
X034757Y044676D01*
X034793Y044669D01*
Y044832D01*
D02*
G37*
G36*
X033874D02*
X033711D01*
Y044669D01*
X033747Y044676D01*
X033819Y044725D01*
X033867Y044797D01*
X033874Y044832D01*
D02*
G37*
G36*
X033611D02*
X033449D01*
X033456Y044797D01*
X033504Y044725D01*
X033576Y044676D01*
X033611Y044669D01*
Y044832D01*
D02*
G37*
G36*
X030331D02*
X030168D01*
Y044669D01*
X030203Y044676D01*
X030275Y044725D01*
X030324Y044797D01*
X030331Y044832D01*
D02*
G37*
G36*
X030068D02*
X029906D01*
X029913Y044797D01*
X029961Y044725D01*
X030033Y044676D01*
X030068Y044669D01*
Y044832D01*
D02*
G37*
G36*
X026787D02*
X026625D01*
Y044669D01*
X02666Y044676D01*
X026732Y044725D01*
X02678Y044797D01*
X026787Y044832D01*
D02*
G37*
G36*
X026525D02*
X026362D01*
X026369Y044797D01*
X026418Y044725D01*
X02649Y044676D01*
X026525Y044669D01*
Y044832D01*
D02*
G37*
G36*
X025606D02*
X025444D01*
Y044669D01*
X025479Y044676D01*
X025551Y044725D01*
X025599Y044797D01*
X025606Y044832D01*
D02*
G37*
G36*
X025344D02*
X025181D01*
X025188Y044797D01*
X025236Y044725D01*
X025309Y044676D01*
X025344Y044669D01*
Y044832D01*
D02*
G37*
G36*
X024425D02*
X024263D01*
Y044669D01*
X024298Y044676D01*
X02437Y044725D01*
X024418Y044797D01*
X024425Y044832D01*
D02*
G37*
G36*
X024163D02*
X024D01*
X024007Y044797D01*
X024055Y044725D01*
X024127Y044676D01*
X024163Y044669D01*
Y044832D01*
D02*
G37*
G36*
X023244D02*
X023081D01*
Y044669D01*
X023117Y044676D01*
X023189Y044725D01*
X023237Y044797D01*
X023244Y044832D01*
D02*
G37*
G36*
X022981D02*
X022819D01*
X022826Y044797D01*
X022874Y044725D01*
X022946Y044676D01*
X022981Y044669D01*
Y044832D01*
D02*
G37*
G36*
X022063D02*
X0219D01*
Y044669D01*
X021935Y044676D01*
X022008Y044725D01*
X022056Y044797D01*
X022063Y044832D01*
D02*
G37*
G36*
X0218D02*
X021638D01*
X021645Y044797D01*
X021693Y044725D01*
X021765Y044676D01*
X0218Y044669D01*
Y044832D01*
D02*
G37*
G36*
X020882D02*
X020719D01*
Y044669D01*
X020754Y044676D01*
X020827Y044725D01*
X020875Y044797D01*
X020882Y044832D01*
D02*
G37*
G36*
X020619D02*
X020457D01*
X020464Y044797D01*
X020512Y044725D01*
X020584Y044676D01*
X020619Y044669D01*
Y044832D01*
D02*
G37*
G36*
X035816Y044303D02*
X035383D01*
X035332Y044293D01*
X035317Y044284D01*
X035161D01*
X035161Y044284D01*
X035118Y044275D01*
X035081Y044251D01*
X035081Y044251D01*
X034795Y043964D01*
X034771Y043928D01*
X034762Y043885D01*
X034762Y043885D01*
Y042377D01*
X034549D01*
Y041844D01*
X0352D01*
Y042377D01*
X034986D01*
Y043839D01*
X035175Y044027D01*
X035192Y044025D01*
X035206Y044005D01*
X035221Y04397D01*
X03522Y043965D01*
X035599D01*
X035979D01*
X035976Y043982D01*
X035938Y044038D01*
X035935Y04404D01*
X035927Y044105D01*
X035938Y044121D01*
X035948Y044171D01*
X035938Y044222D01*
X035909Y044265D01*
X035867Y044293D01*
X035816Y044303D01*
D02*
G37*
G36*
X027149Y044345D02*
X026982D01*
Y044222D01*
X027311D01*
X027308Y044238D01*
X027271Y044294D01*
X027215Y044331D01*
X027149Y044345D01*
D02*
G37*
G36*
X026882D02*
X026715D01*
X026649Y044331D01*
X026593Y044294D01*
X026555Y044238D01*
X026552Y044222D01*
X026882D01*
Y044345D01*
D02*
G37*
G36*
X033511Y044344D02*
X033345D01*
Y044221D01*
X033674D01*
X033671Y044237D01*
X033633Y044294D01*
X033577Y044331D01*
X033511Y044344D01*
D02*
G37*
G36*
X033245D02*
X033078D01*
X033012Y044331D01*
X032956Y044294D01*
X032918Y044237D01*
X032915Y044221D01*
X033245D01*
Y044344D01*
D02*
G37*
G36*
X028315Y048161D02*
X028196Y048149D01*
X028081Y048114D01*
X027975Y048058D01*
X027882Y047981D01*
X027805Y047889D01*
X027749Y047783D01*
X027714Y047668D01*
X027702Y047548D01*
Y047448D01*
X027714Y047328D01*
X027749Y047213D01*
X027805Y047107D01*
X027882Y047015D01*
X027975Y046938D01*
X028081Y046882D01*
X028106Y046874D01*
Y045217D01*
X027581D01*
Y044644D01*
X028203D01*
Y044529D01*
X027702Y044028D01*
X027316D01*
X02729Y044078D01*
X027308Y044106D01*
X027311Y044122D01*
X026932D01*
X026552D01*
X026555Y044106D01*
X026593Y04405D01*
X026596Y044048D01*
X026604Y043982D01*
X026593Y043966D01*
X026583Y043916D01*
X026593Y043865D01*
X026622Y043823D01*
X026628Y043818D01*
Y043758D01*
X026622Y043753D01*
X026593Y043711D01*
X026583Y04366D01*
X026593Y043609D01*
X026604Y043594D01*
X026596Y043528D01*
X026593Y043526D01*
X026555Y04347D01*
X026552Y043454D01*
X026932D01*
X027311D01*
X027308Y04347D01*
X02729Y043498D01*
X027316Y043548D01*
X027694D01*
X028208Y043034D01*
Y042796D01*
X027581D01*
Y042223D01*
X028304D01*
X028795Y041731D01*
X028795Y041731D01*
X028774Y041682D01*
X028758Y041676D01*
X028734Y041666D01*
X028734Y041666D01*
X028734Y041666D01*
X028175Y041106D01*
X028165Y041082D01*
X028156Y04106D01*
Y038712D01*
X028106Y038691D01*
X028089Y038708D01*
X028066Y038748D01*
X028066D01*
X028066Y038748D01*
Y03895D01*
X027612D01*
X027157D01*
Y038898D01*
X027111Y038879D01*
X026364Y039626D01*
X026318Y039645D01*
X025784D01*
X025745Y039672D01*
X025745Y039695D01*
Y039959D01*
X024955D01*
Y039695D01*
X024955Y039672D01*
X024916Y039645D01*
X023007D01*
X021115Y041537D01*
X021115Y04209D01*
X021104Y042117D01*
X021096Y042136D01*
X020986Y042246D01*
X02094Y042265D01*
X020763D01*
X020754Y042314D01*
X020827Y042362D01*
X020875Y042435D01*
X020882Y04247D01*
X020457D01*
X020464Y042435D01*
X020512Y042362D01*
X020584Y042314D01*
X020576Y042265D01*
X02056D01*
X020514Y042246D01*
X020414Y042146D01*
X020395Y0421D01*
Y0382D01*
X020414Y038154D01*
X02046Y038135D01*
X023658D01*
X023704Y038154D01*
X024305Y038755D01*
X025838Y038755D01*
X026349Y038244D01*
X026395Y038225D01*
X027152D01*
X027196Y038212D01*
X027196Y038175D01*
Y038112D01*
X027075D01*
X027051Y038128D01*
X026982Y038142D01*
X026912Y038128D01*
X026853Y038088D01*
X026814Y038029D01*
X0268Y03796D01*
X026806Y037932D01*
X026759Y037913D01*
X026732Y037953D01*
X02666Y038001D01*
X026625Y038008D01*
Y037845D01*
X026805D01*
X026836Y037858D01*
X026853Y037832D01*
X026912Y037792D01*
X026982Y037778D01*
X027051Y037792D01*
X02711Y037832D01*
X027148Y037888D01*
X027196D01*
Y037788D01*
X028025D01*
X028025Y038192D01*
X028026Y038202D01*
X028036Y03823D01*
X028049Y038252D01*
X028106Y038309D01*
X028156Y038288D01*
Y037271D01*
X028068D01*
X028025Y037288D01*
X028025Y037321D01*
Y037712D01*
X027196D01*
Y037592D01*
X02708D01*
X02708Y037592D01*
X027037Y037584D01*
X027001Y037559D01*
X027001Y037559D01*
X026839Y037398D01*
X02682Y037402D01*
X026801Y037398D01*
X026657Y037542D01*
X026672Y037598D01*
X026732Y037638D01*
X02678Y03771D01*
X026787Y037745D01*
X026575D01*
Y037795D01*
X026525D01*
Y038008D01*
X02649Y038001D01*
X026418Y037953D01*
X026377Y037892D01*
X026322Y037877D01*
X025755Y038443D01*
X025719Y038467D01*
X025676Y038476D01*
X025666Y038525D01*
Y038631D01*
X025014D01*
Y038097D01*
X025666D01*
Y03815D01*
X025712Y038169D01*
X026642Y037239D01*
X026638Y03722D01*
X026652Y03715D01*
X026692Y037092D01*
X026751Y037052D01*
X02682Y037038D01*
X02689Y037052D01*
X026948Y037092D01*
X026988Y03715D01*
X027002Y03722D01*
X026998Y037239D01*
X027116Y037357D01*
X027172D01*
X027196Y037332D01*
X027196Y037288D01*
X027206Y037238D01*
X027151Y037183D01*
X027151Y037183D01*
X027151Y037183D01*
X027141Y03716D01*
X027132Y037137D01*
X027132Y037137D01*
X027132Y037137D01*
X027132Y036866D01*
X027143Y036839D01*
X027151Y03682D01*
X027209Y036762D01*
X027196Y036712D01*
X027178Y036663D01*
X026908D01*
X026815Y036755D01*
X026762Y036791D01*
X0267Y036803D01*
X025705D01*
Y036936D01*
X024995D01*
Y036803D01*
X024945Y036782D01*
X024888Y03682D01*
X024853Y036827D01*
Y036614D01*
Y036402D01*
X024888Y036409D01*
X024945Y036446D01*
X024995Y036425D01*
Y036344D01*
X025705D01*
Y036477D01*
X026632D01*
X026725Y036385D01*
X026778Y036349D01*
X02684Y036337D01*
X027196D01*
Y036288D01*
X028025D01*
Y036673D01*
X028071Y036723D01*
X02842Y036723D01*
X028466Y036742D01*
X028884Y03716D01*
X028903Y037206D01*
X028903Y040251D01*
X029526Y040874D01*
X029526D01*
X029526Y040874D01*
X029526Y040874D01*
X029533Y04089D01*
X029542Y040914D01*
X029591Y040935D01*
X029998Y040529D01*
X030067Y040482D01*
X030149Y040466D01*
X030851D01*
X031866Y039451D01*
Y037429D01*
X031882Y037348D01*
X031929Y037278D01*
X032358Y036849D01*
X032428Y036802D01*
X03251Y036786D01*
X033089D01*
X0331Y036788D01*
X033504D01*
Y037212D01*
X0331D01*
X033089Y037214D01*
X032598D01*
X032294Y037518D01*
Y03954D01*
X032278Y039622D01*
X032231Y039691D01*
X031091Y040831D01*
X031022Y040878D01*
X03094Y040894D01*
X030238D01*
X028955Y042177D01*
X028975Y042223D01*
X029059D01*
Y042796D01*
X028432D01*
Y04308D01*
X028432Y04308D01*
X028424Y043123D01*
X028399Y043159D01*
X028399Y043159D01*
X027819Y043739D01*
X027788Y04376D01*
X027786Y04378D01*
X027792Y043813D01*
X027828Y043837D01*
X028394Y044403D01*
X028394Y044403D01*
X028419Y044439D01*
X028427Y044482D01*
Y044644D01*
X029059D01*
Y045217D01*
X028534D01*
Y046877D01*
X02855Y046882D01*
X028656Y046938D01*
X028749Y047015D01*
X028825Y047107D01*
X028881Y047213D01*
X028916Y047328D01*
X028928Y047448D01*
Y047548D01*
X028916Y047668D01*
X028881Y047783D01*
X028825Y047889D01*
X028749Y047981D01*
X028656Y048058D01*
X02855Y048114D01*
X028435Y048149D01*
X028315Y048161D01*
D02*
G37*
G36*
X037845Y043913D02*
Y043751D01*
X038008D01*
X038001Y043786D01*
X037953Y043858D01*
X03788Y043906D01*
X037845Y043913D01*
D02*
G37*
G36*
X037745D02*
X03771Y043906D01*
X037638Y043858D01*
X03759Y043786D01*
X037583Y043751D01*
X037745D01*
Y043913D01*
D02*
G37*
G36*
X034302D02*
Y043751D01*
X034464D01*
X034457Y043786D01*
X034409Y043858D01*
X034337Y043906D01*
X034302Y043913D01*
D02*
G37*
G36*
X034202D02*
X034167Y043906D01*
X034095Y043858D01*
X034046Y043786D01*
X03404Y043751D01*
X034202D01*
Y043913D01*
D02*
G37*
G36*
X029578D02*
Y043751D01*
X02974D01*
X029733Y043786D01*
X029685Y043858D01*
X029613Y043906D01*
X029578Y043913D01*
D02*
G37*
G36*
X029478D02*
X029442Y043906D01*
X02937Y043858D01*
X029322Y043786D01*
X029315Y043751D01*
X029478D01*
Y043913D01*
D02*
G37*
G36*
X028396D02*
Y043751D01*
X028559D01*
X028552Y043786D01*
X028504Y043858D01*
X028432Y043906D01*
X028396Y043913D01*
D02*
G37*
G36*
X028296D02*
X028261Y043906D01*
X028189Y043858D01*
X028141Y043786D01*
X028134Y043751D01*
X028296D01*
Y043913D01*
D02*
G37*
G36*
X026034D02*
Y043751D01*
X026197D01*
X02619Y043786D01*
X026141Y043858D01*
X026069Y043906D01*
X026034Y043913D01*
D02*
G37*
G36*
X025934D02*
X025899Y043906D01*
X025827Y043858D01*
X025779Y043786D01*
X025772Y043751D01*
X025934D01*
Y043913D01*
D02*
G37*
G36*
X020029D02*
X019994Y043906D01*
X019921Y043858D01*
X019873Y043786D01*
X019866Y043751D01*
X020029D01*
Y043913D01*
D02*
G37*
G36*
X033024Y04876D02*
X0272D01*
X027137Y048747D01*
X027084Y048712D01*
X026025Y047652D01*
X025989Y047599D01*
X025977Y047537D01*
Y044598D01*
X025582Y044203D01*
X02497D01*
X024966Y044222D01*
X024937Y044265D01*
X024894Y044294D01*
X024844Y044304D01*
X024717D01*
X02469Y044323D01*
X024627Y044335D01*
X024565Y044323D01*
X024537Y044304D01*
X02441D01*
X02436Y044294D01*
X024317Y044265D01*
X024288Y044222D01*
X024285Y044203D01*
X023735D01*
Y044312D01*
X023025D01*
Y044203D01*
X02092D01*
X020858Y044191D01*
X020805Y044155D01*
X020348Y043698D01*
X020298Y043719D01*
X020284Y043786D01*
X020236Y043858D01*
X020164Y043906D01*
X020129Y043913D01*
Y043701D01*
X020079D01*
Y043651D01*
X019866D01*
X019873Y043616D01*
X019921Y043544D01*
X019994Y043495D01*
X020061Y043482D01*
X020081Y043432D01*
X019485Y042835D01*
X019449Y042782D01*
X019437Y04272D01*
Y03692D01*
X019449Y036858D01*
X019485Y036805D01*
X021957Y034332D01*
Y032783D01*
X021969Y03272D01*
X022005Y032668D01*
X022422Y03225D01*
X022434Y032232D01*
X022493Y032192D01*
X022563Y032178D01*
X022632Y032192D01*
X022691Y032232D01*
X022731Y03229D01*
X022744Y03236D01*
X022731Y032429D01*
X022691Y032488D01*
X022632Y032528D01*
X022599Y032534D01*
X022283Y03285D01*
Y033421D01*
X022333Y033431D01*
X022333Y033431D01*
X022406Y033336D01*
X022501Y033263D01*
X022611Y033217D01*
X022705Y033205D01*
Y033166D01*
X023505D01*
Y03366D01*
Y034154D01*
X022705D01*
Y034147D01*
X022689Y034142D01*
X022679Y034148D01*
X02265Y034183D01*
X022653Y034202D01*
X022441D01*
Y034252D01*
X022391D01*
Y034464D01*
X022356Y034457D01*
X022327Y034438D01*
X022271Y034461D01*
X022271Y034462D01*
X022235Y034515D01*
X019763Y036988D01*
Y042652D01*
X020988Y043877D01*
X021055D01*
X021082Y043827D01*
X021054Y043786D01*
X021047Y043751D01*
X021472D01*
X021465Y043786D01*
X021438Y043827D01*
X021465Y043877D01*
X022236D01*
X022263Y043827D01*
X022235Y043786D01*
X022229Y043751D01*
X022653D01*
X022646Y043786D01*
X022619Y043827D01*
X022646Y043877D01*
X023025D01*
Y04372D01*
X023735D01*
Y043877D01*
X024261D01*
X024296Y043832D01*
X024289Y043783D01*
X024288Y043782D01*
X024251Y043726D01*
X024247Y04371D01*
X024627D01*
X025007D01*
X025003Y043726D01*
X024966Y043782D01*
X024965Y043783D01*
X024958Y043832D01*
X024993Y043877D01*
X025649D01*
X025712Y043889D01*
X025765Y043925D01*
X026255Y044415D01*
X026291Y044468D01*
X026303Y044531D01*
Y047469D01*
X027267Y048433D01*
X032956D01*
X03414Y04725D01*
Y046722D01*
X034152Y04666D01*
X034187Y046607D01*
X036579Y044216D01*
X036564Y044168D01*
X036557Y044167D01*
X036504Y044131D01*
X036083Y043711D01*
X035972D01*
X035942Y043745D01*
X035938Y043793D01*
X035976Y043849D01*
X035979Y043865D01*
X035599D01*
X03522D01*
X035223Y043849D01*
X03526Y043793D01*
X035263Y043791D01*
X035271Y043726D01*
X035261Y04371D01*
X035251Y04366D01*
X035261Y043609D01*
X035289Y043566D01*
X035296Y043562D01*
Y043502D01*
X035289Y043497D01*
X035261Y043454D01*
X035251Y043404D01*
X035261Y043353D01*
X035289Y04331D01*
X035332Y043282D01*
X035383Y043272D01*
X035509D01*
X035537Y043253D01*
X035599Y043241D01*
X035662Y043253D01*
X03569Y043272D01*
X035816D01*
X035867Y043282D01*
X035909Y04331D01*
X035938Y043353D01*
X035944Y043384D01*
X036151D01*
X036213Y043397D01*
X036266Y043432D01*
X036608Y043774D01*
X036654Y043755D01*
Y04372D01*
X037365D01*
Y044312D01*
X036944D01*
X035461Y045795D01*
X035477Y045849D01*
X035518Y045858D01*
X03559Y045906D01*
X035639Y045978D01*
X035645Y046013D01*
X035433D01*
Y046063D01*
X035383D01*
Y046275D01*
X035348Y046268D01*
X035276Y04622D01*
X035228Y046148D01*
X035219Y046107D01*
X035165Y046091D01*
X034466Y04679D01*
Y047317D01*
X034454Y04738D01*
X034418Y047433D01*
X033139Y048712D01*
X033086Y048747D01*
X033024Y04876D01*
D02*
G37*
G36*
X038008Y043651D02*
X037845D01*
Y043488D01*
X03788Y043495D01*
X037953Y043544D01*
X038001Y043616D01*
X038008Y043651D01*
D02*
G37*
G36*
X037745D02*
X037583D01*
X03759Y043616D01*
X037638Y043544D01*
X03771Y043495D01*
X037745Y043488D01*
Y043651D01*
D02*
G37*
G36*
X034464D02*
X034302D01*
Y043488D01*
X034337Y043495D01*
X034409Y043544D01*
X034457Y043616D01*
X034464Y043651D01*
D02*
G37*
G36*
X034202D02*
X03404D01*
X034046Y043616D01*
X034095Y043544D01*
X034167Y043495D01*
X034202Y043488D01*
Y043651D01*
D02*
G37*
G36*
X02974D02*
X029578D01*
Y043488D01*
X029613Y043495D01*
X029685Y043544D01*
X029733Y043616D01*
X02974Y043651D01*
D02*
G37*
G36*
X029478D02*
X029315D01*
X029322Y043616D01*
X02937Y043544D01*
X029442Y043495D01*
X029478Y043488D01*
Y043651D01*
D02*
G37*
G36*
X028559D02*
X028396D01*
Y043488D01*
X028432Y043495D01*
X028504Y043544D01*
X028552Y043616D01*
X028559Y043651D01*
D02*
G37*
G36*
X028296D02*
X028134D01*
X028141Y043616D01*
X028189Y043544D01*
X028261Y043495D01*
X028296Y043488D01*
Y043651D01*
D02*
G37*
G36*
X026197D02*
X026034D01*
Y043488D01*
X026069Y043495D01*
X026141Y043544D01*
X02619Y043616D01*
X026197Y043651D01*
D02*
G37*
G36*
X025934D02*
X025772D01*
X025779Y043616D01*
X025827Y043544D01*
X025899Y043495D01*
X025934Y043488D01*
Y043651D01*
D02*
G37*
G36*
X022653D02*
X022491D01*
Y043488D01*
X022526Y043495D01*
X022598Y043544D01*
X022646Y043616D01*
X022653Y043651D01*
D02*
G37*
G36*
X022391D02*
X022229D01*
X022235Y043616D01*
X022284Y043544D01*
X022356Y043495D01*
X022391Y043488D01*
Y043651D01*
D02*
G37*
G36*
X021472D02*
X02131D01*
Y043488D01*
X021345Y043495D01*
X021417Y043544D01*
X021465Y043616D01*
X021472Y043651D01*
D02*
G37*
G36*
X02121D02*
X021047D01*
X021054Y043616D01*
X021103Y043544D01*
X021175Y043495D01*
X02121Y043488D01*
Y043651D01*
D02*
G37*
G36*
X030315Y048161D02*
X030196Y048149D01*
X030081Y048114D01*
X029975Y048058D01*
X029882Y047981D01*
X029805Y047889D01*
X029749Y047783D01*
X029714Y047668D01*
X029702Y047548D01*
Y047448D01*
X029714Y047328D01*
X029749Y047213D01*
X029805Y047107D01*
X029882Y047015D01*
X029975Y046938D01*
X030081Y046882D01*
X030101Y046876D01*
Y046452D01*
X030117Y04637D01*
X030164Y0463D01*
X031201Y045263D01*
X031182Y045217D01*
X031069D01*
Y044644D01*
X031671D01*
X031696Y044602D01*
X031704Y044559D01*
X031728Y044523D01*
X032415Y043836D01*
X032415Y043836D01*
X03245Y043813D01*
X032454Y043788D01*
X032455Y04378D01*
X032453Y043761D01*
X03242Y043739D01*
X03242Y043739D01*
X031728Y043047D01*
X031704Y043011D01*
X031696Y042968D01*
X031696Y042968D01*
Y042796D01*
X031069D01*
Y042223D01*
X031594D01*
Y041932D01*
X03161Y04185D01*
X031656Y041781D01*
X031841Y041596D01*
X031826Y041548D01*
X031805Y041544D01*
X031733Y041496D01*
X031684Y041424D01*
X031677Y041389D01*
X03189D01*
Y041339D01*
X03194D01*
Y041126D01*
X031975Y041133D01*
X032047Y041181D01*
X032095Y041253D01*
X0321Y041275D01*
X032147Y04129D01*
X034203Y039234D01*
X034189Y039186D01*
X034167Y039182D01*
X034095Y039134D01*
X034046Y039061D01*
X03404Y039026D01*
X034252D01*
Y038926D01*
X034031D01*
X033997Y038885D01*
X033606D01*
X033593Y038879D01*
X033543Y038913D01*
Y03895D01*
X033088D01*
X032634D01*
Y038748D01*
X032641D01*
X032675Y038712D01*
Y038687D01*
X032654Y038666D01*
X032635Y03862D01*
X032635Y0384D01*
X032654Y038354D01*
X032675Y038333D01*
Y038288D01*
X03272D01*
X032734Y038274D01*
X032763Y038262D01*
X032753Y038212D01*
X032675D01*
Y037788D01*
X033504D01*
Y037813D01*
X03355Y037832D01*
X033621Y037761D01*
X033621Y037761D01*
X033657Y037736D01*
X0337Y037728D01*
X0337Y037728D01*
X033822D01*
X033833Y037712D01*
X033892Y037672D01*
X033961Y037658D01*
X034031Y037672D01*
X034089Y037712D01*
X034129Y037771D01*
X034143Y03784D01*
X034129Y03791D01*
X034091Y037966D01*
X034094Y03798D01*
X034109Y038016D01*
X03415D01*
X034173Y038025D01*
X034196Y038035D01*
X034322Y03816D01*
X034332Y038184D01*
X034341Y038206D01*
X034341Y038696D01*
X034341Y038696D01*
X034341Y038696D01*
X034332Y038719D01*
X034336Y03876D01*
X034353Y038782D01*
X034376Y038797D01*
X034426Y03877D01*
Y037418D01*
X033722Y036714D01*
X033089D01*
X033079Y036712D01*
X032675D01*
Y036288D01*
X033079D01*
X033089Y036286D01*
X033811D01*
X033893Y036302D01*
X033943Y036336D01*
X033989Y036307D01*
X033989Y036287D01*
Y036112D01*
X033504D01*
Y036212D01*
X032675D01*
Y035788D01*
X033504D01*
Y035888D01*
X033989D01*
Y035676D01*
X034523D01*
Y036153D01*
X034671Y036301D01*
X034717Y036282D01*
Y036052D01*
X034974D01*
Y036367D01*
X034802D01*
X034783Y036414D01*
X034838Y036468D01*
X035585D01*
X035649Y036404D01*
X035645Y036385D01*
X035659Y036315D01*
X035698Y036256D01*
X035757Y036217D01*
X035827Y036203D01*
X035896Y036217D01*
X035955Y036256D01*
X035995Y036315D01*
X036008Y036385D01*
X035995Y036454D01*
X035955Y036513D01*
X035896Y036552D01*
X035827Y036566D01*
X035808Y036562D01*
X035711Y036659D01*
X035674Y036684D01*
X035631Y036692D01*
X035631Y036692D01*
X034791D01*
X034791Y036692D01*
X034748Y036684D01*
X034712Y036659D01*
X034712Y036659D01*
X03438Y036327D01*
X034031D01*
X034012Y036327D01*
X033991Y036377D01*
X034791Y037178D01*
X034838Y037247D01*
X034854Y037329D01*
Y0391D01*
X034838Y039182D01*
X034791Y039251D01*
X032938Y041105D01*
X03297Y041144D01*
X032986Y041133D01*
X033021Y041126D01*
Y041289D01*
X032858D01*
X032865Y041253D01*
X032876Y041237D01*
X032837Y041205D01*
X032022Y042021D01*
Y042223D01*
X032547D01*
Y042796D01*
X03192D01*
Y042921D01*
X032546Y043547D01*
X03291D01*
X032937Y043497D01*
X032918Y04347D01*
X032915Y043454D01*
X033295D01*
X033674D01*
X033671Y04347D01*
X033633Y043526D01*
X03363Y043528D01*
X033623Y043593D01*
X033633Y043609D01*
X033643Y04366D01*
X033633Y04371D01*
X033605Y043753D01*
X033598Y043757D01*
Y043818D01*
X033605Y043822D01*
X033633Y043865D01*
X033643Y043915D01*
X033633Y043966D01*
X033623Y043982D01*
X03363Y044047D01*
X033633Y044049D01*
X033671Y044105D01*
X033674Y044121D01*
X033295D01*
X032915D01*
X032918Y044105D01*
X032937Y044078D01*
X03291Y044028D01*
X032541D01*
X03197Y044598D01*
X03199Y044644D01*
X032547D01*
Y045217D01*
X031852D01*
X030529Y04654D01*
Y046876D01*
X03055Y046882D01*
X030656Y046938D01*
X030749Y047015D01*
X030825Y047107D01*
X030881Y047213D01*
X030916Y047328D01*
X030928Y047448D01*
Y047548D01*
X030916Y047668D01*
X030881Y047783D01*
X030825Y047889D01*
X030749Y047981D01*
X030656Y048058D01*
X03055Y048114D01*
X030435Y048149D01*
X030315Y048161D01*
D02*
G37*
G36*
X037405Y043643D02*
X037059D01*
Y043357D01*
X037405D01*
Y043643D01*
D02*
G37*
G36*
X036959D02*
X036614D01*
Y043357D01*
X036959D01*
Y043643D01*
D02*
G37*
G36*
X023775D02*
X02343D01*
Y043357D01*
X023775D01*
Y043643D01*
D02*
G37*
G36*
X02333D02*
X022985D01*
Y043357D01*
X02333D01*
Y043643D01*
D02*
G37*
G36*
X027311Y043354D02*
X026982D01*
Y043231D01*
X027149D01*
X027215Y043244D01*
X027271Y043282D01*
X027308Y043338D01*
X027311Y043354D01*
D02*
G37*
G36*
X026882D02*
X026552D01*
X026555Y043338D01*
X026593Y043282D01*
X026649Y043244D01*
X026715Y043231D01*
X026882D01*
Y043354D01*
D02*
G37*
G36*
X033674Y043354D02*
X033345D01*
Y043231D01*
X033511D01*
X033577Y043244D01*
X033633Y043281D01*
X033671Y043338D01*
X033674Y043354D01*
D02*
G37*
G36*
X033245D02*
X032915D01*
X032918Y043338D01*
X032956Y043281D01*
X033012Y043244D01*
X033078Y043231D01*
X033245D01*
Y043354D01*
D02*
G37*
G36*
X037405Y043257D02*
X037059D01*
Y042971D01*
X037405D01*
Y043257D01*
D02*
G37*
G36*
X036959D02*
X036614D01*
Y042971D01*
X036959D01*
Y043257D01*
D02*
G37*
G36*
X023775D02*
X02343D01*
Y042971D01*
X023775D01*
Y043257D01*
D02*
G37*
G36*
X02333D02*
X022985D01*
Y042971D01*
X02333D01*
Y043257D01*
D02*
G37*
G36*
X038436Y042732D02*
Y04257D01*
X038598D01*
X038591Y042605D01*
X038543Y042677D01*
X038471Y042725D01*
X038436Y042732D01*
D02*
G37*
G36*
X038336D02*
X038301Y042725D01*
X038229Y042677D01*
X03818Y042605D01*
X038173Y04257D01*
X038336D01*
Y042732D01*
D02*
G37*
G36*
X037255D02*
Y04257D01*
X037417D01*
X03741Y042605D01*
X037362Y042677D01*
X03729Y042725D01*
X037255Y042732D01*
D02*
G37*
G36*
X037155D02*
X03712Y042725D01*
X037047Y042677D01*
X036999Y042605D01*
X036992Y04257D01*
X037155D01*
Y042732D01*
D02*
G37*
G36*
X036074D02*
Y04257D01*
X036236D01*
X036229Y042605D01*
X036181Y042677D01*
X036109Y042725D01*
X036074Y042732D01*
D02*
G37*
G36*
X035974D02*
X035939Y042725D01*
X035866Y042677D01*
X035818Y042605D01*
X035811Y04257D01*
X035974D01*
Y042732D01*
D02*
G37*
G36*
X033711D02*
Y04257D01*
X033874D01*
X033867Y042605D01*
X033819Y042677D01*
X033747Y042725D01*
X033711Y042732D01*
D02*
G37*
G36*
X033611D02*
X033576Y042725D01*
X033504Y042677D01*
X033456Y042605D01*
X033449Y04257D01*
X033611D01*
Y042732D01*
D02*
G37*
G36*
X026625D02*
Y04257D01*
X026787D01*
X02678Y042605D01*
X026732Y042677D01*
X02666Y042725D01*
X026625Y042732D01*
D02*
G37*
G36*
X026525D02*
X02649Y042725D01*
X026418Y042677D01*
X026369Y042605D01*
X026362Y04257D01*
X026525D01*
Y042732D01*
D02*
G37*
G36*
X025444D02*
Y04257D01*
X025606D01*
X025599Y042605D01*
X025551Y042677D01*
X025479Y042725D01*
X025444Y042732D01*
D02*
G37*
G36*
X025344D02*
X025309Y042725D01*
X025236Y042677D01*
X025188Y042605D01*
X025181Y04257D01*
X025344D01*
Y042732D01*
D02*
G37*
G36*
X024263D02*
Y04257D01*
X024425D01*
X024418Y042605D01*
X02437Y042677D01*
X024298Y042725D01*
X024263Y042732D01*
D02*
G37*
G36*
X024163D02*
X024127Y042725D01*
X024055Y042677D01*
X024007Y042605D01*
X024Y04257D01*
X024163D01*
Y042732D01*
D02*
G37*
G36*
X023081D02*
Y04257D01*
X023244D01*
X023237Y042605D01*
X023189Y042677D01*
X023117Y042725D01*
X023081Y042732D01*
D02*
G37*
G36*
X022981D02*
X022946Y042725D01*
X022874Y042677D01*
X022826Y042605D01*
X022819Y04257D01*
X022981D01*
Y042732D01*
D02*
G37*
G36*
X0219D02*
Y04257D01*
X022063D01*
X022056Y042605D01*
X022008Y042677D01*
X021935Y042725D01*
X0219Y042732D01*
D02*
G37*
G36*
X0218D02*
X021765Y042725D01*
X021693Y042677D01*
X021645Y042605D01*
X021638Y04257D01*
X0218D01*
Y042732D01*
D02*
G37*
G36*
X020719D02*
Y04257D01*
X020882D01*
X020875Y042605D01*
X020827Y042677D01*
X020754Y042725D01*
X020719Y042732D01*
D02*
G37*
G36*
X020619D02*
X020584Y042725D01*
X020512Y042677D01*
X020464Y042605D01*
X020457Y04257D01*
X020619D01*
Y042732D01*
D02*
G37*
G36*
X038598Y04247D02*
X038436D01*
Y042307D01*
X038471Y042314D01*
X038543Y042362D01*
X038591Y042435D01*
X038598Y04247D01*
D02*
G37*
G36*
X038336D02*
X038173D01*
X03818Y042435D01*
X038229Y042362D01*
X038301Y042314D01*
X038336Y042307D01*
Y04247D01*
D02*
G37*
G36*
X036236D02*
X036074D01*
Y042307D01*
X036109Y042314D01*
X036181Y042362D01*
X036229Y042435D01*
X036236Y04247D01*
D02*
G37*
G36*
X035974D02*
X035811D01*
X035818Y042435D01*
X035866Y042362D01*
X035939Y042314D01*
X035974Y042307D01*
Y04247D01*
D02*
G37*
G36*
X033874D02*
X033711D01*
Y042307D01*
X033747Y042314D01*
X033819Y042362D01*
X033867Y042435D01*
X033874Y04247D01*
D02*
G37*
G36*
X033611D02*
X033449D01*
X033456Y042435D01*
X033504Y042362D01*
X033576Y042314D01*
X033611Y042307D01*
Y04247D01*
D02*
G37*
G36*
X024425D02*
X024263D01*
Y042307D01*
X024298Y042314D01*
X02437Y042362D01*
X024418Y042435D01*
X024425Y04247D01*
D02*
G37*
G36*
X024163D02*
X024D01*
X024007Y042435D01*
X024055Y042362D01*
X024127Y042314D01*
X024163Y042307D01*
Y04247D01*
D02*
G37*
G36*
X023244D02*
X023081D01*
Y042307D01*
X023117Y042314D01*
X023189Y042362D01*
X023237Y042435D01*
X023244Y04247D01*
D02*
G37*
G36*
X022981D02*
X022819D01*
X022826Y042435D01*
X022874Y042362D01*
X022946Y042314D01*
X022981Y042307D01*
Y04247D01*
D02*
G37*
G36*
X022063D02*
X0219D01*
Y042307D01*
X021935Y042314D01*
X022008Y042362D01*
X022056Y042435D01*
X022063Y04247D01*
D02*
G37*
G36*
X0218D02*
X021638D01*
X021645Y042435D01*
X021693Y042362D01*
X021765Y042314D01*
X0218Y042307D01*
Y04247D01*
D02*
G37*
G36*
X037417D02*
X036992D01*
X036999Y042435D01*
X037011Y042417D01*
X036988Y042373D01*
X036654D01*
Y042198D01*
X035961D01*
X035961Y042198D01*
X035918Y042189D01*
X035881Y042165D01*
X03525Y041534D01*
X0352Y041539D01*
Y04161D01*
X034549D01*
Y041076D01*
X034762D01*
Y04098D01*
X034762Y04098D01*
X034771Y040937D01*
X034795Y040901D01*
X037228Y038468D01*
Y034874D01*
X035295Y032941D01*
X035276Y032945D01*
X035207Y032931D01*
X035148Y032892D01*
X035108Y032833D01*
X035095Y032764D01*
X035108Y032694D01*
X035148Y032635D01*
X035207Y032596D01*
X035276Y032582D01*
X035346Y032596D01*
X035405Y032635D01*
X035444Y032694D01*
X035458Y032764D01*
X035454Y032783D01*
X037419Y034748D01*
X037419Y034748D01*
X037444Y034784D01*
X037452Y034827D01*
X037452Y034827D01*
Y038514D01*
X037452Y038514D01*
X037444Y038557D01*
X037419Y038594D01*
X037419Y038594D01*
X034987Y041026D01*
X034987Y041076D01*
X0352D01*
Y041306D01*
X035293D01*
X035293Y041306D01*
X035336Y041314D01*
X035372Y041339D01*
X036007Y041973D01*
X036654D01*
Y04178D01*
X037365D01*
Y042367D01*
X03741Y042435D01*
X037417Y04247D01*
D02*
G37*
G36*
X026787D02*
X026362D01*
X026369Y042435D01*
X026418Y042362D01*
X026485Y042318D01*
Y042189D01*
X026272D01*
X026272Y042189D01*
X026229Y04218D01*
X026193Y042156D01*
X026193Y042156D01*
X025646Y04161D01*
X025048D01*
Y041454D01*
X024998Y041439D01*
X02496Y041496D01*
X024888Y041544D01*
X024853Y041551D01*
Y041339D01*
Y041126D01*
X024888Y041133D01*
X02496Y041181D01*
X024998Y041238D01*
X025048Y041223D01*
Y041176D01*
X024239Y040366D01*
X02421Y040372D01*
X024141Y040358D01*
X024082Y040318D01*
X024042Y040259D01*
X024028Y04019D01*
X024042Y040121D01*
X024082Y040062D01*
X024141Y040022D01*
X02421Y040008D01*
X024279Y040022D01*
X024338Y040062D01*
X024378Y040121D01*
X024392Y04019D01*
X02439Y0402D01*
X025266Y041076D01*
X0257D01*
Y041313D01*
X025714Y041322D01*
X02577Y041298D01*
X025779Y041253D01*
X025827Y041181D01*
X025899Y041133D01*
X025934Y041126D01*
Y041339D01*
X025984D01*
Y041389D01*
X026197D01*
X02619Y041424D01*
X026141Y041496D01*
X026069Y041544D01*
X025985Y041561D01*
X025982Y041566D01*
X025961Y041607D01*
X026318Y041964D01*
X026485D01*
Y04178D01*
X027195D01*
Y042373D01*
X026792D01*
X026768Y042417D01*
X02678Y042435D01*
X026787Y04247D01*
D02*
G37*
G36*
X023788Y042206D02*
X023502D01*
Y0419D01*
X023788D01*
Y042206D01*
D02*
G37*
G36*
X023402D02*
X023116D01*
Y0419D01*
X023402D01*
Y042206D01*
D02*
G37*
G36*
X025007Y04361D02*
X024627D01*
X024247D01*
X024251Y043594D01*
X024288Y043538D01*
X024291Y043536D01*
X024299Y04347D01*
X024288Y043455D01*
X024278Y043404D01*
X024288Y043354D01*
X024317Y043311D01*
X02436Y043282D01*
X02441Y043272D01*
X024515D01*
Y042643D01*
X024515Y042643D01*
X024523Y0426D01*
X024548Y042564D01*
X025048Y042063D01*
Y041844D01*
X0257D01*
Y042377D01*
X025614D01*
X02559Y042421D01*
X025599Y042435D01*
X025606Y04247D01*
X025181D01*
X025188Y042435D01*
X025197Y042421D01*
X025174Y042377D01*
X025052D01*
X024739Y04269D01*
Y043272D01*
X024844D01*
X024894Y043282D01*
X024937Y043311D01*
X024966Y043354D01*
X024976Y043404D01*
X024966Y043455D01*
X024955Y04347D01*
X024963Y043536D01*
X024966Y043538D01*
X025003Y043594D01*
X025007Y04361D01*
D02*
G37*
G36*
X037405Y041704D02*
X037059D01*
Y041418D01*
X037405D01*
Y041704D01*
D02*
G37*
G36*
X036959D02*
X036614D01*
Y041418D01*
X036959D01*
Y041704D01*
D02*
G37*
G36*
X027235D02*
X02689D01*
Y041418D01*
X027235D01*
Y041704D01*
D02*
G37*
G36*
X02679D02*
X026445D01*
Y041418D01*
X02679D01*
Y041704D01*
D02*
G37*
G36*
X037845Y041551D02*
Y041389D01*
X038008D01*
X038001Y041424D01*
X037953Y041496D01*
X03788Y041544D01*
X037845Y041551D01*
D02*
G37*
G36*
X037745D02*
X03771Y041544D01*
X037638Y041496D01*
X03759Y041424D01*
X037583Y041389D01*
X037745D01*
Y041551D01*
D02*
G37*
G36*
X034302D02*
Y041389D01*
X034464D01*
X034457Y041424D01*
X034409Y041496D01*
X034337Y041544D01*
X034302Y041551D01*
D02*
G37*
G36*
X034202D02*
X034167Y041544D01*
X034095Y041496D01*
X034046Y041424D01*
X03404Y041389D01*
X034202D01*
Y041551D01*
D02*
G37*
G36*
X033121D02*
Y041389D01*
X033283D01*
X033276Y041424D01*
X033228Y041496D01*
X033156Y041544D01*
X033121Y041551D01*
D02*
G37*
G36*
X033021D02*
X032986Y041544D01*
X032914Y041496D01*
X032865Y041424D01*
X032858Y041389D01*
X033021D01*
Y041551D01*
D02*
G37*
G36*
X030759D02*
Y041389D01*
X030921D01*
X030914Y041424D01*
X030866Y041496D01*
X030794Y041544D01*
X030759Y041551D01*
D02*
G37*
G36*
X030659D02*
X030624Y041544D01*
X030551Y041496D01*
X030503Y041424D01*
X030496Y041389D01*
X030659D01*
Y041551D01*
D02*
G37*
G36*
X024753D02*
X024718Y041544D01*
X024646Y041496D01*
X024598Y041424D01*
X024591Y041389D01*
X024753D01*
Y041551D01*
D02*
G37*
G36*
X023788Y0418D02*
X023452D01*
X023116D01*
Y041494D01*
X023411D01*
X023434Y04145D01*
X023417Y041424D01*
X02341Y041389D01*
X023834D01*
X023827Y041424D01*
X023809Y041452D01*
X023788Y041494D01*
X023788D01*
X023788Y041494D01*
Y0418D01*
D02*
G37*
G36*
X021787Y042206D02*
X021253D01*
Y041554D01*
X021787D01*
Y04161D01*
X022388D01*
Y04155D01*
X022356Y041544D01*
X022284Y041496D01*
X022235Y041424D01*
X022229Y041389D01*
X022653D01*
X022646Y041424D01*
X022606Y041484D01*
X022624Y041534D01*
X022981D01*
Y042166D01*
X022388D01*
Y04209D01*
X021787D01*
Y042206D01*
D02*
G37*
G36*
X020129Y041551D02*
Y041389D01*
X020291D01*
X020284Y041424D01*
X020236Y041496D01*
X020164Y041544D01*
X020129Y041551D01*
D02*
G37*
G36*
X020029D02*
X019994Y041544D01*
X019921Y041496D01*
X019873Y041424D01*
X019866Y041389D01*
X020029D01*
Y041551D01*
D02*
G37*
G36*
X038008Y041289D02*
X037845D01*
Y041126D01*
X03788Y041133D01*
X037953Y041181D01*
X038001Y041253D01*
X038008Y041289D01*
D02*
G37*
G36*
X037745D02*
X037583D01*
X03759Y041253D01*
X037638Y041181D01*
X03771Y041133D01*
X037745Y041126D01*
Y041289D01*
D02*
G37*
G36*
X034464D02*
X034302D01*
Y041126D01*
X034337Y041133D01*
X034409Y041181D01*
X034457Y041253D01*
X034464Y041289D01*
D02*
G37*
G36*
X034202D02*
X03404D01*
X034046Y041253D01*
X034095Y041181D01*
X034167Y041133D01*
X034202Y041126D01*
Y041289D01*
D02*
G37*
G36*
X033283D02*
X033121D01*
Y041126D01*
X033156Y041133D01*
X033228Y041181D01*
X033276Y041253D01*
X033283Y041289D01*
D02*
G37*
G36*
X03184D02*
X031677D01*
X031684Y041253D01*
X031733Y041181D01*
X031805Y041133D01*
X03184Y041126D01*
Y041289D01*
D02*
G37*
G36*
X030921D02*
X030759D01*
Y041126D01*
X030794Y041133D01*
X030866Y041181D01*
X030914Y041253D01*
X030921Y041289D01*
D02*
G37*
G36*
X030659D02*
X030496D01*
X030503Y041253D01*
X030551Y041181D01*
X030624Y041133D01*
X030659Y041126D01*
Y041289D01*
D02*
G37*
G36*
X026197D02*
X026034D01*
Y041126D01*
X026069Y041133D01*
X026141Y041181D01*
X02619Y041253D01*
X026197Y041289D01*
D02*
G37*
G36*
X024753D02*
X024591D01*
X024598Y041253D01*
X024646Y041181D01*
X024718Y041133D01*
X024753Y041126D01*
Y041289D01*
D02*
G37*
G36*
X023834D02*
X023672D01*
Y041126D01*
X023707Y041133D01*
X023779Y041181D01*
X023827Y041253D01*
X023834Y041289D01*
D02*
G37*
G36*
X023572D02*
X02341D01*
X023417Y041253D01*
X023465Y041181D01*
X023537Y041133D01*
X023572Y041126D01*
Y041289D01*
D02*
G37*
G36*
X022653D02*
X022491D01*
Y041126D01*
X022526Y041133D01*
X022598Y041181D01*
X022646Y041253D01*
X022653Y041289D01*
D02*
G37*
G36*
X022391D02*
X022229D01*
X022235Y041253D01*
X022284Y041181D01*
X022356Y041133D01*
X022391Y041126D01*
Y041289D01*
D02*
G37*
G36*
X020291D02*
X020129D01*
Y041126D01*
X020164Y041133D01*
X020236Y041181D01*
X020284Y041253D01*
X020291Y041289D01*
D02*
G37*
G36*
X020029D02*
X019866D01*
X019873Y041253D01*
X019921Y041181D01*
X019994Y041133D01*
X020029Y041126D01*
Y041289D01*
D02*
G37*
G36*
X037405Y041318D02*
X037059D01*
Y041032D01*
X037405D01*
Y041318D01*
D02*
G37*
G36*
X036959D02*
X036614D01*
Y041032D01*
X036959D01*
Y041318D01*
D02*
G37*
G36*
X027235D02*
X02689D01*
Y041032D01*
X027235D01*
Y041318D01*
D02*
G37*
G36*
X02679D02*
X026445D01*
Y041032D01*
X02679D01*
Y041318D01*
D02*
G37*
G36*
X038436Y04037D02*
Y040207D01*
X038598D01*
X038591Y040243D01*
X038543Y040315D01*
X038471Y040363D01*
X038436Y04037D01*
D02*
G37*
G36*
X038336D02*
X038301Y040363D01*
X038229Y040315D01*
X03818Y040243D01*
X038173Y040207D01*
X038336D01*
Y04037D01*
D02*
G37*
G36*
X037255D02*
Y040207D01*
X037417D01*
X03741Y040243D01*
X037362Y040315D01*
X03729Y040363D01*
X037255Y04037D01*
D02*
G37*
G36*
X037155D02*
X03712Y040363D01*
X037047Y040315D01*
X036999Y040243D01*
X036992Y040207D01*
X037155D01*
Y04037D01*
D02*
G37*
G36*
X034893D02*
Y040207D01*
X035055D01*
X035048Y040243D01*
X035Y040315D01*
X034928Y040363D01*
X034893Y04037D01*
D02*
G37*
G36*
X034793D02*
X034757Y040363D01*
X034685Y040315D01*
X034637Y040243D01*
X03463Y040207D01*
X034793D01*
Y04037D01*
D02*
G37*
G36*
X03253D02*
Y040207D01*
X032693D01*
X032686Y040243D01*
X032638Y040315D01*
X032565Y040363D01*
X03253Y04037D01*
D02*
G37*
G36*
X03243D02*
X032395Y040363D01*
X032323Y040315D01*
X032275Y040243D01*
X032268Y040207D01*
X03243D01*
Y04037D01*
D02*
G37*
G36*
X030168D02*
Y040207D01*
X030331D01*
X030324Y040243D01*
X030275Y040315D01*
X030203Y040363D01*
X030168Y04037D01*
D02*
G37*
G36*
X030068D02*
X030033Y040363D01*
X029961Y040315D01*
X029913Y040243D01*
X029906Y040207D01*
X030068D01*
Y04037D01*
D02*
G37*
G36*
X027806D02*
Y040207D01*
X027968D01*
X027961Y040243D01*
X027913Y040315D01*
X027841Y040363D01*
X027806Y04037D01*
D02*
G37*
G36*
X027706D02*
X027671Y040363D01*
X027599Y040315D01*
X02755Y040243D01*
X027543Y040207D01*
X027706D01*
Y04037D01*
D02*
G37*
G36*
X026625D02*
Y040207D01*
X026787D01*
X02678Y040243D01*
X026732Y040315D01*
X02666Y040363D01*
X026625Y04037D01*
D02*
G37*
G36*
X026525D02*
X02649Y040363D01*
X026418Y040315D01*
X026369Y040243D01*
X026362Y040207D01*
X026525D01*
Y04037D01*
D02*
G37*
G36*
X023081D02*
Y040207D01*
X023244D01*
X023237Y040243D01*
X023189Y040315D01*
X023117Y040363D01*
X023081Y04037D01*
D02*
G37*
G36*
X022981D02*
X022946Y040363D01*
X022874Y040315D01*
X022826Y040243D01*
X022819Y040207D01*
X022981D01*
Y04037D01*
D02*
G37*
G36*
X025745Y040345D02*
X0254D01*
Y040059D01*
X025745D01*
Y040345D01*
D02*
G37*
G36*
X0253D02*
X024955D01*
Y040059D01*
X0253D01*
Y040345D01*
D02*
G37*
G36*
X038598Y040107D02*
X038436D01*
Y039945D01*
X038471Y039952D01*
X038543Y04D01*
X038591Y040072D01*
X038598Y040107D01*
D02*
G37*
G36*
X038336D02*
X038173D01*
X03818Y040072D01*
X038229Y04D01*
X038301Y039952D01*
X038336Y039945D01*
Y040107D01*
D02*
G37*
G36*
X037417D02*
X037255D01*
Y039945D01*
X03729Y039952D01*
X037362Y04D01*
X03741Y040072D01*
X037417Y040107D01*
D02*
G37*
G36*
X037155D02*
X036992D01*
X036999Y040072D01*
X037047Y04D01*
X03712Y039952D01*
X037155Y039945D01*
Y040107D01*
D02*
G37*
G36*
X035055D02*
X034893D01*
Y039945D01*
X034928Y039952D01*
X035Y04D01*
X035048Y040072D01*
X035055Y040107D01*
D02*
G37*
G36*
X034793D02*
X03463D01*
X034637Y040072D01*
X034685Y04D01*
X034757Y039952D01*
X034793Y039945D01*
Y040107D01*
D02*
G37*
G36*
X032693D02*
X03253D01*
Y039945D01*
X032565Y039952D01*
X032638Y04D01*
X032686Y040072D01*
X032693Y040107D01*
D02*
G37*
G36*
X03243D02*
X032268D01*
X032275Y040072D01*
X032323Y04D01*
X032395Y039952D01*
X03243Y039945D01*
Y040107D01*
D02*
G37*
G36*
X027968D02*
X027806D01*
Y039945D01*
X027841Y039952D01*
X027913Y04D01*
X027961Y040072D01*
X027968Y040107D01*
D02*
G37*
G36*
X027706D02*
X027543D01*
X02755Y040072D01*
X027599Y04D01*
X027671Y039952D01*
X027706Y039945D01*
Y040107D01*
D02*
G37*
G36*
X026787D02*
X026625D01*
Y039945D01*
X02666Y039952D01*
X026732Y04D01*
X02678Y040072D01*
X026787Y040107D01*
D02*
G37*
G36*
X026525D02*
X026362D01*
X026369Y040072D01*
X026418Y04D01*
X02649Y039952D01*
X026525Y039945D01*
Y040107D01*
D02*
G37*
G36*
X023244D02*
X023081D01*
Y039945D01*
X023117Y039952D01*
X023189Y04D01*
X023237Y040072D01*
X023244Y040107D01*
D02*
G37*
G36*
X022981D02*
X022819D01*
X022826Y040072D01*
X022874Y04D01*
X022946Y039952D01*
X022981Y039945D01*
Y040107D01*
D02*
G37*
G36*
X033543Y039252D02*
X033138D01*
Y03905D01*
X033543D01*
Y039252D01*
D02*
G37*
G36*
X028066Y039252D02*
X027662D01*
Y03905D01*
X028066D01*
Y039252D01*
D02*
G37*
G36*
X033038Y039252D02*
X032634D01*
Y03905D01*
X033038D01*
Y039252D01*
D02*
G37*
G36*
X027562Y039252D02*
X027157D01*
Y03905D01*
X027562D01*
Y039252D01*
D02*
G37*
G36*
X037845Y039189D02*
Y039026D01*
X038008D01*
X038001Y039061D01*
X037953Y039134D01*
X03788Y039182D01*
X037845Y039189D01*
D02*
G37*
G36*
X037745D02*
X03771Y039182D01*
X037638Y039134D01*
X03759Y039061D01*
X037583Y039026D01*
X037745D01*
Y039189D01*
D02*
G37*
G36*
X035483D02*
Y039026D01*
X035645D01*
X035639Y039061D01*
X03559Y039134D01*
X035518Y039182D01*
X035483Y039189D01*
D02*
G37*
G36*
X035383D02*
X035348Y039182D01*
X035276Y039134D01*
X035228Y039061D01*
X035221Y039026D01*
X035383D01*
Y039189D01*
D02*
G37*
G36*
X020129D02*
Y039026D01*
X020291D01*
X020284Y039061D01*
X020236Y039134D01*
X020164Y039182D01*
X020129Y039189D01*
D02*
G37*
G36*
X020029D02*
X019994Y039182D01*
X019921Y039134D01*
X019873Y039061D01*
X019866Y039026D01*
X020029D01*
Y039189D01*
D02*
G37*
G36*
X038008Y038926D02*
X037845D01*
Y038764D01*
X03788Y038771D01*
X037953Y038819D01*
X038001Y038891D01*
X038008Y038926D01*
D02*
G37*
G36*
X037745D02*
X037583D01*
X03759Y038891D01*
X037638Y038819D01*
X03771Y038771D01*
X037745Y038764D01*
Y038926D01*
D02*
G37*
G36*
X035645D02*
X035483D01*
Y038764D01*
X035518Y038771D01*
X03559Y038819D01*
X035639Y038891D01*
X035645Y038926D01*
D02*
G37*
G36*
X035383D02*
X035221D01*
X035228Y038891D01*
X035276Y038819D01*
X035348Y038771D01*
X035383Y038764D01*
Y038926D01*
D02*
G37*
G36*
X020291D02*
X020129D01*
Y038764D01*
X020164Y038771D01*
X020236Y038819D01*
X020284Y038891D01*
X020291Y038926D01*
D02*
G37*
G36*
X020029D02*
X019866D01*
X019873Y038891D01*
X019921Y038819D01*
X019994Y038771D01*
X020029Y038764D01*
Y038926D01*
D02*
G37*
G36*
X038436Y038008D02*
Y037845D01*
X038598D01*
X038591Y03788D01*
X038543Y037953D01*
X038471Y038001D01*
X038436Y038008D01*
D02*
G37*
G36*
X038336D02*
X038301Y038001D01*
X038229Y037953D01*
X03818Y03788D01*
X038173Y037845D01*
X038336D01*
Y038008D01*
D02*
G37*
G36*
X036074D02*
Y037845D01*
X036236D01*
X036229Y03788D01*
X036181Y037953D01*
X036109Y038001D01*
X036074Y038008D01*
D02*
G37*
G36*
X035974D02*
X035939Y038001D01*
X035866Y037953D01*
X035818Y03788D01*
X035811Y037845D01*
X035974D01*
Y038008D01*
D02*
G37*
G36*
X023081D02*
Y037845D01*
X023244D01*
X023237Y03788D01*
X023189Y037953D01*
X023117Y038001D01*
X023081Y038008D01*
D02*
G37*
G36*
X022981D02*
X022946Y038001D01*
X022874Y037953D01*
X022826Y03788D01*
X022819Y037845D01*
X022981D01*
Y038008D01*
D02*
G37*
G36*
X025706Y037903D02*
X02539D01*
Y037646D01*
X025706D01*
Y037903D01*
D02*
G37*
G36*
X02529D02*
X024974D01*
Y037646D01*
X02529D01*
Y037903D01*
D02*
G37*
G36*
X038598Y037745D02*
X038436D01*
Y037583D01*
X038471Y03759D01*
X038543Y037638D01*
X038591Y03771D01*
X038598Y037745D01*
D02*
G37*
G36*
X038336D02*
X038173D01*
X03818Y03771D01*
X038229Y037638D01*
X038301Y03759D01*
X038336Y037583D01*
Y037745D01*
D02*
G37*
G36*
X036236D02*
X036074D01*
Y037583D01*
X036109Y03759D01*
X036181Y037638D01*
X036229Y03771D01*
X036236Y037745D01*
D02*
G37*
G36*
X035974D02*
X035811D01*
X035818Y03771D01*
X035866Y037638D01*
X035939Y03759D01*
X035974Y037583D01*
Y037745D01*
D02*
G37*
G36*
X023244D02*
X023081D01*
Y037583D01*
X023117Y03759D01*
X023189Y037638D01*
X023237Y03771D01*
X023244Y037745D01*
D02*
G37*
G36*
X022981D02*
X022819D01*
X022826Y03771D01*
X022874Y037638D01*
X022946Y03759D01*
X022981Y037583D01*
Y037745D01*
D02*
G37*
G36*
X033504Y037712D02*
X032675D01*
Y037288D01*
X033504D01*
Y037368D01*
X034018D01*
X034029Y037352D01*
X034088Y037312D01*
X034157Y037298D01*
X034227Y037312D01*
X034286Y037352D01*
X034325Y037411D01*
X034339Y03748D01*
X034325Y03755D01*
X034286Y037608D01*
X034227Y037648D01*
X034157Y037662D01*
X034088Y037648D01*
X034029Y037608D01*
X034018Y037592D01*
X033504D01*
Y037712D01*
D02*
G37*
G36*
X025706Y037546D02*
X02539D01*
Y037289D01*
X025706D01*
Y037546D01*
D02*
G37*
G36*
X02529D02*
X024974D01*
Y037289D01*
X02529D01*
Y037546D01*
D02*
G37*
G36*
X0222Y037753D02*
D01*
Y03715D01*
X022848D01*
X022841Y037227D01*
X022803Y03735D01*
X022743Y037463D01*
X022662Y037562D01*
X022563Y037643D01*
X02245Y037703D01*
X022327Y037741D01*
X0222Y037753D01*
D02*
G37*
G36*
X0221D02*
X021973Y037741D01*
X02185Y037703D01*
X021737Y037643D01*
X021638Y037562D01*
X021557Y037463D01*
X021497Y03735D01*
X021459Y037227D01*
X021452Y03715D01*
X0221D01*
Y037753D01*
D02*
G37*
G36*
X037845Y036827D02*
Y036664D01*
X038008D01*
X038001Y036699D01*
X037953Y036771D01*
X03788Y03682D01*
X037845Y036827D01*
D02*
G37*
G36*
X037745D02*
X03771Y03682D01*
X037638Y036771D01*
X03759Y036699D01*
X037583Y036664D01*
X037745D01*
Y036827D01*
D02*
G37*
G36*
X03194D02*
Y036664D01*
X032102D01*
X032095Y036699D01*
X032047Y036771D01*
X031975Y03682D01*
X03194Y036827D01*
D02*
G37*
G36*
X024753D02*
X024718Y03682D01*
X024646Y036771D01*
X024598Y036699D01*
X024591Y036664D01*
X024753D01*
Y036827D01*
D02*
G37*
G36*
X023672D02*
Y036664D01*
X023834D01*
X023827Y036699D01*
X023779Y036771D01*
X023707Y03682D01*
X023672Y036827D01*
D02*
G37*
G36*
X023572D02*
X023537Y03682D01*
X023465Y036771D01*
X023417Y036699D01*
X02341Y036664D01*
X023572D01*
Y036827D01*
D02*
G37*
G36*
X022848Y03705D02*
X0222D01*
Y036447D01*
X022327Y036459D01*
X02245Y036497D01*
X022563Y036557D01*
X022662Y036638D01*
X022743Y036737D01*
X022803Y03685D01*
X022841Y036973D01*
X022848Y03705D01*
D02*
G37*
G36*
X0221D02*
X021452D01*
X021459Y036973D01*
X021497Y03685D01*
X021557Y036737D01*
X021638Y036638D01*
X021737Y036557D01*
X02185Y036497D01*
X021973Y036459D01*
X0221Y036447D01*
D01*
Y03705D01*
D02*
G37*
G36*
X038008Y036564D02*
X037845D01*
Y036402D01*
X03788Y036409D01*
X037953Y036457D01*
X038001Y036529D01*
X038008Y036564D01*
D02*
G37*
G36*
X037745D02*
X037583D01*
X03759Y036529D01*
X037638Y036457D01*
X03771Y036409D01*
X037745Y036402D01*
Y036564D01*
D02*
G37*
G36*
X032102D02*
X03194D01*
Y036402D01*
X031975Y036409D01*
X032047Y036457D01*
X032095Y036529D01*
X032102Y036564D01*
D02*
G37*
G36*
X030331Y040107D02*
X029906D01*
X02991Y040085D01*
X029882Y040035D01*
X029671D01*
X029625Y040016D01*
X029606Y03997D01*
Y038815D01*
X029071D01*
X029025Y038796D01*
X029006Y03875D01*
Y03475D01*
X029025Y034704D01*
X029071Y034685D01*
X029606D01*
Y03353D01*
X029625Y033484D01*
X029671Y033465D01*
X03103D01*
X031076Y033484D01*
X031095Y03353D01*
Y034685D01*
X031585D01*
X031586Y034684D01*
X031629D01*
X031675Y034703D01*
X031694Y034749D01*
Y036431D01*
X031744Y036449D01*
X031805Y036409D01*
X03184Y036402D01*
Y036614D01*
Y036827D01*
X031805Y03682D01*
X031744Y036779D01*
X031694Y036797D01*
Y038751D01*
X031675Y038797D01*
X031629Y038816D01*
X031095D01*
Y03997D01*
X031076Y040016D01*
X03103Y040035D01*
X030354D01*
X030326Y040085D01*
X030331Y040107D01*
D02*
G37*
G36*
X024753Y036564D02*
X024591D01*
X024598Y036529D01*
X024646Y036457D01*
X024718Y036409D01*
X024753Y036402D01*
Y036564D01*
D02*
G37*
G36*
X023834D02*
X023672D01*
Y036402D01*
X023707Y036409D01*
X023779Y036457D01*
X023827Y036529D01*
X023834Y036564D01*
D02*
G37*
G36*
X023572D02*
X02341D01*
X023417Y036529D01*
X023465Y036457D01*
X023537Y036409D01*
X023572Y036402D01*
Y036564D01*
D02*
G37*
G36*
X035331Y036367D02*
X035074D01*
Y036052D01*
X035331D01*
Y036367D01*
D02*
G37*
G36*
X025745Y036268D02*
X0254D01*
Y035981D01*
X025745D01*
Y036268D01*
D02*
G37*
G36*
X0253D02*
X024955D01*
Y035981D01*
X0253D01*
Y036268D01*
D02*
G37*
G36*
X028025Y036212D02*
X027196D01*
Y036163D01*
X0269D01*
X026838Y036151D01*
X026785Y036115D01*
X025827Y035157D01*
X025695D01*
Y035291D01*
X025614D01*
X02559Y035335D01*
X025599Y035348D01*
X025606Y035383D01*
X025181D01*
X025188Y035348D01*
X025197Y035335D01*
X025174Y035291D01*
X024985D01*
Y034698D01*
X025695D01*
Y034831D01*
X025894D01*
X025957Y034844D01*
X02601Y034879D01*
X026968Y035837D01*
X027196D01*
Y035788D01*
X028025D01*
Y036212D01*
D02*
G37*
G36*
X035331Y035952D02*
X035024D01*
X034717D01*
Y035636D01*
X034717Y035636D01*
X034717D01*
X034694Y035596D01*
X034685Y03559D01*
X034637Y035518D01*
X03463Y035483D01*
X035055D01*
X035048Y035518D01*
X035003Y035586D01*
X035015Y035636D01*
X035331D01*
Y035952D01*
D02*
G37*
G36*
X038436Y035645D02*
Y035483D01*
X038598D01*
X038591Y035518D01*
X038543Y03559D01*
X038471Y035639D01*
X038436Y035645D01*
D02*
G37*
G36*
X038336D02*
X038301Y035639D01*
X038229Y03559D01*
X03818Y035518D01*
X038173Y035483D01*
X038336D01*
Y035645D01*
D02*
G37*
G36*
X025745Y035881D02*
X024955D01*
Y035595D01*
X02518D01*
X025206Y035545D01*
X025188Y035518D01*
X025181Y035483D01*
X025606D01*
X025599Y035518D01*
X025581Y035545D01*
X025608Y035595D01*
X025745D01*
Y035881D01*
D02*
G37*
G36*
X023081Y035645D02*
Y035483D01*
X023244D01*
X023237Y035518D01*
X023189Y03559D01*
X023117Y035639D01*
X023081Y035645D01*
D02*
G37*
G36*
X022981D02*
X022946Y035639D01*
X022874Y03559D01*
X022826Y035518D01*
X022819Y035483D01*
X022981D01*
Y035645D01*
D02*
G37*
G36*
X038598Y035383D02*
X038436D01*
Y035221D01*
X038471Y035228D01*
X038543Y035276D01*
X038591Y035348D01*
X038598Y035383D01*
D02*
G37*
G36*
X038336D02*
X038173D01*
X03818Y035348D01*
X038229Y035276D01*
X038301Y035228D01*
X038336Y035221D01*
Y035383D01*
D02*
G37*
G36*
X023244D02*
X023081D01*
Y035221D01*
X023117Y035228D01*
X023189Y035276D01*
X023237Y035348D01*
X023244Y035383D01*
D02*
G37*
G36*
X022981D02*
X022819D01*
X022826Y035348D01*
X022874Y035276D01*
X022946Y035228D01*
X022981Y035221D01*
Y035383D01*
D02*
G37*
G36*
X035055D02*
X03463D01*
X034637Y035348D01*
X034685Y035276D01*
X034737Y035241D01*
Y034982D01*
X035044D01*
X035351D01*
Y035298D01*
X035068D01*
X035044Y035342D01*
X035048Y035348D01*
X035055Y035383D01*
D02*
G37*
G36*
X025645Y03459D02*
X024586D01*
X024586Y03459D01*
X024586Y03459D01*
X024563Y03458D01*
X02454Y034571D01*
X02454Y034571D01*
X02454Y034571D01*
X02443Y03446D01*
X02443Y03446D01*
X02443Y03446D01*
X024421Y034437D01*
X024412Y034414D01*
X024412Y034414D01*
X024412Y034414D01*
X024413Y0342D01*
X024363Y034154D01*
X023605D01*
Y03371D01*
X024405D01*
Y033891D01*
X024455Y033912D01*
X024533Y033834D01*
X024556Y033825D01*
X024579Y033815D01*
X025676Y033815D01*
X025699Y033824D01*
X025722Y033834D01*
X025836Y033948D01*
X025846Y033971D01*
X025855Y033994D01*
X025856Y034379D01*
X025856Y034379D01*
X025856Y034379D01*
X025847Y034402D01*
X025837Y034425D01*
X025837Y034425D01*
X025837Y034425D01*
X025695Y034567D01*
Y034582D01*
X025664D01*
X025645Y03459D01*
D02*
G37*
G36*
X035351Y034882D02*
X035094D01*
Y034567D01*
X035351D01*
Y034882D01*
D02*
G37*
G36*
X034994D02*
X034737D01*
Y034567D01*
X034994D01*
Y034882D01*
D02*
G37*
G36*
X033544Y03495D02*
X033089D01*
X032635D01*
Y034752D01*
X032634D01*
Y03455D01*
X033088D01*
X033543D01*
Y034748D01*
X033544D01*
Y03495D01*
D02*
G37*
G36*
X03212Y036002D02*
X03205Y035988D01*
X031992Y035948D01*
X031952Y035889D01*
X031938Y03582D01*
X031952Y035751D01*
X031992Y035692D01*
X03205Y035652D01*
X03212Y035638D01*
X032139Y035642D01*
X032361Y035421D01*
X032361Y035421D01*
X032397Y035396D01*
X03244Y035388D01*
X032675D01*
Y035288D01*
X032641Y035252D01*
X032635D01*
Y03505D01*
X033089D01*
X033544D01*
Y035252D01*
X033537D01*
X033504Y035288D01*
Y035388D01*
X033985D01*
X034069Y035304D01*
X03405Y035258D01*
X034009D01*
Y034788D01*
X033589Y034367D01*
X033543Y034386D01*
Y03445D01*
X033138D01*
Y034248D01*
X033404D01*
X033423Y034202D01*
X031385Y032164D01*
X030146D01*
X030146Y032164D01*
X030103Y032155D01*
X030066Y032131D01*
X030001Y032066D01*
X029951Y032087D01*
Y032568D01*
X0293D01*
Y032206D01*
X028956Y031862D01*
X028931Y031826D01*
X028923Y031783D01*
X028923Y031783D01*
Y031687D01*
X028873Y031652D01*
X028866Y031653D01*
X02881D01*
X028776Y031647D01*
X02874Y031631D01*
X028703Y031647D01*
X028669Y031653D01*
X028614D01*
X028579Y031647D01*
X028569Y031649D01*
X028564Y031656D01*
X028522Y031684D01*
X028494Y03169D01*
Y031285D01*
Y03088D01*
X028522Y030885D01*
X028564Y030913D01*
X028569Y030921D01*
X028579Y030923D01*
X028614Y030916D01*
X028669D01*
X028676Y030917D01*
X028726Y030882D01*
Y030824D01*
X028394Y030492D01*
X02837Y030456D01*
X028361Y030413D01*
X028361Y030413D01*
Y02945D01*
X028311Y029434D01*
X028286Y029472D01*
X028227Y029511D01*
X028158Y029525D01*
X028088Y029511D01*
X028029Y029472D01*
X028018Y029456D01*
X02789D01*
X027855Y029506D01*
X027856Y029513D01*
Y029568D01*
X02785Y029602D01*
X027834Y029639D01*
X02785Y029676D01*
X027856Y02971D01*
Y029765D01*
X02785Y029799D01*
X027834Y029836D01*
X02785Y029873D01*
X027856Y029907D01*
Y029962D01*
X02785Y029996D01*
X027834Y030033D01*
X02785Y030069D01*
X027856Y030104D01*
Y030159D01*
X02785Y030193D01*
X027834Y03023D01*
X02785Y030266D01*
X027856Y0303D01*
Y030356D01*
X02785Y03039D01*
X027834Y030426D01*
X02785Y030463D01*
X027856Y030497D01*
Y030552D01*
X02785Y030587D01*
X02783Y030615D01*
X027801Y030635D01*
X027767Y030642D01*
X027208D01*
X027185Y030637D01*
X026822D01*
X026805Y030659D01*
X026575D01*
Y030759D01*
X026787D01*
X02678Y030794D01*
X026732Y030866D01*
X02666Y030914D01*
X026576Y030931D01*
X026572Y030936D01*
X026552Y030977D01*
X027605Y03203D01*
X028009D01*
X028135Y031904D01*
Y031588D01*
X028131Y031564D01*
Y031005D01*
X028137Y030971D01*
X028157Y030942D01*
X028186Y030923D01*
X02822Y030916D01*
X028275D01*
X028309Y030923D01*
X02832Y030921D01*
X028325Y030913D01*
X028367Y030885D01*
X028394Y03088D01*
Y031285D01*
Y031705D01*
X02836Y031734D01*
Y031951D01*
X02836Y031951D01*
X028351Y031993D01*
X028327Y03203D01*
X028327Y03203D01*
X028243Y032113D01*
X028255Y032163D01*
X028558D01*
X028565Y032158D01*
X028635Y032145D01*
X028704Y032158D01*
X028763Y032198D01*
X028802Y032257D01*
X028816Y032326D01*
X028802Y032396D01*
X028763Y032455D01*
X028704Y032494D01*
X028635Y032508D01*
X028565Y032494D01*
X028558Y032489D01*
X028235D01*
Y032622D01*
X027525D01*
Y032412D01*
X026342Y031229D01*
X026292Y03125D01*
Y031405D01*
X026305Y031424D01*
X026317Y031487D01*
Y033053D01*
X026405D01*
Y033763D01*
X026317D01*
Y034209D01*
X02711Y035001D01*
X027156Y034982D01*
Y034748D01*
X027157D01*
Y03455D01*
X027612D01*
X028066D01*
Y034752D01*
X028065D01*
Y03495D01*
X027611D01*
Y03505D01*
X028065D01*
Y035252D01*
X028059D01*
X028025Y035288D01*
Y035712D01*
X027196D01*
Y035549D01*
X026039Y034391D01*
X026004Y034339D01*
X025991Y034276D01*
Y033763D01*
X025812D01*
Y033053D01*
X025991D01*
Y032966D01*
X025945Y032947D01*
X025918Y032974D01*
X025872Y032993D01*
X025448Y032993D01*
X025445Y032992D01*
X025441Y032993D01*
X025422Y032982D01*
X025402Y032974D01*
X025401Y032971D01*
X025398Y032969D01*
X025299Y032847D01*
X025293Y032827D01*
X025285Y032807D01*
Y03264D01*
X025285Y03206D01*
X025295Y032037D01*
X025304Y032014D01*
X025384Y031934D01*
X025407Y031924D01*
X02543Y031915D01*
X025877Y031912D01*
X025877Y031912D01*
X025877Y031912D01*
X0259Y031922D01*
X025923Y031931D01*
X025923Y031931D01*
X025923Y031931D01*
X025945Y031953D01*
X025991Y031934D01*
Y031703D01*
X025936D01*
Y031189D01*
X026232D01*
X026253Y031139D01*
X025824Y030711D01*
X025715D01*
Y030602D01*
X025685Y030572D01*
X025618D01*
X025594Y030616D01*
X025599Y030624D01*
X025606Y030659D01*
X025181D01*
X025188Y030624D01*
X025193Y030616D01*
X02517Y030572D01*
X025058D01*
Y030732D01*
X024347D01*
Y030572D01*
X023078D01*
X023059Y030618D01*
X023387Y030947D01*
X023423Y030999D01*
X023424Y031006D01*
X023425Y031007D01*
X023439Y031077D01*
X023425Y031146D01*
X023385Y031205D01*
X023326Y031245D01*
X023257Y031258D01*
X023187Y031245D01*
X023129Y031205D01*
X023089Y031146D01*
X02308Y031101D01*
X022618Y030638D01*
X022568Y030659D01*
Y030935D01*
X022231D01*
Y031035D01*
X022568D01*
Y031363D01*
X023847D01*
X023933Y031277D01*
X024011Y031225D01*
X024103Y031207D01*
X024103Y031207D01*
X025188D01*
Y031189D01*
X025544D01*
Y03129D01*
X025587Y031355D01*
X025606Y031446D01*
X025587Y031538D01*
X025544Y031603D01*
Y031703D01*
X025448D01*
X02516Y031992D01*
Y032829D01*
X025384Y033053D01*
X025696D01*
Y033763D01*
X025104D01*
Y033451D01*
X024751Y033097D01*
X024699Y03302D01*
X02468Y032928D01*
X02468Y032928D01*
Y031892D01*
X02468Y031892D01*
X024699Y031801D01*
X024742Y031736D01*
X024723Y031686D01*
X024202D01*
X024116Y031772D01*
X024038Y031824D01*
X023946Y031842D01*
X023946Y031842D01*
X021865D01*
Y03412D01*
X021846Y034166D01*
X021086Y034926D01*
X02104Y034945D01*
X020593D01*
X020547Y034926D01*
X020547Y034926D01*
X020528Y03488D01*
Y034114D01*
X020302D01*
X020278Y034158D01*
X020284Y034167D01*
X020291Y034202D01*
X019866D01*
X019873Y034167D01*
X019879Y034158D01*
X019856Y034114D01*
X019595D01*
Y033206D01*
X020528D01*
Y029637D01*
X020547Y029591D01*
X020741Y029396D01*
X020787Y029377D01*
X021079D01*
Y02567D01*
X021079Y02567D01*
X021087Y025627D01*
X021098Y025611D01*
Y025171D01*
X021631D01*
Y025822D01*
X021303D01*
Y029377D01*
X021632D01*
X021632Y029377D01*
X021678Y029396D01*
X021813Y029531D01*
X021863Y02951D01*
Y029422D01*
X021947D01*
Y028935D01*
X021959Y028872D01*
X021995Y028819D01*
X024965Y025849D01*
X024315Y025198D01*
X024269Y025217D01*
Y025446D01*
X024012D01*
Y025131D01*
X024182D01*
X024201Y025084D01*
X023889Y024773D01*
X023843Y024797D01*
X023844Y024803D01*
X023827Y024888D01*
X023779Y02496D01*
X023707Y025009D01*
X023672Y025016D01*
Y024803D01*
X023622D01*
Y024753D01*
X02341D01*
X023417Y024718D01*
X023465Y024646D01*
X023537Y024598D01*
X023622Y024581D01*
X023628Y024582D01*
X023653Y024536D01*
X022555Y023438D01*
X022519Y023385D01*
X022507Y023323D01*
Y022039D01*
X022519Y021976D01*
X022555Y021923D01*
X022973Y021505D01*
X023001Y021486D01*
X023005Y021474D01*
X023002Y021427D01*
X022938Y021378D01*
X022878Y021299D01*
X02284Y021208D01*
X022833Y02116D01*
X023206D01*
X023578D01*
X023572Y021208D01*
X023556Y021246D01*
X023598Y021274D01*
X023669Y021204D01*
X023666Y021198D01*
X023655Y02111D01*
X023666Y021022D01*
X0237Y020941D01*
X023754Y020871D01*
X023824Y020817D01*
X023905Y020783D01*
X023993Y020772D01*
X024081Y020783D01*
X024162Y020817D01*
X024232Y020871D01*
X024286Y020941D01*
X024289Y020947D01*
X024485D01*
X024487Y020941D01*
X024541Y020871D01*
X024611Y020817D01*
X024693Y020783D01*
X02478Y020772D01*
X024868Y020783D01*
X024874Y020786D01*
X025415Y020245D01*
X025468Y020209D01*
X02553Y020197D01*
X028092D01*
X028105Y020199D01*
X028121Y020183D01*
X028139Y020155D01*
X028134Y020129D01*
X028559D01*
X028552Y020164D01*
X028504Y020236D01*
X028432Y020284D01*
X028346Y020301D01*
X028332Y020298D01*
X028307Y020344D01*
X028955Y020993D01*
X028991Y021045D01*
X029003Y021108D01*
X029003Y021108D01*
Y022558D01*
X029753Y023308D01*
X029799Y023289D01*
Y022847D01*
X030451D01*
Y023381D01*
X030342D01*
X030323Y023427D01*
X03112Y024224D01*
X031139Y02422D01*
X031209Y024234D01*
X031268Y024273D01*
X031279Y02429D01*
X034046D01*
Y024002D01*
X032173D01*
X032168Y024008D01*
X032109Y024048D01*
X03204Y024062D01*
X031971Y024048D01*
X031912Y024008D01*
X031907Y024002D01*
X03149D01*
X03149Y024002D01*
X031447Y023994D01*
X031411Y023969D01*
X031386Y023933D01*
X031378Y02389D01*
X03138Y023879D01*
X031349Y023848D01*
Y023622D01*
X031299D01*
Y023572D01*
X031087D01*
X031094Y023537D01*
X031142Y023465D01*
X031193Y023431D01*
X031178Y023381D01*
X030678D01*
Y022847D01*
X031329D01*
Y023161D01*
X031916Y023748D01*
X031971Y023712D01*
X03204Y023698D01*
X032109Y023712D01*
X032168Y023752D01*
X032186Y023778D01*
X032269D01*
X032293Y023734D01*
X032275Y023707D01*
X032268Y023672D01*
X032693D01*
X032686Y023707D01*
X032668Y023734D01*
X032692Y023778D01*
X03345D01*
X033474Y023734D01*
X033456Y023707D01*
X033449Y023672D01*
X033661D01*
Y023572D01*
X033449D01*
X033456Y023537D01*
X033504Y023465D01*
X033576Y023417D01*
X033639Y023404D01*
X033666Y023389D01*
X033679Y023352D01*
Y022847D01*
X034331D01*
Y023212D01*
X034784Y023665D01*
X034784Y023665D01*
X034807Y0237D01*
X034809Y023702D01*
X034863Y02372D01*
X03488Y023706D01*
Y023259D01*
X03488Y023259D01*
X034888Y023216D01*
X034894Y023207D01*
Y022847D01*
X035546D01*
Y023381D01*
X035104D01*
Y023751D01*
X035229D01*
Y023778D01*
X035507D01*
X035507Y023778D01*
X03555Y023786D01*
X035586Y023811D01*
X035809Y024034D01*
X035809Y024034D01*
X035834Y02407D01*
X035838Y024092D01*
X035858Y024106D01*
X035898Y024165D01*
X035912Y024234D01*
X035898Y024304D01*
X035858Y024362D01*
X0358Y024402D01*
X03573Y024416D01*
X035661Y024402D01*
X035602Y024362D01*
X035562Y024304D01*
X035548Y024234D01*
X035562Y024165D01*
X035586Y024128D01*
X03546Y024002D01*
X035269D01*
Y024096D01*
X034992D01*
Y024196D01*
X035269D01*
Y024325D01*
X035229D01*
Y024541D01*
X035104D01*
Y024664D01*
X035152Y024696D01*
X035174Y024729D01*
X035228Y024718D01*
X035228Y024718D01*
X035276Y024646D01*
X035348Y024598D01*
X035383Y024591D01*
Y024803D01*
Y025016D01*
X035348Y025009D01*
X035276Y02496D01*
X035239Y024906D01*
X035228Y024903D01*
X035185Y024905D01*
X035184Y024906D01*
X035152Y024953D01*
X035093Y024992D01*
X035024Y025006D01*
X034954Y024992D01*
X034895Y024953D01*
X034856Y024894D01*
X034842Y024824D01*
X034856Y024755D01*
X03488Y024719D01*
Y024541D01*
X034755D01*
Y024479D01*
X034625Y02435D01*
X034601Y024313D01*
X034593Y02427D01*
X034593Y02427D01*
Y023812D01*
X03457Y023795D01*
X03452Y02382D01*
Y024263D01*
Y024541D01*
X034306D01*
X034301Y024591D01*
X034337Y024598D01*
X034409Y024646D01*
X034457Y024718D01*
X034464Y024753D01*
X03404D01*
X034046Y024718D01*
X034095Y024646D01*
X034167Y024598D01*
X034203Y024591D01*
X034198Y024541D01*
X034046D01*
Y024514D01*
X031279D01*
X031268Y02453D01*
X031209Y02457D01*
X031139Y024583D01*
X031089Y024573D01*
X031064Y024619D01*
X03161Y025165D01*
X031882D01*
Y02563D01*
X031911Y025654D01*
X031958Y025633D01*
Y025571D01*
X032294D01*
X032631D01*
Y025916D01*
X03268Y025917D01*
X032797D01*
X032804Y025912D01*
X032873Y025898D01*
X032943Y025912D01*
X03295Y025917D01*
X033616D01*
X033679Y025929D01*
X033731Y025965D01*
X034181Y026414D01*
X034543D01*
Y027012D01*
X034593Y027032D01*
X034777Y026848D01*
Y026546D01*
X034222Y02599D01*
X034198Y025954D01*
X034189Y025911D01*
X034157Y025876D01*
X034005D01*
Y025165D01*
X034597D01*
Y025876D01*
X03449D01*
X034471Y025922D01*
X034963Y026414D01*
X035311D01*
Y026608D01*
X035541D01*
X035552Y026592D01*
X03561Y026552D01*
X03568Y026538D01*
X035749Y026552D01*
X035808Y026592D01*
X035848Y026651D01*
X035862Y02672D01*
X035848Y02679D01*
X035808Y026848D01*
X035749Y026888D01*
X03568Y026902D01*
X03561Y026888D01*
X035552Y026848D01*
X035541Y026832D01*
X035311D01*
Y026929D01*
X035361Y026957D01*
X035383Y026953D01*
Y027115D01*
X03522D01*
X035182Y027066D01*
X034877D01*
X034663Y027279D01*
X034627Y027304D01*
X034584Y027312D01*
X034584Y027312D01*
X033049D01*
X033038Y027328D01*
X03298Y027368D01*
X03291Y027382D01*
X03284Y027368D01*
X032782Y027328D01*
X032772Y027314D01*
X032722Y027329D01*
Y028164D01*
X033659Y029101D01*
X033676Y029125D01*
X033731Y02914D01*
X034164Y028707D01*
Y028306D01*
X034009D01*
Y027654D01*
X034543D01*
Y028306D01*
X034388D01*
Y028754D01*
X034388Y028754D01*
X03438Y028797D01*
X034355Y028833D01*
X034355Y028833D01*
X034081Y029108D01*
X0341Y029154D01*
X034543D01*
Y029806D01*
X034009D01*
X034009Y029806D01*
Y029806D01*
X033969Y029827D01*
X032914Y030882D01*
X032931Y030936D01*
X032934Y030937D01*
X033523Y030347D01*
X033523Y030347D01*
X03356Y030323D01*
X033603Y030314D01*
X036379D01*
X036379Y030314D01*
X036422Y030323D01*
X036458Y030347D01*
X036673Y030562D01*
X037186D01*
Y031233D01*
X036514D01*
Y03072D01*
X036333Y030539D01*
X036232D01*
X036206Y030589D01*
X036229Y030624D01*
X036236Y030659D01*
X035811D01*
X035818Y030624D01*
X035842Y030589D01*
X035815Y030539D01*
X03387D01*
X033843Y030589D01*
X033867Y030624D01*
X033874Y030659D01*
X033661D01*
Y030709D01*
X033611D01*
Y030921D01*
X033576Y030914D01*
X033504Y030866D01*
X033459Y030799D01*
X033441Y030789D01*
X033408Y030779D01*
X033181Y031007D01*
X0332Y031053D01*
X033333D01*
X033336Y03105D01*
X033389Y031015D01*
X033451Y031002D01*
X034005D01*
Y03081D01*
X034597D01*
Y031521D01*
X034005D01*
Y031328D01*
X033519D01*
X03277Y032077D01*
X032795Y032123D01*
X03282Y032118D01*
X03289Y032132D01*
X032949Y032172D01*
X03296Y032188D01*
X034009D01*
Y031854D01*
X034543D01*
Y032506D01*
X034009D01*
Y032412D01*
X03296D01*
X032949Y032428D01*
X03289Y032468D01*
X03282Y032482D01*
X032751Y032468D01*
X032692Y032428D01*
X032652Y032369D01*
X032639Y0323D01*
X032644Y032274D01*
X032598Y03225D01*
X032408Y032439D01*
X032407Y032442D01*
X032354Y032477D01*
X032291Y032489D01*
X032291Y032489D01*
X03229Y032489D01*
X032196D01*
X03219Y032494D01*
X03212Y032508D01*
X032117Y032507D01*
X032092Y032553D01*
X034145Y034607D01*
X034543D01*
Y035258D01*
X034368D01*
Y035276D01*
X03436Y035319D01*
X034335Y035355D01*
X034335Y035355D01*
X034111Y035579D01*
X034075Y035604D01*
X034032Y035612D01*
X034032Y035612D01*
X033504D01*
Y035712D01*
X032675D01*
Y035612D01*
X032486D01*
X032298Y035801D01*
X032302Y03582D01*
X032288Y035889D01*
X032248Y035948D01*
X03219Y035988D01*
X03212Y036002D01*
D02*
G37*
G36*
X0364Y036845D02*
X03633Y036831D01*
X036272Y036792D01*
X036232Y036733D01*
X036218Y036663D01*
X036232Y036594D01*
X036272Y036535D01*
X036288Y036524D01*
Y035336D01*
X035443Y034491D01*
X034521D01*
X034521Y034491D01*
X034478Y034483D01*
X034442Y034458D01*
X034197Y034213D01*
X034173Y034177D01*
X034164Y034134D01*
X034164Y034134D01*
Y034066D01*
X034009D01*
Y033414D01*
X034148D01*
X034157Y033364D01*
X033839Y033046D01*
X03382Y03305D01*
X033751Y033036D01*
X033692Y032997D01*
X033652Y032938D01*
X033638Y032868D01*
X033652Y032799D01*
X033692Y03274D01*
X033751Y032701D01*
X03382Y032687D01*
X03389Y032701D01*
X033948Y03274D01*
X033988Y032799D01*
X034002Y032868D01*
X033998Y032888D01*
X034355Y033245D01*
X034355Y033245D01*
X03438Y033282D01*
X034388Y033325D01*
Y033414D01*
X034543D01*
Y034066D01*
X034437D01*
X034416Y034116D01*
X034567Y034267D01*
X03549D01*
X03549Y034267D01*
X035533Y034275D01*
X035569Y0343D01*
X036479Y03521D01*
X036479Y03521D01*
X036504Y035246D01*
X036512Y035289D01*
X036512Y035289D01*
Y036524D01*
X036528Y036535D01*
X036568Y036594D01*
X036582Y036663D01*
X036568Y036733D01*
X036528Y036792D01*
X03647Y036831D01*
X0364Y036845D01*
D02*
G37*
G36*
X037845Y034464D02*
Y034302D01*
X038008D01*
X038001Y034337D01*
X037953Y034409D01*
X03788Y034457D01*
X037845Y034464D01*
D02*
G37*
G36*
X037745D02*
X03771Y034457D01*
X037638Y034409D01*
X03759Y034337D01*
X037583Y034302D01*
X037745D01*
Y034464D01*
D02*
G37*
G36*
X03194D02*
Y034302D01*
X032102D01*
X032095Y034337D01*
X032047Y034409D01*
X031975Y034457D01*
X03194Y034464D01*
D02*
G37*
G36*
X03184D02*
X031805Y034457D01*
X031733Y034409D01*
X031684Y034337D01*
X031677Y034302D01*
X03184D01*
Y034464D01*
D02*
G37*
G36*
X028396D02*
Y034302D01*
X028559D01*
X028552Y034337D01*
X028504Y034409D01*
X028432Y034457D01*
X028396Y034464D01*
D02*
G37*
G36*
X028296D02*
X028261Y034457D01*
X028189Y034409D01*
X028141Y034337D01*
X028134Y034302D01*
X028296D01*
Y034464D01*
D02*
G37*
G36*
X022491D02*
Y034302D01*
X022653D01*
X022646Y034337D01*
X022598Y034409D01*
X022526Y034457D01*
X022491Y034464D01*
D02*
G37*
G36*
X020129D02*
Y034302D01*
X020291D01*
X020284Y034337D01*
X020236Y034409D01*
X020164Y034457D01*
X020129Y034464D01*
D02*
G37*
G36*
X020029D02*
X019994Y034457D01*
X019921Y034409D01*
X019873Y034337D01*
X019866Y034302D01*
X020029D01*
Y034464D01*
D02*
G37*
G36*
X028066Y03445D02*
X027662D01*
Y034248D01*
X028066D01*
Y03445D01*
D02*
G37*
G36*
X027562D02*
X027157D01*
Y034248D01*
X027562D01*
Y03445D01*
D02*
G37*
G36*
X033038D02*
X032634D01*
Y034248D01*
X033038D01*
Y03445D01*
D02*
G37*
G36*
X038008Y034202D02*
X037845D01*
Y03404D01*
X03788Y034046D01*
X037953Y034095D01*
X038001Y034167D01*
X038008Y034202D01*
D02*
G37*
G36*
X037745D02*
X037583D01*
X03759Y034167D01*
X037638Y034095D01*
X03771Y034046D01*
X037745Y03404D01*
Y034202D01*
D02*
G37*
G36*
X032102D02*
X03194D01*
Y03404D01*
X031975Y034046D01*
X032047Y034095D01*
X032095Y034167D01*
X032102Y034202D01*
D02*
G37*
G36*
X03184D02*
X031677D01*
X031684Y034167D01*
X031733Y034095D01*
X031805Y034046D01*
X03184Y03404D01*
Y034202D01*
D02*
G37*
G36*
X028559D02*
X028396D01*
Y03404D01*
X028432Y034046D01*
X028504Y034095D01*
X028552Y034167D01*
X028559Y034202D01*
D02*
G37*
G36*
X028296D02*
X028134D01*
X028141Y034167D01*
X028189Y034095D01*
X028261Y034046D01*
X028296Y03404D01*
Y034202D01*
D02*
G37*
G36*
X035351Y034106D02*
X035094D01*
Y03379D01*
X035351D01*
Y034106D01*
D02*
G37*
G36*
X034994D02*
X034737D01*
Y03379D01*
X034994D01*
Y034106D01*
D02*
G37*
G36*
X035351Y03369D02*
X035094D01*
Y033374D01*
X035351D01*
Y03369D01*
D02*
G37*
G36*
X034994D02*
X034737D01*
Y033374D01*
X034994D01*
Y03369D01*
D02*
G37*
G36*
X024405Y03361D02*
X023605D01*
Y033166D01*
X024405D01*
Y03361D01*
D02*
G37*
G36*
X038436Y033283D02*
Y033121D01*
X038598D01*
X038591Y033156D01*
X038543Y033228D01*
X038471Y033276D01*
X038436Y033283D01*
D02*
G37*
G36*
X038336D02*
X038301Y033276D01*
X038229Y033228D01*
X03818Y033156D01*
X038173Y033121D01*
X038336D01*
Y033283D01*
D02*
G37*
G36*
X037255D02*
Y033121D01*
X037417D01*
X03741Y033156D01*
X037362Y033228D01*
X03729Y033276D01*
X037255Y033283D01*
D02*
G37*
G36*
X037155D02*
X03712Y033276D01*
X037047Y033228D01*
X036999Y033156D01*
X036992Y033121D01*
X037155D01*
Y033283D01*
D02*
G37*
G36*
X034893D02*
Y033121D01*
X035055D01*
X035048Y033156D01*
X035Y033228D01*
X034928Y033276D01*
X034893Y033283D01*
D02*
G37*
G36*
X034793D02*
X034757Y033276D01*
X034685Y033228D01*
X034637Y033156D01*
X03463Y033121D01*
X034793D01*
Y033283D01*
D02*
G37*
G36*
X031349D02*
Y033121D01*
X031512D01*
X031505Y033156D01*
X031456Y033228D01*
X031384Y033276D01*
X031349Y033283D01*
D02*
G37*
G36*
X031249D02*
X031214Y033276D01*
X031142Y033228D01*
X031094Y033156D01*
X031087Y033121D01*
X031249D01*
Y033283D01*
D02*
G37*
G36*
X030168D02*
Y033121D01*
X030331D01*
X030324Y033156D01*
X030275Y033228D01*
X030203Y033276D01*
X030168Y033283D01*
D02*
G37*
G36*
X028987D02*
Y033121D01*
X029149D01*
X029142Y033156D01*
X029094Y033228D01*
X029022Y033276D01*
X028987Y033283D01*
D02*
G37*
G36*
X028887D02*
X028852Y033276D01*
X02878Y033228D01*
X028732Y033156D01*
X028725Y033121D01*
X028887D01*
Y033283D01*
D02*
G37*
G36*
X029575Y033376D02*
X02926D01*
Y033119D01*
X029575D01*
Y033376D01*
D02*
G37*
G36*
X028275Y033371D02*
X02793D01*
Y033085D01*
X028275D01*
Y033371D01*
D02*
G37*
G36*
X02783D02*
X027485D01*
Y033085D01*
X02783D01*
Y033371D01*
D02*
G37*
G36*
X038598Y033021D02*
X038436D01*
Y032858D01*
X038471Y032865D01*
X038543Y032914D01*
X038591Y032986D01*
X038598Y033021D01*
D02*
G37*
G36*
X038336D02*
X038173D01*
X03818Y032986D01*
X038229Y032914D01*
X038301Y032865D01*
X038336Y032858D01*
Y033021D01*
D02*
G37*
G36*
X037417D02*
X037255D01*
Y032858D01*
X03729Y032865D01*
X037362Y032914D01*
X03741Y032986D01*
X037417Y033021D01*
D02*
G37*
G36*
X037155D02*
X036992D01*
X036999Y032986D01*
X037047Y032914D01*
X03712Y032865D01*
X037155Y032858D01*
Y033021D01*
D02*
G37*
G36*
X035055D02*
X034893D01*
Y032858D01*
X034928Y032865D01*
X035Y032914D01*
X035048Y032986D01*
X035055Y033021D01*
D02*
G37*
G36*
X034793D02*
X03463D01*
X034637Y032986D01*
X034685Y032914D01*
X034757Y032865D01*
X034793Y032858D01*
Y033021D01*
D02*
G37*
G36*
X031512D02*
X031349D01*
Y032858D01*
X031384Y032865D01*
X031456Y032914D01*
X031505Y032986D01*
X031512Y033021D01*
D02*
G37*
G36*
X031249D02*
X031087D01*
X031094Y032986D01*
X031142Y032914D01*
X031214Y032865D01*
X031249Y032858D01*
Y033021D01*
D02*
G37*
G36*
X030331D02*
X030168D01*
Y032858D01*
X030203Y032865D01*
X030275Y032914D01*
X030324Y032986D01*
X030331Y033021D01*
D02*
G37*
G36*
X029991Y033376D02*
X029675D01*
Y033069D01*
Y032762D01*
X029991D01*
Y032839D01*
X030041Y032864D01*
X030068Y032858D01*
Y033071D01*
Y033283D01*
X030041Y033278D01*
X029991Y033302D01*
Y033376D01*
D02*
G37*
G36*
X029149Y033021D02*
X028987D01*
Y032858D01*
X029022Y032865D01*
X029094Y032914D01*
X029142Y032986D01*
X029149Y033021D01*
D02*
G37*
G36*
X028887D02*
X028725D01*
X028732Y032986D01*
X02878Y032914D01*
X028852Y032865D01*
X028887Y032858D01*
Y033021D01*
D02*
G37*
G36*
X029575Y033019D02*
X02926D01*
Y032762D01*
X029575D01*
Y033019D01*
D02*
G37*
G36*
X028275Y032985D02*
X02793D01*
Y032699D01*
X028275D01*
Y032985D01*
D02*
G37*
G36*
X02783D02*
X027485D01*
Y032699D01*
X02783D01*
Y032985D01*
D02*
G37*
G36*
X037845Y032102D02*
Y03194D01*
X038008D01*
X038001Y031975D01*
X037953Y032047D01*
X03788Y032095D01*
X037845Y032102D01*
D02*
G37*
G36*
X037745D02*
X03771Y032095D01*
X037638Y032047D01*
X03759Y031975D01*
X037583Y03194D01*
X037745D01*
Y032102D01*
D02*
G37*
G36*
X020129D02*
Y03194D01*
X020291D01*
X020284Y031975D01*
X020236Y032047D01*
X020164Y032095D01*
X020129Y032102D01*
D02*
G37*
G36*
X020029D02*
X019994Y032095D01*
X019921Y032047D01*
X019873Y031975D01*
X019866Y03194D01*
X020029D01*
Y032102D01*
D02*
G37*
G36*
X038008Y03184D02*
X037845D01*
Y031677D01*
X03788Y031684D01*
X037953Y031733D01*
X038001Y031805D01*
X038008Y03184D01*
D02*
G37*
G36*
X037745D02*
X037583D01*
X03759Y031805D01*
X037638Y031733D01*
X03771Y031684D01*
X037745Y031677D01*
Y03184D01*
D02*
G37*
G36*
X036564D02*
X036402D01*
X036409Y031805D01*
X036457Y031733D01*
X036529Y031684D01*
X036564Y031677D01*
Y03184D01*
D02*
G37*
G36*
X020291D02*
X020129D01*
Y031677D01*
X020164Y031684D01*
X020236Y031733D01*
X020284Y031805D01*
X020291Y03184D01*
D02*
G37*
G36*
X020029D02*
X019866D01*
X019873Y031805D01*
X019921Y031733D01*
X019994Y031684D01*
X020029Y031677D01*
Y03184D01*
D02*
G37*
G36*
X035346Y031561D02*
X03506D01*
Y031215D01*
X035346D01*
Y031561D01*
D02*
G37*
G36*
X03496D02*
X034674D01*
Y031215D01*
X03496D01*
Y031561D01*
D02*
G37*
G36*
X035346Y031115D02*
X03506D01*
Y03077D01*
X035346D01*
Y031115D01*
D02*
G37*
G36*
X03496D02*
X034674D01*
Y03077D01*
X03496D01*
Y031115D01*
D02*
G37*
G36*
X038436Y030921D02*
Y030759D01*
X038598D01*
X038591Y030794D01*
X038543Y030866D01*
X038471Y030914D01*
X038436Y030921D01*
D02*
G37*
G36*
X038336D02*
X038301Y030914D01*
X038229Y030866D01*
X03818Y030794D01*
X038173Y030759D01*
X038336D01*
Y030921D01*
D02*
G37*
G36*
X036074D02*
Y030759D01*
X036236D01*
X036229Y030794D01*
X036181Y030866D01*
X036109Y030914D01*
X036074Y030921D01*
D02*
G37*
G36*
X035974D02*
X035939Y030914D01*
X035866Y030866D01*
X035818Y030794D01*
X035811Y030759D01*
X035974D01*
Y030921D01*
D02*
G37*
G36*
X033711D02*
Y030759D01*
X033874D01*
X033867Y030794D01*
X033819Y030866D01*
X033747Y030914D01*
X033711Y030921D01*
D02*
G37*
G36*
X025444D02*
Y030759D01*
X025606D01*
X025599Y030794D01*
X025551Y030866D01*
X025479Y030914D01*
X025444Y030921D01*
D02*
G37*
G36*
X025344D02*
X025309Y030914D01*
X025236Y030866D01*
X025188Y030794D01*
X025181Y030759D01*
X025344D01*
Y030921D01*
D02*
G37*
G36*
X038598Y030659D02*
X038436D01*
Y030496D01*
X038471Y030503D01*
X038543Y030551D01*
X038591Y030624D01*
X038598Y030659D01*
D02*
G37*
G36*
X038336D02*
X038173D01*
X03818Y030624D01*
X038229Y030551D01*
X038301Y030503D01*
X038336Y030496D01*
Y030659D01*
D02*
G37*
G36*
X03685Y030448D02*
X036762Y030437D01*
X036681Y030403D01*
X036611Y030349D01*
X036557Y030279D01*
X036523Y030198D01*
X036512Y03011D01*
X036523Y030022D01*
X036557Y029941D01*
X036611Y029871D01*
X036681Y029817D01*
X036762Y029783D01*
X03685Y029772D01*
X036938Y029783D01*
X037019Y029817D01*
X037089Y029871D01*
X037143Y029941D01*
X037177Y030022D01*
X037188Y03011D01*
X037177Y030198D01*
X037143Y030279D01*
X037089Y030349D01*
X037019Y030403D01*
X036938Y030437D01*
X03685Y030448D01*
D02*
G37*
G36*
X037845Y02974D02*
Y029578D01*
X038008D01*
X038001Y029613D01*
X037953Y029685D01*
X03788Y029733D01*
X037845Y02974D01*
D02*
G37*
G36*
X020129D02*
Y029578D01*
X020291D01*
X020284Y029613D01*
X020236Y029685D01*
X020164Y029733D01*
X020129Y02974D01*
D02*
G37*
G36*
X020029D02*
X019994Y029733D01*
X019921Y029685D01*
X019873Y029613D01*
X019866Y029578D01*
X020029D01*
Y02974D01*
D02*
G37*
G36*
X0369Y029695D02*
Y029373D01*
X037222D01*
X037216Y029421D01*
X037178Y029512D01*
X037118Y02959D01*
X037039Y029651D01*
X036948Y029689D01*
X0369Y029695D01*
D02*
G37*
G36*
X0368Y029695D02*
X036752Y029689D01*
X036661Y029651D01*
X036582Y02959D01*
X036522Y029512D01*
X036484Y029421D01*
X036478Y029373D01*
X0368D01*
Y029695D01*
D02*
G37*
G36*
X038008Y029478D02*
X037845D01*
Y029315D01*
X03788Y029322D01*
X037953Y02937D01*
X038001Y029442D01*
X038008Y029478D01*
D02*
G37*
G36*
X035311Y032506D02*
X034777D01*
Y031854D01*
X035311D01*
Y032068D01*
X036411D01*
X036438Y032018D01*
X036409Y031975D01*
X036402Y03194D01*
X036614D01*
Y03189D01*
X036664D01*
Y031677D01*
X036699Y031684D01*
X036771Y031733D01*
X03682Y031805D01*
X036831Y03186D01*
X036885Y031876D01*
X037378Y031384D01*
Y027647D01*
X036995Y027264D01*
X036938Y027287D01*
X03685Y027299D01*
X036762Y027287D01*
X036681Y027254D01*
X036611Y0272D01*
X036557Y02713D01*
X036523Y027048D01*
X036512Y02696D01*
X036523Y026873D01*
X036557Y026791D01*
X036611Y026721D01*
X036681Y026667D01*
X036762Y026633D01*
X03685Y026622D01*
X036938Y026633D01*
X037019Y026667D01*
X037089Y026721D01*
X037143Y026791D01*
X037177Y026873D01*
X037188Y02696D01*
X037177Y027048D01*
X037153Y027105D01*
X037569Y027521D01*
X037569Y027521D01*
X037594Y027557D01*
X037602Y0276D01*
X037602Y0276D01*
Y029341D01*
X037652Y029361D01*
X03771Y029322D01*
X037745Y029315D01*
Y029528D01*
Y02974D01*
X03771Y029733D01*
X037652Y029694D01*
X037602Y029714D01*
Y03143D01*
X037602Y03143D01*
X037594Y031473D01*
X037569Y031509D01*
X037569Y031509D01*
X036819Y032259D01*
X036783Y032284D01*
X03674Y032292D01*
X03674Y032292D01*
X035311D01*
Y032506D01*
D02*
G37*
G36*
X020291Y029478D02*
X020129D01*
Y029315D01*
X020164Y029322D01*
X020236Y02937D01*
X020284Y029442D01*
X020291Y029478D01*
D02*
G37*
G36*
X020029D02*
X019866D01*
X019873Y029442D01*
X019921Y02937D01*
X019994Y029322D01*
X020029Y029315D01*
Y029478D01*
D02*
G37*
G36*
X035311Y029806D02*
X034777D01*
Y029154D01*
X035311D01*
Y029358D01*
X035611D01*
X035622Y029342D01*
X03568Y029302D01*
X03575Y029288D01*
X035819Y029302D01*
X035878Y029342D01*
X035918Y0294D01*
X035932Y02947D01*
X035918Y029539D01*
X035878Y029598D01*
X035819Y029638D01*
X03575Y029652D01*
X03568Y029638D01*
X035622Y029598D01*
X035611Y029582D01*
X035311D01*
Y029806D01*
D02*
G37*
G36*
X0368Y029273D02*
X036478D01*
X036484Y029225D01*
X036522Y029133D01*
X036582Y029055D01*
X036661Y028995D01*
X036752Y028957D01*
X0368Y02895D01*
Y029273D01*
D02*
G37*
G36*
X037222D02*
X0369D01*
Y02895D01*
X036948Y028957D01*
X037039Y028995D01*
X037118Y029055D01*
X037178Y029133D01*
X037216Y029225D01*
X037222Y029273D01*
D02*
G37*
G36*
X038436Y028559D02*
Y028396D01*
X038598D01*
X038591Y028432D01*
X038543Y028504D01*
X038471Y028552D01*
X038436Y028559D01*
D02*
G37*
G36*
X038336D02*
X038301Y028552D01*
X038229Y028504D01*
X03818Y028432D01*
X038173Y028396D01*
X038336D01*
Y028559D01*
D02*
G37*
G36*
X033711D02*
Y028396D01*
X033874D01*
X033867Y028432D01*
X033819Y028504D01*
X033747Y028552D01*
X033711Y028559D01*
D02*
G37*
G36*
X033611D02*
X033576Y028552D01*
X033504Y028504D01*
X033456Y028432D01*
X033449Y028396D01*
X033611D01*
Y028559D01*
D02*
G37*
G36*
X0219D02*
Y028396D01*
X022063D01*
X022056Y028432D01*
X022008Y028504D01*
X021935Y028552D01*
X0219Y028559D01*
D02*
G37*
G36*
X0218D02*
X021765Y028552D01*
X021693Y028504D01*
X021645Y028432D01*
X021638Y028396D01*
X0218D01*
Y028559D01*
D02*
G37*
G36*
X020719D02*
Y028396D01*
X020882D01*
X020875Y028432D01*
X020827Y028504D01*
X020754Y028552D01*
X020719Y028559D01*
D02*
G37*
G36*
X020619D02*
X020584Y028552D01*
X020512Y028504D01*
X020464Y028432D01*
X020457Y028396D01*
X020619D01*
Y028559D01*
D02*
G37*
G36*
X03685Y028874D02*
X036762Y028862D01*
X036681Y028828D01*
X036611Y028775D01*
X036557Y028704D01*
X036523Y028623D01*
X036512Y028535D01*
X036523Y028448D01*
X036557Y028366D01*
X036611Y028296D01*
X036681Y028242D01*
X036762Y028208D01*
X03685Y028197D01*
X036938Y028208D01*
X037019Y028242D01*
X037089Y028296D01*
X037143Y028366D01*
X037177Y028448D01*
X037188Y028535D01*
X037177Y028623D01*
X037143Y028704D01*
X037089Y028775D01*
X037019Y028828D01*
X036938Y028862D01*
X03685Y028874D01*
D02*
G37*
G36*
X038598Y028296D02*
X038436D01*
Y028134D01*
X038471Y028141D01*
X038543Y028189D01*
X038591Y028261D01*
X038598Y028296D01*
D02*
G37*
G36*
X038336D02*
X038173D01*
X03818Y028261D01*
X038229Y028189D01*
X038301Y028141D01*
X038336Y028134D01*
Y028296D01*
D02*
G37*
G36*
X033874D02*
X033711D01*
Y028134D01*
X033747Y028141D01*
X033819Y028189D01*
X033867Y028261D01*
X033874Y028296D01*
D02*
G37*
G36*
X033611D02*
X033449D01*
X033456Y028261D01*
X033504Y028189D01*
X033576Y028141D01*
X033611Y028134D01*
Y028296D01*
D02*
G37*
G36*
X022063D02*
X0219D01*
Y028134D01*
X021935Y028141D01*
X022008Y028189D01*
X022056Y028261D01*
X022063Y028296D01*
D02*
G37*
G36*
X0218D02*
X021638D01*
X021645Y028261D01*
X021693Y028189D01*
X021765Y028141D01*
X0218Y028134D01*
Y028296D01*
D02*
G37*
G36*
X020882D02*
X020719D01*
Y028134D01*
X020754Y028141D01*
X020827Y028189D01*
X020875Y028261D01*
X020882Y028296D01*
D02*
G37*
G36*
X020619D02*
X020457D01*
X020464Y028261D01*
X020512Y028189D01*
X020584Y028141D01*
X020619Y028134D01*
Y028296D01*
D02*
G37*
G36*
X035311Y028306D02*
X034777D01*
Y027654D01*
X035311D01*
Y027878D01*
X035561D01*
X035572Y027862D01*
X035631Y027822D01*
X0357Y027808D01*
X03577Y027822D01*
X035828Y027862D01*
X035868Y02792D01*
X035882Y02799D01*
X035868Y028059D01*
X035828Y028118D01*
X03577Y028158D01*
X0357Y028172D01*
X035631Y028158D01*
X035572Y028118D01*
X035561Y028102D01*
X035311D01*
Y028306D01*
D02*
G37*
G36*
X03685Y028086D02*
X036762Y028075D01*
X036681Y028041D01*
X036611Y027987D01*
X036557Y027917D01*
X036523Y027835D01*
X036512Y027748D01*
X036523Y02766D01*
X036557Y027579D01*
X036611Y027508D01*
X036681Y027455D01*
X036762Y027421D01*
X03685Y027409D01*
X036938Y027421D01*
X037019Y027455D01*
X037089Y027508D01*
X037143Y027579D01*
X037177Y02766D01*
X037188Y027748D01*
X037177Y027835D01*
X037143Y027917D01*
X037089Y027987D01*
X037019Y028041D01*
X036938Y028075D01*
X03685Y028086D01*
D02*
G37*
G36*
X037845Y027378D02*
Y027215D01*
X038008D01*
X038001Y02725D01*
X037953Y027323D01*
X03788Y027371D01*
X037845Y027378D01*
D02*
G37*
G36*
X037745D02*
X03771Y027371D01*
X037638Y027323D01*
X03759Y02725D01*
X037583Y027215D01*
X037745D01*
Y027378D01*
D02*
G37*
G36*
X035483D02*
Y027215D01*
X035645D01*
X035639Y02725D01*
X03559Y027323D01*
X035518Y027371D01*
X035483Y027378D01*
D02*
G37*
G36*
X035383D02*
X035348Y027371D01*
X035276Y027323D01*
X035228Y02725D01*
X035221Y027215D01*
X035383D01*
Y027378D01*
D02*
G37*
G36*
X020129D02*
Y027215D01*
X020291D01*
X020284Y02725D01*
X020236Y027323D01*
X020164Y027371D01*
X020129Y027378D01*
D02*
G37*
G36*
X020029D02*
X019994Y027371D01*
X019921Y027323D01*
X019873Y02725D01*
X019866Y027215D01*
X020029D01*
Y027378D01*
D02*
G37*
G36*
X038008Y027115D02*
X037845D01*
Y026953D01*
X03788Y02696D01*
X037953Y027008D01*
X038001Y02708D01*
X038008Y027115D01*
D02*
G37*
G36*
X037745D02*
X037583D01*
X03759Y02708D01*
X037638Y027008D01*
X03771Y02696D01*
X037745Y026953D01*
Y027115D01*
D02*
G37*
G36*
X035645D02*
X035483D01*
Y026953D01*
X035518Y02696D01*
X03559Y027008D01*
X035639Y02708D01*
X035645Y027115D01*
D02*
G37*
G36*
X020291D02*
X020129D01*
Y026953D01*
X020164Y02696D01*
X020236Y027008D01*
X020284Y02708D01*
X020291Y027115D01*
D02*
G37*
G36*
X020029D02*
X019866D01*
X019873Y02708D01*
X019921Y027008D01*
X019994Y02696D01*
X020029Y026953D01*
Y027115D01*
D02*
G37*
G36*
X02282Y027613D02*
X0214D01*
Y026843D01*
X02282D01*
Y027613D01*
D02*
G37*
G36*
X02385Y026616D02*
X023781Y026602D01*
X023722Y026562D01*
X023682Y026504D01*
X023668Y026434D01*
X023672Y026415D01*
X023289Y026032D01*
X023241Y026047D01*
X023237Y026069D01*
X023189Y026141D01*
X023117Y02619D01*
X023081Y026197D01*
Y025984D01*
X023031D01*
Y025934D01*
X022819D01*
X022826Y025899D01*
X022874Y025827D01*
X022927Y025791D01*
Y025608D01*
X022399D01*
Y025822D01*
X022064D01*
X022038Y025872D01*
X022056Y025899D01*
X022063Y025934D01*
X021638D01*
X021645Y025899D01*
X021693Y025827D01*
X021765Y025779D01*
X02185Y025762D01*
X021866Y025749D01*
Y025171D01*
X022399D01*
Y025384D01*
X022927D01*
Y025171D01*
X023461D01*
Y025822D01*
X023461D01*
X023442Y025868D01*
X023831Y026256D01*
X02385Y026252D01*
X023919Y026266D01*
X023978Y026306D01*
X024018Y026365D01*
X024032Y026434D01*
X024018Y026504D01*
X023978Y026562D01*
X023919Y026602D01*
X02385Y026616D01*
D02*
G37*
G36*
X038436Y026197D02*
Y026034D01*
X038598D01*
X038591Y026069D01*
X038543Y026141D01*
X038471Y02619D01*
X038436Y026197D01*
D02*
G37*
G36*
X038336D02*
X038301Y02619D01*
X038229Y026141D01*
X03818Y026069D01*
X038173Y026034D01*
X038336D01*
Y026197D01*
D02*
G37*
G36*
X037255D02*
Y026034D01*
X037417D01*
X03741Y026069D01*
X037362Y026141D01*
X03729Y02619D01*
X037255Y026197D01*
D02*
G37*
G36*
X037155D02*
X03712Y02619D01*
X037047Y026141D01*
X036999Y026069D01*
X036992Y026034D01*
X037155D01*
Y026197D01*
D02*
G37*
G36*
X036074D02*
Y026034D01*
X036236D01*
X036229Y026069D01*
X036181Y026141D01*
X036109Y02619D01*
X036074Y026197D01*
D02*
G37*
G36*
X035974D02*
X035939Y02619D01*
X035866Y026141D01*
X035818Y026069D01*
X035811Y026034D01*
X035974D01*
Y026197D01*
D02*
G37*
G36*
X024263D02*
Y026034D01*
X024425D01*
X024418Y026069D01*
X02437Y026141D01*
X024298Y02619D01*
X024263Y026197D01*
D02*
G37*
G36*
X024163D02*
X024127Y02619D01*
X024055Y026141D01*
X024007Y026069D01*
X024Y026034D01*
X024163D01*
Y026197D01*
D02*
G37*
G36*
X022981D02*
X022946Y02619D01*
X022874Y026141D01*
X022826Y026069D01*
X022819Y026034D01*
X022981D01*
Y026197D01*
D02*
G37*
G36*
X0219D02*
Y026034D01*
X022063D01*
X022056Y026069D01*
X022008Y026141D01*
X021935Y02619D01*
X0219Y026197D01*
D02*
G37*
G36*
X0218D02*
X021765Y02619D01*
X021693Y026141D01*
X021645Y026069D01*
X021638Y026034D01*
X0218D01*
Y026197D01*
D02*
G37*
G36*
X020719D02*
Y026034D01*
X020882D01*
X020875Y026069D01*
X020827Y026141D01*
X020754Y02619D01*
X020719Y026197D01*
D02*
G37*
G36*
X020619D02*
X020584Y02619D01*
X020512Y026141D01*
X020464Y026069D01*
X020457Y026034D01*
X020619D01*
Y026197D01*
D02*
G37*
G36*
X038598Y025934D02*
X038436D01*
Y025772D01*
X038471Y025779D01*
X038543Y025827D01*
X038591Y025899D01*
X038598Y025934D01*
D02*
G37*
G36*
X038336D02*
X038173D01*
X03818Y025899D01*
X038229Y025827D01*
X038301Y025779D01*
X038336Y025772D01*
Y025934D01*
D02*
G37*
G36*
X037417D02*
X037255D01*
Y025772D01*
X03729Y025779D01*
X037362Y025827D01*
X03741Y025899D01*
X037417Y025934D01*
D02*
G37*
G36*
X037155D02*
X036992D01*
X036999Y025899D01*
X037047Y025827D01*
X03712Y025779D01*
X037155Y025772D01*
Y025934D01*
D02*
G37*
G36*
X036236D02*
X036074D01*
Y025772D01*
X036109Y025779D01*
X036181Y025827D01*
X036229Y025899D01*
X036236Y025934D01*
D02*
G37*
G36*
X035974D02*
X035811D01*
X035818Y025899D01*
X035866Y025827D01*
X035939Y025779D01*
X035974Y025772D01*
Y025934D01*
D02*
G37*
G36*
X020882D02*
X020719D01*
Y025772D01*
X020754Y025779D01*
X020827Y025827D01*
X020875Y025899D01*
X020882Y025934D01*
D02*
G37*
G36*
X020619D02*
X020457D01*
X020464Y025899D01*
X020512Y025827D01*
X020584Y025779D01*
X020619Y025772D01*
Y025934D01*
D02*
G37*
G36*
X035346Y025916D02*
X03506D01*
Y025571D01*
X035346D01*
Y025916D01*
D02*
G37*
G36*
X03496D02*
X034674D01*
Y025571D01*
X03496D01*
Y025916D01*
D02*
G37*
G36*
X024425Y025934D02*
X024D01*
X024005Y025912D01*
X023976Y025862D01*
X023655D01*
Y025546D01*
X023962D01*
X024269D01*
Y025773D01*
X024298Y025779D01*
X02437Y025827D01*
X024418Y025899D01*
X024425Y025934D01*
D02*
G37*
G36*
X023912Y025446D02*
X023655D01*
Y025131D01*
X023912D01*
Y025446D01*
D02*
G37*
G36*
X032631Y025471D02*
X032344D01*
Y025125D01*
X032631D01*
Y025471D01*
D02*
G37*
G36*
X032244D02*
X031958D01*
Y025125D01*
X032244D01*
Y025471D01*
D02*
G37*
G36*
X035346Y025471D02*
X03506D01*
Y025125D01*
X035346D01*
Y025471D01*
D02*
G37*
G36*
X03496D02*
X034674D01*
Y025125D01*
X03496D01*
Y025471D01*
D02*
G37*
G36*
X037845Y025016D02*
Y024853D01*
X038008D01*
X038001Y024888D01*
X037953Y02496D01*
X03788Y025009D01*
X037845Y025016D01*
D02*
G37*
G36*
X037745D02*
X03771Y025009D01*
X037638Y02496D01*
X03759Y024888D01*
X037583Y024853D01*
X037745D01*
Y025016D01*
D02*
G37*
G36*
X036664D02*
Y024853D01*
X036827D01*
X03682Y024888D01*
X036771Y02496D01*
X036699Y025009D01*
X036664Y025016D01*
D02*
G37*
G36*
X036564D02*
X036529Y025009D01*
X036457Y02496D01*
X036409Y024888D01*
X036402Y024853D01*
X036564D01*
Y025016D01*
D02*
G37*
G36*
X035483D02*
Y024853D01*
X035645D01*
X035639Y024888D01*
X03559Y02496D01*
X035518Y025009D01*
X035483Y025016D01*
D02*
G37*
G36*
X034302D02*
Y024853D01*
X034464D01*
X034457Y024888D01*
X034409Y02496D01*
X034337Y025009D01*
X034302Y025016D01*
D02*
G37*
G36*
X034202D02*
X034167Y025009D01*
X034095Y02496D01*
X034046Y024888D01*
X03404Y024853D01*
X034202D01*
Y025016D01*
D02*
G37*
G36*
X03194D02*
Y024853D01*
X032102D01*
X032095Y024888D01*
X032047Y02496D01*
X031975Y025009D01*
X03194Y025016D01*
D02*
G37*
G36*
X03184D02*
X031805Y025009D01*
X031733Y02496D01*
X031684Y024888D01*
X031677Y024853D01*
X03184D01*
Y025016D01*
D02*
G37*
G36*
X023572D02*
X023537Y025009D01*
X023465Y02496D01*
X023417Y024888D01*
X02341Y024853D01*
X023572D01*
Y025016D01*
D02*
G37*
G36*
X022491D02*
Y024853D01*
X022653D01*
X022646Y024888D01*
X022598Y02496D01*
X022526Y025009D01*
X022491Y025016D01*
D02*
G37*
G36*
X022391D02*
X022356Y025009D01*
X022284Y02496D01*
X022235Y024888D01*
X022229Y024853D01*
X022391D01*
Y025016D01*
D02*
G37*
G36*
X02131D02*
Y024853D01*
X021472D01*
X021465Y024888D01*
X021417Y02496D01*
X021345Y025009D01*
X02131Y025016D01*
D02*
G37*
G36*
X02121D02*
X021175Y025009D01*
X021103Y02496D01*
X021054Y024888D01*
X021047Y024853D01*
X02121D01*
Y025016D01*
D02*
G37*
G36*
X020129D02*
Y024853D01*
X020291D01*
X020284Y024888D01*
X020236Y02496D01*
X020164Y025009D01*
X020129Y025016D01*
D02*
G37*
G36*
X020029D02*
X019994Y025009D01*
X019921Y02496D01*
X019873Y024888D01*
X019866Y024853D01*
X020029D01*
Y025016D01*
D02*
G37*
G36*
X038008Y024753D02*
X037845D01*
Y024591D01*
X03788Y024598D01*
X037953Y024646D01*
X038001Y024718D01*
X038008Y024753D01*
D02*
G37*
G36*
X037745D02*
X037583D01*
X03759Y024718D01*
X037638Y024646D01*
X03771Y024598D01*
X037745Y024591D01*
Y024753D01*
D02*
G37*
G36*
X036827D02*
X036664D01*
Y024591D01*
X036699Y024598D01*
X036771Y024646D01*
X03682Y024718D01*
X036827Y024753D01*
D02*
G37*
G36*
X036564D02*
X036402D01*
X036409Y024718D01*
X036457Y024646D01*
X036529Y024598D01*
X036564Y024591D01*
Y024753D01*
D02*
G37*
G36*
X035645D02*
X035483D01*
Y024591D01*
X035518Y024598D01*
X03559Y024646D01*
X035639Y024718D01*
X035645Y024753D01*
D02*
G37*
G36*
X032102D02*
X03194D01*
Y024591D01*
X031975Y024598D01*
X032047Y024646D01*
X032095Y024718D01*
X032102Y024753D01*
D02*
G37*
G36*
X03184D02*
X031677D01*
X031684Y024718D01*
X031733Y024646D01*
X031805Y024598D01*
X03184Y024591D01*
Y024753D01*
D02*
G37*
G36*
X022653D02*
X022491D01*
Y024591D01*
X022526Y024598D01*
X022598Y024646D01*
X022646Y024718D01*
X022653Y024753D01*
D02*
G37*
G36*
X022391D02*
X022229D01*
X022235Y024718D01*
X022284Y024646D01*
X022356Y024598D01*
X022391Y024591D01*
Y024753D01*
D02*
G37*
G36*
X021472D02*
X02131D01*
Y024591D01*
X021345Y024598D01*
X021417Y024646D01*
X021465Y024718D01*
X021472Y024753D01*
D02*
G37*
G36*
X02121D02*
X021047D01*
X021054Y024718D01*
X021103Y024646D01*
X021175Y024598D01*
X02121Y024591D01*
Y024753D01*
D02*
G37*
G36*
X020291D02*
X020129D01*
Y024591D01*
X020164Y024598D01*
X020236Y024646D01*
X020284Y024718D01*
X020291Y024753D01*
D02*
G37*
G36*
X020029D02*
X019866D01*
X019873Y024718D01*
X019921Y024646D01*
X019994Y024598D01*
X020029Y024591D01*
Y024753D01*
D02*
G37*
G36*
X038436Y023834D02*
Y023672D01*
X038598D01*
X038591Y023707D01*
X038543Y023779D01*
X038471Y023827D01*
X038436Y023834D01*
D02*
G37*
G36*
X038336D02*
X038301Y023827D01*
X038229Y023779D01*
X03818Y023707D01*
X038173Y023672D01*
X038336D01*
Y023834D01*
D02*
G37*
G36*
X037255D02*
Y023672D01*
X037417D01*
X03741Y023707D01*
X037362Y023779D01*
X03729Y023827D01*
X037255Y023834D01*
D02*
G37*
G36*
X037155D02*
X03712Y023827D01*
X037047Y023779D01*
X036999Y023707D01*
X036992Y023672D01*
X037155D01*
Y023834D01*
D02*
G37*
G36*
X036074D02*
Y023672D01*
X036236D01*
X036229Y023707D01*
X036181Y023779D01*
X036109Y023827D01*
X036074Y023834D01*
D02*
G37*
G36*
X035974D02*
X035939Y023827D01*
X035866Y023779D01*
X035818Y023707D01*
X035811Y023672D01*
X035974D01*
Y023834D01*
D02*
G37*
G36*
X031249D02*
X031214Y023827D01*
X031142Y023779D01*
X031094Y023707D01*
X031087Y023672D01*
X031249D01*
Y023834D01*
D02*
G37*
G36*
X0219D02*
Y023672D01*
X022063D01*
X022056Y023707D01*
X022008Y023779D01*
X021935Y023827D01*
X0219Y023834D01*
D02*
G37*
G36*
X0218D02*
X021765Y023827D01*
X021693Y023779D01*
X021645Y023707D01*
X021638Y023672D01*
X0218D01*
Y023834D01*
D02*
G37*
G36*
X020719D02*
Y023672D01*
X020882D01*
X020875Y023707D01*
X020827Y023779D01*
X020754Y023827D01*
X020719Y023834D01*
D02*
G37*
G36*
X020619D02*
X020584Y023827D01*
X020512Y023779D01*
X020464Y023707D01*
X020457Y023672D01*
X020619D01*
Y023834D01*
D02*
G37*
G36*
X038598Y023572D02*
X038436D01*
Y02341D01*
X038471Y023417D01*
X038543Y023465D01*
X038591Y023537D01*
X038598Y023572D01*
D02*
G37*
G36*
X038336D02*
X038173D01*
X03818Y023537D01*
X038229Y023465D01*
X038301Y023417D01*
X038336Y02341D01*
Y023572D01*
D02*
G37*
G36*
X037417D02*
X037255D01*
Y02341D01*
X03729Y023417D01*
X037362Y023465D01*
X03741Y023537D01*
X037417Y023572D01*
D02*
G37*
G36*
X037155D02*
X036992D01*
X036999Y023537D01*
X037047Y023465D01*
X03712Y023417D01*
X037155Y02341D01*
Y023572D01*
D02*
G37*
G36*
X036236D02*
X036074D01*
Y02341D01*
X036109Y023417D01*
X036181Y023465D01*
X036229Y023537D01*
X036236Y023572D01*
D02*
G37*
G36*
X035974D02*
X035811D01*
X035818Y023537D01*
X035866Y023465D01*
X035939Y023417D01*
X035974Y02341D01*
Y023572D01*
D02*
G37*
G36*
X022063D02*
X0219D01*
Y02341D01*
X021935Y023417D01*
X022008Y023465D01*
X022056Y023537D01*
X022063Y023572D01*
D02*
G37*
G36*
X0218D02*
X021638D01*
X021645Y023537D01*
X021693Y023465D01*
X021765Y023417D01*
X0218Y02341D01*
Y023572D01*
D02*
G37*
G36*
X020882D02*
X020719D01*
Y02341D01*
X020754Y023417D01*
X020827Y023465D01*
X020875Y023537D01*
X020882Y023572D01*
D02*
G37*
G36*
X020619D02*
X020457D01*
X020464Y023537D01*
X020512Y023465D01*
X020584Y023417D01*
X020619Y02341D01*
Y023572D01*
D02*
G37*
G36*
X032693D02*
X032268D01*
X032275Y023537D01*
X032322Y023466D01*
X032321Y023458D01*
X032306Y023416D01*
X032185D01*
Y02313D01*
X03258D01*
X032975D01*
Y023416D01*
X032655D01*
X03264Y023458D01*
X032638Y023466D01*
X032686Y023537D01*
X032693Y023572D01*
D02*
G37*
G36*
X03253Y02303D02*
X032185D01*
Y022744D01*
X03253D01*
Y02303D01*
D02*
G37*
G36*
X03194Y022653D02*
Y022491D01*
X032102D01*
X032095Y022526D01*
X032047Y022598D01*
X031975Y022646D01*
X03194Y022653D01*
D02*
G37*
G36*
X03184D02*
X031805Y022646D01*
X031733Y022598D01*
X031684Y022526D01*
X031677Y022491D01*
X03184D01*
Y022653D01*
D02*
G37*
G36*
X029578D02*
Y022491D01*
X02974D01*
X029733Y022526D01*
X029685Y022598D01*
X029613Y022646D01*
X029578Y022653D01*
D02*
G37*
G36*
X029478D02*
X029442Y022646D01*
X02937Y022598D01*
X029322Y022526D01*
X029315Y022491D01*
X029478D01*
Y022653D01*
D02*
G37*
G36*
X032102Y022391D02*
X03194D01*
Y022229D01*
X031975Y022235D01*
X032047Y022284D01*
X032095Y022356D01*
X032102Y022391D01*
D02*
G37*
G36*
X03184D02*
X031677D01*
X031684Y022356D01*
X031733Y022284D01*
X031805Y022235D01*
X03184Y022229D01*
Y022391D01*
D02*
G37*
G36*
X02974D02*
X029578D01*
Y022229D01*
X029613Y022235D01*
X029685Y022284D01*
X029733Y022356D01*
X02974Y022391D01*
D02*
G37*
G36*
X029478D02*
X029315D01*
X029322Y022356D01*
X02937Y022284D01*
X029442Y022235D01*
X029478Y022229D01*
Y022391D01*
D02*
G37*
G36*
X035546Y022613D02*
X034894D01*
Y022096D01*
X034202Y021403D01*
X034164Y021408D01*
X034076Y021397D01*
X033994Y021363D01*
X033924Y021309D01*
X033871Y021239D01*
X033837Y021158D01*
X033825Y02107D01*
X033837Y020982D01*
X033871Y020901D01*
X033924Y020831D01*
X033994Y020777D01*
X034076Y020743D01*
X034164Y020732D01*
X034251Y020743D01*
X034333Y020777D01*
X034403Y020831D01*
X034457Y020901D01*
X034491Y020982D01*
X034502Y02107D01*
X034491Y021158D01*
X034457Y021239D01*
X034413Y021297D01*
X035195Y022079D01*
X035546D01*
Y022613D01*
D02*
G37*
G36*
X031329D02*
X030678D01*
Y022079D01*
X030891D01*
Y02158D01*
X030685Y021373D01*
X030628Y021397D01*
X03054Y021408D01*
X030452Y021397D01*
X030371Y021363D01*
X030301Y021309D01*
X030247Y021239D01*
X030213Y021158D01*
X030202Y02107D01*
X030213Y020982D01*
X030247Y020901D01*
X030301Y020831D01*
X030371Y020777D01*
X030452Y020743D01*
X03054Y020732D01*
X030628Y020743D01*
X030709Y020777D01*
X030779Y020831D01*
X030833Y020901D01*
X030867Y020982D01*
X030878Y02107D01*
X030867Y021158D01*
X030843Y021215D01*
X031083Y021454D01*
X031083Y021454D01*
X031107Y02149D01*
X031115Y021533D01*
Y022079D01*
X031329D01*
Y022613D01*
D02*
G37*
G36*
X035001Y021442D02*
Y02112D01*
X035323D01*
X035317Y021168D01*
X035279Y021259D01*
X035219Y021338D01*
X035141Y021398D01*
X035049Y021436D01*
X035001Y021442D01*
D02*
G37*
G36*
X034901D02*
X034853Y021436D01*
X034762Y021398D01*
X034683Y021338D01*
X034623Y021259D01*
X034585Y021168D01*
X034579Y02112D01*
X034901D01*
Y021442D01*
D02*
G37*
G36*
X031377D02*
Y02112D01*
X0317D01*
X031693Y021168D01*
X031655Y021259D01*
X031595Y021338D01*
X031517Y021398D01*
X031425Y021436D01*
X031377Y021442D01*
D02*
G37*
G36*
X031277D02*
X031229Y021436D01*
X031138Y021398D01*
X03106Y021338D01*
X030999Y021259D01*
X030961Y021168D01*
X030955Y02112D01*
X031277D01*
Y021442D01*
D02*
G37*
G36*
X023578Y02106D02*
X023256D01*
Y020738D01*
X023304Y020744D01*
X023395Y020782D01*
X023474Y020842D01*
X023534Y020921D01*
X023572Y021012D01*
X023578Y02106D01*
D02*
G37*
G36*
X023156D02*
X022833D01*
X02284Y021012D01*
X022878Y020921D01*
X022938Y020842D01*
X023016Y020782D01*
X023108Y020744D01*
X023156Y020738D01*
Y02106D01*
D02*
G37*
G36*
X032975Y02303D02*
X03263D01*
Y022744D01*
X032866D01*
X032887Y022697D01*
X032863Y022667D01*
X032225D01*
Y022075D01*
X032417D01*
Y021406D01*
X032253D01*
Y020734D01*
X032924D01*
Y021406D01*
X032743D01*
Y022075D01*
X032935D01*
Y022273D01*
X03334Y022678D01*
X033348Y022679D01*
X033407Y022719D01*
X033447Y022778D01*
X033461Y022847D01*
X033447Y022917D01*
X033407Y022976D01*
X033348Y023015D01*
X033279Y023029D01*
X033209Y023015D01*
X03315Y022976D01*
X033111Y022917D01*
X033109Y022908D01*
X033021Y02282D01*
X032975Y02284D01*
Y02303D01*
D02*
G37*
G36*
X030451Y022613D02*
X029799D01*
Y022079D01*
X030013D01*
Y021489D01*
X02993Y021406D01*
X029417D01*
Y020734D01*
X030088D01*
Y021247D01*
X030204Y021363D01*
X030204Y021363D01*
X030228Y021399D01*
X030237Y021442D01*
X030237Y021442D01*
Y022079D01*
X030451D01*
Y022613D01*
D02*
G37*
G36*
X034331D02*
X033679D01*
Y022179D01*
X033297Y021797D01*
X033273Y02176D01*
X033264Y021718D01*
X033264Y021718D01*
Y021387D01*
X033207Y021363D01*
X033137Y021309D01*
X033083Y021239D01*
X033049Y021158D01*
X033038Y02107D01*
X033049Y020982D01*
X033083Y020901D01*
X033137Y020831D01*
X033207Y020777D01*
X033289Y020743D01*
X033376Y020732D01*
X033464Y020743D01*
X033546Y020777D01*
X033616Y020831D01*
X033669Y020901D01*
X033703Y020982D01*
X033715Y02107D01*
X033703Y021158D01*
X033669Y021239D01*
X033616Y021309D01*
X033546Y021363D01*
X033488Y021387D01*
Y021671D01*
X033897Y022079D01*
X034331D01*
Y022613D01*
D02*
G37*
G36*
X035323Y02102D02*
X035001D01*
Y020698D01*
X035049Y020704D01*
X035141Y020742D01*
X035219Y020802D01*
X035279Y020881D01*
X035317Y020972D01*
X035323Y02102D01*
D02*
G37*
G36*
X034901D02*
X034579D01*
X034585Y020972D01*
X034623Y020881D01*
X034683Y020802D01*
X034762Y020742D01*
X034853Y020704D01*
X034901Y020698D01*
Y02102D01*
D02*
G37*
G36*
X0317D02*
X031377D01*
Y020698D01*
X031425Y020704D01*
X031517Y020742D01*
X031595Y020802D01*
X031655Y020881D01*
X031693Y020972D01*
X0317Y02102D01*
D02*
G37*
G36*
X031277D02*
X030955D01*
X030961Y020972D01*
X030999Y020881D01*
X03106Y020802D01*
X031138Y020742D01*
X031229Y020704D01*
X031277Y020698D01*
Y02102D01*
D02*
G37*
G36*
X035483Y020291D02*
Y020129D01*
X035645D01*
X035639Y020164D01*
X03559Y020236D01*
X035518Y020284D01*
X035483Y020291D01*
D02*
G37*
G36*
X035383D02*
X035348Y020284D01*
X035276Y020236D01*
X035228Y020164D01*
X035221Y020129D01*
X035383D01*
Y020291D01*
D02*
G37*
G36*
X034302D02*
Y020129D01*
X034464D01*
X034457Y020164D01*
X034409Y020236D01*
X034337Y020284D01*
X034302Y020291D01*
D02*
G37*
G36*
X034202D02*
X034167Y020284D01*
X034095Y020236D01*
X034046Y020164D01*
X03404Y020129D01*
X034202D01*
Y020291D01*
D02*
G37*
G36*
X033121D02*
Y020129D01*
X033283D01*
X033276Y020164D01*
X033228Y020236D01*
X033156Y020284D01*
X033121Y020291D01*
D02*
G37*
G36*
X033021D02*
X032986Y020284D01*
X032914Y020236D01*
X032865Y020164D01*
X032858Y020129D01*
X033021D01*
Y020291D01*
D02*
G37*
G36*
X03194D02*
Y020129D01*
X032102D01*
X032095Y020164D01*
X032047Y020236D01*
X031975Y020284D01*
X03194Y020291D01*
D02*
G37*
G36*
X03184D02*
X031805Y020284D01*
X031733Y020236D01*
X031684Y020164D01*
X031677Y020129D01*
X03184D01*
Y020291D01*
D02*
G37*
G36*
X030759D02*
Y020129D01*
X030921D01*
X030914Y020164D01*
X030866Y020236D01*
X030794Y020284D01*
X030759Y020291D01*
D02*
G37*
G36*
X030659D02*
X030624Y020284D01*
X030551Y020236D01*
X030503Y020164D01*
X030496Y020129D01*
X030659D01*
Y020291D01*
D02*
G37*
G36*
X029578D02*
Y020129D01*
X02974D01*
X029733Y020164D01*
X029685Y020236D01*
X029613Y020284D01*
X029578Y020291D01*
D02*
G37*
G36*
X029478D02*
X029442Y020284D01*
X02937Y020236D01*
X029322Y020164D01*
X029315Y020129D01*
X029478D01*
Y020291D01*
D02*
G37*
G36*
X024853D02*
Y020129D01*
X025016D01*
X025009Y020164D01*
X02496Y020236D01*
X024888Y020284D01*
X024853Y020291D01*
D02*
G37*
G36*
X024753D02*
X024718Y020284D01*
X024646Y020236D01*
X024598Y020164D01*
X024591Y020129D01*
X024753D01*
Y020291D01*
D02*
G37*
G36*
X023672D02*
Y020129D01*
X023834D01*
X023827Y020164D01*
X023779Y020236D01*
X023707Y020284D01*
X023672Y020291D01*
D02*
G37*
G36*
X023572D02*
X023537Y020284D01*
X023465Y020236D01*
X023417Y020164D01*
X02341Y020129D01*
X023572D01*
Y020291D01*
D02*
G37*
G36*
X022491D02*
Y020129D01*
X022653D01*
X022646Y020164D01*
X022598Y020236D01*
X022526Y020284D01*
X022491Y020291D01*
D02*
G37*
G36*
X022391D02*
X022356Y020284D01*
X022284Y020236D01*
X022235Y020164D01*
X022229Y020129D01*
X022391D01*
Y020291D01*
D02*
G37*
G36*
X035645Y020029D02*
X035483D01*
Y019866D01*
X035518Y019873D01*
X03559Y019921D01*
X035639Y019994D01*
X035645Y020029D01*
D02*
G37*
G36*
X035383D02*
X035221D01*
X035228Y019994D01*
X035276Y019921D01*
X035348Y019873D01*
X035383Y019866D01*
Y020029D01*
D02*
G37*
G36*
X034464D02*
X034302D01*
Y019866D01*
X034337Y019873D01*
X034409Y019921D01*
X034457Y019994D01*
X034464Y020029D01*
D02*
G37*
G36*
X034202D02*
X03404D01*
X034046Y019994D01*
X034095Y019921D01*
X034167Y019873D01*
X034202Y019866D01*
Y020029D01*
D02*
G37*
G36*
X033283D02*
X033121D01*
Y019866D01*
X033156Y019873D01*
X033228Y019921D01*
X033276Y019994D01*
X033283Y020029D01*
D02*
G37*
G36*
X033021D02*
X032858D01*
X032865Y019994D01*
X032914Y019921D01*
X032986Y019873D01*
X033021Y019866D01*
Y020029D01*
D02*
G37*
G36*
X032102D02*
X03194D01*
Y019866D01*
X031975Y019873D01*
X032047Y019921D01*
X032095Y019994D01*
X032102Y020029D01*
D02*
G37*
G36*
X03184D02*
X031677D01*
X031684Y019994D01*
X031733Y019921D01*
X031805Y019873D01*
X03184Y019866D01*
Y020029D01*
D02*
G37*
G36*
X030921D02*
X030759D01*
Y019866D01*
X030794Y019873D01*
X030866Y019921D01*
X030914Y019994D01*
X030921Y020029D01*
D02*
G37*
G36*
X030659D02*
X030496D01*
X030503Y019994D01*
X030551Y019921D01*
X030624Y019873D01*
X030659Y019866D01*
Y020029D01*
D02*
G37*
G36*
X02974D02*
X029578D01*
Y019866D01*
X029613Y019873D01*
X029685Y019921D01*
X029733Y019994D01*
X02974Y020029D01*
D02*
G37*
G36*
X029478D02*
X029315D01*
X029322Y019994D01*
X02937Y019921D01*
X029442Y019873D01*
X029478Y019866D01*
Y020029D01*
D02*
G37*
G36*
X028559D02*
X028396D01*
Y019866D01*
X028432Y019873D01*
X028504Y019921D01*
X028552Y019994D01*
X028559Y020029D01*
D02*
G37*
G36*
X028296D02*
X028134D01*
X028141Y019994D01*
X028189Y019921D01*
X028261Y019873D01*
X028296Y019866D01*
Y020029D01*
D02*
G37*
G36*
X025016D02*
X024853D01*
Y019866D01*
X024888Y019873D01*
X02496Y019921D01*
X025009Y019994D01*
X025016Y020029D01*
D02*
G37*
G36*
X024753D02*
X024591D01*
X024598Y019994D01*
X024646Y019921D01*
X024718Y019873D01*
X024753Y019866D01*
Y020029D01*
D02*
G37*
G36*
X023834D02*
X023672D01*
Y019866D01*
X023707Y019873D01*
X023779Y019921D01*
X023827Y019994D01*
X023834Y020029D01*
D02*
G37*
G36*
X023572D02*
X02341D01*
X023417Y019994D01*
X023465Y019921D01*
X023537Y019873D01*
X023572Y019866D01*
Y020029D01*
D02*
G37*
G36*
X022653D02*
X022491D01*
Y019866D01*
X022526Y019873D01*
X022598Y019921D01*
X022646Y019994D01*
X022653Y020029D01*
D02*
G37*
G36*
X022391D02*
X022229D01*
X022235Y019994D01*
X022284Y019921D01*
X022356Y019873D01*
X022391Y019866D01*
Y020029D01*
D02*
G37*
%LPD*%
G36*
X02105Y04209D02*
X02105Y04151D01*
X02298Y03958D01*
X026318D01*
X027167Y038731D01*
X027974Y038731D01*
X02808Y038625D01*
X02808Y038375D01*
X027995Y03829D01*
X026395Y03829D01*
X025865Y03882D01*
X024278Y03882D01*
X023658Y0382D01*
X02046D01*
Y0421D01*
X02056Y0422D01*
X02094D01*
X02105Y04209D01*
D02*
G37*
G36*
X02948Y04092D02*
X028839Y040278D01*
X028839Y037206D01*
X02842Y036788D01*
X027274Y036788D01*
X027196Y036866D01*
X027196Y037137D01*
X027272Y037212D01*
X027277Y037206D01*
X028221D01*
Y04106D01*
X02878Y04162D01*
X02948Y04092D01*
D02*
G37*
G36*
X034276Y038696D02*
X034276Y038206D01*
X03415Y038081D01*
X03368D01*
X033441Y03832D01*
X03278Y03832D01*
X0327Y0384D01*
X0327Y03862D01*
X03278Y0387D01*
X033486D01*
X033606Y03882D01*
X034152D01*
X034276Y038696D01*
D02*
G37*
G36*
X03103Y038751D02*
X031629D01*
Y034749D01*
X031586D01*
Y03475D01*
X03103D01*
Y03353D01*
X029671D01*
Y03475D01*
X029071D01*
Y03875D01*
X029671D01*
Y03997D01*
X03103D01*
Y038751D01*
D02*
G37*
G36*
X025791Y034379D02*
X02579Y033994D01*
X025676Y03388D01*
X024579Y03388D01*
X024479Y033979D01*
X024477Y034415D01*
X024586Y034525D01*
X025645D01*
X025791Y034379D01*
D02*
G37*
G36*
X02599Y03281D02*
Y032089D01*
X025877Y031977D01*
X02543Y03198D01*
X02535Y03206D01*
X02535Y03264D01*
Y032807D01*
X025448Y032928D01*
X025872Y032928D01*
X02599Y03281D01*
D02*
G37*
G36*
X03254Y030939D02*
X032525Y030903D01*
X032517Y030891D01*
X03245Y030878D01*
X032392Y030838D01*
X032352Y03078D01*
X032338Y03071D01*
X032344Y030681D01*
X032306Y030637D01*
X032263D01*
X03224Y030642D01*
X03168D01*
X031646Y030635D01*
X031617Y030615D01*
X031598Y030587D01*
X031591Y030552D01*
Y030497D01*
X031598Y030463D01*
X031596Y030452D01*
X031589Y030447D01*
X03156Y030405D01*
X031555Y030378D01*
X032371D01*
X032376Y03041D01*
X032404Y030418D01*
X03242Y030421D01*
X032456Y030445D01*
X032544Y030533D01*
X032589Y030542D01*
X032648Y030582D01*
X032688Y03064D01*
X032701Y030707D01*
X032713Y030715D01*
X032749Y03073D01*
X034009Y029469D01*
Y029244D01*
X033963Y029225D01*
X032978Y03021D01*
X032942Y030235D01*
X032899Y030243D01*
X032899Y030243D01*
X032409D01*
X032381Y030278D01*
X031555D01*
X03156Y030251D01*
X031589Y030208D01*
X031596Y030204D01*
X031598Y030193D01*
X031591Y030159D01*
Y030104D01*
X031598Y030069D01*
X031614Y030033D01*
X031598Y029996D01*
X031591Y029962D01*
Y029907D01*
X031598Y029873D01*
X031614Y029836D01*
X031598Y029799D01*
X031591Y029765D01*
Y02971D01*
X031593Y029703D01*
X031558Y029653D01*
X031219D01*
X031188Y029698D01*
X03113Y029738D01*
X03106Y029752D01*
X031017Y029743D01*
X030987Y029788D01*
X031008Y029819D01*
X031022Y029888D01*
X031008Y029958D01*
X030968Y030017D01*
X03091Y030056D01*
X03084Y03007D01*
X03077Y030056D01*
X030712Y030017D01*
X030672Y029958D01*
X030658Y029888D01*
X030662Y029869D01*
X030634Y029841D01*
X03061Y029805D01*
X030602Y029762D01*
X030602Y029762D01*
Y029451D01*
X030602Y029451D01*
X03061Y029408D01*
X030634Y029371D01*
X030938Y029068D01*
X030938Y029068D01*
X030974Y029043D01*
X031017Y029035D01*
X031558D01*
X031593Y028985D01*
X031591Y028978D01*
Y028922D01*
X031598Y028888D01*
X031614Y028852D01*
X031598Y028815D01*
X031591Y028781D01*
Y028726D01*
X031598Y028691D01*
X031614Y028655D01*
X031598Y028618D01*
X031591Y028584D01*
Y028529D01*
X031598Y028495D01*
X031614Y028458D01*
X031598Y028421D01*
X031591Y028387D01*
Y028332D01*
X031598Y028298D01*
X031617Y028269D01*
Y028253D01*
X031598Y028224D01*
X031591Y02819D01*
Y028135D01*
X031598Y028101D01*
X031614Y028064D01*
X031598Y028027D01*
X031591Y027993D01*
Y027938D01*
X031598Y027904D01*
X031614Y027867D01*
X031598Y027831D01*
X031591Y027796D01*
Y027741D01*
X031598Y027707D01*
X031614Y02767D01*
X031598Y027634D01*
X031591Y0276D01*
Y027544D01*
X031598Y02751D01*
X031617Y027481D01*
X031646Y027462D01*
X03168Y027455D01*
X03224D01*
X032274Y027462D01*
X032303Y027481D01*
X032322Y02751D01*
X032329Y027544D01*
Y0276D01*
X032322Y027634D01*
X032306Y02767D01*
X032322Y027707D01*
X032329Y027741D01*
Y027796D01*
X032322Y027831D01*
X032306Y027867D01*
X032322Y027904D01*
X032329Y027938D01*
Y027993D01*
X032322Y028027D01*
X032306Y028064D01*
X032322Y028101D01*
X032329Y028135D01*
Y02819D01*
X032322Y028224D01*
X032303Y028253D01*
Y028269D01*
X032322Y028298D01*
X032329Y028332D01*
Y028387D01*
X032322Y028421D01*
X032306Y028458D01*
X032322Y028495D01*
X032329Y028529D01*
Y028584D01*
X032322Y028618D01*
X032306Y028655D01*
X032322Y028691D01*
X032329Y028726D01*
Y028781D01*
X032322Y028815D01*
X032306Y028852D01*
X032322Y028888D01*
X032329Y028922D01*
Y028978D01*
X032322Y029012D01*
X032306Y029048D01*
X032322Y029085D01*
X032329Y029119D01*
Y029174D01*
X032327Y029182D01*
X032362Y029232D01*
X032821D01*
X032842Y029201D01*
X032901Y029162D01*
X03297Y029148D01*
X03304Y029162D01*
X033098Y029201D01*
X033138Y02926D01*
X033152Y029329D01*
X033139Y029391D01*
X033157Y029409D01*
X03318Y029421D01*
X033421Y02918D01*
X032531Y028289D01*
X032506Y028253D01*
X032498Y02821D01*
X032498Y02821D01*
Y026939D01*
X032482Y026928D01*
X032442Y026869D01*
X032428Y0268D01*
X032442Y02673D01*
X032482Y026672D01*
X032541Y026632D01*
X03261Y026618D01*
X03268Y026632D01*
X032738Y026672D01*
X032778Y02673D01*
X032792Y0268D01*
X032778Y026869D01*
X032738Y026928D01*
X032722Y026939D01*
Y027071D01*
X032772Y027086D01*
X032782Y027072D01*
X03284Y027032D01*
X03291Y027018D01*
X03298Y027032D01*
X033038Y027072D01*
X033049Y027088D01*
X033969D01*
X034009Y027066D01*
X034009Y027038D01*
Y026704D01*
X033549Y026243D01*
X03295D01*
X032943Y026248D01*
X032873Y026262D01*
X032804Y026248D01*
X032797Y026243D01*
X032096D01*
X032034Y026231D01*
X031981Y026195D01*
X031661Y025876D01*
X031389D01*
X031312Y025953D01*
Y026509D01*
X031317Y026533D01*
Y027092D01*
X03131Y027126D01*
X031291Y027155D01*
X031262Y027174D01*
X031228Y027181D01*
X031173D01*
X031138Y027174D01*
X031128Y027176D01*
X031123Y027184D01*
X031081Y027212D01*
X031053Y027217D01*
Y026812D01*
Y026391D01*
X031088Y026363D01*
Y025906D01*
X031088Y025906D01*
X031097Y025863D01*
X031121Y025827D01*
X031289Y025658D01*
Y025306D01*
X028725Y022741D01*
X028689Y022688D01*
X028677Y022626D01*
Y021175D01*
X028316Y020814D01*
X028266Y020835D01*
Y021446D01*
X027753D01*
X027169Y022029D01*
X02719Y022079D01*
X027363D01*
Y022613D01*
X026711D01*
Y022079D01*
X026925D01*
Y022003D01*
X026925Y022003D01*
X026934Y02196D01*
X026958Y021924D01*
X027594Y021287D01*
Y020774D01*
X028205D01*
X028226Y020724D01*
X028025Y020523D01*
X025598D01*
X025105Y021016D01*
X025107Y021022D01*
X025119Y02111D01*
X025107Y021198D01*
X025074Y021279D01*
X02502Y021349D01*
X02495Y021403D01*
X024868Y021437D01*
X02478Y021448D01*
X024693Y021437D01*
X024611Y021403D01*
X024541Y021349D01*
X024487Y021279D01*
X024485Y021273D01*
X024289D01*
X024286Y021279D01*
X024232Y021349D01*
X024162Y021403D01*
X024081Y021437D01*
X023993Y021448D01*
X023905Y021437D01*
X023899Y021434D01*
X023783Y021551D01*
X023788Y021575D01*
X023805Y0216D01*
X02492D01*
X025265Y021255D01*
X025241Y021198D01*
X025229Y02111D01*
X025241Y021022D01*
X025275Y020941D01*
X025329Y020871D01*
X025399Y020817D01*
X02548Y020783D01*
X025568Y020772D01*
X025655Y020783D01*
X025737Y020817D01*
X025807Y020871D01*
X025861Y020941D01*
X025895Y021022D01*
X025906Y02111D01*
X025895Y021198D01*
X025861Y021279D01*
X025807Y021349D01*
X025737Y021403D01*
X025655Y021437D01*
X025568Y021448D01*
X02548Y021437D01*
X025423Y021413D01*
X02509Y021746D01*
X025095Y021796D01*
X025118Y021812D01*
X025158Y021871D01*
X025172Y02194D01*
X025158Y022009D01*
X025118Y022068D01*
X025059Y022108D01*
X025051Y02211D01*
X025055Y02216D01*
X025494D01*
Y022415D01*
Y022889D01*
X025579Y022974D01*
X025579Y022974D01*
X025603Y02301D01*
X025612Y023053D01*
X025612Y023053D01*
Y023111D01*
X025628Y023122D01*
X025667Y02318D01*
X025681Y02325D01*
X025667Y023319D01*
X025628Y023378D01*
X025569Y023418D01*
X025499Y023432D01*
X02543Y023418D01*
X025371Y023378D01*
X025332Y023319D01*
X025318Y02325D01*
X025272Y023226D01*
X024594D01*
Y023301D01*
X023943D01*
Y022775D01*
X023797D01*
X023716Y022857D01*
Y023191D01*
X024026Y023502D01*
X025591D01*
X025602Y023485D01*
X025661Y023446D01*
X02573Y023432D01*
X0258Y023446D01*
X025858Y023485D01*
X025898Y023544D01*
X025912Y023614D01*
X025898Y023683D01*
X025858Y023742D01*
X0258Y023782D01*
X02573Y023795D01*
X025661Y023782D01*
X025602Y023742D01*
X025591Y023726D01*
X02398D01*
X023937Y023718D01*
X023901Y023693D01*
X023901Y023693D01*
X023498Y023291D01*
X023064D01*
Y022757D01*
X023498D01*
X023672Y022584D01*
X023688Y022573D01*
X023673Y022523D01*
X023064D01*
Y021989D01*
X023358D01*
X023521Y021827D01*
X023496Y021781D01*
X023483Y021783D01*
X023156D01*
X022833Y022106D01*
Y023255D01*
X025255Y025677D01*
X025409D01*
X025499Y025586D01*
Y025165D01*
X025633D01*
Y025056D01*
X025645Y024994D01*
X02568Y024941D01*
X026076Y024546D01*
X026129Y02451D01*
X026191Y024498D01*
X028007D01*
X028069Y02451D01*
X028122Y024546D01*
X02856Y024984D01*
X028596Y025037D01*
X028608Y025099D01*
Y025165D01*
X028741D01*
Y025668D01*
X028745Y025674D01*
X028753Y025717D01*
Y02641D01*
X028803Y026445D01*
X02881Y026443D01*
X028866D01*
X028873Y026445D01*
X028923Y02641D01*
Y024668D01*
X028057Y023802D01*
X026364D01*
X026364Y023802D01*
X026321Y023794D01*
X026285Y023769D01*
X026071Y023556D01*
X026061Y023549D01*
X026061Y023549D01*
X025886Y023374D01*
X025861Y023337D01*
X025853Y023294D01*
X025853Y023294D01*
Y023291D01*
X025853Y023291D01*
X025853Y023291D01*
Y022949D01*
X025728D01*
Y022733D01*
X025688D01*
Y022604D01*
X025965D01*
Y022504D01*
X025688D01*
Y022375D01*
X025728D01*
Y02216D01*
X026202D01*
Y022189D01*
X026231Y022195D01*
X026268Y022219D01*
X026409Y022361D01*
X026434Y022397D01*
X026442Y02244D01*
X026442Y02244D01*
Y022631D01*
X026458Y022642D01*
X026498Y022701D01*
X026512Y02277D01*
X026508Y022789D01*
X026665Y022947D01*
X026711Y022928D01*
Y022847D01*
X027363D01*
Y023358D01*
X027627D01*
X027703Y023281D01*
Y022847D01*
X028355D01*
Y023381D01*
X027921D01*
X027774Y023528D01*
X027795Y023578D01*
X028103D01*
X028103Y023578D01*
X028146Y023586D01*
X028153Y023591D01*
X028209Y023568D01*
X028212Y02355D01*
X028252Y023491D01*
X02831Y023451D01*
X02838Y023438D01*
X028449Y023451D01*
X028508Y023491D01*
X028519Y023507D01*
X028909D01*
X028909Y023507D01*
X028952Y023516D01*
X028988Y02354D01*
X029508Y024059D01*
X029532Y024096D01*
X029541Y024139D01*
X029541Y024139D01*
Y02641D01*
X029591Y026445D01*
X029598Y026443D01*
X029653D01*
X029687Y02645D01*
X029724Y026466D01*
X02976Y02645D01*
X029795Y026443D01*
X02985D01*
X029884Y02645D01*
X029913Y02647D01*
X029928D01*
X029957Y02645D01*
X029992Y026443D01*
X030047D01*
X030081Y02645D01*
X030117Y026466D01*
X030154Y02645D01*
X030188Y026443D01*
X030243D01*
X030278Y02645D01*
X030314Y026466D01*
X030351Y02645D01*
X030385Y026443D01*
X03044D01*
X030474Y02645D01*
X030503Y02647D01*
X030519D01*
X030548Y02645D01*
X030582Y026443D01*
X030637D01*
X030644Y026445D01*
X030694Y02641D01*
Y025876D01*
X030438D01*
Y025165D01*
X031031D01*
Y025876D01*
X030919D01*
Y026363D01*
X030953Y026391D01*
Y026812D01*
Y027217D01*
X030926Y027212D01*
X030884Y027184D01*
X030879Y027176D01*
X030868Y027174D01*
X030834Y027181D01*
X030779D01*
X030745Y027174D01*
X030708Y027158D01*
X030671Y027174D01*
X030637Y027181D01*
X030582D01*
X030548Y027174D01*
X030519Y027155D01*
X030503D01*
X030474Y027174D01*
X03044Y027181D01*
X030385D01*
X030351Y027174D01*
X030314Y027158D01*
X030278Y027174D01*
X030243Y027181D01*
X030188D01*
X030154Y027174D01*
X030117Y027158D01*
X030081Y027174D01*
X030047Y027181D01*
X029992D01*
X029957Y027174D01*
X029928Y027155D01*
X029913D01*
X029884Y027174D01*
X02985Y027181D01*
X029795D01*
X02976Y027174D01*
X029724Y027158D01*
X029687Y027174D01*
X029653Y027181D01*
X029598D01*
X029564Y027174D01*
X029535Y027155D01*
X029519D01*
X02949Y027174D01*
X029456Y027181D01*
X029401D01*
X029367Y027174D01*
X02933Y027158D01*
X029293Y027174D01*
X029259Y027181D01*
X029204D01*
X02917Y027174D01*
X029133Y027158D01*
X029097Y027174D01*
X029062Y027181D01*
X029007D01*
X029Y02718D01*
X02895Y027214D01*
Y027671D01*
X029898Y028619D01*
X030936D01*
X030962Y028581D01*
X031021Y028542D01*
X03109Y028528D01*
X031099Y02853D01*
X031129Y028485D01*
X031094Y028432D01*
X031087Y028396D01*
X031249D01*
Y028587D01*
X031236Y028607D01*
X031258Y02864D01*
X031272Y028709D01*
X031258Y028779D01*
X031218Y028838D01*
X03116Y028877D01*
X03109Y028891D01*
X031021Y028877D01*
X03097Y028844D01*
X029852D01*
X029809Y028835D01*
X029772Y028811D01*
X029772Y028811D01*
X028759Y027797D01*
X028734Y027761D01*
X028726Y027718D01*
X028726Y027718D01*
Y027214D01*
X028676Y02718D01*
X028669Y027181D01*
X028614D01*
X028579Y027174D01*
X028569Y027176D01*
X028564Y027184D01*
X028522Y027212D01*
X028494Y027217D01*
Y026812D01*
Y026391D01*
X028529Y026363D01*
Y025876D01*
X028149D01*
Y025165D01*
X028215D01*
X028234Y025119D01*
X027939Y024824D01*
X026259D01*
X025968Y025115D01*
X02598Y025165D01*
X026092D01*
Y025876D01*
X025671D01*
X025592Y025955D01*
X025539Y025991D01*
X025476Y026003D01*
X025272D01*
X025013Y026263D01*
X025037Y026309D01*
X02509Y026298D01*
X025159Y026312D01*
X025218Y026352D01*
X025229Y026368D01*
X025882D01*
X025882Y026368D01*
X025925Y026376D01*
X025961Y026401D01*
X027074Y027513D01*
X027092Y027512D01*
X027132Y027501D01*
X027145Y027481D01*
X027174Y027462D01*
X027208Y027455D01*
X027767D01*
X027801Y027462D01*
X02783Y027481D01*
X02785Y02751D01*
X027856Y027544D01*
Y0276D01*
X02785Y027634D01*
X027834Y02767D01*
X02785Y027707D01*
X027856Y027741D01*
Y027796D01*
X02785Y027831D01*
X027834Y027867D01*
X02785Y027904D01*
X027856Y027938D01*
Y027993D01*
X02785Y028027D01*
X027834Y028064D01*
X02785Y028101D01*
X027856Y028135D01*
Y02819D01*
X02785Y028224D01*
X027852Y028235D01*
X027859Y02824D01*
X027887Y028282D01*
X027893Y028309D01*
X027488D01*
X027053D01*
X027041Y028298D01*
X026997Y028297D01*
X026795Y028498D01*
X026759Y028522D01*
X026716Y028531D01*
X026716Y028531D01*
X026425D01*
Y028715D01*
X025715D01*
Y028438D01*
X02566Y028383D01*
X025606Y0284D01*
X025599Y028432D01*
X025551Y028504D01*
X025479Y028552D01*
X025444Y028559D01*
Y028346D01*
X025394D01*
Y028296D01*
X025181D01*
X025188Y028261D01*
X025236Y028189D01*
X025309Y028141D01*
X025342Y028134D01*
X025365Y028079D01*
X025349Y028055D01*
X025337Y027993D01*
Y02743D01*
X025349Y027368D01*
X025385Y027315D01*
X025461Y027239D01*
X025462Y027231D01*
X025502Y027172D01*
X025561Y027132D01*
X02563Y027118D01*
X0257Y027132D01*
X025758Y027172D01*
X025798Y027231D01*
X025812Y0273D01*
X025807Y027324D01*
X025848Y027374D01*
X02602D01*
Y02771D01*
Y028046D01*
X025863D01*
X025842Y028093D01*
X025866Y028122D01*
X026425D01*
Y028306D01*
X02667D01*
X026802Y028174D01*
X026777Y028128D01*
X02676Y028132D01*
X02669Y028118D01*
X026632Y028078D01*
X026592Y028019D01*
X026578Y02795D01*
X026592Y02788D01*
X026632Y027822D01*
X02669Y027782D01*
X02676Y027768D01*
X02683Y027782D01*
X026888Y027822D01*
X02691Y027854D01*
X027026D01*
X027047Y027804D01*
X025836Y026592D01*
X025229D01*
X025218Y026608D01*
X025159Y026648D01*
X02509Y026662D01*
X02502Y026648D01*
X024962Y026608D01*
X024922Y026549D01*
X024908Y02648D01*
X024919Y026427D01*
X024873Y026403D01*
X022273Y029002D01*
Y029422D01*
X022357D01*
Y029916D01*
X022683Y030242D01*
X022729Y030227D01*
X022729Y030196D01*
Y029857D01*
X023303D01*
Y030196D01*
X023303Y030232D01*
X023347Y030246D01*
X024347D01*
Y03014D01*
X025058D01*
Y030246D01*
X025715D01*
Y030118D01*
X026425D01*
Y030297D01*
X026609D01*
X026609Y030297D01*
X026652Y030305D01*
X026688Y030329D01*
X026771Y030413D01*
X027085D01*
X02712Y030363D01*
X027119Y030356D01*
Y0303D01*
X027126Y030266D01*
X027142Y03023D01*
X027126Y030193D01*
X027119Y030159D01*
Y030104D01*
X027126Y030069D01*
X027142Y030033D01*
X027126Y029996D01*
X027119Y029962D01*
Y029907D01*
X027126Y029873D01*
X027142Y029836D01*
X027126Y029799D01*
X027119Y029765D01*
Y02971D01*
X027126Y029676D01*
X027142Y029639D01*
X027126Y029602D01*
X027119Y029568D01*
Y029513D01*
X027126Y029479D01*
X027142Y029442D01*
X027126Y029405D01*
X027119Y029371D01*
Y029316D01*
X027126Y029282D01*
X027142Y029245D01*
X027126Y029209D01*
X027119Y029174D01*
Y029119D01*
X027126Y029085D01*
X027142Y029048D01*
X027126Y029012D01*
X027119Y028978D01*
Y028922D01*
X027126Y028888D01*
X027142Y028852D01*
X027126Y028815D01*
X027119Y028781D01*
Y028726D01*
X027126Y028691D01*
X027142Y028655D01*
X027126Y028618D01*
X027119Y028584D01*
Y028529D01*
X027126Y028495D01*
X027123Y028484D01*
X027116Y028479D01*
X027088Y028437D01*
X027082Y028409D01*
X027488D01*
X027893D01*
X027887Y028437D01*
X027859Y028479D01*
X027852Y028484D01*
X02785Y028495D01*
X027856Y028529D01*
Y028584D01*
X02785Y028618D01*
X027834Y028655D01*
X02785Y028691D01*
X027856Y028726D01*
Y028781D01*
X02785Y028815D01*
X027834Y028852D01*
X02785Y028888D01*
X027856Y028922D01*
Y028978D01*
X02785Y029012D01*
X027834Y029048D01*
X02785Y029085D01*
X027856Y029119D01*
Y029174D01*
X027855Y029182D01*
X02789Y029232D01*
X028018D01*
X028029Y029215D01*
X028088Y029176D01*
X028158Y029162D01*
X028227Y029176D01*
X028286Y029215D01*
X028311Y029253D01*
X028361Y029238D01*
Y028999D01*
X028345Y028988D01*
X028306Y02893D01*
X028292Y02886D01*
X028306Y028791D01*
X028345Y028732D01*
X028404Y028692D01*
X028418Y028689D01*
X028433Y028642D01*
X028241Y028449D01*
X028216Y028413D01*
X028208Y02837D01*
X028208Y02837D01*
Y027746D01*
X028192Y027735D01*
X028152Y027676D01*
X028138Y027607D01*
X028152Y027537D01*
X028192Y027478D01*
X028251Y027439D01*
X02832Y027425D01*
X028389Y027439D01*
X028448Y027478D01*
X028488Y027537D01*
X028502Y027607D01*
X028488Y027676D01*
X028448Y027735D01*
X028432Y027746D01*
Y028324D01*
X030644Y030536D01*
X030694Y030515D01*
Y030465D01*
X028971Y028741D01*
X028946Y028705D01*
X028942Y028682D01*
X028922Y028668D01*
X028882Y028609D01*
X028868Y02854D01*
X028882Y02847D01*
X028922Y028412D01*
X028981Y028372D01*
X02905Y028358D01*
X02912Y028372D01*
X029178Y028412D01*
X029218Y02847D01*
X029232Y02854D01*
X029218Y028609D01*
X029193Y028647D01*
X030886Y030339D01*
X030886Y030339D01*
X03091Y030376D01*
X030919Y030419D01*
Y030882D01*
X030969Y030917D01*
X030976Y030916D01*
X031031D01*
X031065Y030923D01*
X031102Y030939D01*
X031138Y030923D01*
X031173Y030916D01*
X031228D01*
X031262Y030923D01*
X031291Y030942D01*
X03131Y030971D01*
X031317Y031005D01*
Y031198D01*
X032281D01*
X03254Y030939D01*
D02*
G37*
G36*
X0218Y03412D02*
Y02961D01*
X021632Y029442D01*
X021632Y029442D01*
X020787D01*
X020593Y029637D01*
Y03488D01*
X020593Y03488D01*
X02104D01*
X0218Y03412D01*
D02*
G37*
%LPC*%
G36*
X025098Y030064D02*
X024752D01*
Y029778D01*
X025098D01*
Y030064D01*
D02*
G37*
G36*
X024652D02*
X024307D01*
Y029778D01*
X024652D01*
Y030064D01*
D02*
G37*
G36*
X026465Y030042D02*
X02612D01*
Y029756D01*
X026465D01*
Y030042D01*
D02*
G37*
G36*
X02602D02*
X025675D01*
Y029756D01*
X02602D01*
Y030042D01*
D02*
G37*
G36*
X023672Y02974D02*
Y029578D01*
X023834D01*
X023827Y029613D01*
X023779Y029685D01*
X023707Y029733D01*
X023672Y02974D01*
D02*
G37*
G36*
X023572D02*
X023537Y029733D01*
X023465Y029685D01*
X023417Y029613D01*
X02341Y029578D01*
X023572D01*
Y02974D01*
D02*
G37*
G36*
X025098Y029678D02*
X024752D01*
Y029391D01*
X025098D01*
Y029678D01*
D02*
G37*
G36*
X024652D02*
X024307D01*
Y029391D01*
X024652D01*
Y029678D01*
D02*
G37*
G36*
X023303Y029757D02*
X023066D01*
Y029382D01*
X023303D01*
Y029757D01*
D02*
G37*
G36*
X022966D02*
X022729D01*
Y029382D01*
X022966D01*
Y029757D01*
D02*
G37*
G36*
X026465Y029656D02*
X02612D01*
Y029369D01*
X026465D01*
Y029656D01*
D02*
G37*
G36*
X02602D02*
X025675D01*
Y029369D01*
X02602D01*
Y029656D01*
D02*
G37*
G36*
X023834Y029478D02*
X023672D01*
Y029315D01*
X023707Y029322D01*
X023779Y02937D01*
X023827Y029442D01*
X023834Y029478D01*
D02*
G37*
G36*
X023572D02*
X02341D01*
X023417Y029442D01*
X023465Y02937D01*
X023537Y029322D01*
X023572Y029315D01*
Y029478D01*
D02*
G37*
G36*
X031349Y028559D02*
Y028396D01*
X031512D01*
X031505Y028432D01*
X031456Y028504D01*
X031384Y028552D01*
X031349Y028559D01*
D02*
G37*
G36*
X030168D02*
Y028396D01*
X030331D01*
X030324Y028432D01*
X030275Y028504D01*
X030203Y028552D01*
X030168Y028559D01*
D02*
G37*
G36*
X030068D02*
X030033Y028552D01*
X029961Y028504D01*
X029913Y028432D01*
X029906Y028396D01*
X030068D01*
Y028559D01*
D02*
G37*
G36*
X025344D02*
X025309Y028552D01*
X025236Y028504D01*
X025188Y028432D01*
X025181Y028396D01*
X025344D01*
Y028559D01*
D02*
G37*
G36*
X024263D02*
Y028396D01*
X024425D01*
X024418Y028432D01*
X02437Y028504D01*
X024298Y028552D01*
X024263Y028559D01*
D02*
G37*
G36*
X024163D02*
X024127Y028552D01*
X024055Y028504D01*
X024007Y028432D01*
X024Y028396D01*
X024163D01*
Y028559D01*
D02*
G37*
G36*
X031512Y028296D02*
X031349D01*
Y028134D01*
X031384Y028141D01*
X031456Y028189D01*
X031505Y028261D01*
X031512Y028296D01*
D02*
G37*
G36*
X031249D02*
X031087D01*
X031094Y028261D01*
X031142Y028189D01*
X031214Y028141D01*
X031249Y028134D01*
Y028296D01*
D02*
G37*
G36*
X030331D02*
X030168D01*
Y028134D01*
X030203Y028141D01*
X030275Y028189D01*
X030324Y028261D01*
X030331Y028296D01*
D02*
G37*
G36*
X030068D02*
X029906D01*
X029913Y028261D01*
X029961Y028189D01*
X030033Y028141D01*
X030068Y028134D01*
Y028296D01*
D02*
G37*
G36*
X024425D02*
X024263D01*
Y028134D01*
X024298Y028141D01*
X02437Y028189D01*
X024418Y028261D01*
X024425Y028296D01*
D02*
G37*
G36*
X024163D02*
X024D01*
X024007Y028261D01*
X024055Y028189D01*
X024127Y028141D01*
X024163Y028134D01*
Y028296D01*
D02*
G37*
G36*
X026465Y028046D02*
X02612D01*
Y02776D01*
X026465D01*
Y028046D01*
D02*
G37*
G36*
X024972Y027752D02*
Y02759D01*
X025135D01*
X025128Y027625D01*
X025079Y027697D01*
X025007Y027745D01*
X024972Y027752D01*
D02*
G37*
G36*
X024872D02*
X024837Y027745D01*
X024765Y027697D01*
X024717Y027625D01*
X02471Y02759D01*
X024872D01*
Y027752D01*
D02*
G37*
G36*
X026465Y02766D02*
X02612D01*
Y027374D01*
X026465D01*
Y02766D01*
D02*
G37*
G36*
X027215Y027378D02*
Y027215D01*
X027378D01*
X027371Y02725D01*
X027323Y027323D01*
X02725Y027371D01*
X027215Y027378D01*
D02*
G37*
G36*
X027115D02*
X02708Y027371D01*
X027008Y027323D01*
X02696Y02725D01*
X026953Y027215D01*
X027115D01*
Y027378D01*
D02*
G37*
G36*
X025135Y02749D02*
X02471D01*
X024717Y027455D01*
X024736Y027425D01*
X024718Y027371D01*
X024646Y027323D01*
X024598Y02725D01*
X024591Y027215D01*
X025016D01*
X025009Y02725D01*
X024989Y02728D01*
X025007Y027335D01*
X025079Y027383D01*
X025128Y027455D01*
X025135Y02749D01*
D02*
G37*
G36*
X028394Y027217D02*
X028367Y027212D01*
X028325Y027184D01*
X02832Y027176D01*
X028309Y027174D01*
X028275Y027181D01*
X02822D01*
X028186Y027174D01*
X028157Y027155D01*
X028137Y027126D01*
X028131Y027092D01*
Y026533D01*
X028137Y026499D01*
X028157Y02647D01*
X028186Y02645D01*
X02822Y026443D01*
X028275D01*
X028309Y02645D01*
X02832Y026448D01*
X028325Y026441D01*
X028367Y026413D01*
X028394Y026407D01*
Y026812D01*
Y027217D01*
D02*
G37*
G36*
X027378Y027115D02*
X027215D01*
Y026953D01*
X02725Y02696D01*
X027323Y027008D01*
X027371Y02708D01*
X027378Y027115D01*
D02*
G37*
G36*
X027115D02*
X026953D01*
X02696Y02708D01*
X027008Y027008D01*
X02708Y02696D01*
X027115Y026953D01*
Y027115D01*
D02*
G37*
G36*
X025016D02*
X024853D01*
Y026953D01*
X024888Y02696D01*
X02496Y027008D01*
X025009Y02708D01*
X025016Y027115D01*
D02*
G37*
G36*
X024753D02*
X024591D01*
X024598Y02708D01*
X024646Y027008D01*
X024718Y02696D01*
X024753Y026953D01*
Y027115D01*
D02*
G37*
G36*
X028072Y025916D02*
X027786D01*
Y025571D01*
X028072D01*
Y025916D01*
D02*
G37*
G36*
X027686D02*
X0274D01*
Y025571D01*
X027686D01*
Y025916D01*
D02*
G37*
G36*
X030362D02*
X030076D01*
Y025571D01*
X030362D01*
Y025916D01*
D02*
G37*
G36*
X029976D02*
X029689D01*
Y025571D01*
X029976D01*
Y025916D01*
D02*
G37*
G36*
X026484Y026622D02*
X026414Y026608D01*
X026355Y026568D01*
X026316Y026509D01*
X026302Y02644D01*
X026316Y02637D01*
X026326Y026355D01*
Y025876D01*
X026208D01*
Y025165D01*
X026801D01*
Y025876D01*
X026653D01*
Y026377D01*
X026665Y02644D01*
X026651Y026509D01*
X026612Y026568D01*
X026553Y026608D01*
X026484Y026622D01*
D02*
G37*
G36*
X030362Y025471D02*
X030076D01*
Y025125D01*
X030362D01*
Y025471D01*
D02*
G37*
G36*
X029976D02*
X029689D01*
Y025125D01*
X029976D01*
Y025471D01*
D02*
G37*
G36*
X028072Y025471D02*
X027786D01*
Y025125D01*
X028072D01*
Y025471D01*
D02*
G37*
G36*
X027686D02*
X0274D01*
Y025125D01*
X027686D01*
Y025471D01*
D02*
G37*
G36*
X024853Y025016D02*
Y024853D01*
X025016D01*
X025009Y024888D01*
X02496Y02496D01*
X024888Y025009D01*
X024853Y025016D01*
D02*
G37*
G36*
X024753D02*
X024718Y025009D01*
X024646Y02496D01*
X024598Y024888D01*
X024591Y024853D01*
X024753D01*
Y025016D01*
D02*
G37*
G36*
X025016Y024753D02*
X024853D01*
Y024591D01*
X024888Y024598D01*
X02496Y024646D01*
X025009Y024718D01*
X025016Y024753D01*
D02*
G37*
G36*
X024753D02*
X024591D01*
X024598Y024718D01*
X024646Y024646D01*
X024718Y024598D01*
X024753Y024591D01*
Y024753D01*
D02*
G37*
G36*
X028355Y022613D02*
X027703D01*
Y022079D01*
X027803D01*
X027818Y022029D01*
X027772Y021999D01*
X027732Y02194D01*
X027718Y02187D01*
X027732Y021801D01*
X027772Y021742D01*
X027831Y021702D01*
X0279Y021689D01*
X02797Y021702D01*
X028028Y021742D01*
X028068Y021801D01*
X028082Y02187D01*
X028078Y021889D01*
X028109Y02192D01*
X028109Y02192D01*
X028133Y021957D01*
X028141Y021999D01*
X028141Y021999D01*
Y022079D01*
X028355D01*
Y022613D01*
D02*
G37*
G36*
X027143Y021448D02*
X027055Y021437D01*
X026973Y021403D01*
X026903Y021349D01*
X02685Y021279D01*
X026816Y021198D01*
X026804Y02111D01*
X026816Y021022D01*
X02685Y020941D01*
X026903Y020871D01*
X026973Y020817D01*
X027055Y020783D01*
X027143Y020772D01*
X02723Y020783D01*
X027312Y020817D01*
X027382Y020871D01*
X027436Y020941D01*
X02747Y021022D01*
X027481Y02111D01*
X02747Y021198D01*
X027436Y021279D01*
X027382Y021349D01*
X027312Y021403D01*
X02723Y021437D01*
X027143Y021448D01*
D02*
G37*
G36*
X026355D02*
X026268Y021437D01*
X026186Y021403D01*
X026116Y021349D01*
X026062Y021279D01*
X026028Y021198D01*
X026017Y02111D01*
X026028Y021022D01*
X026062Y020941D01*
X026116Y020871D01*
X026186Y020817D01*
X026268Y020783D01*
X026355Y020772D01*
X026443Y020783D01*
X026525Y020817D01*
X026595Y020871D01*
X026648Y020941D01*
X026682Y021022D01*
X026694Y02111D01*
X026682Y021198D01*
X026648Y021279D01*
X026595Y021349D01*
X026525Y021403D01*
X026443Y021437D01*
X026355Y021448D01*
D02*
G37*
%LPD*%
D10*
X032844Y031165D02*
X033451D01*
X02578Y030409D02*
X026609D01*
X036379Y030426D02*
X03685Y030897D01*
X033603Y030426D02*
X036379D01*
X032879Y031151D02*
X033603Y030426D01*
X032327Y03131D02*
X034157Y02948D01*
X03252Y030668D02*
Y03071D01*
X034157Y02948D02*
X034276D01*
X032829Y031151D02*
X032879D01*
X03685Y02696D02*
X03749Y0276D01*
Y03143D01*
X03674Y03218D02*
X03749Y03143D01*
X035044Y03218D02*
X03674D01*
X034992Y023259D02*
X035178Y023072D01*
X034992Y023259D02*
Y02389D01*
X034164Y021207D02*
X035262Y022305D01*
X03573Y024113D02*
Y024234D01*
X035507Y02389D02*
X03573Y024113D01*
X034992Y02389D02*
X035507D01*
X034992Y024402D02*
Y024792D01*
X035024Y024824D01*
X034005Y023045D02*
X034705Y023745D01*
X025965Y022298D02*
X026188D01*
X02633Y02244D01*
Y02277D01*
X026674Y023114D01*
X027037D01*
X02339Y023024D02*
X02398Y023614D01*
X02573D01*
X025256Y02281D02*
X025499Y023053D01*
X025363Y023114D02*
X025499Y02325D01*
X031139Y024402D02*
X034283D01*
X023194Y025778D02*
X02385Y026434D01*
X023194Y025496D02*
Y025778D01*
X024952Y022298D02*
X025256D01*
X024944D02*
X024952D01*
X0248Y02245D02*
X024952Y022298D01*
X026144Y02347D02*
X026364Y02369D01*
X025965Y023291D02*
X026144Y02347D01*
X027673D01*
X026141D02*
X026144D01*
X025965Y023291D02*
Y023294D01*
Y02281D02*
Y023291D01*
Y023294D02*
X026141Y02347D01*
X035134Y02799D02*
X0357D01*
X035094Y02803D02*
X035134Y02799D01*
Y02947D02*
X03575D01*
X035094Y02943D02*
X035134Y02947D01*
X035044Y02948D02*
X035094Y02943D01*
X035064Y02672D02*
X03568D01*
X035044Y02674D02*
X035064Y02672D01*
X0315Y02388D02*
X03204D01*
X03149Y02389D02*
X0315Y02388D01*
X031899Y02389D02*
X034128D01*
X03149D02*
X031899D01*
X031003Y022994D02*
X031899Y02389D01*
X029429Y024139D02*
Y026812D01*
X028909Y023619D02*
X029429Y024139D01*
X02838Y023619D02*
X028909D01*
X028932Y02399D02*
X029232Y02429D01*
X028103Y02369D02*
X029035Y024622D01*
X026364Y02369D02*
X028103D01*
X02881Y02399D02*
X028932D01*
X030125Y021442D02*
Y022346D01*
X029753Y02107D02*
X030125Y021442D01*
Y023114D02*
Y023387D01*
X031139Y024402D01*
X03679Y03005D02*
Y03011D01*
X023751Y022663D02*
X02458D01*
X02339Y023024D02*
X023751Y022663D01*
X024308Y022306D02*
X024675Y02194D01*
X02499D01*
X029232Y02429D02*
Y026812D01*
X024268Y023034D02*
X024348Y023114D01*
X025363D01*
X02458Y022663D02*
X024944Y022298D01*
X034164Y02107D02*
Y021207D01*
X033376Y02107D02*
Y021718D01*
X034005Y022346D01*
X02339Y022116D02*
Y022256D01*
Y022116D02*
X023794Y021712D01*
X025499Y023053D02*
Y02325D01*
X024966Y021712D02*
X025568Y02111D01*
X023794Y021712D02*
X024966D01*
X0279Y02187D02*
X028029Y021999D01*
Y022346D01*
X027673Y02347D02*
X028029Y023114D01*
X027037Y022003D02*
X02793Y02111D01*
X027037Y022003D02*
Y022346D01*
X0312Y025906D02*
X031586Y025521D01*
X0312Y025906D02*
Y026812D01*
X02905Y02854D02*
Y028662D01*
X030806Y030419D01*
X030714Y029451D02*
X031017Y029147D01*
X03106Y02957D02*
X031089Y029541D01*
X031017Y029147D02*
X031924D01*
X030714Y029451D02*
Y029762D01*
X03084Y029888D01*
X03054Y02107D02*
X031003Y021533D01*
Y022226D01*
X034128Y02389D02*
X034283D01*
X034705Y023745D02*
Y02427D01*
X034836Y024402D02*
X034992D01*
X034705Y02427D02*
X034836Y024402D01*
X034005Y023031D02*
Y023045D01*
X03261Y0268D02*
Y02821D01*
X03358Y02918D01*
X032826Y029934D02*
X03358Y02918D01*
X034584Y0272D02*
X035044Y02674D01*
X03291Y0272D02*
X034584D01*
X034949Y041418D02*
X035293D01*
X034874Y041343D02*
X034949Y041418D01*
X030806Y030419D02*
Y031285D01*
X031068Y028732D02*
X03109Y028709D01*
X029852Y028732D02*
X031068D01*
X03196Y029737D02*
X032536D01*
X032637Y029637D01*
Y029634D02*
Y029637D01*
X034211Y036D02*
X034791Y03658D01*
X032956Y029344D02*
X03297Y029329D01*
X03196Y029344D02*
X032956D01*
X03196Y029934D02*
X032826D01*
X034276Y02798D02*
Y028754D01*
X032899Y030131D02*
X034276Y028754D01*
X03196Y030131D02*
X032899D01*
X030734Y025521D02*
X030806Y025593D01*
Y026812D01*
X028445Y025521D02*
X028641Y025717D01*
Y026812D01*
X021191Y02567D02*
X021365Y025496D01*
X021191Y02567D02*
Y029822D01*
X022132Y025496D02*
X023194D01*
X034301Y025521D02*
Y025911D01*
X035044Y026654D01*
Y02674D01*
X02832Y02837D02*
X03061Y03066D01*
X02832Y027607D02*
Y02837D01*
X024221Y04019D02*
X025374Y041343D01*
X02421Y04019D02*
X024221D01*
X02607Y028419D02*
X026716D01*
X026972Y028163D01*
X027488D01*
X02676Y02795D02*
X026776Y027966D01*
X027488D01*
X025882Y02648D02*
X027171Y027769D01*
X02509Y02648D02*
X025882D01*
X027171Y027769D02*
X027452D01*
X035044Y02798D02*
X035094Y02803D01*
X028838Y027718D02*
X029852Y028732D01*
X03061Y03066D02*
Y031285D01*
X031089Y029541D02*
X031924D01*
X032377Y030525D02*
X03252Y030668D01*
X03196Y030525D02*
X032377D01*
X035961Y042086D02*
X037D01*
X035293Y041418D02*
X035961Y042086D01*
X037D02*
X037009Y042077D01*
X034874Y04098D02*
Y041343D01*
Y04098D02*
X03734Y038514D01*
X034874Y042111D02*
Y043885D01*
X026609Y030409D02*
X026725Y030525D01*
X029553Y032301D02*
X029625D01*
X029035Y031783D02*
X029553Y032301D01*
X029035Y031285D02*
Y031783D01*
X025538Y041343D02*
X026272Y042077D01*
X025374Y041343D02*
X025538D01*
X03734Y034827D02*
Y038514D01*
X035276Y032764D02*
X03734Y034827D01*
X02516Y042111D02*
X025374D01*
X026272Y042077D02*
X02684D01*
X035631Y03658D02*
X035827Y036385D01*
X034791Y03658D02*
X035631D01*
X028315Y044482D02*
Y044935D01*
X027749Y043916D02*
X028315Y044482D01*
X026932Y043916D02*
X027749D01*
X032494Y043915D02*
X033295D01*
X031808Y044602D02*
X032494Y043915D01*
X031808Y044602D02*
Y044931D01*
X035161Y044171D02*
X035599D01*
X034874Y043885D02*
X035161Y044171D01*
X0325Y04366D02*
X033295D01*
X031808Y042968D02*
X0325Y04366D01*
X031808Y042509D02*
Y042968D01*
Y042449D02*
Y042509D01*
Y044931D02*
Y044959D01*
X033089Y0375D02*
X033109Y03748D01*
X034157D01*
X0364Y035289D02*
Y036663D01*
X034256Y034876D02*
Y035276D01*
X034032Y0355D02*
X034256Y035276D01*
X033089Y0355D02*
X034032D01*
X033089Y036D02*
X034211D01*
X03549Y034379D02*
X0364Y035289D01*
X034521Y034379D02*
X03549D01*
X034276Y03374D02*
Y034134D01*
X034521Y034379D01*
X0312Y03131D02*
X032327D01*
X024627Y042643D02*
Y043404D01*
Y042643D02*
X02516Y042111D01*
X031924Y030131D02*
X03196D01*
X03382Y032868D02*
X034276Y033325D01*
Y03374D01*
X034116Y0323D02*
X034256Y03216D01*
X030019Y030487D02*
Y031285D01*
X03002Y030486D02*
X030026Y03048D01*
X030019Y030487D02*
X03002Y030486D01*
Y0305D01*
Y030474D02*
Y030486D01*
X027488Y029344D02*
X028158D01*
X028473Y02886D02*
Y030413D01*
X028838Y030778D01*
X03282Y0323D02*
X034116D01*
X031432Y032052D02*
X034256Y034876D01*
X0337Y03784D02*
X033961D01*
X03354Y038D02*
X0337Y03784D01*
X033089Y038D02*
X03354D01*
X02788Y032318D02*
X028247Y031951D01*
Y031285D02*
Y031951D01*
X03002Y030474D02*
X030026Y03048D01*
X029035Y024622D02*
Y026812D01*
X030146Y032052D02*
X031432D01*
X029822Y031728D02*
X030146Y032052D01*
X025676Y038364D02*
X02682Y03722D01*
X02534Y038364D02*
X025676D01*
X02708Y03748D02*
X027591D01*
X02682Y03722D02*
X02708Y03748D01*
X02832Y042509D02*
Y04308D01*
X03244Y0355D02*
X033089D01*
X03212Y03582D02*
X03244Y0355D01*
X027452Y029344D02*
X027488D01*
X027022Y038D02*
X027611D01*
X031924Y029344D02*
X03196D01*
X028838Y026812D02*
Y027718D01*
Y030778D02*
Y031285D01*
X026725Y030525D02*
X027488D01*
X029822Y031285D02*
Y031728D01*
X026932Y04366D02*
X02774D01*
X02832Y04308D01*
D15*
X026982Y03796D02*
X027022Y038D01*
D18*
X034992Y024146D02*
D03*
Y024402D02*
D03*
X034283D02*
D03*
Y024146D02*
D03*
Y02389D02*
D03*
X034992D02*
D03*
X025965Y022298D02*
D03*
X025256D02*
D03*
Y022554D02*
D03*
Y02281D02*
D03*
X025965D02*
D03*
Y022554D02*
D03*
D19*
X030125Y023114D02*
D03*
Y022346D02*
D03*
X031003Y023114D02*
D03*
Y022346D02*
D03*
X029625Y032301D02*
D03*
Y033069D02*
D03*
X02534Y038364D02*
D03*
Y037596D02*
D03*
X034874Y041343D02*
D03*
Y042111D02*
D03*
X025374Y041343D02*
D03*
Y042111D02*
D03*
X034005Y023114D02*
D03*
Y022346D02*
D03*
X03522Y023114D02*
D03*
Y022346D02*
D03*
X028029D02*
D03*
Y023114D02*
D03*
X027037Y022346D02*
D03*
Y023114D02*
D03*
X024268Y022266D02*
D03*
Y023034D02*
D03*
X02339Y022256D02*
D03*
Y023024D02*
D03*
D20*
X03196Y030525D02*
D03*
Y030328D02*
D03*
Y030131D02*
D03*
Y029934D02*
D03*
Y029737D02*
D03*
Y029541D02*
D03*
Y029344D02*
D03*
Y029147D02*
D03*
Y02895D02*
D03*
Y028753D02*
D03*
Y028556D02*
D03*
Y028359D02*
D03*
Y028163D02*
D03*
Y027966D02*
D03*
Y027769D02*
D03*
Y027572D02*
D03*
X027488D02*
D03*
Y027769D02*
D03*
Y027966D02*
D03*
Y028163D02*
D03*
Y028359D02*
D03*
Y028556D02*
D03*
Y028753D02*
D03*
Y02895D02*
D03*
Y029147D02*
D03*
Y029344D02*
D03*
Y029541D02*
D03*
Y029737D02*
D03*
Y029934D02*
D03*
Y030131D02*
D03*
Y030328D02*
D03*
Y030525D02*
D03*
D21*
X0312Y026812D02*
D03*
X031003D02*
D03*
X030806D02*
D03*
X03061D02*
D03*
X030413D02*
D03*
X030216D02*
D03*
X030019D02*
D03*
X029822D02*
D03*
X029625D02*
D03*
X029429D02*
D03*
X029232D02*
D03*
X029035D02*
D03*
X028838D02*
D03*
X028641D02*
D03*
X028444D02*
D03*
X028247D02*
D03*
Y031285D02*
D03*
X028444D02*
D03*
X028641D02*
D03*
X028838D02*
D03*
X029035D02*
D03*
X029232D02*
D03*
X029429D02*
D03*
X029625D02*
D03*
X029822D02*
D03*
X030019D02*
D03*
X030216D02*
D03*
X030413D02*
D03*
X03061D02*
D03*
X030806D02*
D03*
X031003D02*
D03*
X0312D02*
D03*
D22*
X025366Y031446D02*
D03*
X026114D02*
D03*
X02574Y032234D02*
D03*
D23*
X03501Y025521D02*
D03*
X034301D02*
D03*
X030026Y025521D02*
D03*
X030734D02*
D03*
X03501Y031165D02*
D03*
X034301D02*
D03*
X028445Y025521D02*
D03*
X027736D02*
D03*
X022231Y030985D02*
D03*
X021523D02*
D03*
X026109Y033408D02*
D03*
X0254D02*
D03*
X026504Y025521D02*
D03*
X025796D02*
D03*
X032294Y025521D02*
D03*
X031586D02*
D03*
D24*
X02788Y033035D02*
D03*
Y032326D02*
D03*
X02607Y029706D02*
D03*
Y030414D02*
D03*
Y02771D02*
D03*
Y028419D02*
D03*
X03258Y02308D02*
D03*
Y022371D02*
D03*
X024702Y030436D02*
D03*
Y029728D02*
D03*
X02534Y034994D02*
D03*
Y034286D02*
D03*
X037009Y044016D02*
D03*
Y043307D02*
D03*
X02338D02*
D03*
Y044016D02*
D03*
X02535Y035931D02*
D03*
Y03664D02*
D03*
Y0393D02*
D03*
Y040009D02*
D03*
X037009Y041368D02*
D03*
Y042077D02*
D03*
X02684Y041368D02*
D03*
Y042077D02*
D03*
D25*
X022685Y04185D02*
D03*
X023452D02*
D03*
D26*
X034276Y02948D02*
D03*
X035044D02*
D03*
X034276Y02798D02*
D03*
X035044D02*
D03*
X034276Y03218D02*
D03*
X035044D02*
D03*
X034276Y02674D02*
D03*
X035044D02*
D03*
X020752Y04188D02*
D03*
X02152D02*
D03*
X034276Y03374D02*
D03*
X035044D02*
D03*
X034256Y036002D02*
D03*
X035024D02*
D03*
X034276Y034932D02*
D03*
X035044D02*
D03*
X021365Y025496D02*
D03*
X022132D02*
D03*
X023962D02*
D03*
X023194D02*
D03*
D27*
X031808Y044931D02*
D03*
Y042509D02*
D03*
X02832D02*
D03*
Y044931D02*
D03*
D28*
X02211Y027228D02*
D03*
D29*
X021204Y029807D02*
D03*
X02211D02*
D03*
X023016D02*
D03*
D30*
X033295Y044171D02*
D03*
Y043915D02*
D03*
Y04366D02*
D03*
Y043404D02*
D03*
X035599Y044171D02*
D03*
Y043915D02*
D03*
Y04366D02*
D03*
Y043404D02*
D03*
X024627Y044172D02*
D03*
Y043916D02*
D03*
Y04366D02*
D03*
Y043404D02*
D03*
X026932Y044172D02*
D03*
Y043916D02*
D03*
Y04366D02*
D03*
Y043404D02*
D03*
D31*
X027612Y039D02*
D03*
X027611Y0385D02*
D03*
Y038D02*
D03*
Y0375D02*
D03*
X027611Y037D02*
D03*
X027611Y0365D02*
D03*
Y036D02*
D03*
Y0355D02*
D03*
X027612Y0345D02*
D03*
X027611Y035D02*
D03*
D32*
X033089Y0385D02*
D03*
X033088Y039D02*
D03*
X033089Y038D02*
D03*
Y0375D02*
D03*
Y037D02*
D03*
X033089Y0365D02*
D03*
X033089Y036D02*
D03*
Y0355D02*
D03*
Y035D02*
D03*
X033088Y0345D02*
D03*
D33*
X020405Y03366D02*
D03*
X023555D02*
D03*
D60*
X035599Y043547D02*
X036151D01*
X024627Y04404D02*
X025649D01*
X027662Y032318D02*
X02788D01*
X02092Y04404D02*
X024627D01*
X02578Y030436D02*
X027662Y032318D01*
X022619Y030409D02*
X02578D01*
X022619D02*
X023272Y031062D01*
X028092Y02036D02*
X02884Y021108D01*
X02553Y02036D02*
X028092D01*
X02478Y02111D02*
X02553Y02036D01*
X02211Y028935D02*
Y029807D01*
Y028935D02*
X025205Y02584D01*
X02211Y029807D02*
Y0299D01*
X022619Y030409D01*
X031586Y025372D02*
Y025521D01*
X02884Y022626D02*
X031586Y025372D01*
X02884Y021108D02*
Y022626D01*
X023089Y02162D02*
X023483D01*
X02267Y022039D02*
X023089Y02162D01*
X02267Y022039D02*
Y023323D01*
X03258Y021079D02*
X032589Y02107D01*
X02267Y023323D02*
X025187Y02584D01*
X023483Y02162D02*
X023993Y02111D01*
X02478D01*
X025187Y02584D02*
X025205D01*
X033616Y02608D02*
X034276Y02674D01*
X031586Y02557D02*
X032096Y02608D01*
X032873D02*
X033616D01*
X032096D02*
X032873D01*
X031586Y025521D02*
Y02557D01*
X032803Y022371D02*
X033279Y022847D01*
X03258Y022371D02*
X032803D01*
X03258Y021079D02*
Y022371D01*
X028445Y025099D02*
Y025521D01*
X028007Y024661D02*
X028445Y025099D01*
X026191Y024661D02*
X028007D01*
X02649Y025521D02*
Y026434D01*
X025476Y02584D02*
X025796Y025521D01*
X025205Y02584D02*
X025476D01*
X025796Y025056D02*
Y025521D01*
X0255Y02743D02*
Y027993D01*
Y02743D02*
X02563Y0273D01*
X026484Y02644D02*
X02649Y026434D01*
X025926Y028419D02*
X02607D01*
X0255Y027993D02*
X025926Y028419D01*
X025796Y025056D02*
X026191Y024661D01*
X03229Y032326D02*
X033451Y031165D01*
X034301D01*
X03212Y032326D02*
X03229D01*
X032291D02*
X032291D01*
X033024Y048596D02*
X034303Y047317D01*
X0272Y048596D02*
X033024D01*
X02614Y047537D02*
X0272Y048596D01*
X036151Y043547D02*
X036619Y044016D01*
X037009D01*
X034303Y046722D02*
X037009Y044016D01*
X034303Y046722D02*
Y047317D01*
X023257Y031077D02*
Y031077D01*
Y031077D02*
X023272Y031062D01*
X035599Y043547D02*
Y043618D01*
Y043404D02*
Y043547D01*
X02788Y032326D02*
X028635D01*
X024627Y04404D02*
Y044172D01*
Y043936D02*
Y04404D01*
X02614Y044531D02*
Y047537D01*
X025649Y04404D02*
X02614Y044531D01*
X02824Y047423D02*
X028315Y047498D01*
X0196Y04272D02*
X02092Y04404D01*
X0196Y03692D02*
Y04272D01*
X027611Y0385D02*
X027643Y038468D01*
X022543Y03236D02*
X022563D01*
X02212Y032783D02*
X022543Y03236D01*
X02212Y032783D02*
Y0344D01*
X0196Y03692D02*
X02212Y0344D01*
X027378Y0355D02*
X027611D01*
X026154Y034276D02*
X027378Y0355D01*
X03128Y037288D02*
X031288Y03728D01*
X03032Y037272D02*
Y03728D01*
X03Y03376D02*
Y03377D01*
X033088Y0345D02*
X033089Y034501D01*
X02684Y0365D02*
X027611D01*
X0267Y03664D02*
X02684Y0365D01*
X02535Y03664D02*
X0267D01*
X0269Y036D02*
X027611D01*
X025894Y034994D02*
X0269Y036D01*
X02534Y034994D02*
X025894D01*
X026154Y031487D02*
Y03328D01*
X026114Y031446D02*
X026154Y031487D01*
Y03328D02*
Y034276D01*
D61*
X021523Y030985D02*
Y031377D01*
X021748Y031603D01*
X023946D01*
X024103Y031446D01*
X02155Y04185D02*
X02255D01*
X02152Y04188D02*
X02155Y04185D01*
X02123Y03366D02*
X021232Y033658D01*
X024103Y031446D02*
X025366D01*
X02492Y031892D02*
X025366Y031446D01*
X02492Y031892D02*
Y032928D01*
X0254Y033408D01*
D62*
X030315Y046452D02*
X031808Y044959D01*
X030315Y046452D02*
Y047498D01*
X030149Y04068D02*
X03094D01*
X02832Y042509D02*
X030149Y04068D01*
X03094D02*
X03208Y03954D01*
Y037429D02*
Y03954D01*
X028315Y047498D02*
X02832Y047493D01*
Y044931D02*
Y047493D01*
X03208Y037429D02*
X03251Y037D01*
X033089D01*
X033811Y0365D02*
X03464Y037329D01*
X033089Y0365D02*
X033811D01*
X03464Y037329D02*
Y0391D01*
X031808Y041932D02*
X03464Y0391D01*
X031808Y041932D02*
Y042449D01*
D63*
X031327Y02107D02*
D03*
X03054D02*
D03*
X027143Y02111D02*
D03*
X026355D02*
D03*
X025568D02*
D03*
X02478D02*
D03*
X023993D02*
D03*
X023206D02*
D03*
X03685Y03011D02*
D03*
Y029323D02*
D03*
Y028535D02*
D03*
Y027748D02*
D03*
Y02696D02*
D03*
X034951Y02107D02*
D03*
X034164D02*
D03*
X033376D02*
D03*
D64*
X029753D02*
D03*
X02793Y02111D02*
D03*
X032589Y02107D02*
D03*
D65*
X0208Y047638D02*
D03*
X03745Y02108D02*
D03*
X02074Y0211D02*
D03*
X037444Y047638D02*
D03*
D66*
X03685Y030897D02*
D03*
D67*
X032215Y047598D02*
D03*
D68*
X030315Y047498D02*
D03*
X028315D02*
D03*
D69*
X02215Y0391D02*
D03*
D70*
Y0371D02*
D03*
D71*
X02123Y03366D02*
D03*
D72*
X02273D02*
D03*
D73*
X036024Y030709D02*
D03*
X023031Y037795D02*
D03*
X03252Y03071D02*
D03*
X032879Y031151D02*
D03*
X035433Y024803D02*
D03*
X03573Y024234D02*
D03*
X035024Y024824D02*
D03*
X02633Y02277D02*
D03*
X031139Y024402D02*
D03*
X02385Y026434D02*
D03*
X038386Y044882D02*
D03*
X037795Y043701D02*
D03*
X038386Y04252D02*
D03*
X037795Y041339D02*
D03*
X038386Y040157D02*
D03*
X037795Y038976D02*
D03*
X038386Y037795D02*
D03*
X037795Y036614D02*
D03*
X038386Y035433D02*
D03*
X037795Y034252D02*
D03*
X038386Y033071D02*
D03*
X037795Y03189D02*
D03*
X038386Y030709D02*
D03*
X037795Y029528D02*
D03*
X038386Y028346D02*
D03*
X037795Y027165D02*
D03*
X038386Y025984D02*
D03*
X037795Y024803D02*
D03*
X038386Y023622D02*
D03*
X036614Y046063D02*
D03*
X037205Y044882D02*
D03*
Y04252D02*
D03*
Y040157D02*
D03*
Y033071D02*
D03*
X036614Y03189D02*
D03*
X037205Y025984D02*
D03*
X036614Y024803D02*
D03*
X037205Y023622D02*
D03*
X035433Y048425D02*
D03*
Y046063D02*
D03*
X036024Y04252D02*
D03*
X035433Y038976D02*
D03*
X036024Y037795D02*
D03*
X035433Y027165D02*
D03*
X036024Y025984D02*
D03*
Y023622D02*
D03*
X035433Y020079D02*
D03*
X034252Y048425D02*
D03*
X034843Y047244D02*
D03*
X034252Y046063D02*
D03*
X034843Y044882D02*
D03*
X034252Y043701D02*
D03*
Y041339D02*
D03*
X034843Y040157D02*
D03*
X034252Y038976D02*
D03*
X034843Y035433D02*
D03*
Y033071D02*
D03*
X034252Y024803D02*
D03*
Y020079D02*
D03*
X033661Y047244D02*
D03*
X033071Y046063D02*
D03*
X033661Y044882D02*
D03*
Y04252D02*
D03*
X033071Y041339D02*
D03*
X033661Y030709D02*
D03*
Y028346D02*
D03*
Y023622D02*
D03*
X033071Y020079D02*
D03*
X03189Y041339D02*
D03*
X03248Y040157D02*
D03*
X03189Y036614D02*
D03*
Y034252D02*
D03*
Y024803D02*
D03*
X03248Y023622D02*
D03*
X03189Y022441D02*
D03*
Y020079D02*
D03*
X031299Y047244D02*
D03*
X030709Y041339D02*
D03*
X031299Y033071D02*
D03*
Y028346D02*
D03*
Y023622D02*
D03*
X030709Y020079D02*
D03*
X029528Y046063D02*
D03*
X030118Y044882D02*
D03*
X029528Y043701D02*
D03*
X030118Y040157D02*
D03*
Y033071D02*
D03*
Y028346D02*
D03*
X029528Y022441D02*
D03*
Y020079D02*
D03*
X028346Y043701D02*
D03*
Y034252D02*
D03*
X028937Y033071D02*
D03*
X028346Y020079D02*
D03*
X027165Y046063D02*
D03*
X027756Y040157D02*
D03*
X027165Y027165D02*
D03*
X025984Y048425D02*
D03*
X026575Y047244D02*
D03*
Y044882D02*
D03*
X025984Y043701D02*
D03*
X026575Y04252D02*
D03*
X025984Y041339D02*
D03*
X026575Y040157D02*
D03*
Y037795D02*
D03*
Y030709D02*
D03*
X024803Y048425D02*
D03*
X025394Y047244D02*
D03*
X024803Y046063D02*
D03*
X025394Y044882D02*
D03*
Y04252D02*
D03*
X024803Y041339D02*
D03*
Y036614D02*
D03*
X025394Y035433D02*
D03*
Y030709D02*
D03*
Y028346D02*
D03*
X024803Y027165D02*
D03*
Y024803D02*
D03*
Y020079D02*
D03*
X023622Y048425D02*
D03*
X024213Y047244D02*
D03*
X023622Y046063D02*
D03*
X024213Y044882D02*
D03*
Y04252D02*
D03*
X023622Y041339D02*
D03*
Y036614D02*
D03*
Y029528D02*
D03*
X024213Y028346D02*
D03*
Y025984D02*
D03*
X023622Y024803D02*
D03*
Y020079D02*
D03*
X022441Y048425D02*
D03*
X023031Y047244D02*
D03*
X022441Y046063D02*
D03*
X023031Y044882D02*
D03*
X022441Y043701D02*
D03*
X023031Y04252D02*
D03*
X022441Y041339D02*
D03*
X023031Y040157D02*
D03*
Y035433D02*
D03*
X022441Y034252D02*
D03*
X023031Y025984D02*
D03*
X022441Y024803D02*
D03*
Y020079D02*
D03*
X02185Y044882D02*
D03*
X02126Y043701D02*
D03*
X02185Y04252D02*
D03*
Y028346D02*
D03*
Y025984D02*
D03*
X02126Y024803D02*
D03*
X02185Y023622D02*
D03*
X020079Y046063D02*
D03*
X020669Y044882D02*
D03*
X020079Y043701D02*
D03*
X020669Y04252D02*
D03*
X020079Y041339D02*
D03*
Y038976D02*
D03*
Y034252D02*
D03*
Y03189D02*
D03*
Y029528D02*
D03*
X020669Y028346D02*
D03*
X020079Y027165D02*
D03*
X020669Y025984D02*
D03*
X020079Y024803D02*
D03*
X020669Y023622D02*
D03*
X024922Y02754D02*
D03*
X0357Y02799D02*
D03*
X03575Y02947D02*
D03*
X03568Y02672D02*
D03*
X03204Y02388D02*
D03*
X02838Y023619D02*
D03*
X02881Y02399D02*
D03*
X02499Y02194D02*
D03*
X02573Y023614D02*
D03*
X025499Y02325D02*
D03*
X0279Y02187D02*
D03*
X032873Y02608D02*
D03*
X033279Y022847D02*
D03*
X02905Y02854D02*
D03*
X03106Y02957D02*
D03*
X03084Y029888D02*
D03*
X03261Y0268D02*
D03*
X03291Y0272D02*
D03*
X03109Y028709D02*
D03*
X032637Y029634D02*
D03*
X03297Y029329D02*
D03*
X02421Y04019D02*
D03*
X026484Y02644D02*
D03*
X02563Y0273D02*
D03*
X02676Y02795D02*
D03*
X02509Y02648D02*
D03*
X02832Y027607D02*
D03*
X02148Y03209D02*
D03*
X02079Y03938D02*
D03*
X02126D02*
D03*
X02082Y0386D02*
D03*
X02125D02*
D03*
X02876Y0412D02*
D03*
Y04066D02*
D03*
X02913Y04092D02*
D03*
X02841D02*
D03*
X026484Y03853D02*
D03*
X026772Y038843D02*
D03*
X02646Y039129D02*
D03*
X026152Y038843D02*
D03*
X023257Y031077D02*
D03*
X035276Y032764D02*
D03*
X035827Y036385D02*
D03*
X034157Y03748D02*
D03*
X0364Y036663D02*
D03*
X03382Y032868D02*
D03*
X03002Y0305D02*
D03*
X028158Y029344D02*
D03*
X028473Y02886D02*
D03*
X03212Y032326D02*
D03*
X03282Y0323D02*
D03*
X028635Y032326D02*
D03*
X02118Y03445D02*
D03*
X0208Y03426D02*
D03*
Y034638D02*
D03*
X020817Y0321D02*
D03*
X021497Y03264D02*
D03*
X02082D02*
D03*
X02682Y03722D02*
D03*
X02582Y03272D02*
D03*
X025518D02*
D03*
X0247Y03402D02*
D03*
X02468Y03432D02*
D03*
X03212Y03582D02*
D03*
X033961Y03784D02*
D03*
X026982Y03796D02*
D03*
X03412Y03828D02*
D03*
Y03862D02*
D03*
X03385Y038262D02*
D03*
X03382Y03862D02*
D03*
X022563Y03236D02*
D03*
X030008Y03482D02*
D03*
X03128Y0353D02*
D03*
X0294Y035266D02*
D03*
X030315Y03592D02*
D03*
X031281Y0359D02*
D03*
X03132Y036638D02*
D03*
X031288Y03728D02*
D03*
X03032Y03658D02*
D03*
Y03728D02*
D03*
X0294Y0359D02*
D03*
X02938Y03662D02*
D03*
X02936Y037254D02*
D03*
X030692Y03482D02*
D03*
X03036Y034232D02*
D03*
X030775Y0338D02*
D03*
X03Y03377D02*
D03*
M02*
