G04*
G04 #@! TF.GenerationSoftware,Altium Limited,Altium Designer,18.1.6 (161)*
G04*
G04 Layer_Color=255*
%FSTAX24Y24*%
%MOIN*%
G70*
G01*
G75*
%ADD63C,0.0551*%
%ADD64R,0.0551X0.0551*%
%ADD65C,0.2362*%
%ADD66R,0.0551X0.0551*%
%ADD67R,0.1100X0.1200*%
%ADD68O,0.1100X0.1200*%
%ADD69R,0.1200X0.1100*%
%ADD70O,0.1200X0.1100*%
%ADD71R,0.0709X0.0709*%
%ADD72C,0.0709*%
D63*
X031327Y02107D02*
D03*
X03054D02*
D03*
X027143Y02111D02*
D03*
X026355D02*
D03*
X025568D02*
D03*
X02478D02*
D03*
X023993D02*
D03*
X023206D02*
D03*
X03685Y03011D02*
D03*
Y029323D02*
D03*
Y028535D02*
D03*
Y027748D02*
D03*
Y02696D02*
D03*
X034951Y02107D02*
D03*
X034164D02*
D03*
X033376D02*
D03*
D64*
X029753D02*
D03*
X02793Y02111D02*
D03*
X032589Y02107D02*
D03*
D65*
X0208Y047638D02*
D03*
X03745Y02108D02*
D03*
X02074Y0211D02*
D03*
X037444Y047638D02*
D03*
D66*
X03685Y030897D02*
D03*
D67*
X032215Y047598D02*
D03*
D68*
X030315Y047498D02*
D03*
X028315D02*
D03*
D69*
X02215Y0391D02*
D03*
D70*
Y0371D02*
D03*
D71*
X02123Y03366D02*
D03*
D72*
X02273D02*
D03*
M02*
