G04*
G04 #@! TF.GenerationSoftware,Altium Limited,Altium Designer,18.1.6 (161)*
G04*
G04 Layer_Physical_Order=2*
G04 Layer_Color=16711680*
%FSTAX24Y24*%
%MOIN*%
G70*
G01*
G75*
%ADD10C,0.0100*%
%ADD60C,0.0200*%
%ADD63C,0.0551*%
%ADD64R,0.0551X0.0551*%
%ADD65C,0.2362*%
%ADD66R,0.0551X0.0551*%
%ADD67R,0.1100X0.1200*%
%ADD68O,0.1100X0.1200*%
%ADD69R,0.1200X0.1100*%
%ADD70O,0.1200X0.1100*%
%ADD71R,0.0709X0.0709*%
%ADD72C,0.0709*%
%ADD73C,0.0236*%
G36*
X036902Y049118D02*
X036746Y049053D01*
X036567Y04895D01*
X036403Y048824D01*
X036257Y048678D01*
X036131Y048515D01*
X036028Y048336D01*
X035949Y048145D01*
X035896Y047946D01*
X035869Y047741D01*
X035869Y047638D01*
X035869Y047638D01*
X035869Y047535D01*
X035896Y04733D01*
X035949Y047131D01*
X036028Y04694D01*
X036131Y046761D01*
X036257Y046597D01*
X036403Y046451D01*
X036565Y046327D01*
X036566Y046321D01*
X036556Y046274D01*
X036529Y046268D01*
X036457Y04622D01*
X036409Y046148D01*
X036402Y046113D01*
X036827D01*
X036822Y046137D01*
X036856Y046177D01*
X036936Y046143D01*
X037136Y04609D01*
X03734Y046063D01*
X037444D01*
X037547Y046063D01*
X037752Y04609D01*
X037951Y046143D01*
X038142Y046222D01*
X03832Y046326D01*
X038484Y046451D01*
X03863Y046597D01*
X038756Y046761D01*
X038859Y04694D01*
X038898Y047033D01*
X038948Y047024D01*
Y040972D01*
Y031436D01*
Y02171D01*
X038898Y0217D01*
X038865Y021778D01*
X038762Y021957D01*
X038637Y022121D01*
X038491Y022267D01*
X038327Y022392D01*
X038148Y022495D01*
X037957Y022574D01*
X037758Y022628D01*
X037553Y022655D01*
X03745Y022655D01*
X03745Y022655D01*
X037347Y022655D01*
X037142Y022628D01*
X036943Y022574D01*
X036752Y022495D01*
X036573Y022392D01*
X036409Y022267D01*
X036263Y022121D01*
X036138Y021957D01*
X036035Y021778D01*
X035956Y021587D01*
X035902Y021388D01*
X035875Y021183D01*
X035875Y02108D01*
X035875Y02108D01*
X035875Y020977D01*
X035902Y020772D01*
X035956Y020573D01*
X036035Y020382D01*
X036138Y020203D01*
X036263Y020039D01*
X036409Y019893D01*
X036573Y019768D01*
X036752Y019665D01*
X036943Y019586D01*
X036957Y019582D01*
X036951Y019532D01*
X021167D01*
X02116Y019582D01*
X021247Y019606D01*
X021438Y019685D01*
X021617Y019788D01*
X021781Y019913D01*
X021927Y020059D01*
X022052Y020223D01*
X022155Y020402D01*
X022234Y020593D01*
X022288Y020792D01*
X022315Y020997D01*
X022315Y0211D01*
X022315Y0211D01*
X022315Y0211D01*
X022315Y021203D01*
X022288Y021408D01*
X022234Y021607D01*
X022155Y021798D01*
X022052Y021977D01*
X021927Y022141D01*
X021781Y022287D01*
X021617Y022412D01*
X021438Y022515D01*
X021247Y022594D01*
X021048Y022648D01*
X020843Y022675D01*
X02074Y022675D01*
X02074Y022675D01*
X020637Y022675D01*
X020432Y022648D01*
X020233Y022594D01*
X020042Y022515D01*
X019863Y022412D01*
X019699Y022287D01*
X019553Y022141D01*
X019428Y021977D01*
X019325Y021798D01*
X019282Y021696D01*
X019232Y021706D01*
Y047211D01*
X019282Y047218D01*
X019306Y047131D01*
X019385Y04694D01*
X019488Y046761D01*
X019613Y046597D01*
X019759Y046451D01*
X019923Y046326D01*
X019959Y046305D01*
X019961Y046246D01*
X019921Y04622D01*
X019873Y046148D01*
X019866Y046113D01*
X020319D01*
X020339Y046131D01*
X020492Y04609D01*
X020697Y046063D01*
X0208D01*
X020903Y046063D01*
X021108Y04609D01*
X021307Y046143D01*
X021498Y046222D01*
X021677Y046326D01*
X021841Y046451D01*
X021987Y046597D01*
X022112Y046761D01*
X022215Y04694D01*
X022294Y04713D01*
X022348Y04733D01*
X022375Y047535D01*
X022375Y047638D01*
X022375Y047638D01*
X022375Y047638D01*
X022375Y047741D01*
X022348Y047946D01*
X022294Y048145D01*
X022263Y048222D01*
X022303Y048255D01*
X022356Y04822D01*
X022391Y048213D01*
Y048425D01*
Y048638D01*
X022356Y048631D01*
X022284Y048582D01*
X022235Y04851D01*
X022219Y048429D01*
X022209Y048423D01*
X02217Y048415D01*
X022112Y048515D01*
X021987Y048678D01*
X021841Y048824D01*
X021677Y04895D01*
X021498Y049053D01*
X021342Y049118D01*
X021352Y049168D01*
X036892D01*
X036902Y049118D01*
D02*
G37*
%LPC*%
G36*
X035483Y048638D02*
Y048475D01*
X035645D01*
X035639Y04851D01*
X03559Y048582D01*
X035518Y048631D01*
X035483Y048638D01*
D02*
G37*
G36*
X035383D02*
X035348Y048631D01*
X035276Y048582D01*
X035228Y04851D01*
X035221Y048475D01*
X035383D01*
Y048638D01*
D02*
G37*
G36*
X034302D02*
Y048475D01*
X034464D01*
X034457Y04851D01*
X034409Y048582D01*
X034337Y048631D01*
X034302Y048638D01*
D02*
G37*
G36*
X034202D02*
X034167Y048631D01*
X034095Y048582D01*
X034046Y04851D01*
X03404Y048475D01*
X034202D01*
Y048638D01*
D02*
G37*
G36*
X026034D02*
Y048475D01*
X026197D01*
X02619Y04851D01*
X026141Y048582D01*
X026069Y048631D01*
X026034Y048638D01*
D02*
G37*
G36*
X025934D02*
X025899Y048631D01*
X025827Y048582D01*
X025779Y04851D01*
X025772Y048475D01*
X025934D01*
Y048638D01*
D02*
G37*
G36*
X024853D02*
Y048475D01*
X025016D01*
X025009Y04851D01*
X02496Y048582D01*
X024888Y048631D01*
X024853Y048638D01*
D02*
G37*
G36*
X024753D02*
X024718Y048631D01*
X024646Y048582D01*
X024598Y04851D01*
X024591Y048475D01*
X024753D01*
Y048638D01*
D02*
G37*
G36*
X023672D02*
Y048475D01*
X023834D01*
X023827Y04851D01*
X023779Y048582D01*
X023707Y048631D01*
X023672Y048638D01*
D02*
G37*
G36*
X023572D02*
X023537Y048631D01*
X023465Y048582D01*
X023417Y04851D01*
X02341Y048475D01*
X023572D01*
Y048638D01*
D02*
G37*
G36*
X022491D02*
Y048475D01*
X022653D01*
X022646Y04851D01*
X022598Y048582D01*
X022526Y048631D01*
X022491Y048638D01*
D02*
G37*
G36*
X032659Y048265D02*
X03176Y048265D01*
X03176Y048265D01*
X03176Y048265D01*
X031743Y048258D01*
X031605D01*
Y04811D01*
X031605Y048109D01*
X031605Y047982D01*
Y044537D01*
X028174Y041106D01*
X028155Y04106D01*
Y04041D01*
X028174Y040364D01*
X02822Y040345D01*
X02895Y040345D01*
X028996Y040364D01*
X032429Y043797D01*
X032429Y043797D01*
X032474Y043842D01*
X032476Y043846D01*
X032478Y043847D01*
X032559Y043946D01*
X03256Y043949D01*
X032563Y043951D01*
X032634Y044057D01*
X032635Y04406D01*
X032637Y044062D01*
X032697Y044175D01*
X032698Y044178D01*
X0327Y04418D01*
X032749Y044298D01*
Y044302D01*
X032751Y044304D01*
X032788Y044426D01*
X032788Y04443D01*
X03279Y044432D01*
X032814Y044557D01*
X032814Y044561D01*
X032815Y044564D01*
X032828Y044691D01*
X032827Y044694D01*
X032828Y044697D01*
X032828Y044761D01*
X032828Y044761D01*
Y045944D01*
X032878Y045959D01*
X032914Y045906D01*
X032986Y045858D01*
X033021Y045851D01*
Y046063D01*
Y046275D01*
X032986Y046268D01*
X032914Y04622D01*
X032878Y046167D01*
X032828Y046182D01*
Y048096D01*
X032825Y048103D01*
Y048258D01*
X032676D01*
X032659Y048265D01*
D02*
G37*
G36*
X035645Y048375D02*
X035483D01*
Y048213D01*
X035518Y04822D01*
X03559Y048268D01*
X035639Y04834D01*
X035645Y048375D01*
D02*
G37*
G36*
X035383D02*
X035221D01*
X035228Y04834D01*
X035276Y048268D01*
X035348Y04822D01*
X035383Y048213D01*
Y048375D01*
D02*
G37*
G36*
X034464D02*
X034302D01*
Y048213D01*
X034337Y04822D01*
X034409Y048268D01*
X034457Y04834D01*
X034464Y048375D01*
D02*
G37*
G36*
X034202D02*
X03404D01*
X034046Y04834D01*
X034095Y048268D01*
X034167Y04822D01*
X034202Y048213D01*
Y048375D01*
D02*
G37*
G36*
X026197D02*
X026034D01*
Y048213D01*
X026069Y04822D01*
X026141Y048268D01*
X02619Y04834D01*
X026197Y048375D01*
D02*
G37*
G36*
X025934D02*
X025772D01*
X025779Y04834D01*
X025827Y048268D01*
X025899Y04822D01*
X025934Y048213D01*
Y048375D01*
D02*
G37*
G36*
X025016D02*
X024853D01*
Y048213D01*
X024888Y04822D01*
X02496Y048268D01*
X025009Y04834D01*
X025016Y048375D01*
D02*
G37*
G36*
X024753D02*
X024591D01*
X024598Y04834D01*
X024646Y048268D01*
X024718Y04822D01*
X024753Y048213D01*
Y048375D01*
D02*
G37*
G36*
X023834D02*
X023672D01*
Y048213D01*
X023707Y04822D01*
X023779Y048268D01*
X023827Y04834D01*
X023834Y048375D01*
D02*
G37*
G36*
X023572D02*
X02341D01*
X023417Y04834D01*
X023465Y048268D01*
X023537Y04822D01*
X023572Y048213D01*
Y048375D01*
D02*
G37*
G36*
X022653D02*
X022491D01*
Y048213D01*
X022526Y04822D01*
X022598Y048268D01*
X022646Y04834D01*
X022653Y048375D01*
D02*
G37*
G36*
X034893Y047457D02*
Y047294D01*
X035055D01*
X035048Y047329D01*
X035Y047401D01*
X034928Y04745D01*
X034893Y047457D01*
D02*
G37*
G36*
X034793D02*
X034757Y04745D01*
X034685Y047401D01*
X034637Y047329D01*
X03463Y047294D01*
X034793D01*
Y047457D01*
D02*
G37*
G36*
X033711D02*
Y047294D01*
X033874D01*
X033867Y047329D01*
X033819Y047401D01*
X033747Y04745D01*
X033711Y047457D01*
D02*
G37*
G36*
X033611D02*
X033576Y04745D01*
X033504Y047401D01*
X033456Y047329D01*
X033449Y047294D01*
X033611D01*
Y047457D01*
D02*
G37*
G36*
X031349D02*
Y047294D01*
X031512D01*
X031505Y047329D01*
X031456Y047401D01*
X031384Y04745D01*
X031349Y047457D01*
D02*
G37*
G36*
X031249D02*
X031214Y04745D01*
X031142Y047401D01*
X031094Y047329D01*
X031087Y047294D01*
X031249D01*
Y047457D01*
D02*
G37*
G36*
X026625D02*
Y047294D01*
X026787D01*
X02678Y047329D01*
X026732Y047401D01*
X02666Y04745D01*
X026625Y047457D01*
D02*
G37*
G36*
X026525D02*
X02649Y04745D01*
X026418Y047401D01*
X026369Y047329D01*
X026362Y047294D01*
X026525D01*
Y047457D01*
D02*
G37*
G36*
X025444D02*
Y047294D01*
X025606D01*
X025599Y047329D01*
X025551Y047401D01*
X025479Y04745D01*
X025444Y047457D01*
D02*
G37*
G36*
X025344D02*
X025309Y04745D01*
X025236Y047401D01*
X025188Y047329D01*
X025181Y047294D01*
X025344D01*
Y047457D01*
D02*
G37*
G36*
X024263D02*
Y047294D01*
X024425D01*
X024418Y047329D01*
X02437Y047401D01*
X024298Y04745D01*
X024263Y047457D01*
D02*
G37*
G36*
X024163D02*
X024127Y04745D01*
X024055Y047401D01*
X024007Y047329D01*
X024Y047294D01*
X024163D01*
Y047457D01*
D02*
G37*
G36*
X023081D02*
Y047294D01*
X023244D01*
X023237Y047329D01*
X023189Y047401D01*
X023117Y04745D01*
X023081Y047457D01*
D02*
G37*
G36*
X022981D02*
X022946Y04745D01*
X022874Y047401D01*
X022826Y047329D01*
X022819Y047294D01*
X022981D01*
Y047457D01*
D02*
G37*
G36*
X035055Y047194D02*
X034893D01*
Y047032D01*
X034928Y047039D01*
X035Y047087D01*
X035048Y047159D01*
X035055Y047194D01*
D02*
G37*
G36*
X034793D02*
X03463D01*
X034637Y047159D01*
X034685Y047087D01*
X034757Y047039D01*
X034793Y047032D01*
Y047194D01*
D02*
G37*
G36*
X033874D02*
X033711D01*
Y047032D01*
X033747Y047039D01*
X033819Y047087D01*
X033867Y047159D01*
X033874Y047194D01*
D02*
G37*
G36*
X033611D02*
X033449D01*
X033456Y047159D01*
X033504Y047087D01*
X033576Y047039D01*
X033611Y047032D01*
Y047194D01*
D02*
G37*
G36*
X031512D02*
X031349D01*
Y047032D01*
X031384Y047039D01*
X031456Y047087D01*
X031505Y047159D01*
X031512Y047194D01*
D02*
G37*
G36*
X031249D02*
X031087D01*
X031094Y047159D01*
X031142Y047087D01*
X031214Y047039D01*
X031249Y047032D01*
Y047194D01*
D02*
G37*
G36*
X026787D02*
X026625D01*
Y047032D01*
X02666Y047039D01*
X026732Y047087D01*
X02678Y047159D01*
X026787Y047194D01*
D02*
G37*
G36*
X026525D02*
X026362D01*
X026369Y047159D01*
X026418Y047087D01*
X02649Y047039D01*
X026525Y047032D01*
Y047194D01*
D02*
G37*
G36*
X025606D02*
X025444D01*
Y047032D01*
X025479Y047039D01*
X025551Y047087D01*
X025599Y047159D01*
X025606Y047194D01*
D02*
G37*
G36*
X025344D02*
X025181D01*
X025188Y047159D01*
X025236Y047087D01*
X025309Y047039D01*
X025344Y047032D01*
Y047194D01*
D02*
G37*
G36*
X024425D02*
X024263D01*
Y047032D01*
X024298Y047039D01*
X02437Y047087D01*
X024418Y047159D01*
X024425Y047194D01*
D02*
G37*
G36*
X024163D02*
X024D01*
X024007Y047159D01*
X024055Y047087D01*
X024127Y047039D01*
X024163Y047032D01*
Y047194D01*
D02*
G37*
G36*
X023244D02*
X023081D01*
Y047032D01*
X023117Y047039D01*
X023189Y047087D01*
X023237Y047159D01*
X023244Y047194D01*
D02*
G37*
G36*
X022981D02*
X022819D01*
X022826Y047159D01*
X022874Y047087D01*
X022946Y047039D01*
X022981Y047032D01*
Y047194D01*
D02*
G37*
G36*
X030315Y048161D02*
X030196Y048149D01*
X030081Y048114D01*
X029975Y048058D01*
X029882Y047981D01*
X029805Y047889D01*
X029749Y047783D01*
X029714Y047668D01*
X029702Y047548D01*
Y047448D01*
X029714Y047328D01*
X029749Y047213D01*
X029805Y047107D01*
X029882Y047015D01*
X029975Y046938D01*
X030081Y046882D01*
X030196Y046847D01*
X030315Y046835D01*
X030435Y046847D01*
X03055Y046882D01*
X030656Y046938D01*
X030749Y047015D01*
X030825Y047107D01*
X030881Y047213D01*
X030916Y047328D01*
X030928Y047448D01*
Y047548D01*
X030916Y047668D01*
X030881Y047783D01*
X030825Y047889D01*
X030749Y047981D01*
X030656Y048058D01*
X03055Y048114D01*
X030435Y048149D01*
X030315Y048161D01*
D02*
G37*
G36*
X028315D02*
X028196Y048149D01*
X028081Y048114D01*
X027975Y048058D01*
X027882Y047981D01*
X027805Y047889D01*
X027749Y047783D01*
X027714Y047668D01*
X027702Y047548D01*
Y047448D01*
X027714Y047328D01*
X027749Y047213D01*
X027805Y047107D01*
X027882Y047015D01*
X027975Y046938D01*
X028081Y046882D01*
X028196Y046847D01*
X028315Y046835D01*
X028435Y046847D01*
X02855Y046882D01*
X028656Y046938D01*
X028749Y047015D01*
X028825Y047107D01*
X028881Y047213D01*
X028916Y047328D01*
X028928Y047448D01*
Y047548D01*
X028916Y047668D01*
X028881Y047783D01*
X028825Y047889D01*
X028749Y047981D01*
X028656Y048058D01*
X02855Y048114D01*
X028435Y048149D01*
X028315Y048161D01*
D02*
G37*
G36*
X035483Y046275D02*
Y046113D01*
X035645D01*
X035639Y046148D01*
X03559Y04622D01*
X035518Y046268D01*
X035483Y046275D01*
D02*
G37*
G36*
X035383D02*
X035348Y046268D01*
X035276Y04622D01*
X035228Y046148D01*
X035221Y046113D01*
X035383D01*
Y046275D01*
D02*
G37*
G36*
X034302D02*
Y046113D01*
X034464D01*
X034457Y046148D01*
X034409Y04622D01*
X034337Y046268D01*
X034302Y046275D01*
D02*
G37*
G36*
X034202D02*
X034167Y046268D01*
X034095Y04622D01*
X034046Y046148D01*
X03404Y046113D01*
X034202D01*
Y046275D01*
D02*
G37*
G36*
X033121D02*
Y046113D01*
X033283D01*
X033276Y046148D01*
X033228Y04622D01*
X033156Y046268D01*
X033121Y046275D01*
D02*
G37*
G36*
X029578D02*
Y046113D01*
X02974D01*
X029733Y046148D01*
X029685Y04622D01*
X029613Y046268D01*
X029578Y046275D01*
D02*
G37*
G36*
X029478D02*
X029442Y046268D01*
X02937Y04622D01*
X029322Y046148D01*
X029315Y046113D01*
X029478D01*
Y046275D01*
D02*
G37*
G36*
X027215D02*
Y046113D01*
X027378D01*
X027371Y046148D01*
X027323Y04622D01*
X02725Y046268D01*
X027215Y046275D01*
D02*
G37*
G36*
X027115D02*
X02708Y046268D01*
X027008Y04622D01*
X02696Y046148D01*
X026953Y046113D01*
X027115D01*
Y046275D01*
D02*
G37*
G36*
X024853D02*
Y046113D01*
X025016D01*
X025009Y046148D01*
X02496Y04622D01*
X024888Y046268D01*
X024853Y046275D01*
D02*
G37*
G36*
X024753D02*
X024718Y046268D01*
X024646Y04622D01*
X024598Y046148D01*
X024591Y046113D01*
X024753D01*
Y046275D01*
D02*
G37*
G36*
X023672D02*
Y046113D01*
X023834D01*
X023827Y046148D01*
X023779Y04622D01*
X023707Y046268D01*
X023672Y046275D01*
D02*
G37*
G36*
X023572D02*
X023537Y046268D01*
X023465Y04622D01*
X023417Y046148D01*
X02341Y046113D01*
X023572D01*
Y046275D01*
D02*
G37*
G36*
X022491D02*
Y046113D01*
X022653D01*
X022646Y046148D01*
X022598Y04622D01*
X022526Y046268D01*
X022491Y046275D01*
D02*
G37*
G36*
X022391D02*
X022356Y046268D01*
X022284Y04622D01*
X022235Y046148D01*
X022229Y046113D01*
X022391D01*
Y046275D01*
D02*
G37*
G36*
X036827Y046013D02*
X036664D01*
Y045851D01*
X036699Y045858D01*
X036771Y045906D01*
X03682Y045978D01*
X036827Y046013D01*
D02*
G37*
G36*
X036564D02*
X036402D01*
X036409Y045978D01*
X036457Y045906D01*
X036529Y045858D01*
X036564Y045851D01*
Y046013D01*
D02*
G37*
G36*
X035645D02*
X035483D01*
Y045851D01*
X035518Y045858D01*
X03559Y045906D01*
X035639Y045978D01*
X035645Y046013D01*
D02*
G37*
G36*
X035383D02*
X035221D01*
X035228Y045978D01*
X035276Y045906D01*
X035348Y045858D01*
X035383Y045851D01*
Y046013D01*
D02*
G37*
G36*
X034464D02*
X034302D01*
Y045851D01*
X034337Y045858D01*
X034409Y045906D01*
X034457Y045978D01*
X034464Y046013D01*
D02*
G37*
G36*
X034202D02*
X03404D01*
X034046Y045978D01*
X034095Y045906D01*
X034167Y045858D01*
X034202Y045851D01*
Y046013D01*
D02*
G37*
G36*
X033283D02*
X033121D01*
Y045851D01*
X033156Y045858D01*
X033228Y045906D01*
X033276Y045978D01*
X033283Y046013D01*
D02*
G37*
G36*
X02974D02*
X029578D01*
Y045851D01*
X029613Y045858D01*
X029685Y045906D01*
X029733Y045978D01*
X02974Y046013D01*
D02*
G37*
G36*
X029478D02*
X029315D01*
X029322Y045978D01*
X02937Y045906D01*
X029442Y045858D01*
X029478Y045851D01*
Y046013D01*
D02*
G37*
G36*
X027378D02*
X027215D01*
Y045851D01*
X02725Y045858D01*
X027323Y045906D01*
X027371Y045978D01*
X027378Y046013D01*
D02*
G37*
G36*
X027115D02*
X026953D01*
X02696Y045978D01*
X027008Y045906D01*
X02708Y045858D01*
X027115Y045851D01*
Y046013D01*
D02*
G37*
G36*
X025016D02*
X024853D01*
Y045851D01*
X024888Y045858D01*
X02496Y045906D01*
X025009Y045978D01*
X025016Y046013D01*
D02*
G37*
G36*
X024753D02*
X024591D01*
X024598Y045978D01*
X024646Y045906D01*
X024718Y045858D01*
X024753Y045851D01*
Y046013D01*
D02*
G37*
G36*
X023834D02*
X023672D01*
Y045851D01*
X023707Y045858D01*
X023779Y045906D01*
X023827Y045978D01*
X023834Y046013D01*
D02*
G37*
G36*
X023572D02*
X02341D01*
X023417Y045978D01*
X023465Y045906D01*
X023537Y045858D01*
X023572Y045851D01*
Y046013D01*
D02*
G37*
G36*
X022653D02*
X022491D01*
Y045851D01*
X022526Y045858D01*
X022598Y045906D01*
X022646Y045978D01*
X022653Y046013D01*
D02*
G37*
G36*
X022391D02*
X022229D01*
X022235Y045978D01*
X022284Y045906D01*
X022356Y045858D01*
X022391Y045851D01*
Y046013D01*
D02*
G37*
G36*
X020291D02*
X020129D01*
Y045851D01*
X020164Y045858D01*
X020236Y045906D01*
X020284Y045978D01*
X020291Y046013D01*
D02*
G37*
G36*
X020029D02*
X019866D01*
X019873Y045978D01*
X019921Y045906D01*
X019994Y045858D01*
X020029Y045851D01*
Y046013D01*
D02*
G37*
G36*
X038436Y045094D02*
Y044932D01*
X038598D01*
X038591Y044967D01*
X038543Y045039D01*
X038471Y045087D01*
X038436Y045094D01*
D02*
G37*
G36*
X038336D02*
X038301Y045087D01*
X038229Y045039D01*
X03818Y044967D01*
X038173Y044932D01*
X038336D01*
Y045094D01*
D02*
G37*
G36*
X037255D02*
Y044932D01*
X037417D01*
X03741Y044967D01*
X037362Y045039D01*
X03729Y045087D01*
X037255Y045094D01*
D02*
G37*
G36*
X037155D02*
X03712Y045087D01*
X037047Y045039D01*
X036999Y044967D01*
X036992Y044932D01*
X037155D01*
Y045094D01*
D02*
G37*
G36*
X034893D02*
Y044932D01*
X035055D01*
X035048Y044967D01*
X035Y045039D01*
X034928Y045087D01*
X034893Y045094D01*
D02*
G37*
G36*
X034793D02*
X034757Y045087D01*
X034685Y045039D01*
X034637Y044967D01*
X03463Y044932D01*
X034793D01*
Y045094D01*
D02*
G37*
G36*
X033711D02*
Y044932D01*
X033874D01*
X033867Y044967D01*
X033819Y045039D01*
X033747Y045087D01*
X033711Y045094D01*
D02*
G37*
G36*
X033611D02*
X033576Y045087D01*
X033504Y045039D01*
X033456Y044967D01*
X033449Y044932D01*
X033611D01*
Y045094D01*
D02*
G37*
G36*
X030168D02*
Y044932D01*
X030331D01*
X030324Y044967D01*
X030275Y045039D01*
X030203Y045087D01*
X030168Y045094D01*
D02*
G37*
G36*
X030068D02*
X030033Y045087D01*
X029961Y045039D01*
X029913Y044967D01*
X029906Y044932D01*
X030068D01*
Y045094D01*
D02*
G37*
G36*
X026625D02*
Y044932D01*
X026787D01*
X02678Y044967D01*
X026732Y045039D01*
X02666Y045087D01*
X026625Y045094D01*
D02*
G37*
G36*
X026525D02*
X02649Y045087D01*
X026418Y045039D01*
X026369Y044967D01*
X026362Y044932D01*
X026525D01*
Y045094D01*
D02*
G37*
G36*
X025444D02*
Y044932D01*
X025606D01*
X025599Y044967D01*
X025551Y045039D01*
X025479Y045087D01*
X025444Y045094D01*
D02*
G37*
G36*
X025344D02*
X025309Y045087D01*
X025236Y045039D01*
X025188Y044967D01*
X025181Y044932D01*
X025344D01*
Y045094D01*
D02*
G37*
G36*
X024263D02*
Y044932D01*
X024425D01*
X024418Y044967D01*
X02437Y045039D01*
X024298Y045087D01*
X024263Y045094D01*
D02*
G37*
G36*
X024163D02*
X024127Y045087D01*
X024055Y045039D01*
X024007Y044967D01*
X024Y044932D01*
X024163D01*
Y045094D01*
D02*
G37*
G36*
X023081D02*
Y044932D01*
X023244D01*
X023237Y044967D01*
X023189Y045039D01*
X023117Y045087D01*
X023081Y045094D01*
D02*
G37*
G36*
X022981D02*
X022946Y045087D01*
X022874Y045039D01*
X022826Y044967D01*
X022819Y044932D01*
X022981D01*
Y045094D01*
D02*
G37*
G36*
X0219D02*
Y044932D01*
X022063D01*
X022056Y044967D01*
X022008Y045039D01*
X021935Y045087D01*
X0219Y045094D01*
D02*
G37*
G36*
X0218D02*
X021765Y045087D01*
X021693Y045039D01*
X021645Y044967D01*
X021638Y044932D01*
X0218D01*
Y045094D01*
D02*
G37*
G36*
X020719D02*
Y044932D01*
X020882D01*
X020875Y044967D01*
X020827Y045039D01*
X020754Y045087D01*
X020719Y045094D01*
D02*
G37*
G36*
X020619D02*
X020584Y045087D01*
X020512Y045039D01*
X020464Y044967D01*
X020457Y044932D01*
X020619D01*
Y045094D01*
D02*
G37*
G36*
X038598Y044832D02*
X038436D01*
Y044669D01*
X038471Y044676D01*
X038543Y044725D01*
X038591Y044797D01*
X038598Y044832D01*
D02*
G37*
G36*
X038336D02*
X038173D01*
X03818Y044797D01*
X038229Y044725D01*
X038301Y044676D01*
X038336Y044669D01*
Y044832D01*
D02*
G37*
G36*
X037417D02*
X037255D01*
Y044669D01*
X03729Y044676D01*
X037362Y044725D01*
X03741Y044797D01*
X037417Y044832D01*
D02*
G37*
G36*
X037155D02*
X036992D01*
X036999Y044797D01*
X037047Y044725D01*
X03712Y044676D01*
X037155Y044669D01*
Y044832D01*
D02*
G37*
G36*
X035055D02*
X034893D01*
Y044669D01*
X034928Y044676D01*
X035Y044725D01*
X035048Y044797D01*
X035055Y044832D01*
D02*
G37*
G36*
X034793D02*
X03463D01*
X034637Y044797D01*
X034685Y044725D01*
X034757Y044676D01*
X034793Y044669D01*
Y044832D01*
D02*
G37*
G36*
X033874D02*
X033711D01*
Y044669D01*
X033747Y044676D01*
X033819Y044725D01*
X033867Y044797D01*
X033874Y044832D01*
D02*
G37*
G36*
X033611D02*
X033449D01*
X033456Y044797D01*
X033504Y044725D01*
X033576Y044676D01*
X033611Y044669D01*
Y044832D01*
D02*
G37*
G36*
X030331D02*
X030168D01*
Y044669D01*
X030203Y044676D01*
X030275Y044725D01*
X030324Y044797D01*
X030331Y044832D01*
D02*
G37*
G36*
X030068D02*
X029906D01*
X029913Y044797D01*
X029961Y044725D01*
X030033Y044676D01*
X030068Y044669D01*
Y044832D01*
D02*
G37*
G36*
X026787D02*
X026625D01*
Y044669D01*
X02666Y044676D01*
X026732Y044725D01*
X02678Y044797D01*
X026787Y044832D01*
D02*
G37*
G36*
X026525D02*
X026362D01*
X026369Y044797D01*
X026418Y044725D01*
X02649Y044676D01*
X026525Y044669D01*
Y044832D01*
D02*
G37*
G36*
X025606D02*
X025444D01*
Y044669D01*
X025479Y044676D01*
X025551Y044725D01*
X025599Y044797D01*
X025606Y044832D01*
D02*
G37*
G36*
X025344D02*
X025181D01*
X025188Y044797D01*
X025236Y044725D01*
X025309Y044676D01*
X025344Y044669D01*
Y044832D01*
D02*
G37*
G36*
X024425D02*
X024263D01*
Y044669D01*
X024298Y044676D01*
X02437Y044725D01*
X024418Y044797D01*
X024425Y044832D01*
D02*
G37*
G36*
X024163D02*
X024D01*
X024007Y044797D01*
X024055Y044725D01*
X024127Y044676D01*
X024163Y044669D01*
Y044832D01*
D02*
G37*
G36*
X023244D02*
X023081D01*
Y044669D01*
X023117Y044676D01*
X023189Y044725D01*
X023237Y044797D01*
X023244Y044832D01*
D02*
G37*
G36*
X022981D02*
X022819D01*
X022826Y044797D01*
X022874Y044725D01*
X022946Y044676D01*
X022981Y044669D01*
Y044832D01*
D02*
G37*
G36*
X022063D02*
X0219D01*
Y044669D01*
X021935Y044676D01*
X022008Y044725D01*
X022056Y044797D01*
X022063Y044832D01*
D02*
G37*
G36*
X0218D02*
X021638D01*
X021645Y044797D01*
X021693Y044725D01*
X021765Y044676D01*
X0218Y044669D01*
Y044832D01*
D02*
G37*
G36*
X020882D02*
X020719D01*
Y044669D01*
X020754Y044676D01*
X020827Y044725D01*
X020875Y044797D01*
X020882Y044832D01*
D02*
G37*
G36*
X020619D02*
X020457D01*
X020464Y044797D01*
X020512Y044725D01*
X020584Y044676D01*
X020619Y044669D01*
Y044832D01*
D02*
G37*
G36*
X037845Y043913D02*
Y043751D01*
X038008D01*
X038001Y043786D01*
X037953Y043858D01*
X03788Y043906D01*
X037845Y043913D01*
D02*
G37*
G36*
X037745D02*
X03771Y043906D01*
X037638Y043858D01*
X03759Y043786D01*
X037583Y043751D01*
X037745D01*
Y043913D01*
D02*
G37*
G36*
X034302D02*
Y043751D01*
X034464D01*
X034457Y043786D01*
X034409Y043858D01*
X034337Y043906D01*
X034302Y043913D01*
D02*
G37*
G36*
X034202D02*
X034167Y043906D01*
X034095Y043858D01*
X034046Y043786D01*
X03404Y043751D01*
X034202D01*
Y043913D01*
D02*
G37*
G36*
X029578D02*
Y043751D01*
X02974D01*
X029733Y043786D01*
X029685Y043858D01*
X029613Y043906D01*
X029578Y043913D01*
D02*
G37*
G36*
X029478D02*
X029442Y043906D01*
X02937Y043858D01*
X029322Y043786D01*
X029315Y043751D01*
X029478D01*
Y043913D01*
D02*
G37*
G36*
X028396D02*
Y043751D01*
X028559D01*
X028552Y043786D01*
X028504Y043858D01*
X028432Y043906D01*
X028396Y043913D01*
D02*
G37*
G36*
X028296D02*
X028261Y043906D01*
X028189Y043858D01*
X028141Y043786D01*
X028134Y043751D01*
X028296D01*
Y043913D01*
D02*
G37*
G36*
X026034D02*
Y043751D01*
X026197D01*
X02619Y043786D01*
X026141Y043858D01*
X026069Y043906D01*
X026034Y043913D01*
D02*
G37*
G36*
X025934D02*
X025899Y043906D01*
X025827Y043858D01*
X025779Y043786D01*
X025772Y043751D01*
X025934D01*
Y043913D01*
D02*
G37*
G36*
X022491D02*
Y043751D01*
X022653D01*
X022646Y043786D01*
X022598Y043858D01*
X022526Y043906D01*
X022491Y043913D01*
D02*
G37*
G36*
X022391D02*
X022356Y043906D01*
X022284Y043858D01*
X022235Y043786D01*
X022229Y043751D01*
X022391D01*
Y043913D01*
D02*
G37*
G36*
X02131D02*
Y043751D01*
X021472D01*
X021465Y043786D01*
X021417Y043858D01*
X021345Y043906D01*
X02131Y043913D01*
D02*
G37*
G36*
X02121D02*
X021175Y043906D01*
X021103Y043858D01*
X021054Y043786D01*
X021047Y043751D01*
X02121D01*
Y043913D01*
D02*
G37*
G36*
X020129D02*
Y043751D01*
X020291D01*
X020284Y043786D01*
X020236Y043858D01*
X020164Y043906D01*
X020129Y043913D01*
D02*
G37*
G36*
X020029D02*
X019994Y043906D01*
X019921Y043858D01*
X019873Y043786D01*
X019866Y043751D01*
X020029D01*
Y043913D01*
D02*
G37*
G36*
X038008Y043651D02*
X037845D01*
Y043488D01*
X03788Y043495D01*
X037953Y043544D01*
X038001Y043616D01*
X038008Y043651D01*
D02*
G37*
G36*
X037745D02*
X037583D01*
X03759Y043616D01*
X037638Y043544D01*
X03771Y043495D01*
X037745Y043488D01*
Y043651D01*
D02*
G37*
G36*
X034464D02*
X034302D01*
Y043488D01*
X034337Y043495D01*
X034409Y043544D01*
X034457Y043616D01*
X034464Y043651D01*
D02*
G37*
G36*
X034202D02*
X03404D01*
X034046Y043616D01*
X034095Y043544D01*
X034167Y043495D01*
X034202Y043488D01*
Y043651D01*
D02*
G37*
G36*
X02974D02*
X029578D01*
Y043488D01*
X029613Y043495D01*
X029685Y043544D01*
X029733Y043616D01*
X02974Y043651D01*
D02*
G37*
G36*
X029478D02*
X029315D01*
X029322Y043616D01*
X02937Y043544D01*
X029442Y043495D01*
X029478Y043488D01*
Y043651D01*
D02*
G37*
G36*
X028559D02*
X028396D01*
Y043488D01*
X028432Y043495D01*
X028504Y043544D01*
X028552Y043616D01*
X028559Y043651D01*
D02*
G37*
G36*
X028296D02*
X028134D01*
X028141Y043616D01*
X028189Y043544D01*
X028261Y043495D01*
X028296Y043488D01*
Y043651D01*
D02*
G37*
G36*
X026197D02*
X026034D01*
Y043488D01*
X026069Y043495D01*
X026141Y043544D01*
X02619Y043616D01*
X026197Y043651D01*
D02*
G37*
G36*
X025934D02*
X025772D01*
X025779Y043616D01*
X025827Y043544D01*
X025899Y043495D01*
X025934Y043488D01*
Y043651D01*
D02*
G37*
G36*
X022653D02*
X022491D01*
Y043488D01*
X022526Y043495D01*
X022598Y043544D01*
X022646Y043616D01*
X022653Y043651D01*
D02*
G37*
G36*
X022391D02*
X022229D01*
X022235Y043616D01*
X022284Y043544D01*
X022356Y043495D01*
X022391Y043488D01*
Y043651D01*
D02*
G37*
G36*
X021472D02*
X02131D01*
Y043488D01*
X021345Y043495D01*
X021417Y043544D01*
X021465Y043616D01*
X021472Y043651D01*
D02*
G37*
G36*
X02121D02*
X021047D01*
X021054Y043616D01*
X021103Y043544D01*
X021175Y043495D01*
X02121Y043488D01*
Y043651D01*
D02*
G37*
G36*
X020291D02*
X020129D01*
Y043488D01*
X020164Y043495D01*
X020236Y043544D01*
X020284Y043616D01*
X020291Y043651D01*
D02*
G37*
G36*
X020029D02*
X019866D01*
X019873Y043616D01*
X019921Y043544D01*
X019994Y043495D01*
X020029Y043488D01*
Y043651D01*
D02*
G37*
G36*
X038436Y042732D02*
Y04257D01*
X038598D01*
X038591Y042605D01*
X038543Y042677D01*
X038471Y042725D01*
X038436Y042732D01*
D02*
G37*
G36*
X038336D02*
X038301Y042725D01*
X038229Y042677D01*
X03818Y042605D01*
X038173Y04257D01*
X038336D01*
Y042732D01*
D02*
G37*
G36*
X037255D02*
Y04257D01*
X037417D01*
X03741Y042605D01*
X037362Y042677D01*
X03729Y042725D01*
X037255Y042732D01*
D02*
G37*
G36*
X037155D02*
X03712Y042725D01*
X037047Y042677D01*
X036999Y042605D01*
X036992Y04257D01*
X037155D01*
Y042732D01*
D02*
G37*
G36*
X036074D02*
Y04257D01*
X036236D01*
X036229Y042605D01*
X036181Y042677D01*
X036109Y042725D01*
X036074Y042732D01*
D02*
G37*
G36*
X035974D02*
X035939Y042725D01*
X035866Y042677D01*
X035818Y042605D01*
X035811Y04257D01*
X035974D01*
Y042732D01*
D02*
G37*
G36*
X033711D02*
Y04257D01*
X033874D01*
X033867Y042605D01*
X033819Y042677D01*
X033747Y042725D01*
X033711Y042732D01*
D02*
G37*
G36*
X033611D02*
X033576Y042725D01*
X033504Y042677D01*
X033456Y042605D01*
X033449Y04257D01*
X033611D01*
Y042732D01*
D02*
G37*
G36*
X026625D02*
Y04257D01*
X026787D01*
X02678Y042605D01*
X026732Y042677D01*
X02666Y042725D01*
X026625Y042732D01*
D02*
G37*
G36*
X026525D02*
X02649Y042725D01*
X026418Y042677D01*
X026369Y042605D01*
X026362Y04257D01*
X026525D01*
Y042732D01*
D02*
G37*
G36*
X025444D02*
Y04257D01*
X025606D01*
X025599Y042605D01*
X025551Y042677D01*
X025479Y042725D01*
X025444Y042732D01*
D02*
G37*
G36*
X025344D02*
X025309Y042725D01*
X025236Y042677D01*
X025188Y042605D01*
X025181Y04257D01*
X025344D01*
Y042732D01*
D02*
G37*
G36*
X024263D02*
Y04257D01*
X024425D01*
X024418Y042605D01*
X02437Y042677D01*
X024298Y042725D01*
X024263Y042732D01*
D02*
G37*
G36*
X024163D02*
X024127Y042725D01*
X024055Y042677D01*
X024007Y042605D01*
X024Y04257D01*
X024163D01*
Y042732D01*
D02*
G37*
G36*
X023081D02*
Y04257D01*
X023244D01*
X023237Y042605D01*
X023189Y042677D01*
X023117Y042725D01*
X023081Y042732D01*
D02*
G37*
G36*
X022981D02*
X022946Y042725D01*
X022874Y042677D01*
X022826Y042605D01*
X022819Y04257D01*
X022981D01*
Y042732D01*
D02*
G37*
G36*
X0219D02*
Y04257D01*
X022063D01*
X022056Y042605D01*
X022008Y042677D01*
X021935Y042725D01*
X0219Y042732D01*
D02*
G37*
G36*
X0218D02*
X021765Y042725D01*
X021693Y042677D01*
X021645Y042605D01*
X021638Y04257D01*
X0218D01*
Y042732D01*
D02*
G37*
G36*
X020719D02*
Y04257D01*
X020882D01*
X020875Y042605D01*
X020827Y042677D01*
X020754Y042725D01*
X020719Y042732D01*
D02*
G37*
G36*
X020619D02*
X020584Y042725D01*
X020512Y042677D01*
X020464Y042605D01*
X020457Y04257D01*
X020619D01*
Y042732D01*
D02*
G37*
G36*
X038598Y04247D02*
X038436D01*
Y042307D01*
X038471Y042314D01*
X038543Y042362D01*
X038591Y042435D01*
X038598Y04247D01*
D02*
G37*
G36*
X038336D02*
X038173D01*
X03818Y042435D01*
X038229Y042362D01*
X038301Y042314D01*
X038336Y042307D01*
Y04247D01*
D02*
G37*
G36*
X037417D02*
X037255D01*
Y042307D01*
X03729Y042314D01*
X037362Y042362D01*
X03741Y042435D01*
X037417Y04247D01*
D02*
G37*
G36*
X037155D02*
X036992D01*
X036999Y042435D01*
X037047Y042362D01*
X03712Y042314D01*
X037155Y042307D01*
Y04247D01*
D02*
G37*
G36*
X036236D02*
X036074D01*
Y042307D01*
X036109Y042314D01*
X036181Y042362D01*
X036229Y042435D01*
X036236Y04247D01*
D02*
G37*
G36*
X035974D02*
X035811D01*
X035818Y042435D01*
X035866Y042362D01*
X035939Y042314D01*
X035974Y042307D01*
Y04247D01*
D02*
G37*
G36*
X033874D02*
X033711D01*
Y042307D01*
X033747Y042314D01*
X033819Y042362D01*
X033867Y042435D01*
X033874Y04247D01*
D02*
G37*
G36*
X033611D02*
X033449D01*
X033456Y042435D01*
X033504Y042362D01*
X033576Y042314D01*
X033611Y042307D01*
Y04247D01*
D02*
G37*
G36*
X026787D02*
X026625D01*
Y042307D01*
X02666Y042314D01*
X026732Y042362D01*
X02678Y042435D01*
X026787Y04247D01*
D02*
G37*
G36*
X026525D02*
X026362D01*
X026369Y042435D01*
X026418Y042362D01*
X02649Y042314D01*
X026525Y042307D01*
Y04247D01*
D02*
G37*
G36*
X025606D02*
X025444D01*
Y042307D01*
X025479Y042314D01*
X025551Y042362D01*
X025599Y042435D01*
X025606Y04247D01*
D02*
G37*
G36*
X025344D02*
X025181D01*
X025188Y042435D01*
X025236Y042362D01*
X025309Y042314D01*
X025344Y042307D01*
Y04247D01*
D02*
G37*
G36*
X024425D02*
X024263D01*
Y042307D01*
X024298Y042314D01*
X02437Y042362D01*
X024418Y042435D01*
X024425Y04247D01*
D02*
G37*
G36*
X024163D02*
X024D01*
X024007Y042435D01*
X024055Y042362D01*
X024127Y042314D01*
X024163Y042307D01*
Y04247D01*
D02*
G37*
G36*
X023244D02*
X023081D01*
Y042307D01*
X023117Y042314D01*
X023189Y042362D01*
X023237Y042435D01*
X023244Y04247D01*
D02*
G37*
G36*
X022981D02*
X022819D01*
X022826Y042435D01*
X022874Y042362D01*
X022946Y042314D01*
X022981Y042307D01*
Y04247D01*
D02*
G37*
G36*
X022063D02*
X0219D01*
Y042307D01*
X021935Y042314D01*
X022008Y042362D01*
X022056Y042435D01*
X022063Y04247D01*
D02*
G37*
G36*
X0218D02*
X021638D01*
X021645Y042435D01*
X021693Y042362D01*
X021765Y042314D01*
X0218Y042307D01*
Y04247D01*
D02*
G37*
G36*
X020882D02*
X020719D01*
Y042307D01*
X020754Y042314D01*
X020827Y042362D01*
X020875Y042435D01*
X020882Y04247D01*
D02*
G37*
G36*
X020619D02*
X020457D01*
X020464Y042435D01*
X020512Y042362D01*
X020584Y042314D01*
X020619Y042307D01*
Y04247D01*
D02*
G37*
G36*
X037845Y041551D02*
Y041389D01*
X038008D01*
X038001Y041424D01*
X037953Y041496D01*
X03788Y041544D01*
X037845Y041551D01*
D02*
G37*
G36*
X037745D02*
X03771Y041544D01*
X037638Y041496D01*
X03759Y041424D01*
X037583Y041389D01*
X037745D01*
Y041551D01*
D02*
G37*
G36*
X034302D02*
Y041389D01*
X034464D01*
X034457Y041424D01*
X034409Y041496D01*
X034337Y041544D01*
X034302Y041551D01*
D02*
G37*
G36*
X034202D02*
X034167Y041544D01*
X034095Y041496D01*
X034046Y041424D01*
X03404Y041389D01*
X034202D01*
Y041551D01*
D02*
G37*
G36*
X033121D02*
Y041389D01*
X033283D01*
X033276Y041424D01*
X033228Y041496D01*
X033156Y041544D01*
X033121Y041551D01*
D02*
G37*
G36*
X033021D02*
X032986Y041544D01*
X032914Y041496D01*
X032865Y041424D01*
X032858Y041389D01*
X033021D01*
Y041551D01*
D02*
G37*
G36*
X03194D02*
Y041389D01*
X032102D01*
X032095Y041424D01*
X032047Y041496D01*
X031975Y041544D01*
X03194Y041551D01*
D02*
G37*
G36*
X03184D02*
X031805Y041544D01*
X031733Y041496D01*
X031684Y041424D01*
X031677Y041389D01*
X03184D01*
Y041551D01*
D02*
G37*
G36*
X030759D02*
Y041389D01*
X030921D01*
X030914Y041424D01*
X030866Y041496D01*
X030794Y041544D01*
X030759Y041551D01*
D02*
G37*
G36*
X030659D02*
X030624Y041544D01*
X030551Y041496D01*
X030503Y041424D01*
X030496Y041389D01*
X030659D01*
Y041551D01*
D02*
G37*
G36*
X026034D02*
Y041389D01*
X026197D01*
X02619Y041424D01*
X026141Y041496D01*
X026069Y041544D01*
X026034Y041551D01*
D02*
G37*
G36*
X025934D02*
X025899Y041544D01*
X025827Y041496D01*
X025779Y041424D01*
X025772Y041389D01*
X025934D01*
Y041551D01*
D02*
G37*
G36*
X024853D02*
Y041389D01*
X025016D01*
X025009Y041424D01*
X02496Y041496D01*
X024888Y041544D01*
X024853Y041551D01*
D02*
G37*
G36*
X024753D02*
X024718Y041544D01*
X024646Y041496D01*
X024598Y041424D01*
X024591Y041389D01*
X024753D01*
Y041551D01*
D02*
G37*
G36*
X023672D02*
Y041389D01*
X023834D01*
X023827Y041424D01*
X023779Y041496D01*
X023707Y041544D01*
X023672Y041551D01*
D02*
G37*
G36*
X023572D02*
X023537Y041544D01*
X023465Y041496D01*
X023417Y041424D01*
X02341Y041389D01*
X023572D01*
Y041551D01*
D02*
G37*
G36*
X022491D02*
Y041389D01*
X022653D01*
X022646Y041424D01*
X022598Y041496D01*
X022526Y041544D01*
X022491Y041551D01*
D02*
G37*
G36*
X022391D02*
X022356Y041544D01*
X022284Y041496D01*
X022235Y041424D01*
X022229Y041389D01*
X022391D01*
Y041551D01*
D02*
G37*
G36*
X020129D02*
Y041389D01*
X020291D01*
X020284Y041424D01*
X020236Y041496D01*
X020164Y041544D01*
X020129Y041551D01*
D02*
G37*
G36*
X020029D02*
X019994Y041544D01*
X019921Y041496D01*
X019873Y041424D01*
X019866Y041389D01*
X020029D01*
Y041551D01*
D02*
G37*
G36*
X038008Y041289D02*
X037845D01*
Y041126D01*
X03788Y041133D01*
X037953Y041181D01*
X038001Y041253D01*
X038008Y041289D01*
D02*
G37*
G36*
X037745D02*
X037583D01*
X03759Y041253D01*
X037638Y041181D01*
X03771Y041133D01*
X037745Y041126D01*
Y041289D01*
D02*
G37*
G36*
X034464D02*
X034302D01*
Y041126D01*
X034337Y041133D01*
X034409Y041181D01*
X034457Y041253D01*
X034464Y041289D01*
D02*
G37*
G36*
X034202D02*
X03404D01*
X034046Y041253D01*
X034095Y041181D01*
X034167Y041133D01*
X034202Y041126D01*
Y041289D01*
D02*
G37*
G36*
X033283D02*
X033121D01*
Y041126D01*
X033156Y041133D01*
X033228Y041181D01*
X033276Y041253D01*
X033283Y041289D01*
D02*
G37*
G36*
X033021D02*
X032858D01*
X032865Y041253D01*
X032914Y041181D01*
X032986Y041133D01*
X033021Y041126D01*
Y041289D01*
D02*
G37*
G36*
X032102D02*
X03194D01*
Y041126D01*
X031975Y041133D01*
X032047Y041181D01*
X032095Y041253D01*
X032102Y041289D01*
D02*
G37*
G36*
X03184D02*
X031677D01*
X031684Y041253D01*
X031733Y041181D01*
X031805Y041133D01*
X03184Y041126D01*
Y041289D01*
D02*
G37*
G36*
X030921D02*
X030759D01*
Y041126D01*
X030794Y041133D01*
X030866Y041181D01*
X030914Y041253D01*
X030921Y041289D01*
D02*
G37*
G36*
X030659D02*
X030496D01*
X030503Y041253D01*
X030551Y041181D01*
X030624Y041133D01*
X030659Y041126D01*
Y041289D01*
D02*
G37*
G36*
X026197D02*
X026034D01*
Y041126D01*
X026069Y041133D01*
X026141Y041181D01*
X02619Y041253D01*
X026197Y041289D01*
D02*
G37*
G36*
X025934D02*
X025772D01*
X025779Y041253D01*
X025827Y041181D01*
X025899Y041133D01*
X025934Y041126D01*
Y041289D01*
D02*
G37*
G36*
X025016D02*
X024853D01*
Y041126D01*
X024888Y041133D01*
X02496Y041181D01*
X025009Y041253D01*
X025016Y041289D01*
D02*
G37*
G36*
X024753D02*
X024591D01*
X024598Y041253D01*
X024646Y041181D01*
X024718Y041133D01*
X024753Y041126D01*
Y041289D01*
D02*
G37*
G36*
X023834D02*
X023672D01*
Y041126D01*
X023707Y041133D01*
X023779Y041181D01*
X023827Y041253D01*
X023834Y041289D01*
D02*
G37*
G36*
X023572D02*
X02341D01*
X023417Y041253D01*
X023465Y041181D01*
X023537Y041133D01*
X023572Y041126D01*
Y041289D01*
D02*
G37*
G36*
X022653D02*
X022491D01*
Y041126D01*
X022526Y041133D01*
X022598Y041181D01*
X022646Y041253D01*
X022653Y041289D01*
D02*
G37*
G36*
X022391D02*
X022229D01*
X022235Y041253D01*
X022284Y041181D01*
X022356Y041133D01*
X022391Y041126D01*
Y041289D01*
D02*
G37*
G36*
X020291D02*
X020129D01*
Y041126D01*
X020164Y041133D01*
X020236Y041181D01*
X020284Y041253D01*
X020291Y041289D01*
D02*
G37*
G36*
X020029D02*
X019866D01*
X019873Y041253D01*
X019921Y041181D01*
X019994Y041133D01*
X020029Y041126D01*
Y041289D01*
D02*
G37*
G36*
X038436Y04037D02*
Y040207D01*
X038598D01*
X038591Y040243D01*
X038543Y040315D01*
X038471Y040363D01*
X038436Y04037D01*
D02*
G37*
G36*
X038336D02*
X038301Y040363D01*
X038229Y040315D01*
X03818Y040243D01*
X038173Y040207D01*
X038336D01*
Y04037D01*
D02*
G37*
G36*
X037255D02*
Y040207D01*
X037417D01*
X03741Y040243D01*
X037362Y040315D01*
X03729Y040363D01*
X037255Y04037D01*
D02*
G37*
G36*
X037155D02*
X03712Y040363D01*
X037047Y040315D01*
X036999Y040243D01*
X036992Y040207D01*
X037155D01*
Y04037D01*
D02*
G37*
G36*
X034893D02*
Y040207D01*
X035055D01*
X035048Y040243D01*
X035Y040315D01*
X034928Y040363D01*
X034893Y04037D01*
D02*
G37*
G36*
X034793D02*
X034757Y040363D01*
X034685Y040315D01*
X034637Y040243D01*
X03463Y040207D01*
X034793D01*
Y04037D01*
D02*
G37*
G36*
X03253D02*
Y040207D01*
X032693D01*
X032686Y040243D01*
X032638Y040315D01*
X032565Y040363D01*
X03253Y04037D01*
D02*
G37*
G36*
X03243D02*
X032395Y040363D01*
X032323Y040315D01*
X032275Y040243D01*
X032268Y040207D01*
X03243D01*
Y04037D01*
D02*
G37*
G36*
X030168D02*
Y040207D01*
X030331D01*
X030324Y040243D01*
X030275Y040315D01*
X030203Y040363D01*
X030168Y04037D01*
D02*
G37*
G36*
X030068D02*
X030033Y040363D01*
X029961Y040315D01*
X029913Y040243D01*
X029906Y040207D01*
X030068D01*
Y04037D01*
D02*
G37*
G36*
X027806D02*
Y040207D01*
X027968D01*
X027961Y040243D01*
X027913Y040315D01*
X027841Y040363D01*
X027806Y04037D01*
D02*
G37*
G36*
X027706D02*
X027671Y040363D01*
X027599Y040315D01*
X02755Y040243D01*
X027543Y040207D01*
X027706D01*
Y04037D01*
D02*
G37*
G36*
X026625D02*
Y040207D01*
X026787D01*
X02678Y040243D01*
X026732Y040315D01*
X02666Y040363D01*
X026625Y04037D01*
D02*
G37*
G36*
X026525D02*
X02649Y040363D01*
X026418Y040315D01*
X026369Y040243D01*
X026362Y040207D01*
X026525D01*
Y04037D01*
D02*
G37*
G36*
X023081D02*
Y040207D01*
X023244D01*
X023237Y040243D01*
X023189Y040315D01*
X023117Y040363D01*
X023081Y04037D01*
D02*
G37*
G36*
X022981D02*
X022946Y040363D01*
X022874Y040315D01*
X022826Y040243D01*
X022819Y040207D01*
X022981D01*
Y04037D01*
D02*
G37*
G36*
X038598Y040107D02*
X038436D01*
Y039945D01*
X038471Y039952D01*
X038543Y04D01*
X038591Y040072D01*
X038598Y040107D01*
D02*
G37*
G36*
X038336D02*
X038173D01*
X03818Y040072D01*
X038229Y04D01*
X038301Y039952D01*
X038336Y039945D01*
Y040107D01*
D02*
G37*
G36*
X037417D02*
X037255D01*
Y039945D01*
X03729Y039952D01*
X037362Y04D01*
X03741Y040072D01*
X037417Y040107D01*
D02*
G37*
G36*
X037155D02*
X036992D01*
X036999Y040072D01*
X037047Y04D01*
X03712Y039952D01*
X037155Y039945D01*
Y040107D01*
D02*
G37*
G36*
X035055D02*
X034893D01*
Y039945D01*
X034928Y039952D01*
X035Y04D01*
X035048Y040072D01*
X035055Y040107D01*
D02*
G37*
G36*
X034793D02*
X03463D01*
X034637Y040072D01*
X034685Y04D01*
X034757Y039952D01*
X034793Y039945D01*
Y040107D01*
D02*
G37*
G36*
X032693D02*
X03253D01*
Y039945D01*
X032565Y039952D01*
X032638Y04D01*
X032686Y040072D01*
X032693Y040107D01*
D02*
G37*
G36*
X03243D02*
X032268D01*
X032275Y040072D01*
X032323Y04D01*
X032395Y039952D01*
X03243Y039945D01*
Y040107D01*
D02*
G37*
G36*
X030331D02*
X030168D01*
Y039945D01*
X030203Y039952D01*
X030275Y04D01*
X030324Y040072D01*
X030331Y040107D01*
D02*
G37*
G36*
X030068D02*
X029906D01*
X029913Y040072D01*
X029961Y04D01*
X030033Y039952D01*
X030068Y039945D01*
Y040107D01*
D02*
G37*
G36*
X027968D02*
X027806D01*
Y039945D01*
X027841Y039952D01*
X027913Y04D01*
X027961Y040072D01*
X027968Y040107D01*
D02*
G37*
G36*
X027706D02*
X027543D01*
X02755Y040072D01*
X027599Y04D01*
X027671Y039952D01*
X027706Y039945D01*
Y040107D01*
D02*
G37*
G36*
X026787D02*
X026625D01*
Y039945D01*
X02666Y039952D01*
X026732Y04D01*
X02678Y040072D01*
X026787Y040107D01*
D02*
G37*
G36*
X026525D02*
X026362D01*
X026369Y040072D01*
X026418Y04D01*
X02649Y039952D01*
X026525Y039945D01*
Y040107D01*
D02*
G37*
G36*
X023244D02*
X023081D01*
Y039945D01*
X023117Y039952D01*
X023189Y04D01*
X023237Y040072D01*
X023244Y040107D01*
D02*
G37*
G36*
X022981D02*
X022819D01*
X022826Y040072D01*
X022874Y04D01*
X022946Y039952D01*
X022981Y039945D01*
Y040107D01*
D02*
G37*
G36*
X037845Y039189D02*
Y039026D01*
X038008D01*
X038001Y039061D01*
X037953Y039134D01*
X03788Y039182D01*
X037845Y039189D01*
D02*
G37*
G36*
X037745D02*
X03771Y039182D01*
X037638Y039134D01*
X03759Y039061D01*
X037583Y039026D01*
X037745D01*
Y039189D01*
D02*
G37*
G36*
X035483D02*
Y039026D01*
X035645D01*
X035639Y039061D01*
X03559Y039134D01*
X035518Y039182D01*
X035483Y039189D01*
D02*
G37*
G36*
X035383D02*
X035348Y039182D01*
X035276Y039134D01*
X035228Y039061D01*
X035221Y039026D01*
X035383D01*
Y039189D01*
D02*
G37*
G36*
X034302D02*
Y039026D01*
X034464D01*
X034457Y039061D01*
X034409Y039134D01*
X034337Y039182D01*
X034302Y039189D01*
D02*
G37*
G36*
X034202D02*
X034167Y039182D01*
X034095Y039134D01*
X034046Y039061D01*
X03404Y039026D01*
X034202D01*
Y039189D01*
D02*
G37*
G36*
X020129D02*
Y039026D01*
X020291D01*
X020284Y039061D01*
X020236Y039134D01*
X020164Y039182D01*
X020129Y039189D01*
D02*
G37*
G36*
X020029D02*
X019994Y039182D01*
X019921Y039134D01*
X019873Y039061D01*
X019866Y039026D01*
X020029D01*
Y039189D01*
D02*
G37*
G36*
X038008Y038926D02*
X037845D01*
Y038764D01*
X03788Y038771D01*
X037953Y038819D01*
X038001Y038891D01*
X038008Y038926D01*
D02*
G37*
G36*
X037745D02*
X037583D01*
X03759Y038891D01*
X037638Y038819D01*
X03771Y038771D01*
X037745Y038764D01*
Y038926D01*
D02*
G37*
G36*
X035645D02*
X035483D01*
Y038764D01*
X035518Y038771D01*
X03559Y038819D01*
X035639Y038891D01*
X035645Y038926D01*
D02*
G37*
G36*
X035383D02*
X035221D01*
X035228Y038891D01*
X035276Y038819D01*
X035348Y038771D01*
X035383Y038764D01*
Y038926D01*
D02*
G37*
G36*
X020291D02*
X020129D01*
Y038764D01*
X020164Y038771D01*
X020236Y038819D01*
X020284Y038891D01*
X020291Y038926D01*
D02*
G37*
G36*
X020029D02*
X019866D01*
X019873Y038891D01*
X019921Y038819D01*
X019994Y038771D01*
X020029Y038764D01*
Y038926D01*
D02*
G37*
G36*
X022773Y039845D02*
X02082D01*
X020774Y039826D01*
X020547Y039599D01*
X020528Y039553D01*
Y032007D01*
X020547Y031961D01*
X02072Y031788D01*
X020766Y031769D01*
X021614Y031769D01*
X02166Y031788D01*
X021826Y031954D01*
X021845Y032D01*
Y035997D01*
X021826Y036042D01*
X021345Y036523D01*
Y037753D01*
X022027Y038435D01*
X02279Y038435D01*
X022836Y038454D01*
X023032Y038651D01*
X023051Y038697D01*
X023051Y039567D01*
X023032Y039613D01*
X022819Y039826D01*
X022773Y039845D01*
D02*
G37*
G36*
X026528Y039435D02*
X026412D01*
X026366Y039416D01*
X025874Y038924D01*
X025855Y038878D01*
Y038762D01*
X025874Y038716D01*
X026171Y038419D01*
X026171Y038419D01*
X02624Y03835D01*
X026246Y038348D01*
X02625Y038342D01*
X026413Y038233D01*
X02642Y038232D01*
X026424Y038227D01*
X026606Y038152D01*
X026612D01*
X026618Y038148D01*
X02681Y03811D01*
X026823Y038096D01*
X026829Y038081D01*
X026833Y038059D01*
X026814Y038029D01*
X0268Y03796D01*
X026806Y037932D01*
X026759Y037913D01*
X026732Y037953D01*
X02666Y038001D01*
X026625Y038008D01*
Y037845D01*
X026805D01*
X026836Y037858D01*
X026853Y037832D01*
X026912Y037792D01*
X026982Y037778D01*
X027051Y037792D01*
X02711Y037832D01*
X027121Y037848D01*
X033454D01*
X033541Y037761D01*
X033541Y037761D01*
X033577Y037736D01*
X03362Y037728D01*
X03362Y037728D01*
X033625D01*
X033644Y037682D01*
X032041Y036078D01*
X032016Y036042D01*
X032008Y035999D01*
X032008Y035999D01*
Y035959D01*
X031992Y035948D01*
X031952Y035889D01*
X031938Y03582D01*
X031952Y035751D01*
X031992Y035692D01*
X03205Y035652D01*
X03212Y035638D01*
X03219Y035652D01*
X032248Y035692D01*
X032288Y035751D01*
X032302Y03582D01*
X032288Y035889D01*
X032248Y035948D01*
X032247Y035967D01*
X033942Y037662D01*
X033961Y037658D01*
X034031Y037672D01*
X034089Y037712D01*
X034129Y037771D01*
X034143Y03784D01*
X034129Y03791D01*
X034091Y037966D01*
X034094Y03798D01*
X034109Y038016D01*
X03415D01*
X034196Y038035D01*
X034322Y03816D01*
X034341Y038206D01*
X034341Y038697D01*
X034331Y038719D01*
X034336Y03876D01*
X034353Y038782D01*
X034409Y038819D01*
X034457Y038891D01*
X034464Y038926D01*
X034031D01*
X033997Y038885D01*
X027107D01*
X026574Y039416D01*
X026551Y039425D01*
X026528Y039435D01*
D02*
G37*
G36*
X038436Y038008D02*
Y037845D01*
X038598D01*
X038591Y03788D01*
X038543Y037953D01*
X038471Y038001D01*
X038436Y038008D01*
D02*
G37*
G36*
X038336D02*
X038301Y038001D01*
X038229Y037953D01*
X03818Y03788D01*
X038173Y037845D01*
X038336D01*
Y038008D01*
D02*
G37*
G36*
X036074D02*
Y037845D01*
X036236D01*
X036229Y03788D01*
X036181Y037953D01*
X036109Y038001D01*
X036074Y038008D01*
D02*
G37*
G36*
X035974D02*
X035939Y038001D01*
X035866Y037953D01*
X035818Y03788D01*
X035811Y037845D01*
X035974D01*
Y038008D01*
D02*
G37*
G36*
X026525D02*
X02649Y038001D01*
X026418Y037953D01*
X026369Y03788D01*
X026362Y037845D01*
X026525D01*
Y038008D01*
D02*
G37*
G36*
X023081D02*
Y037845D01*
X023244D01*
X023237Y03788D01*
X023189Y037953D01*
X023117Y038001D01*
X023081Y038008D01*
D02*
G37*
G36*
X022981D02*
X022946Y038001D01*
X022874Y037953D01*
X022826Y03788D01*
X022819Y037845D01*
X022981D01*
Y038008D01*
D02*
G37*
G36*
X035974Y037745D02*
X035811D01*
X035818Y03771D01*
X035865Y037641D01*
X035863Y03763D01*
X035845Y037592D01*
X034297D01*
X034286Y037608D01*
X034227Y037648D01*
X034157Y037662D01*
X034088Y037648D01*
X034029Y037608D01*
X033989Y03755D01*
X033976Y03748D01*
X033989Y037411D01*
X034029Y037352D01*
X034088Y037312D01*
X034157Y037298D01*
X034227Y037312D01*
X034286Y037352D01*
X034297Y037368D01*
X03581D01*
X036288Y03689D01*
Y036802D01*
X036272Y036792D01*
X036232Y036733D01*
X036218Y036663D01*
X036232Y036594D01*
X036272Y036535D01*
X03633Y036495D01*
X0364Y036482D01*
X03647Y036495D01*
X036528Y036535D01*
X036568Y036594D01*
X036582Y036663D01*
X036568Y036733D01*
X036528Y036792D01*
X036512Y036802D01*
Y036937D01*
X036512Y036937D01*
X036504Y03698D01*
X036479Y037016D01*
X036479Y037016D01*
X035961Y037534D01*
X035974Y037558D01*
Y037745D01*
D02*
G37*
G36*
X038598D02*
X038436D01*
Y037583D01*
X038471Y03759D01*
X038543Y037638D01*
X038591Y03771D01*
X038598Y037745D01*
D02*
G37*
G36*
X038336D02*
X038173D01*
X03818Y03771D01*
X038229Y037638D01*
X038301Y03759D01*
X038336Y037583D01*
Y037745D01*
D02*
G37*
G36*
X036236D02*
X036074D01*
Y037583D01*
X036109Y03759D01*
X036181Y037638D01*
X036229Y03771D01*
X036236Y037745D01*
D02*
G37*
G36*
X026787D02*
X026625D01*
Y037583D01*
X02666Y03759D01*
X026732Y037638D01*
X02678Y03771D01*
X026787Y037745D01*
D02*
G37*
G36*
X026525D02*
X026362D01*
X026369Y03771D01*
X026418Y037638D01*
X02649Y03759D01*
X026525Y037583D01*
Y037745D01*
D02*
G37*
G36*
X023244D02*
X023081D01*
Y037583D01*
X023117Y03759D01*
X023189Y037638D01*
X023237Y03771D01*
X023244Y037745D01*
D02*
G37*
G36*
X022981D02*
X022819D01*
X022826Y03771D01*
X022874Y037638D01*
X022946Y03759D01*
X022981Y037583D01*
Y037745D01*
D02*
G37*
G36*
X0222Y037753D02*
D01*
Y03715D01*
X022848D01*
X022841Y037227D01*
X022803Y03735D01*
X022743Y037463D01*
X022662Y037562D01*
X022563Y037643D01*
X02245Y037703D01*
X022327Y037741D01*
X0222Y037753D01*
D02*
G37*
G36*
X0221D02*
X021973Y037741D01*
X02185Y037703D01*
X021737Y037643D01*
X021638Y037562D01*
X021557Y037463D01*
X021497Y03735D01*
X021459Y037227D01*
X021452Y03715D01*
X0221D01*
Y037753D01*
D02*
G37*
G36*
X031288Y037462D02*
X031219Y037448D01*
X03116Y037408D01*
X03112Y03735D01*
X031106Y03728D01*
X03112Y037211D01*
X03116Y037152D01*
X031219Y037112D01*
X031288Y037098D01*
X031358Y037112D01*
X031416Y037152D01*
X031456Y037211D01*
X03147Y03728D01*
X031456Y03735D01*
X031416Y037408D01*
X031358Y037448D01*
X031288Y037462D01*
D02*
G37*
G36*
X03032D02*
X03025Y037448D01*
X030192Y037408D01*
X030152Y03735D01*
X030138Y03728D01*
X030152Y037211D01*
X030192Y037152D01*
X03025Y037112D01*
X03032Y037098D01*
X030389Y037112D01*
X030448Y037152D01*
X030488Y037211D01*
X030502Y03728D01*
X030488Y03735D01*
X030448Y037408D01*
X030389Y037448D01*
X03032Y037462D01*
D02*
G37*
G36*
X02936Y037435D02*
X02929Y037422D01*
X029232Y037382D01*
X029192Y037323D01*
X029178Y037254D01*
X029192Y037184D01*
X029232Y037125D01*
X02929Y037086D01*
X02936Y037072D01*
X02943Y037086D01*
X029488Y037125D01*
X029528Y037184D01*
X029542Y037254D01*
X029528Y037323D01*
X029488Y037382D01*
X02943Y037422D01*
X02936Y037435D01*
D02*
G37*
G36*
X037845Y036827D02*
Y036664D01*
X038008D01*
X038001Y036699D01*
X037953Y036771D01*
X03788Y03682D01*
X037845Y036827D01*
D02*
G37*
G36*
X037745D02*
X03771Y03682D01*
X037638Y036771D01*
X03759Y036699D01*
X037583Y036664D01*
X037745D01*
Y036827D01*
D02*
G37*
G36*
X03194D02*
Y036664D01*
X032102D01*
X032095Y036699D01*
X032047Y036771D01*
X031975Y03682D01*
X03194Y036827D01*
D02*
G37*
G36*
X03184D02*
X031805Y03682D01*
X031733Y036771D01*
X031684Y036699D01*
X031677Y036664D01*
X03184D01*
Y036827D01*
D02*
G37*
G36*
X024853D02*
Y036664D01*
X025016D01*
X025009Y036699D01*
X02496Y036771D01*
X024888Y03682D01*
X024853Y036827D01*
D02*
G37*
G36*
X024753D02*
X024718Y03682D01*
X024646Y036771D01*
X024598Y036699D01*
X024591Y036664D01*
X024753D01*
Y036827D01*
D02*
G37*
G36*
X023672D02*
Y036664D01*
X023834D01*
X023827Y036699D01*
X023779Y036771D01*
X023707Y03682D01*
X023672Y036827D01*
D02*
G37*
G36*
X023572D02*
X023537Y03682D01*
X023465Y036771D01*
X023417Y036699D01*
X02341Y036664D01*
X023572D01*
Y036827D01*
D02*
G37*
G36*
X03132Y03682D02*
X031251Y036806D01*
X031192Y036767D01*
X031152Y036708D01*
X031138Y036638D01*
X031152Y036569D01*
X031192Y03651D01*
X031251Y03647D01*
X03132Y036457D01*
X03139Y03647D01*
X031448Y03651D01*
X031488Y036569D01*
X031502Y036638D01*
X031488Y036708D01*
X031448Y036767D01*
X03139Y036806D01*
X03132Y03682D01*
D02*
G37*
G36*
X022848Y03705D02*
X0222D01*
Y036447D01*
X022327Y036459D01*
X02245Y036497D01*
X022563Y036557D01*
X022662Y036638D01*
X022743Y036737D01*
X022803Y03685D01*
X022841Y036973D01*
X022848Y03705D01*
D02*
G37*
G36*
X0221D02*
X021452D01*
X021459Y036973D01*
X021497Y03685D01*
X021557Y036737D01*
X021638Y036638D01*
X021737Y036557D01*
X02185Y036497D01*
X021973Y036459D01*
X0221Y036447D01*
D01*
Y03705D01*
D02*
G37*
G36*
X02938Y036802D02*
X029311Y036788D01*
X029252Y036748D01*
X029212Y03669D01*
X029198Y03662D01*
X029212Y036551D01*
X029252Y036492D01*
X029311Y036452D01*
X02938Y036438D01*
X02945Y036452D01*
X029508Y036492D01*
X029548Y036551D01*
X029562Y03662D01*
X029548Y03669D01*
X029508Y036748D01*
X02945Y036788D01*
X02938Y036802D01*
D02*
G37*
G36*
X038008Y036564D02*
X037845D01*
Y036402D01*
X03788Y036409D01*
X037953Y036457D01*
X038001Y036529D01*
X038008Y036564D01*
D02*
G37*
G36*
X037745D02*
X037583D01*
X03759Y036529D01*
X037638Y036457D01*
X03771Y036409D01*
X037745Y036402D01*
Y036564D01*
D02*
G37*
G36*
X032102D02*
X03194D01*
Y036402D01*
X031975Y036409D01*
X032047Y036457D01*
X032095Y036529D01*
X032102Y036564D01*
D02*
G37*
G36*
X03184D02*
X031677D01*
X031684Y036529D01*
X031733Y036457D01*
X031805Y036409D01*
X03184Y036402D01*
Y036564D01*
D02*
G37*
G36*
X025016D02*
X024853D01*
Y036402D01*
X024888Y036409D01*
X02496Y036457D01*
X025009Y036529D01*
X025016Y036564D01*
D02*
G37*
G36*
X024753D02*
X024591D01*
X024598Y036529D01*
X024646Y036457D01*
X024718Y036409D01*
X024753Y036402D01*
Y036564D01*
D02*
G37*
G36*
X023834D02*
X023672D01*
Y036402D01*
X023707Y036409D01*
X023779Y036457D01*
X023827Y036529D01*
X023834Y036564D01*
D02*
G37*
G36*
X023572D02*
X02341D01*
X023417Y036529D01*
X023465Y036457D01*
X023537Y036409D01*
X023572Y036402D01*
Y036564D01*
D02*
G37*
G36*
X03032Y036762D02*
X03025Y036748D01*
X030192Y036708D01*
X030152Y036649D01*
X030138Y03658D01*
X030152Y036511D01*
X030192Y036452D01*
X03025Y036412D01*
X03032Y036398D01*
X030389Y036412D01*
X030448Y036452D01*
X030488Y036511D01*
X030502Y03658D01*
X030488Y036649D01*
X030448Y036708D01*
X030389Y036748D01*
X03032Y036762D01*
D02*
G37*
G36*
X030315Y036102D02*
X030246Y036088D01*
X030187Y036048D01*
X030147Y035989D01*
X030134Y03592D01*
X030147Y035851D01*
X030187Y035792D01*
X030246Y035752D01*
X030315Y035738D01*
X030385Y035752D01*
X030444Y035792D01*
X030483Y035851D01*
X030497Y03592D01*
X030483Y035989D01*
X030444Y036048D01*
X030385Y036088D01*
X030315Y036102D01*
D02*
G37*
G36*
X031281Y036082D02*
X031212Y036068D01*
X031153Y036028D01*
X031113Y03597D01*
X031099Y0359D01*
X031113Y035831D01*
X031153Y035772D01*
X031212Y035732D01*
X031281Y035718D01*
X031351Y035732D01*
X031409Y035772D01*
X031449Y035831D01*
X031463Y0359D01*
X031449Y03597D01*
X031409Y036028D01*
X031351Y036068D01*
X031281Y036082D01*
D02*
G37*
G36*
X0294D02*
X02933Y036068D01*
X029272Y036028D01*
X029232Y03597D01*
X029218Y0359D01*
X029232Y035831D01*
X029272Y035772D01*
X02933Y035732D01*
X0294Y035718D01*
X029469Y035732D01*
X029528Y035772D01*
X029568Y035831D01*
X029582Y0359D01*
X029568Y03597D01*
X029528Y036028D01*
X029469Y036068D01*
X0294Y036082D01*
D02*
G37*
G36*
X038436Y035645D02*
Y035483D01*
X038598D01*
X038591Y035518D01*
X038543Y03559D01*
X038471Y035639D01*
X038436Y035645D01*
D02*
G37*
G36*
X038336D02*
X038301Y035639D01*
X038229Y03559D01*
X03818Y035518D01*
X038173Y035483D01*
X038336D01*
Y035645D01*
D02*
G37*
G36*
X034893D02*
Y035483D01*
X035055D01*
X035048Y035518D01*
X035Y03559D01*
X034928Y035639D01*
X034893Y035645D01*
D02*
G37*
G36*
X034793D02*
X034757Y035639D01*
X034685Y03559D01*
X034637Y035518D01*
X03463Y035483D01*
X034793D01*
Y035645D01*
D02*
G37*
G36*
X025444D02*
Y035483D01*
X025606D01*
X025599Y035518D01*
X025551Y03559D01*
X025479Y035639D01*
X025444Y035645D01*
D02*
G37*
G36*
X025344D02*
X025309Y035639D01*
X025236Y03559D01*
X025188Y035518D01*
X025181Y035483D01*
X025344D01*
Y035645D01*
D02*
G37*
G36*
X023081D02*
Y035483D01*
X023244D01*
X023237Y035518D01*
X023189Y03559D01*
X023117Y035639D01*
X023081Y035645D01*
D02*
G37*
G36*
X022981D02*
X022946Y035639D01*
X022874Y03559D01*
X022826Y035518D01*
X022819Y035483D01*
X022981D01*
Y035645D01*
D02*
G37*
G36*
X038598Y035383D02*
X038436D01*
Y035221D01*
X038471Y035228D01*
X038543Y035276D01*
X038591Y035348D01*
X038598Y035383D01*
D02*
G37*
G36*
X038336D02*
X038173D01*
X03818Y035348D01*
X038229Y035276D01*
X038301Y035228D01*
X038336Y035221D01*
Y035383D01*
D02*
G37*
G36*
X035055D02*
X034893D01*
Y035221D01*
X034928Y035228D01*
X035Y035276D01*
X035048Y035348D01*
X035055Y035383D01*
D02*
G37*
G36*
X034793D02*
X03463D01*
X034637Y035348D01*
X034685Y035276D01*
X034757Y035228D01*
X034793Y035221D01*
Y035383D01*
D02*
G37*
G36*
X025606D02*
X025444D01*
Y035221D01*
X025479Y035228D01*
X025551Y035276D01*
X025599Y035348D01*
X025606Y035383D01*
D02*
G37*
G36*
X025344D02*
X025181D01*
X025188Y035348D01*
X025236Y035276D01*
X025309Y035228D01*
X025344Y035221D01*
Y035383D01*
D02*
G37*
G36*
X023244D02*
X023081D01*
Y035221D01*
X023117Y035228D01*
X023189Y035276D01*
X023237Y035348D01*
X023244Y035383D01*
D02*
G37*
G36*
X022981D02*
X022819D01*
X022826Y035348D01*
X022874Y035276D01*
X022946Y035228D01*
X022981Y035221D01*
Y035383D01*
D02*
G37*
G36*
X03128Y035482D02*
X03121Y035468D01*
X031152Y035428D01*
X031112Y03537D01*
X031098Y0353D01*
X031112Y035231D01*
X031152Y035172D01*
X03121Y035132D01*
X03128Y035118D01*
X031349Y035132D01*
X031408Y035172D01*
X031448Y035231D01*
X031462Y0353D01*
X031448Y03537D01*
X031408Y035428D01*
X031349Y035468D01*
X03128Y035482D01*
D02*
G37*
G36*
X0294Y035448D02*
X02933Y035434D01*
X029272Y035395D01*
X029232Y035336D01*
X029218Y035266D01*
X029232Y035197D01*
X029272Y035138D01*
X02933Y035098D01*
X0294Y035085D01*
X029469Y035098D01*
X029528Y035138D01*
X029568Y035197D01*
X029582Y035266D01*
X029568Y035336D01*
X029528Y035395D01*
X029469Y035434D01*
X0294Y035448D01*
D02*
G37*
G36*
X030692Y035002D02*
X030623Y034988D01*
X030564Y034948D01*
X030524Y03489D01*
X030511Y03482D01*
X030524Y03475D01*
X030564Y034692D01*
X030623Y034652D01*
X030692Y034638D01*
X030762Y034652D01*
X030821Y034692D01*
X03086Y03475D01*
X030874Y03482D01*
X03086Y03489D01*
X030821Y034948D01*
X030762Y034988D01*
X030692Y035002D01*
D02*
G37*
G36*
X030008D02*
X029938Y034988D01*
X029879Y034948D01*
X02984Y03489D01*
X029826Y03482D01*
X02984Y03475D01*
X029879Y034692D01*
X029938Y034652D01*
X030008Y034638D01*
X030077Y034652D01*
X030136Y034692D01*
X030176Y03475D01*
X030189Y03482D01*
X030176Y03489D01*
X030136Y034948D01*
X030077Y034988D01*
X030008Y035002D01*
D02*
G37*
G36*
X037845Y034464D02*
Y034302D01*
X038008D01*
X038001Y034337D01*
X037953Y034409D01*
X03788Y034457D01*
X037845Y034464D01*
D02*
G37*
G36*
X037745D02*
X03771Y034457D01*
X037638Y034409D01*
X03759Y034337D01*
X037583Y034302D01*
X037745D01*
Y034464D01*
D02*
G37*
G36*
X03194D02*
Y034302D01*
X032102D01*
X032095Y034337D01*
X032047Y034409D01*
X031975Y034457D01*
X03194Y034464D01*
D02*
G37*
G36*
X03184D02*
X031805Y034457D01*
X031733Y034409D01*
X031684Y034337D01*
X031677Y034302D01*
X03184D01*
Y034464D01*
D02*
G37*
G36*
X028396D02*
Y034302D01*
X028559D01*
X028552Y034337D01*
X028504Y034409D01*
X028432Y034457D01*
X028396Y034464D01*
D02*
G37*
G36*
X028296D02*
X028261Y034457D01*
X028189Y034409D01*
X028141Y034337D01*
X028134Y034302D01*
X028296D01*
Y034464D01*
D02*
G37*
G36*
X022491D02*
Y034302D01*
X022653D01*
X022646Y034337D01*
X022598Y034409D01*
X022526Y034457D01*
X022491Y034464D01*
D02*
G37*
G36*
X022391D02*
X022356Y034457D01*
X022284Y034409D01*
X022235Y034337D01*
X022229Y034302D01*
X022391D01*
Y034464D01*
D02*
G37*
G36*
X020129D02*
Y034302D01*
X020291D01*
X020284Y034337D01*
X020236Y034409D01*
X020164Y034457D01*
X020129Y034464D01*
D02*
G37*
G36*
X020029D02*
X019994Y034457D01*
X019921Y034409D01*
X019873Y034337D01*
X019866Y034302D01*
X020029D01*
Y034464D01*
D02*
G37*
G36*
X02682Y037402D02*
X026751Y037388D01*
X026692Y037348D01*
X026652Y03729D01*
X026638Y03722D01*
X026652Y03715D01*
X026692Y037092D01*
X026708Y037081D01*
Y034295D01*
X026658Y034274D01*
X026366Y034566D01*
X02632Y034585D01*
X0246Y034585D01*
X024588Y03458D01*
X024575Y03458D01*
X024547Y034569D01*
X02454Y034562D01*
X024531Y034559D01*
X024485Y034521D01*
X024481Y034512D01*
X024472Y034507D01*
X024439Y034457D01*
X024437Y034447D01*
X024431Y03444D01*
X024414Y034383D01*
X024415Y034373D01*
X024411Y034364D01*
X024411Y034334D01*
X024411Y034334D01*
X024411Y034334D01*
X024414Y033131D01*
X024424Y033108D01*
X024433Y033085D01*
X024625Y032894D01*
X024648Y032885D01*
X024671Y032875D01*
X024821D01*
X025123Y032573D01*
Y032092D01*
X025142Y032046D01*
X025354Y031834D01*
X0254Y031815D01*
X02642D01*
X026466Y031834D01*
X026691Y03206D01*
X026695Y032069D01*
X026708Y032076D01*
X026754Y032079D01*
X029349Y029484D01*
X029349Y029484D01*
X029385Y029459D01*
X029428Y029451D01*
X029463Y029458D01*
X030921D01*
X030932Y029442D01*
X030991Y029402D01*
X03106Y029388D01*
X03113Y029402D01*
X031188Y029442D01*
X031228Y029501D01*
X031242Y02957D01*
X031228Y029639D01*
X031188Y029698D01*
X03113Y029738D01*
X03106Y029752D01*
X031017Y029743D01*
X030987Y029788D01*
X031008Y029819D01*
X031022Y029888D01*
X031018Y029908D01*
X033801Y032691D01*
X03382Y032687D01*
X03389Y032701D01*
X033948Y03274D01*
X033988Y032799D01*
X034002Y032868D01*
X033988Y032938D01*
X033948Y032997D01*
X03389Y033036D01*
X03382Y03305D01*
X033751Y033036D01*
X033692Y032997D01*
X033652Y032938D01*
X033638Y032868D01*
X033642Y032849D01*
X033043Y03225D01*
X032997Y032274D01*
X033002Y0323D01*
X032988Y032369D01*
X032949Y032428D01*
X03289Y032468D01*
X03282Y032482D01*
X032751Y032468D01*
X032692Y032428D01*
X032652Y032369D01*
X032639Y0323D01*
X032642Y032281D01*
X031681Y03132D01*
X031681Y03132D01*
X030694Y030332D01*
X030267D01*
X03018Y030419D01*
X030188Y030431D01*
X030202Y0305D01*
X030188Y03057D01*
X030148Y030628D01*
X030089Y030668D01*
X03002Y030682D01*
X02995Y030668D01*
X029892Y030628D01*
X029852Y03057D01*
X029838Y0305D01*
X029852Y030431D01*
X029892Y030372D01*
X029949Y030333D01*
X030142Y030141D01*
X030178Y030116D01*
X030221Y030108D01*
X030221Y030108D01*
X03074D01*
X03074Y030108D01*
X030783Y030116D01*
X03082Y030141D01*
X03184Y031161D01*
X03184Y031161D01*
X0328Y032121D01*
X032813Y03212D01*
X03282Y032118D01*
X032824Y032119D01*
X032846Y032117D01*
X032868Y032075D01*
X030859Y030066D01*
X03084Y03007D01*
X03077Y030056D01*
X030712Y030017D01*
X030672Y029958D01*
X030658Y029888D01*
X030672Y029819D01*
X030712Y02976D01*
X030753Y029732D01*
X030738Y029682D01*
X029467D01*
X026932Y032217D01*
Y037081D01*
X026948Y037092D01*
X026988Y03715D01*
X027002Y03722D01*
X026988Y03729D01*
X026948Y037348D01*
X02689Y037388D01*
X02682Y037402D01*
D02*
G37*
G36*
X03036Y034413D02*
X030291Y034399D01*
X030232Y03436D01*
X030192Y034301D01*
X030178Y034232D01*
X030192Y034162D01*
X030232Y034103D01*
X030291Y034064D01*
X03036Y03405D01*
X030429Y034064D01*
X030488Y034103D01*
X030528Y034162D01*
X030542Y034232D01*
X030528Y034301D01*
X030488Y03436D01*
X030429Y034399D01*
X03036Y034413D01*
D02*
G37*
G36*
X038008Y034202D02*
X037845D01*
Y03404D01*
X03788Y034046D01*
X037953Y034095D01*
X038001Y034167D01*
X038008Y034202D01*
D02*
G37*
G36*
X037745D02*
X037583D01*
X03759Y034167D01*
X037638Y034095D01*
X03771Y034046D01*
X037745Y03404D01*
Y034202D01*
D02*
G37*
G36*
X032102D02*
X03194D01*
Y03404D01*
X031975Y034046D01*
X032047Y034095D01*
X032095Y034167D01*
X032102Y034202D01*
D02*
G37*
G36*
X03184D02*
X031677D01*
X031684Y034167D01*
X031733Y034095D01*
X031805Y034046D01*
X03184Y03404D01*
Y034202D01*
D02*
G37*
G36*
X028559D02*
X028396D01*
Y03404D01*
X028432Y034046D01*
X028504Y034095D01*
X028552Y034167D01*
X028559Y034202D01*
D02*
G37*
G36*
X028296D02*
X028134D01*
X028141Y034167D01*
X028189Y034095D01*
X028261Y034046D01*
X028296Y03404D01*
Y034202D01*
D02*
G37*
G36*
X020291D02*
X020129D01*
Y03404D01*
X020164Y034046D01*
X020236Y034095D01*
X020284Y034167D01*
X020291Y034202D01*
D02*
G37*
G36*
X020029D02*
X019866D01*
X019873Y034167D01*
X019921Y034095D01*
X019994Y034046D01*
X020029Y03404D01*
Y034202D01*
D02*
G37*
G36*
X02278Y034112D02*
Y03371D01*
X023182D01*
X023173Y033779D01*
X023127Y033889D01*
X023054Y033984D01*
X022959Y034057D01*
X022849Y034103D01*
X02278Y034112D01*
D02*
G37*
G36*
X022653Y034202D02*
X022229D01*
X022235Y034167D01*
X022284Y034095D01*
X022356Y034046D01*
X022395Y034039D01*
X022408Y033985D01*
X022406Y033984D01*
X022333Y033889D01*
X022287Y033779D01*
X022278Y03371D01*
X02268D01*
Y034112D01*
X022669Y03411D01*
X02264Y034157D01*
X022646Y034167D01*
X022653Y034202D01*
D02*
G37*
G36*
X030775Y033982D02*
X030706Y033968D01*
X030647Y033928D01*
X030608Y03387D01*
X030594Y0338D01*
X030608Y03373D01*
X030647Y033672D01*
X030706Y033632D01*
X030775Y033618D01*
X030845Y033632D01*
X030904Y033672D01*
X030943Y03373D01*
X030957Y0338D01*
X030943Y03387D01*
X030904Y033928D01*
X030845Y033968D01*
X030775Y033982D01*
D02*
G37*
G36*
X03Y033952D02*
X029931Y033938D01*
X029872Y033898D01*
X029832Y033839D01*
X029818Y03377D01*
X029832Y0337D01*
X029872Y033642D01*
X029931Y033602D01*
X03Y033588D01*
X030069Y033602D01*
X030128Y033642D01*
X030168Y0337D01*
X030182Y03377D01*
X030168Y033839D01*
X030128Y033898D01*
X030069Y033938D01*
X03Y033952D01*
D02*
G37*
G36*
X023182Y03361D02*
X02278D01*
Y033208D01*
X022849Y033217D01*
X022959Y033263D01*
X023054Y033336D01*
X023127Y033431D01*
X023173Y033541D01*
X023182Y03361D01*
D02*
G37*
G36*
X02268D02*
X022278D01*
X022287Y033541D01*
X022333Y033431D01*
X022406Y033336D01*
X022501Y033263D01*
X022611Y033217D01*
X02268Y033208D01*
Y03361D01*
D02*
G37*
G36*
X038436Y033283D02*
Y033121D01*
X038598D01*
X038591Y033156D01*
X038543Y033228D01*
X038471Y033276D01*
X038436Y033283D01*
D02*
G37*
G36*
X038336D02*
X038301Y033276D01*
X038229Y033228D01*
X03818Y033156D01*
X038173Y033121D01*
X038336D01*
Y033283D01*
D02*
G37*
G36*
X037255D02*
Y033121D01*
X037417D01*
X03741Y033156D01*
X037362Y033228D01*
X03729Y033276D01*
X037255Y033283D01*
D02*
G37*
G36*
X037155D02*
X03712Y033276D01*
X037047Y033228D01*
X036999Y033156D01*
X036992Y033121D01*
X037155D01*
Y033283D01*
D02*
G37*
G36*
X034893D02*
Y033121D01*
X035055D01*
X035048Y033156D01*
X035Y033228D01*
X034928Y033276D01*
X034893Y033283D01*
D02*
G37*
G36*
X034793D02*
X034757Y033276D01*
X034685Y033228D01*
X034637Y033156D01*
X03463Y033121D01*
X034793D01*
Y033283D01*
D02*
G37*
G36*
X031349D02*
Y033121D01*
X031512D01*
X031505Y033156D01*
X031456Y033228D01*
X031384Y033276D01*
X031349Y033283D01*
D02*
G37*
G36*
X031249D02*
X031214Y033276D01*
X031142Y033228D01*
X031094Y033156D01*
X031087Y033121D01*
X031249D01*
Y033283D01*
D02*
G37*
G36*
X030168D02*
Y033121D01*
X030331D01*
X030324Y033156D01*
X030275Y033228D01*
X030203Y033276D01*
X030168Y033283D01*
D02*
G37*
G36*
X030068D02*
X030033Y033276D01*
X029961Y033228D01*
X029913Y033156D01*
X029906Y033121D01*
X030068D01*
Y033283D01*
D02*
G37*
G36*
X028987D02*
Y033121D01*
X029149D01*
X029142Y033156D01*
X029094Y033228D01*
X029022Y033276D01*
X028987Y033283D01*
D02*
G37*
G36*
X028887D02*
X028852Y033276D01*
X02878Y033228D01*
X028732Y033156D01*
X028725Y033121D01*
X028887D01*
Y033283D01*
D02*
G37*
G36*
X038598Y033021D02*
X038436D01*
Y032858D01*
X038471Y032865D01*
X038543Y032914D01*
X038591Y032986D01*
X038598Y033021D01*
D02*
G37*
G36*
X038336D02*
X038173D01*
X03818Y032986D01*
X038229Y032914D01*
X038301Y032865D01*
X038336Y032858D01*
Y033021D01*
D02*
G37*
G36*
X037417D02*
X037255D01*
Y032858D01*
X03729Y032865D01*
X037362Y032914D01*
X03741Y032986D01*
X037417Y033021D01*
D02*
G37*
G36*
X037155D02*
X036992D01*
X036999Y032986D01*
X037047Y032914D01*
X03712Y032865D01*
X037155Y032858D01*
Y033021D01*
D02*
G37*
G36*
X035055D02*
X034893D01*
Y032858D01*
X034928Y032865D01*
X035Y032914D01*
X035048Y032986D01*
X035055Y033021D01*
D02*
G37*
G36*
X034793D02*
X03463D01*
X034637Y032986D01*
X034685Y032914D01*
X034757Y032865D01*
X034793Y032858D01*
Y033021D01*
D02*
G37*
G36*
X031512D02*
X031349D01*
Y032858D01*
X031384Y032865D01*
X031456Y032914D01*
X031505Y032986D01*
X031512Y033021D01*
D02*
G37*
G36*
X031249D02*
X031087D01*
X031094Y032986D01*
X031142Y032914D01*
X031214Y032865D01*
X031249Y032858D01*
Y033021D01*
D02*
G37*
G36*
X030331D02*
X030168D01*
Y032858D01*
X030203Y032865D01*
X030275Y032914D01*
X030324Y032986D01*
X030331Y033021D01*
D02*
G37*
G36*
X030068D02*
X029906D01*
X029913Y032986D01*
X029961Y032914D01*
X030033Y032865D01*
X030068Y032858D01*
Y033021D01*
D02*
G37*
G36*
X029149D02*
X028987D01*
Y032858D01*
X029022Y032865D01*
X029094Y032914D01*
X029142Y032986D01*
X029149Y033021D01*
D02*
G37*
G36*
X028887D02*
X028725D01*
X028732Y032986D01*
X02878Y032914D01*
X028852Y032865D01*
X028887Y032858D01*
Y033021D01*
D02*
G37*
G36*
X035276Y032945D02*
X035207Y032931D01*
X035148Y032892D01*
X035136Y032874D01*
X035099Y032867D01*
X035063Y032843D01*
X035063Y032843D01*
X031108Y028888D01*
X03109Y028891D01*
X031021Y028877D01*
X030962Y028838D01*
X030922Y028779D01*
X030908Y028709D01*
X030922Y02864D01*
X030962Y028581D01*
X031021Y028542D01*
X03109Y028528D01*
X031099Y02853D01*
X031129Y028485D01*
X031094Y028432D01*
X031087Y028396D01*
X031249D01*
Y028587D01*
X031236Y028607D01*
X031258Y02864D01*
X031272Y028709D01*
X031268Y02873D01*
X035163Y032625D01*
X035207Y032596D01*
X035276Y032582D01*
X035346Y032596D01*
X035405Y032635D01*
X035444Y032694D01*
X035458Y032764D01*
X035444Y032833D01*
X035405Y032892D01*
X035346Y032931D01*
X035276Y032945D01*
D02*
G37*
G36*
X03212Y032508D02*
X03205Y032494D01*
X032044Y032489D01*
X028711D01*
X028704Y032494D01*
X028635Y032508D01*
X028565Y032494D01*
X028506Y032455D01*
X028467Y032396D01*
X028453Y032326D01*
X028467Y032257D01*
X028506Y032198D01*
X028565Y032158D01*
X028635Y032145D01*
X028704Y032158D01*
X028711Y032163D01*
X032044D01*
X03205Y032158D01*
X03212Y032145D01*
X03219Y032158D01*
X032248Y032198D01*
X032288Y032257D01*
X032302Y032326D01*
X032288Y032396D01*
X032248Y032455D01*
X03219Y032494D01*
X03212Y032508D01*
D02*
G37*
G36*
X037845Y032102D02*
Y03194D01*
X038008D01*
X038001Y031975D01*
X037953Y032047D01*
X03788Y032095D01*
X037845Y032102D01*
D02*
G37*
G36*
X037745D02*
X03771Y032095D01*
X037638Y032047D01*
X03759Y031975D01*
X037583Y03194D01*
X037745D01*
Y032102D01*
D02*
G37*
G36*
X036664D02*
Y03194D01*
X036827D01*
X03682Y031975D01*
X036771Y032047D01*
X036699Y032095D01*
X036664Y032102D01*
D02*
G37*
G36*
X036564D02*
X036529Y032095D01*
X036457Y032047D01*
X036409Y031975D01*
X036402Y03194D01*
X036564D01*
Y032102D01*
D02*
G37*
G36*
X020129D02*
Y03194D01*
X020291D01*
X020284Y031975D01*
X020236Y032047D01*
X020164Y032095D01*
X020129Y032102D01*
D02*
G37*
G36*
X020029D02*
X019994Y032095D01*
X019921Y032047D01*
X019873Y031975D01*
X019866Y03194D01*
X020029D01*
Y032102D01*
D02*
G37*
G36*
X038008Y03184D02*
X037845D01*
Y031677D01*
X03788Y031684D01*
X037953Y031733D01*
X038001Y031805D01*
X038008Y03184D01*
D02*
G37*
G36*
X037745D02*
X037583D01*
X03759Y031805D01*
X037638Y031733D01*
X03771Y031684D01*
X037745Y031677D01*
Y03184D01*
D02*
G37*
G36*
X036827D02*
X036664D01*
Y031677D01*
X036699Y031684D01*
X036771Y031733D01*
X03682Y031805D01*
X036827Y03184D01*
D02*
G37*
G36*
X036564D02*
X036402D01*
X036409Y031805D01*
X036457Y031733D01*
X036529Y031684D01*
X036564Y031677D01*
Y03184D01*
D02*
G37*
G36*
X020291D02*
X020129D01*
Y031677D01*
X020164Y031684D01*
X020236Y031733D01*
X020284Y031805D01*
X020291Y03184D01*
D02*
G37*
G36*
X020029D02*
X019866D01*
X019873Y031805D01*
X019921Y031733D01*
X019994Y031684D01*
X020029Y031677D01*
Y03184D01*
D02*
G37*
G36*
X032879Y031332D02*
X032809Y031318D01*
X03275Y031279D01*
X032711Y03122D01*
X032697Y031151D01*
X032701Y031131D01*
X032441Y030871D01*
X032392Y030838D01*
X032352Y03078D01*
X032338Y03071D01*
X032352Y03064D01*
X032392Y030582D01*
X03245Y030542D01*
X03252Y030528D01*
X032589Y030542D01*
X032648Y030582D01*
X032688Y03064D01*
X032702Y03071D01*
X032688Y03078D01*
X032679Y030792D01*
X032859Y030973D01*
X032879Y030969D01*
X032948Y030983D01*
X033007Y031022D01*
X033046Y031081D01*
X03306Y031151D01*
X033046Y03122D01*
X033007Y031279D01*
X032948Y031318D01*
X032879Y031332D01*
D02*
G37*
G36*
X022563Y032542D02*
X022493Y032528D01*
X022434Y032488D01*
X022395Y032429D01*
X022381Y03236D01*
X022395Y03229D01*
X022434Y032232D01*
X022493Y032192D01*
X022502Y032191D01*
X023094Y031598D01*
Y031153D01*
X023089Y031146D01*
X023075Y031077D01*
X023089Y031007D01*
X023129Y030948D01*
X023187Y030909D01*
X023257Y030895D01*
X023326Y030909D01*
X023385Y030948D01*
X023425Y031007D01*
X023439Y031077D01*
X023425Y031146D01*
X02342Y031153D01*
Y031666D01*
X023408Y031728D01*
X023372Y031781D01*
X022732Y032421D01*
X022731Y032429D01*
X022691Y032488D01*
X022632Y032528D01*
X022563Y032542D01*
D02*
G37*
G36*
X038436Y030921D02*
Y030759D01*
X038598D01*
X038591Y030794D01*
X038543Y030866D01*
X038471Y030914D01*
X038436Y030921D01*
D02*
G37*
G36*
X038336D02*
X038301Y030914D01*
X038229Y030866D01*
X03818Y030794D01*
X038173Y030759D01*
X038336D01*
Y030921D01*
D02*
G37*
G36*
X036074D02*
Y030759D01*
X036236D01*
X036229Y030794D01*
X036181Y030866D01*
X036109Y030914D01*
X036074Y030921D01*
D02*
G37*
G36*
X035974D02*
X035939Y030914D01*
X035866Y030866D01*
X035818Y030794D01*
X035811Y030759D01*
X035974D01*
Y030921D01*
D02*
G37*
G36*
X033711D02*
Y030759D01*
X033874D01*
X033867Y030794D01*
X033819Y030866D01*
X033747Y030914D01*
X033711Y030921D01*
D02*
G37*
G36*
X033611D02*
X033576Y030914D01*
X033504Y030866D01*
X033456Y030794D01*
X033449Y030759D01*
X033611D01*
Y030921D01*
D02*
G37*
G36*
X026625D02*
Y030759D01*
X026787D01*
X02678Y030794D01*
X026732Y030866D01*
X02666Y030914D01*
X026625Y030921D01*
D02*
G37*
G36*
X026525D02*
X02649Y030914D01*
X026418Y030866D01*
X026369Y030794D01*
X026362Y030759D01*
X026525D01*
Y030921D01*
D02*
G37*
G36*
X025444D02*
Y030759D01*
X025606D01*
X025599Y030794D01*
X025551Y030866D01*
X025479Y030914D01*
X025444Y030921D01*
D02*
G37*
G36*
X025344D02*
X025309Y030914D01*
X025236Y030866D01*
X025188Y030794D01*
X025181Y030759D01*
X025344D01*
Y030921D01*
D02*
G37*
G36*
X037186Y031233D02*
X036514D01*
Y030562D01*
X037186D01*
Y031233D01*
D02*
G37*
G36*
X038598Y030659D02*
X038436D01*
Y030496D01*
X038471Y030503D01*
X038543Y030551D01*
X038591Y030624D01*
X038598Y030659D01*
D02*
G37*
G36*
X038336D02*
X038173D01*
X03818Y030624D01*
X038229Y030551D01*
X038301Y030503D01*
X038336Y030496D01*
Y030659D01*
D02*
G37*
G36*
X036236D02*
X036074D01*
Y030496D01*
X036109Y030503D01*
X036181Y030551D01*
X036229Y030624D01*
X036236Y030659D01*
D02*
G37*
G36*
X035974D02*
X035811D01*
X035818Y030624D01*
X035866Y030551D01*
X035939Y030503D01*
X035974Y030496D01*
Y030659D01*
D02*
G37*
G36*
X033874D02*
X033711D01*
Y030496D01*
X033747Y030503D01*
X033819Y030551D01*
X033867Y030624D01*
X033874Y030659D01*
D02*
G37*
G36*
X033611D02*
X033449D01*
X033456Y030624D01*
X033504Y030551D01*
X033576Y030503D01*
X033611Y030496D01*
Y030659D01*
D02*
G37*
G36*
X026787D02*
X026625D01*
Y030496D01*
X02666Y030503D01*
X026732Y030551D01*
X02678Y030624D01*
X026787Y030659D01*
D02*
G37*
G36*
X026525D02*
X026362D01*
X026369Y030624D01*
X026418Y030551D01*
X02649Y030503D01*
X026525Y030496D01*
Y030659D01*
D02*
G37*
G36*
X025606D02*
X025444D01*
Y030496D01*
X025479Y030503D01*
X025551Y030551D01*
X025599Y030624D01*
X025606Y030659D01*
D02*
G37*
G36*
X025344D02*
X025181D01*
X025188Y030624D01*
X025236Y030551D01*
X025309Y030503D01*
X025344Y030496D01*
Y030659D01*
D02*
G37*
G36*
X03685Y030448D02*
X036762Y030437D01*
X036681Y030403D01*
X036611Y030349D01*
X036557Y030279D01*
X036533Y030222D01*
X036409D01*
X036409Y030222D01*
X036367Y030214D01*
X03633Y030189D01*
X03633Y030189D01*
X035785Y029645D01*
X03575Y029652D01*
X03568Y029638D01*
X035622Y029598D01*
X035582Y029539D01*
X035568Y02947D01*
X035582Y0294D01*
X035622Y029342D01*
X03568Y029302D01*
X03575Y029288D01*
X035819Y029302D01*
X035878Y029342D01*
X035918Y0294D01*
X035932Y02947D01*
X035931Y029473D01*
X036456Y029998D01*
X036533D01*
X036557Y029941D01*
X036611Y029871D01*
X036681Y029817D01*
X036762Y029783D01*
X03685Y029772D01*
X036938Y029783D01*
X037019Y029817D01*
X037089Y029871D01*
X037143Y029941D01*
X037177Y030022D01*
X037188Y03011D01*
X037177Y030198D01*
X037143Y030279D01*
X037089Y030349D01*
X037019Y030403D01*
X036938Y030437D01*
X03685Y030448D01*
D02*
G37*
G36*
X037845Y02974D02*
Y029578D01*
X038008D01*
X038001Y029613D01*
X037953Y029685D01*
X03788Y029733D01*
X037845Y02974D01*
D02*
G37*
G36*
X037745D02*
X03771Y029733D01*
X037638Y029685D01*
X03759Y029613D01*
X037583Y029578D01*
X037745D01*
Y02974D01*
D02*
G37*
G36*
X023672D02*
Y029578D01*
X023834D01*
X023827Y029613D01*
X023779Y029685D01*
X023707Y029733D01*
X023672Y02974D01*
D02*
G37*
G36*
X023572D02*
X023537Y029733D01*
X023465Y029685D01*
X023417Y029613D01*
X02341Y029578D01*
X023572D01*
Y02974D01*
D02*
G37*
G36*
X020129D02*
Y029578D01*
X020291D01*
X020284Y029613D01*
X020236Y029685D01*
X020164Y029733D01*
X020129Y02974D01*
D02*
G37*
G36*
X020029D02*
X019994Y029733D01*
X019921Y029685D01*
X019873Y029613D01*
X019866Y029578D01*
X020029D01*
Y02974D01*
D02*
G37*
G36*
X035827Y036566D02*
X035757Y036552D01*
X035698Y036513D01*
X035659Y036454D01*
X035645Y036385D01*
X035659Y036315D01*
X035698Y036256D01*
X035757Y036217D01*
X035827Y036203D01*
X035846Y036207D01*
X035926Y036127D01*
Y032444D01*
X032989Y029507D01*
X03297Y029511D01*
X032901Y029497D01*
X032842Y029458D01*
X032802Y029399D01*
X032799Y029382D01*
X032749Y029387D01*
Y029495D01*
X032765Y029506D01*
X032804Y029565D01*
X032818Y029634D01*
X032804Y029704D01*
X032765Y029763D01*
X032706Y029802D01*
X032637Y029816D01*
X032567Y029802D01*
X032508Y029763D01*
X032469Y029704D01*
X032455Y029634D01*
X032469Y029565D01*
X032508Y029506D01*
X032525Y029495D01*
Y029222D01*
X032525Y029222D01*
X032533Y029179D01*
X032557Y029142D01*
X033106Y028594D01*
Y027317D01*
X033056Y027302D01*
X033038Y027328D01*
X03298Y027368D01*
X03291Y027382D01*
X03284Y027368D01*
X032782Y027328D01*
X032756Y02729D01*
X030778D01*
X029364Y028704D01*
X029357Y028714D01*
X029357Y028714D01*
X028648Y029423D01*
X028612Y029447D01*
X028569Y029456D01*
X028569Y029456D01*
X028297D01*
X028286Y029472D01*
X028227Y029511D01*
X028158Y029525D01*
X028088Y029511D01*
X028029Y029472D01*
X02799Y029413D01*
X027976Y029344D01*
X02799Y029274D01*
X028029Y029215D01*
X028088Y029176D01*
X028158Y029162D01*
X028227Y029176D01*
X028286Y029215D01*
X028297Y029232D01*
X028522D01*
X028998Y028756D01*
X028985Y028714D01*
X028977Y028706D01*
X028922Y028668D01*
X028882Y028609D01*
X028868Y02854D01*
X028882Y02847D01*
X028922Y028412D01*
X028938Y028401D01*
Y0262D01*
X028938Y0262D01*
X028946Y026157D01*
X028971Y026121D01*
X030769Y024323D01*
X030769Y024323D01*
X030805Y024298D01*
X030848Y02429D01*
X031D01*
X031011Y024273D01*
X03107Y024234D01*
X031139Y02422D01*
X031209Y024234D01*
X031268Y024273D01*
X031307Y024332D01*
X031321Y024402D01*
X031307Y024471D01*
X031268Y02453D01*
X031209Y02457D01*
X031139Y024583D01*
X03107Y02457D01*
X031011Y02453D01*
X031Y024514D01*
X030895D01*
X029162Y026246D01*
Y028401D01*
X029178Y028412D01*
X029215Y028466D01*
X029229Y028474D01*
X029266Y028485D01*
X030652Y027099D01*
X030652Y027099D01*
X030688Y027075D01*
X030731Y027066D01*
X03279D01*
X03284Y027032D01*
X03291Y027018D01*
X03298Y027032D01*
X033038Y027072D01*
X033056Y027098D01*
X033106Y027083D01*
Y026712D01*
X033106Y026712D01*
X033115Y026669D01*
X033139Y026632D01*
X034865Y024907D01*
X034856Y024894D01*
X034842Y024824D01*
X034849Y02479D01*
X034803Y024766D01*
X032788Y026781D01*
X032792Y0268D01*
X032778Y026869D01*
X032738Y026928D01*
X03268Y026968D01*
X03261Y026982D01*
X032541Y026968D01*
X032482Y026928D01*
X032442Y026869D01*
X032428Y0268D01*
X032442Y02673D01*
X032482Y026672D01*
X032541Y026632D01*
X03261Y026618D01*
X032629Y026622D01*
X032959Y026292D01*
X03293Y02625D01*
X032873Y026262D01*
X032804Y026248D01*
X032745Y026208D01*
X032705Y026149D01*
X032692Y02608D01*
X032705Y02601D01*
X032745Y025952D01*
X032804Y025912D01*
X032812Y025911D01*
X033116Y025607D01*
Y022924D01*
X033111Y022917D01*
X033097Y022847D01*
X033111Y022778D01*
X03315Y022719D01*
X033209Y022679D01*
X033279Y022666D01*
X033348Y022679D01*
X033407Y022719D01*
X033447Y022778D01*
X033461Y022847D01*
X033447Y022917D01*
X033442Y022924D01*
Y023468D01*
X033492Y023483D01*
X033504Y023465D01*
X033576Y023417D01*
X033611Y02341D01*
Y023622D01*
Y023834D01*
X033576Y023827D01*
X033504Y023779D01*
X033492Y023761D01*
X033442Y023776D01*
Y025674D01*
X03343Y025737D01*
X033401Y02578D01*
X033439Y025812D01*
X034193Y025059D01*
X034178Y025011D01*
X034167Y025009D01*
X034095Y02496D01*
X034046Y024888D01*
X03404Y024853D01*
X034252D01*
Y024803D01*
X034302D01*
Y024591D01*
X034337Y024598D01*
X034409Y024646D01*
X034457Y024718D01*
X03446Y024729D01*
X034508Y024744D01*
X035086Y024166D01*
X035086Y024166D01*
X035122Y024141D01*
X035165Y024133D01*
X035165Y024133D01*
X035583D01*
X035602Y024106D01*
X035661Y024066D01*
X03573Y024052D01*
X0358Y024066D01*
X035858Y024106D01*
X035898Y024165D01*
X035912Y024234D01*
X035898Y024304D01*
X035858Y024362D01*
X0358Y024402D01*
X03573Y024416D01*
X035661Y024402D01*
X035602Y024362D01*
X035598Y024357D01*
X035211D01*
X034965Y024603D01*
X03499Y024649D01*
X035024Y024643D01*
X035093Y024656D01*
X035152Y024696D01*
X035174Y024729D01*
X035228Y024718D01*
X035228Y024718D01*
X035276Y024646D01*
X035348Y024598D01*
X035383Y024591D01*
Y024803D01*
Y025016D01*
X035348Y025009D01*
X035276Y02496D01*
X035239Y024906D01*
X035228Y024903D01*
X035185Y024905D01*
X035184Y024906D01*
X035152Y024953D01*
X035103Y024985D01*
X033331Y026758D01*
Y02864D01*
X033331Y02864D01*
X033322Y028683D01*
X033298Y028719D01*
X032908Y029109D01*
X032932Y029155D01*
X03297Y029148D01*
X03304Y029162D01*
X033098Y029201D01*
X033138Y02926D01*
X033152Y029329D01*
X033148Y029349D01*
X036117Y032318D01*
X036117Y032318D01*
X036141Y032354D01*
X03615Y032397D01*
X03615Y032397D01*
Y036174D01*
X03615Y036174D01*
X036141Y036217D01*
X036117Y036253D01*
X036117Y036253D01*
X036005Y036365D01*
X036008Y036385D01*
X035995Y036454D01*
X035955Y036513D01*
X035896Y036552D01*
X035827Y036566D01*
D02*
G37*
G36*
X0369Y029695D02*
Y029373D01*
X037222D01*
X037216Y029421D01*
X037178Y029512D01*
X037118Y02959D01*
X037039Y029651D01*
X036948Y029689D01*
X0369Y029695D01*
D02*
G37*
G36*
X0368Y029695D02*
X036752Y029689D01*
X036661Y029651D01*
X036582Y02959D01*
X036522Y029512D01*
X036484Y029421D01*
X036478Y029373D01*
X0368D01*
Y029695D01*
D02*
G37*
G36*
X038008Y029478D02*
X037845D01*
Y029315D01*
X03788Y029322D01*
X037953Y02937D01*
X038001Y029442D01*
X038008Y029478D01*
D02*
G37*
G36*
X037745D02*
X037583D01*
X03759Y029442D01*
X037638Y02937D01*
X03771Y029322D01*
X037745Y029315D01*
Y029478D01*
D02*
G37*
G36*
X023834D02*
X023672D01*
Y029315D01*
X023707Y029322D01*
X023779Y02937D01*
X023827Y029442D01*
X023834Y029478D01*
D02*
G37*
G36*
X023572D02*
X02341D01*
X023417Y029442D01*
X023465Y02937D01*
X023537Y029322D01*
X023572Y029315D01*
Y029478D01*
D02*
G37*
G36*
X020291D02*
X020129D01*
Y029315D01*
X020164Y029322D01*
X020236Y02937D01*
X020284Y029442D01*
X020291Y029478D01*
D02*
G37*
G36*
X020029D02*
X019866D01*
X019873Y029442D01*
X019921Y02937D01*
X019994Y029322D01*
X020029Y029315D01*
Y029478D01*
D02*
G37*
G36*
X0368Y029273D02*
X036478D01*
X036484Y029225D01*
X036522Y029133D01*
X036582Y029055D01*
X036661Y028995D01*
X036752Y028957D01*
X0368Y02895D01*
Y029273D01*
D02*
G37*
G36*
X037222D02*
X0369D01*
Y02895D01*
X036948Y028957D01*
X037039Y028995D01*
X037118Y029055D01*
X037178Y029133D01*
X037216Y029225D01*
X037222Y029273D01*
D02*
G37*
G36*
X028473Y029042D02*
X028404Y029028D01*
X028345Y028988D01*
X028306Y02893D01*
X028292Y02886D01*
X028296Y028841D01*
X026811Y027356D01*
X026786Y027319D01*
X026778Y027277D01*
X026778Y027277D01*
Y02534D01*
X025114Y023676D01*
X02509Y02364D01*
X025081Y023597D01*
X025081Y023597D01*
Y02307D01*
X025081Y02307D01*
X02509Y023027D01*
X025114Y022991D01*
X025414Y022691D01*
X025414Y022691D01*
X02545Y022666D01*
X025493Y022658D01*
X026191D01*
X026202Y022642D01*
X02626Y022602D01*
X02633Y022588D01*
X0264Y022602D01*
X026458Y022642D01*
X026498Y022701D01*
X026512Y02277D01*
X026498Y02284D01*
X026458Y022898D01*
X0264Y022938D01*
X02633Y022952D01*
X02626Y022938D01*
X026202Y022898D01*
X026191Y022882D01*
X02554D01*
X025336Y023086D01*
X025336Y023089D01*
X025338Y02309D01*
X025392Y023107D01*
X02543Y023082D01*
X025499Y023068D01*
X025569Y023082D01*
X025628Y023122D01*
X025639Y023138D01*
X028409D01*
X028409Y023138D01*
X028452Y023146D01*
X028488Y023171D01*
X02889Y023572D01*
X02889Y023572D01*
X028914Y023609D01*
X028923Y023652D01*
Y023851D01*
X028939Y023862D01*
X028978Y023921D01*
X028992Y02399D01*
X028978Y02406D01*
X028939Y024118D01*
X02888Y024158D01*
X02881Y024172D01*
X028741Y024158D01*
X028682Y024118D01*
X028643Y02406D01*
X028629Y02399D01*
X028643Y023921D01*
X028682Y023862D01*
X028698Y023851D01*
Y023698D01*
X02861Y02361D01*
X028591Y023614D01*
X028559Y02363D01*
X028548Y023689D01*
X028508Y023748D01*
X028449Y023787D01*
X02838Y023801D01*
X02831Y023787D01*
X028252Y023748D01*
X028241Y023731D01*
X025866D01*
X025858Y023742D01*
X0258Y023782D01*
X02573Y023795D01*
X025661Y023782D01*
X025602Y023742D01*
X025589Y023724D01*
X025583Y023723D01*
X025546Y023698D01*
X025522Y023662D01*
X025514Y023619D01*
X025522Y023576D01*
X025546Y02354D01*
X025566Y023521D01*
X025566Y023521D01*
X025588Y023506D01*
X025602Y023485D01*
X025661Y023446D01*
X02573Y023432D01*
X0258Y023446D01*
X025858Y023485D01*
X025873Y023507D01*
X028241D01*
X028252Y023491D01*
X02831Y023451D01*
X028361Y023441D01*
X02838Y023395D01*
X028351Y023362D01*
X025639D01*
X025628Y023378D01*
X025569Y023418D01*
X025499Y023432D01*
X02543Y023418D01*
X025371Y023378D01*
X025356Y023355D01*
X025306Y023371D01*
Y023551D01*
X026969Y025214D01*
X026969Y025214D01*
X026994Y025251D01*
X027002Y025294D01*
X027002Y025294D01*
Y026952D01*
X027052Y026979D01*
X02708Y02696D01*
X027115Y026953D01*
Y027165D01*
X027165D01*
Y027215D01*
X027378D01*
X027371Y02725D01*
X027323Y027323D01*
X02725Y027371D01*
X02722Y027377D01*
X027203Y027431D01*
X028454Y028682D01*
X028473Y028678D01*
X028543Y028692D01*
X028602Y028732D01*
X028641Y028791D01*
X028655Y02886D01*
X028641Y02893D01*
X028602Y028988D01*
X028543Y029028D01*
X028473Y029042D01*
D02*
G37*
G36*
X03685Y028874D02*
X036762Y028862D01*
X036681Y028828D01*
X036611Y028775D01*
X036557Y028704D01*
X036523Y028623D01*
X036512Y028535D01*
X036516Y028502D01*
X036483Y028465D01*
X03597D01*
X03597Y028465D01*
X035927Y028456D01*
X03589Y028432D01*
X035621Y028162D01*
X035607Y028142D01*
X035572Y028118D01*
X035532Y028059D01*
X035518Y02799D01*
X035532Y02792D01*
X035572Y027862D01*
X035631Y027822D01*
X0357Y027808D01*
X03577Y027822D01*
X035828Y027862D01*
X035868Y02792D01*
X035882Y02799D01*
X035868Y028059D01*
X035855Y028079D01*
X036016Y02824D01*
X036667D01*
X036667Y02824D01*
X03668Y028243D01*
X036681Y028242D01*
X036762Y028208D01*
X03685Y028197D01*
X036938Y028208D01*
X037019Y028242D01*
X037089Y028296D01*
X037143Y028366D01*
X037177Y028448D01*
X037188Y028535D01*
X037177Y028623D01*
X037143Y028704D01*
X037089Y028775D01*
X037019Y028828D01*
X036938Y028862D01*
X03685Y028874D01*
D02*
G37*
G36*
X038436Y028559D02*
Y028396D01*
X038598D01*
X038591Y028432D01*
X038543Y028504D01*
X038471Y028552D01*
X038436Y028559D01*
D02*
G37*
G36*
X038336D02*
X038301Y028552D01*
X038229Y028504D01*
X03818Y028432D01*
X038173Y028396D01*
X038336D01*
Y028559D01*
D02*
G37*
G36*
X033711D02*
Y028396D01*
X033874D01*
X033867Y028432D01*
X033819Y028504D01*
X033747Y028552D01*
X033711Y028559D01*
D02*
G37*
G36*
X033611D02*
X033576Y028552D01*
X033504Y028504D01*
X033456Y028432D01*
X033449Y028396D01*
X033611D01*
Y028559D01*
D02*
G37*
G36*
X031349D02*
Y028396D01*
X031512D01*
X031505Y028432D01*
X031456Y028504D01*
X031384Y028552D01*
X031349Y028559D01*
D02*
G37*
G36*
X030168D02*
Y028396D01*
X030331D01*
X030324Y028432D01*
X030275Y028504D01*
X030203Y028552D01*
X030168Y028559D01*
D02*
G37*
G36*
X030068D02*
X030033Y028552D01*
X029961Y028504D01*
X029913Y028432D01*
X029906Y028396D01*
X030068D01*
Y028559D01*
D02*
G37*
G36*
X025444D02*
Y028396D01*
X025606D01*
X025599Y028432D01*
X025551Y028504D01*
X025479Y028552D01*
X025444Y028559D01*
D02*
G37*
G36*
X025344D02*
X025309Y028552D01*
X025236Y028504D01*
X025188Y028432D01*
X025181Y028396D01*
X025344D01*
Y028559D01*
D02*
G37*
G36*
X024263D02*
Y028396D01*
X024425D01*
X024418Y028432D01*
X02437Y028504D01*
X024298Y028552D01*
X024263Y028559D01*
D02*
G37*
G36*
X024163D02*
X024127Y028552D01*
X024055Y028504D01*
X024007Y028432D01*
X024Y028396D01*
X024163D01*
Y028559D01*
D02*
G37*
G36*
X0219D02*
Y028396D01*
X022063D01*
X022056Y028432D01*
X022008Y028504D01*
X021935Y028552D01*
X0219Y028559D01*
D02*
G37*
G36*
X0218D02*
X021765Y028552D01*
X021693Y028504D01*
X021645Y028432D01*
X021638Y028396D01*
X0218D01*
Y028559D01*
D02*
G37*
G36*
X020719D02*
Y028396D01*
X020882D01*
X020875Y028432D01*
X020827Y028504D01*
X020754Y028552D01*
X020719Y028559D01*
D02*
G37*
G36*
X020619D02*
X020584Y028552D01*
X020512Y028504D01*
X020464Y028432D01*
X020457Y028396D01*
X020619D01*
Y028559D01*
D02*
G37*
G36*
X038598Y028296D02*
X038436D01*
Y028134D01*
X038471Y028141D01*
X038543Y028189D01*
X038591Y028261D01*
X038598Y028296D01*
D02*
G37*
G36*
X038336D02*
X038173D01*
X03818Y028261D01*
X038229Y028189D01*
X038301Y028141D01*
X038336Y028134D01*
Y028296D01*
D02*
G37*
G36*
X033874D02*
X033711D01*
Y028134D01*
X033747Y028141D01*
X033819Y028189D01*
X033867Y028261D01*
X033874Y028296D01*
D02*
G37*
G36*
X033611D02*
X033449D01*
X033456Y028261D01*
X033504Y028189D01*
X033576Y028141D01*
X033611Y028134D01*
Y028296D01*
D02*
G37*
G36*
X031512D02*
X031349D01*
Y028134D01*
X031384Y028141D01*
X031456Y028189D01*
X031505Y028261D01*
X031512Y028296D01*
D02*
G37*
G36*
X031249D02*
X031087D01*
X031094Y028261D01*
X031142Y028189D01*
X031214Y028141D01*
X031249Y028134D01*
Y028296D01*
D02*
G37*
G36*
X030331D02*
X030168D01*
Y028134D01*
X030203Y028141D01*
X030275Y028189D01*
X030324Y028261D01*
X030331Y028296D01*
D02*
G37*
G36*
X030068D02*
X029906D01*
X029913Y028261D01*
X029961Y028189D01*
X030033Y028141D01*
X030068Y028134D01*
Y028296D01*
D02*
G37*
G36*
X025606D02*
X025444D01*
Y028134D01*
X025479Y028141D01*
X025551Y028189D01*
X025599Y028261D01*
X025606Y028296D01*
D02*
G37*
G36*
X025344D02*
X025181D01*
X025188Y028261D01*
X025236Y028189D01*
X025309Y028141D01*
X025344Y028134D01*
Y028296D01*
D02*
G37*
G36*
X024425D02*
X024263D01*
Y028134D01*
X024298Y028141D01*
X02437Y028189D01*
X024418Y028261D01*
X024425Y028296D01*
D02*
G37*
G36*
X024163D02*
X024D01*
X024007Y028261D01*
X024055Y028189D01*
X024127Y028141D01*
X024163Y028134D01*
Y028296D01*
D02*
G37*
G36*
X022063D02*
X0219D01*
Y028134D01*
X021935Y028141D01*
X022008Y028189D01*
X022056Y028261D01*
X022063Y028296D01*
D02*
G37*
G36*
X0218D02*
X021638D01*
X021645Y028261D01*
X021693Y028189D01*
X021765Y028141D01*
X0218Y028134D01*
Y028296D01*
D02*
G37*
G36*
X020882D02*
X020719D01*
Y028134D01*
X020754Y028141D01*
X020827Y028189D01*
X020875Y028261D01*
X020882Y028296D01*
D02*
G37*
G36*
X020619D02*
X020457D01*
X020464Y028261D01*
X020512Y028189D01*
X020584Y028141D01*
X020619Y028134D01*
Y028296D01*
D02*
G37*
G36*
X02421Y040372D02*
X024141Y040358D01*
X024082Y040318D01*
X024042Y040259D01*
X024028Y04019D01*
X024042Y040121D01*
X024082Y040062D01*
X024108Y040044D01*
Y03049D01*
X024108Y03049D01*
X024116Y030447D01*
X024141Y030411D01*
X026582Y027969D01*
X026578Y02795D01*
X026592Y02788D01*
X026632Y027822D01*
X02669Y027782D01*
X02676Y027768D01*
X02683Y027782D01*
X026888Y027822D01*
X026928Y02788D01*
X026942Y02795D01*
X026928Y028019D01*
X026888Y028078D01*
X02683Y028118D01*
X02676Y028132D01*
X026741Y028128D01*
X024332Y030536D01*
Y040057D01*
X024338Y040062D01*
X024378Y040121D01*
X024392Y04019D01*
X024378Y040259D01*
X024338Y040318D01*
X024279Y040358D01*
X02421Y040372D01*
D02*
G37*
G36*
X024972Y027752D02*
Y02759D01*
X025135D01*
X025128Y027625D01*
X025079Y027697D01*
X025007Y027745D01*
X024972Y027752D01*
D02*
G37*
G36*
X024872D02*
X024837Y027745D01*
X024765Y027697D01*
X024717Y027625D01*
X02471Y02759D01*
X024872D01*
Y027752D01*
D02*
G37*
G36*
X03685Y028086D02*
X036762Y028075D01*
X036681Y028041D01*
X036611Y027987D01*
X036557Y027917D01*
X036523Y027835D01*
X036512Y027748D01*
X036523Y02766D01*
X036547Y027603D01*
X035799Y026855D01*
X035749Y026888D01*
X03568Y026902D01*
X03561Y026888D01*
X035552Y026848D01*
X035512Y02679D01*
X035498Y02672D01*
X035512Y026651D01*
X035552Y026592D01*
X03561Y026552D01*
X03568Y026538D01*
X035749Y026552D01*
X035808Y026592D01*
X035819Y026608D01*
X035822D01*
X035822Y026608D01*
X035865Y026616D01*
X035902Y026641D01*
X036705Y027444D01*
X036762Y027421D01*
X03685Y027409D01*
X036938Y027421D01*
X037019Y027455D01*
X037089Y027508D01*
X037143Y027579D01*
X037177Y02766D01*
X037188Y027748D01*
X037177Y027835D01*
X037143Y027917D01*
X037089Y027987D01*
X037019Y028041D01*
X036938Y028075D01*
X03685Y028086D01*
D02*
G37*
G36*
X037845Y027378D02*
Y027215D01*
X038008D01*
X038001Y02725D01*
X037953Y027323D01*
X03788Y027371D01*
X037845Y027378D01*
D02*
G37*
G36*
X037745D02*
X03771Y027371D01*
X037638Y027323D01*
X03759Y02725D01*
X037583Y027215D01*
X037745D01*
Y027378D01*
D02*
G37*
G36*
X035483D02*
Y027215D01*
X035645D01*
X035639Y02725D01*
X03559Y027323D01*
X035518Y027371D01*
X035483Y027378D01*
D02*
G37*
G36*
X035383D02*
X035348Y027371D01*
X035276Y027323D01*
X035228Y02725D01*
X035221Y027215D01*
X035383D01*
Y027378D01*
D02*
G37*
G36*
X025135Y02749D02*
X02471D01*
X024717Y027455D01*
X024736Y027425D01*
X024718Y027371D01*
X024646Y027323D01*
X024598Y02725D01*
X024591Y027215D01*
X025016D01*
X025009Y02725D01*
X024989Y02728D01*
X025007Y027335D01*
X025079Y027383D01*
X025128Y027455D01*
X025135Y02749D01*
D02*
G37*
G36*
X020129Y027378D02*
Y027215D01*
X020291D01*
X020284Y02725D01*
X020236Y027323D01*
X020164Y027371D01*
X020129Y027378D01*
D02*
G37*
G36*
X020029D02*
X019994Y027371D01*
X019921Y027323D01*
X019873Y02725D01*
X019866Y027215D01*
X020029D01*
Y027378D01*
D02*
G37*
G36*
X038008Y027115D02*
X037845D01*
Y026953D01*
X03788Y02696D01*
X037953Y027008D01*
X038001Y02708D01*
X038008Y027115D01*
D02*
G37*
G36*
X037745D02*
X037583D01*
X03759Y02708D01*
X037638Y027008D01*
X03771Y02696D01*
X037745Y026953D01*
Y027115D01*
D02*
G37*
G36*
X035645D02*
X035483D01*
Y026953D01*
X035518Y02696D01*
X03559Y027008D01*
X035639Y02708D01*
X035645Y027115D01*
D02*
G37*
G36*
X035383D02*
X035221D01*
X035228Y02708D01*
X035276Y027008D01*
X035348Y02696D01*
X035383Y026953D01*
Y027115D01*
D02*
G37*
G36*
X027378D02*
X027215D01*
Y026953D01*
X02725Y02696D01*
X027323Y027008D01*
X027371Y02708D01*
X027378Y027115D01*
D02*
G37*
G36*
X025016D02*
X024853D01*
Y026953D01*
X024888Y02696D01*
X02496Y027008D01*
X025009Y02708D01*
X025016Y027115D01*
D02*
G37*
G36*
X024753D02*
X024591D01*
X024598Y02708D01*
X024646Y027008D01*
X024718Y02696D01*
X024753Y026953D01*
Y027115D01*
D02*
G37*
G36*
X020291D02*
X020129D01*
Y026953D01*
X020164Y02696D01*
X020236Y027008D01*
X020284Y02708D01*
X020291Y027115D01*
D02*
G37*
G36*
X020029D02*
X019866D01*
X019873Y02708D01*
X019921Y027008D01*
X019994Y02696D01*
X020029Y026953D01*
Y027115D01*
D02*
G37*
G36*
X03685Y027299D02*
X036762Y027287D01*
X036681Y027254D01*
X036611Y0272D01*
X036557Y02713D01*
X036523Y027048D01*
X036512Y02696D01*
X036523Y026873D01*
X036557Y026791D01*
X036611Y026721D01*
X036681Y026667D01*
X036762Y026633D01*
X03685Y026622D01*
X036938Y026633D01*
X037019Y026667D01*
X037089Y026721D01*
X037143Y026791D01*
X037177Y026873D01*
X037188Y02696D01*
X037177Y027048D01*
X037143Y02713D01*
X037089Y0272D01*
X037019Y027254D01*
X036938Y027287D01*
X03685Y027299D01*
D02*
G37*
G36*
X02509Y026662D02*
X02502Y026648D01*
X024962Y026608D01*
X024922Y026549D01*
X024922Y026546D01*
X023989D01*
X023978Y026562D01*
X023919Y026602D01*
X02385Y026616D01*
X023781Y026602D01*
X023722Y026562D01*
X023682Y026504D01*
X023668Y026434D01*
X023682Y026365D01*
X023722Y026306D01*
X023781Y026266D01*
X02385Y026252D01*
X023919Y026266D01*
X023978Y026306D01*
X023989Y026322D01*
X025006D01*
X02502Y026312D01*
X02509Y026298D01*
X025159Y026312D01*
X025218Y026352D01*
X025258Y026411D01*
X025272Y02648D01*
X025258Y026549D01*
X025218Y026608D01*
X025159Y026648D01*
X02509Y026662D01*
D02*
G37*
G36*
X02563Y027482D02*
X025561Y027468D01*
X025502Y027428D01*
X025462Y027369D01*
X025448Y0273D01*
X025462Y027231D01*
X025502Y027172D01*
X025561Y027132D01*
X025569Y027131D01*
X025767Y026932D01*
X02578Y026913D01*
X026314Y026379D01*
X026316Y02637D01*
X026355Y026312D01*
X026414Y026272D01*
X026484Y026258D01*
X026553Y026272D01*
X026612Y026312D01*
X026651Y02637D01*
X026665Y02644D01*
X026651Y026509D01*
X026612Y026568D01*
X026553Y026608D01*
X026545Y026609D01*
X026023Y027131D01*
X026011Y02715D01*
X025799Y027361D01*
X025798Y027369D01*
X025758Y027428D01*
X0257Y027468D01*
X02563Y027482D01*
D02*
G37*
G36*
X038436Y026197D02*
Y026034D01*
X038598D01*
X038591Y026069D01*
X038543Y026141D01*
X038471Y02619D01*
X038436Y026197D01*
D02*
G37*
G36*
X038336D02*
X038301Y02619D01*
X038229Y026141D01*
X03818Y026069D01*
X038173Y026034D01*
X038336D01*
Y026197D01*
D02*
G37*
G36*
X037255D02*
Y026034D01*
X037417D01*
X03741Y026069D01*
X037362Y026141D01*
X03729Y02619D01*
X037255Y026197D01*
D02*
G37*
G36*
X037155D02*
X03712Y02619D01*
X037047Y026141D01*
X036999Y026069D01*
X036992Y026034D01*
X037155D01*
Y026197D01*
D02*
G37*
G36*
X036074D02*
Y026034D01*
X036236D01*
X036229Y026069D01*
X036181Y026141D01*
X036109Y02619D01*
X036074Y026197D01*
D02*
G37*
G36*
X035974D02*
X035939Y02619D01*
X035866Y026141D01*
X035818Y026069D01*
X035811Y026034D01*
X035974D01*
Y026197D01*
D02*
G37*
G36*
X024263D02*
Y026034D01*
X024425D01*
X024418Y026069D01*
X02437Y026141D01*
X024298Y02619D01*
X024263Y026197D01*
D02*
G37*
G36*
X024163D02*
X024127Y02619D01*
X024055Y026141D01*
X024007Y026069D01*
X024Y026034D01*
X024163D01*
Y026197D01*
D02*
G37*
G36*
X023081D02*
Y026034D01*
X023244D01*
X023237Y026069D01*
X023189Y026141D01*
X023117Y02619D01*
X023081Y026197D01*
D02*
G37*
G36*
X022981D02*
X022946Y02619D01*
X022874Y026141D01*
X022826Y026069D01*
X022819Y026034D01*
X022981D01*
Y026197D01*
D02*
G37*
G36*
X0219D02*
Y026034D01*
X022063D01*
X022056Y026069D01*
X022008Y026141D01*
X021935Y02619D01*
X0219Y026197D01*
D02*
G37*
G36*
X0218D02*
X021765Y02619D01*
X021693Y026141D01*
X021645Y026069D01*
X021638Y026034D01*
X0218D01*
Y026197D01*
D02*
G37*
G36*
X020719D02*
Y026034D01*
X020882D01*
X020875Y026069D01*
X020827Y026141D01*
X020754Y02619D01*
X020719Y026197D01*
D02*
G37*
G36*
X020619D02*
X020584Y02619D01*
X020512Y026141D01*
X020464Y026069D01*
X020457Y026034D01*
X020619D01*
Y026197D01*
D02*
G37*
G36*
X038598Y025934D02*
X038436D01*
Y025772D01*
X038471Y025779D01*
X038543Y025827D01*
X038591Y025899D01*
X038598Y025934D01*
D02*
G37*
G36*
X038336D02*
X038173D01*
X03818Y025899D01*
X038229Y025827D01*
X038301Y025779D01*
X038336Y025772D01*
Y025934D01*
D02*
G37*
G36*
X037417D02*
X037255D01*
Y025772D01*
X03729Y025779D01*
X037362Y025827D01*
X03741Y025899D01*
X037417Y025934D01*
D02*
G37*
G36*
X037155D02*
X036992D01*
X036999Y025899D01*
X037047Y025827D01*
X03712Y025779D01*
X037155Y025772D01*
Y025934D01*
D02*
G37*
G36*
X036236D02*
X036074D01*
Y025772D01*
X036109Y025779D01*
X036181Y025827D01*
X036229Y025899D01*
X036236Y025934D01*
D02*
G37*
G36*
X035974D02*
X035811D01*
X035818Y025899D01*
X035866Y025827D01*
X035939Y025779D01*
X035974Y025772D01*
Y025934D01*
D02*
G37*
G36*
X024425D02*
X024263D01*
Y025772D01*
X024298Y025779D01*
X02437Y025827D01*
X024418Y025899D01*
X024425Y025934D01*
D02*
G37*
G36*
X024163D02*
X024D01*
X024007Y025899D01*
X024055Y025827D01*
X024127Y025779D01*
X024163Y025772D01*
Y025934D01*
D02*
G37*
G36*
X023244D02*
X023081D01*
Y025772D01*
X023117Y025779D01*
X023189Y025827D01*
X023237Y025899D01*
X023244Y025934D01*
D02*
G37*
G36*
X022981D02*
X022819D01*
X022826Y025899D01*
X022874Y025827D01*
X022946Y025779D01*
X022981Y025772D01*
Y025934D01*
D02*
G37*
G36*
X022063D02*
X0219D01*
Y025772D01*
X021935Y025779D01*
X022008Y025827D01*
X022056Y025899D01*
X022063Y025934D01*
D02*
G37*
G36*
X0218D02*
X021638D01*
X021645Y025899D01*
X021693Y025827D01*
X021765Y025779D01*
X0218Y025772D01*
Y025934D01*
D02*
G37*
G36*
X020882D02*
X020719D01*
Y025772D01*
X020754Y025779D01*
X020827Y025827D01*
X020875Y025899D01*
X020882Y025934D01*
D02*
G37*
G36*
X020619D02*
X020457D01*
X020464Y025899D01*
X020512Y025827D01*
X020584Y025779D01*
X020619Y025772D01*
Y025934D01*
D02*
G37*
G36*
X037845Y025016D02*
Y024853D01*
X038008D01*
X038001Y024888D01*
X037953Y02496D01*
X03788Y025009D01*
X037845Y025016D01*
D02*
G37*
G36*
X037745D02*
X03771Y025009D01*
X037638Y02496D01*
X03759Y024888D01*
X037583Y024853D01*
X037745D01*
Y025016D01*
D02*
G37*
G36*
X036664D02*
Y024853D01*
X036827D01*
X03682Y024888D01*
X036771Y02496D01*
X036699Y025009D01*
X036664Y025016D01*
D02*
G37*
G36*
X036564D02*
X036529Y025009D01*
X036457Y02496D01*
X036409Y024888D01*
X036402Y024853D01*
X036564D01*
Y025016D01*
D02*
G37*
G36*
X035483D02*
Y024853D01*
X035645D01*
X035639Y024888D01*
X03559Y02496D01*
X035518Y025009D01*
X035483Y025016D01*
D02*
G37*
G36*
X03194D02*
Y024853D01*
X032102D01*
X032095Y024888D01*
X032047Y02496D01*
X031975Y025009D01*
X03194Y025016D01*
D02*
G37*
G36*
X03184D02*
X031805Y025009D01*
X031733Y02496D01*
X031684Y024888D01*
X031677Y024853D01*
X03184D01*
Y025016D01*
D02*
G37*
G36*
X024853D02*
Y024853D01*
X025016D01*
X025009Y024888D01*
X02496Y02496D01*
X024888Y025009D01*
X024853Y025016D01*
D02*
G37*
G36*
X024753D02*
X024718Y025009D01*
X024646Y02496D01*
X024598Y024888D01*
X024591Y024853D01*
X024753D01*
Y025016D01*
D02*
G37*
G36*
X023672D02*
Y024853D01*
X023834D01*
X023827Y024888D01*
X023779Y02496D01*
X023707Y025009D01*
X023672Y025016D01*
D02*
G37*
G36*
X023572D02*
X023537Y025009D01*
X023465Y02496D01*
X023417Y024888D01*
X02341Y024853D01*
X023572D01*
Y025016D01*
D02*
G37*
G36*
X022491D02*
Y024853D01*
X022653D01*
X022646Y024888D01*
X022598Y02496D01*
X022526Y025009D01*
X022491Y025016D01*
D02*
G37*
G36*
X022391D02*
X022356Y025009D01*
X022284Y02496D01*
X022235Y024888D01*
X022229Y024853D01*
X022391D01*
Y025016D01*
D02*
G37*
G36*
X02131D02*
Y024853D01*
X021472D01*
X021465Y024888D01*
X021417Y02496D01*
X021345Y025009D01*
X02131Y025016D01*
D02*
G37*
G36*
X02121D02*
X021175Y025009D01*
X021103Y02496D01*
X021054Y024888D01*
X021047Y024853D01*
X02121D01*
Y025016D01*
D02*
G37*
G36*
X020129D02*
Y024853D01*
X020291D01*
X020284Y024888D01*
X020236Y02496D01*
X020164Y025009D01*
X020129Y025016D01*
D02*
G37*
G36*
X020029D02*
X019994Y025009D01*
X019921Y02496D01*
X019873Y024888D01*
X019866Y024853D01*
X020029D01*
Y025016D01*
D02*
G37*
G36*
X038008Y024753D02*
X037845D01*
Y024591D01*
X03788Y024598D01*
X037953Y024646D01*
X038001Y024718D01*
X038008Y024753D01*
D02*
G37*
G36*
X037745D02*
X037583D01*
X03759Y024718D01*
X037638Y024646D01*
X03771Y024598D01*
X037745Y024591D01*
Y024753D01*
D02*
G37*
G36*
X036827D02*
X036664D01*
Y024591D01*
X036699Y024598D01*
X036771Y024646D01*
X03682Y024718D01*
X036827Y024753D01*
D02*
G37*
G36*
X036564D02*
X036402D01*
X036409Y024718D01*
X036457Y024646D01*
X036529Y024598D01*
X036564Y024591D01*
Y024753D01*
D02*
G37*
G36*
X035645D02*
X035483D01*
Y024591D01*
X035518Y024598D01*
X03559Y024646D01*
X035639Y024718D01*
X035645Y024753D01*
D02*
G37*
G36*
X034202D02*
X03404D01*
X034046Y024718D01*
X034095Y024646D01*
X034167Y024598D01*
X034202Y024591D01*
Y024753D01*
D02*
G37*
G36*
X032102D02*
X03194D01*
Y024591D01*
X031975Y024598D01*
X032047Y024646D01*
X032095Y024718D01*
X032102Y024753D01*
D02*
G37*
G36*
X03184D02*
X031677D01*
X031684Y024718D01*
X031733Y024646D01*
X031805Y024598D01*
X03184Y024591D01*
Y024753D01*
D02*
G37*
G36*
X025016D02*
X024853D01*
Y024591D01*
X024888Y024598D01*
X02496Y024646D01*
X025009Y024718D01*
X025016Y024753D01*
D02*
G37*
G36*
X024753D02*
X024591D01*
X024598Y024718D01*
X024646Y024646D01*
X024718Y024598D01*
X024753Y024591D01*
Y024753D01*
D02*
G37*
G36*
X023834D02*
X023672D01*
Y024591D01*
X023707Y024598D01*
X023779Y024646D01*
X023827Y024718D01*
X023834Y024753D01*
D02*
G37*
G36*
X023572D02*
X02341D01*
X023417Y024718D01*
X023465Y024646D01*
X023537Y024598D01*
X023572Y024591D01*
Y024753D01*
D02*
G37*
G36*
X022653D02*
X022491D01*
Y024591D01*
X022526Y024598D01*
X022598Y024646D01*
X022646Y024718D01*
X022653Y024753D01*
D02*
G37*
G36*
X022391D02*
X022229D01*
X022235Y024718D01*
X022284Y024646D01*
X022356Y024598D01*
X022391Y024591D01*
Y024753D01*
D02*
G37*
G36*
X021472D02*
X02131D01*
Y024591D01*
X021345Y024598D01*
X021417Y024646D01*
X021465Y024718D01*
X021472Y024753D01*
D02*
G37*
G36*
X02121D02*
X021047D01*
X021054Y024718D01*
X021103Y024646D01*
X021175Y024598D01*
X02121Y024591D01*
Y024753D01*
D02*
G37*
G36*
X020291D02*
X020129D01*
Y024591D01*
X020164Y024598D01*
X020236Y024646D01*
X020284Y024718D01*
X020291Y024753D01*
D02*
G37*
G36*
X020029D02*
X019866D01*
X019873Y024718D01*
X019921Y024646D01*
X019994Y024598D01*
X020029Y024591D01*
Y024753D01*
D02*
G37*
G36*
X02832Y027788D02*
X028251Y027775D01*
X028192Y027735D01*
X028152Y027676D01*
X028138Y027607D01*
X028152Y027537D01*
X028192Y027478D01*
X028208Y027467D01*
Y02638D01*
X028208Y02638D01*
X028216Y026337D01*
X028241Y026301D01*
X030741Y023801D01*
X030741Y023801D01*
X030777Y023776D01*
X03082Y023768D01*
X03082Y023768D01*
X031081D01*
X031105Y023724D01*
X031094Y023707D01*
X031087Y023672D01*
X031512D01*
X031505Y023707D01*
X031494Y023724D01*
X031517Y023768D01*
X031901D01*
X031912Y023752D01*
X031971Y023712D01*
X03204Y023698D01*
X032109Y023712D01*
X032168Y023752D01*
X032208Y023811D01*
X032222Y02388D01*
X032208Y023949D01*
X032168Y024008D01*
X032109Y024048D01*
X03204Y024062D01*
X031971Y024048D01*
X031912Y024008D01*
X031901Y023992D01*
X030866D01*
X028432Y026426D01*
Y027467D01*
X028448Y027478D01*
X028488Y027537D01*
X028502Y027607D01*
X028488Y027676D01*
X028448Y027735D01*
X028389Y027775D01*
X02832Y027788D01*
D02*
G37*
G36*
X038436Y023834D02*
Y023672D01*
X038598D01*
X038591Y023707D01*
X038543Y023779D01*
X038471Y023827D01*
X038436Y023834D01*
D02*
G37*
G36*
X038336D02*
X038301Y023827D01*
X038229Y023779D01*
X03818Y023707D01*
X038173Y023672D01*
X038336D01*
Y023834D01*
D02*
G37*
G36*
X037255D02*
Y023672D01*
X037417D01*
X03741Y023707D01*
X037362Y023779D01*
X03729Y023827D01*
X037255Y023834D01*
D02*
G37*
G36*
X037155D02*
X03712Y023827D01*
X037047Y023779D01*
X036999Y023707D01*
X036992Y023672D01*
X037155D01*
Y023834D01*
D02*
G37*
G36*
X036074D02*
Y023672D01*
X036236D01*
X036229Y023707D01*
X036181Y023779D01*
X036109Y023827D01*
X036074Y023834D01*
D02*
G37*
G36*
X035974D02*
X035939Y023827D01*
X035866Y023779D01*
X035818Y023707D01*
X035811Y023672D01*
X035974D01*
Y023834D01*
D02*
G37*
G36*
X033711D02*
Y023672D01*
X033874D01*
X033867Y023707D01*
X033819Y023779D01*
X033747Y023827D01*
X033711Y023834D01*
D02*
G37*
G36*
X03253D02*
Y023672D01*
X032693D01*
X032686Y023707D01*
X032638Y023779D01*
X032565Y023827D01*
X03253Y023834D01*
D02*
G37*
G36*
X03243D02*
X032395Y023827D01*
X032323Y023779D01*
X032275Y023707D01*
X032268Y023672D01*
X03243D01*
Y023834D01*
D02*
G37*
G36*
X0219D02*
Y023672D01*
X022063D01*
X022056Y023707D01*
X022008Y023779D01*
X021935Y023827D01*
X0219Y023834D01*
D02*
G37*
G36*
X0218D02*
X021765Y023827D01*
X021693Y023779D01*
X021645Y023707D01*
X021638Y023672D01*
X0218D01*
Y023834D01*
D02*
G37*
G36*
X020719D02*
Y023672D01*
X020882D01*
X020875Y023707D01*
X020827Y023779D01*
X020754Y023827D01*
X020719Y023834D01*
D02*
G37*
G36*
X020619D02*
X020584Y023827D01*
X020512Y023779D01*
X020464Y023707D01*
X020457Y023672D01*
X020619D01*
Y023834D01*
D02*
G37*
G36*
X038598Y023572D02*
X038436D01*
Y02341D01*
X038471Y023417D01*
X038543Y023465D01*
X038591Y023537D01*
X038598Y023572D01*
D02*
G37*
G36*
X038336D02*
X038173D01*
X03818Y023537D01*
X038229Y023465D01*
X038301Y023417D01*
X038336Y02341D01*
Y023572D01*
D02*
G37*
G36*
X037417D02*
X037255D01*
Y02341D01*
X03729Y023417D01*
X037362Y023465D01*
X03741Y023537D01*
X037417Y023572D01*
D02*
G37*
G36*
X037155D02*
X036992D01*
X036999Y023537D01*
X037047Y023465D01*
X03712Y023417D01*
X037155Y02341D01*
Y023572D01*
D02*
G37*
G36*
X036236D02*
X036074D01*
Y02341D01*
X036109Y023417D01*
X036181Y023465D01*
X036229Y023537D01*
X036236Y023572D01*
D02*
G37*
G36*
X035974D02*
X035811D01*
X035818Y023537D01*
X035866Y023465D01*
X035939Y023417D01*
X035974Y02341D01*
Y023572D01*
D02*
G37*
G36*
X033874D02*
X033711D01*
Y02341D01*
X033747Y023417D01*
X033819Y023465D01*
X033867Y023537D01*
X033874Y023572D01*
D02*
G37*
G36*
X032693D02*
X03253D01*
Y02341D01*
X032565Y023417D01*
X032638Y023465D01*
X032686Y023537D01*
X032693Y023572D01*
D02*
G37*
G36*
X03243D02*
X032268D01*
X032275Y023537D01*
X032323Y023465D01*
X032395Y023417D01*
X03243Y02341D01*
Y023572D01*
D02*
G37*
G36*
X031512D02*
X031349D01*
Y02341D01*
X031384Y023417D01*
X031456Y023465D01*
X031505Y023537D01*
X031512Y023572D01*
D02*
G37*
G36*
X031249D02*
X031087D01*
X031094Y023537D01*
X031142Y023465D01*
X031214Y023417D01*
X031249Y02341D01*
Y023572D01*
D02*
G37*
G36*
X022063D02*
X0219D01*
Y02341D01*
X021935Y023417D01*
X022008Y023465D01*
X022056Y023537D01*
X022063Y023572D01*
D02*
G37*
G36*
X0218D02*
X021638D01*
X021645Y023537D01*
X021693Y023465D01*
X021765Y023417D01*
X0218Y02341D01*
Y023572D01*
D02*
G37*
G36*
X020882D02*
X020719D01*
Y02341D01*
X020754Y023417D01*
X020827Y023465D01*
X020875Y023537D01*
X020882Y023572D01*
D02*
G37*
G36*
X020619D02*
X020457D01*
X020464Y023537D01*
X020512Y023465D01*
X020584Y023417D01*
X020619Y02341D01*
Y023572D01*
D02*
G37*
G36*
X03194Y022653D02*
Y022491D01*
X032102D01*
X032095Y022526D01*
X032047Y022598D01*
X031975Y022646D01*
X03194Y022653D01*
D02*
G37*
G36*
X03184D02*
X031805Y022646D01*
X031733Y022598D01*
X031684Y022526D01*
X031677Y022491D01*
X03184D01*
Y022653D01*
D02*
G37*
G36*
X029578D02*
Y022491D01*
X02974D01*
X029733Y022526D01*
X029685Y022598D01*
X029613Y022646D01*
X029578Y022653D01*
D02*
G37*
G36*
X029478D02*
X029442Y022646D01*
X02937Y022598D01*
X029322Y022526D01*
X029315Y022491D01*
X029478D01*
Y022653D01*
D02*
G37*
G36*
X032102Y022391D02*
X03194D01*
Y022229D01*
X031975Y022235D01*
X032047Y022284D01*
X032095Y022356D01*
X032102Y022391D01*
D02*
G37*
G36*
X03184D02*
X031677D01*
X031684Y022356D01*
X031733Y022284D01*
X031805Y022235D01*
X03184Y022229D01*
Y022391D01*
D02*
G37*
G36*
X02974D02*
X029578D01*
Y022229D01*
X029613Y022235D01*
X029685Y022284D01*
X029733Y022356D01*
X02974Y022391D01*
D02*
G37*
G36*
X029478D02*
X029315D01*
X029322Y022356D01*
X02937Y022284D01*
X029442Y022235D01*
X029478Y022229D01*
Y022391D01*
D02*
G37*
G36*
X0279Y022052D02*
X027831Y022038D01*
X027772Y021999D01*
X027732Y02194D01*
X027718Y02187D01*
X027722Y021851D01*
X027285Y021414D01*
X02723Y021437D01*
X027143Y021448D01*
X027055Y021437D01*
X026973Y021403D01*
X026903Y021349D01*
X02685Y021279D01*
X026816Y021198D01*
X026804Y02111D01*
X026816Y021022D01*
X02685Y020941D01*
X026903Y020871D01*
X026973Y020817D01*
X027055Y020783D01*
X027143Y020772D01*
X02723Y020783D01*
X027312Y020817D01*
X027382Y020871D01*
X027436Y020941D01*
X02747Y021022D01*
X027481Y02111D01*
X02747Y021198D01*
X027445Y021257D01*
X027548Y02136D01*
X027594Y021341D01*
Y020774D01*
X028266D01*
Y021446D01*
X027699D01*
X02768Y021492D01*
X027881Y021692D01*
X0279Y021689D01*
X02797Y021702D01*
X028028Y021742D01*
X028068Y021801D01*
X028082Y02187D01*
X028068Y02194D01*
X028028Y021999D01*
X02797Y022038D01*
X0279Y022052D01*
D02*
G37*
G36*
X023256Y021482D02*
Y02116D01*
X023578D01*
X023572Y021208D01*
X023534Y021299D01*
X023474Y021378D01*
X023395Y021438D01*
X023304Y021476D01*
X023256Y021482D01*
D02*
G37*
G36*
X023156Y021482D02*
X023108Y021476D01*
X023016Y021438D01*
X022938Y021378D01*
X022878Y021299D01*
X02284Y021208D01*
X022833Y02116D01*
X023156D01*
Y021482D01*
D02*
G37*
G36*
X035001Y021442D02*
Y02112D01*
X035323D01*
X035317Y021168D01*
X035279Y021259D01*
X035219Y021338D01*
X035141Y021398D01*
X035049Y021436D01*
X035001Y021442D01*
D02*
G37*
G36*
X034901D02*
X034853Y021436D01*
X034762Y021398D01*
X034683Y021338D01*
X034623Y021259D01*
X034585Y021168D01*
X034579Y02112D01*
X034901D01*
Y021442D01*
D02*
G37*
G36*
X031377D02*
Y02112D01*
X0317D01*
X031693Y021168D01*
X031655Y021259D01*
X031595Y021338D01*
X031517Y021398D01*
X031425Y021436D01*
X031377Y021442D01*
D02*
G37*
G36*
X031277D02*
X031229Y021436D01*
X031138Y021398D01*
X03106Y021338D01*
X030999Y021259D01*
X030961Y021168D01*
X030955Y02112D01*
X031277D01*
Y021442D01*
D02*
G37*
G36*
X02499Y022122D02*
X02492Y022108D01*
X024862Y022068D01*
X024822Y022009D01*
X024808Y02194D01*
X024822Y021871D01*
X024862Y021812D01*
X02492Y021772D01*
X02499Y021758D01*
X025059Y021772D01*
X025118Y021812D01*
X025129Y021828D01*
X025479D01*
X026052Y021255D01*
X026028Y021198D01*
X026017Y02111D01*
X026028Y021022D01*
X026062Y020941D01*
X026116Y020871D01*
X026186Y020817D01*
X026268Y020783D01*
X026355Y020772D01*
X026443Y020783D01*
X026525Y020817D01*
X026595Y020871D01*
X026648Y020941D01*
X026682Y021022D01*
X026694Y02111D01*
X026682Y021198D01*
X026648Y021279D01*
X026595Y021349D01*
X026525Y021403D01*
X026443Y021437D01*
X026355Y021448D01*
X026268Y021437D01*
X026211Y021413D01*
X025605Y022019D01*
X025568Y022044D01*
X025525Y022052D01*
X025525Y022052D01*
X025129D01*
X025118Y022068D01*
X025059Y022108D01*
X02499Y022122D01*
D02*
G37*
G36*
X025568Y021448D02*
X02548Y021437D01*
X025399Y021403D01*
X025329Y021349D01*
X025275Y021279D01*
X025241Y021198D01*
X025229Y02111D01*
X025241Y021022D01*
X025275Y020941D01*
X025329Y020871D01*
X025399Y020817D01*
X02548Y020783D01*
X025568Y020772D01*
X025655Y020783D01*
X025737Y020817D01*
X025807Y020871D01*
X025861Y020941D01*
X025895Y021022D01*
X025906Y02111D01*
X025895Y021198D01*
X025861Y021279D01*
X025807Y021349D01*
X025737Y021403D01*
X025655Y021437D01*
X025568Y021448D01*
D02*
G37*
G36*
X02478D02*
X024693Y021437D01*
X024611Y021403D01*
X024541Y021349D01*
X024487Y021279D01*
X024454Y021198D01*
X024442Y02111D01*
X024454Y021022D01*
X024487Y020941D01*
X024541Y020871D01*
X024611Y020817D01*
X024693Y020783D01*
X02478Y020772D01*
X024868Y020783D01*
X02495Y020817D01*
X02502Y020871D01*
X025074Y020941D01*
X025107Y021022D01*
X025119Y02111D01*
X025107Y021198D01*
X025074Y021279D01*
X02502Y021349D01*
X02495Y021403D01*
X024868Y021437D01*
X02478Y021448D01*
D02*
G37*
G36*
X023993D02*
X023905Y021437D01*
X023824Y021403D01*
X023754Y021349D01*
X0237Y021279D01*
X023666Y021198D01*
X023655Y02111D01*
X023666Y021022D01*
X0237Y020941D01*
X023754Y020871D01*
X023824Y020817D01*
X023905Y020783D01*
X023993Y020772D01*
X024081Y020783D01*
X024162Y020817D01*
X024232Y020871D01*
X024286Y020941D01*
X02432Y021022D01*
X024332Y02111D01*
X02432Y021198D01*
X024286Y021279D01*
X024232Y021349D01*
X024162Y021403D01*
X024081Y021437D01*
X023993Y021448D01*
D02*
G37*
G36*
X023578Y02106D02*
X023256D01*
Y020738D01*
X023304Y020744D01*
X023395Y020782D01*
X023474Y020842D01*
X023534Y020921D01*
X023572Y021012D01*
X023578Y02106D01*
D02*
G37*
G36*
X023156D02*
X022833D01*
X02284Y021012D01*
X022878Y020921D01*
X022938Y020842D01*
X023016Y020782D01*
X023108Y020744D01*
X023156Y020738D01*
Y02106D01*
D02*
G37*
G36*
X032924Y021406D02*
X032253D01*
Y020734D01*
X032924D01*
Y021406D01*
D02*
G37*
G36*
X030088D02*
X029417D01*
Y020734D01*
X030088D01*
Y021406D01*
D02*
G37*
G36*
X034164Y021408D02*
X034076Y021397D01*
X033994Y021363D01*
X033924Y021309D01*
X033871Y021239D01*
X033837Y021158D01*
X033825Y02107D01*
X033837Y020982D01*
X033871Y020901D01*
X033924Y020831D01*
X033994Y020777D01*
X034076Y020743D01*
X034164Y020732D01*
X034251Y020743D01*
X034333Y020777D01*
X034403Y020831D01*
X034457Y020901D01*
X034491Y020982D01*
X034502Y02107D01*
X034491Y021158D01*
X034457Y021239D01*
X034403Y021309D01*
X034333Y021363D01*
X034251Y021397D01*
X034164Y021408D01*
D02*
G37*
G36*
X033376D02*
X033289Y021397D01*
X033207Y021363D01*
X033137Y021309D01*
X033083Y021239D01*
X033049Y021158D01*
X033038Y02107D01*
X033049Y020982D01*
X033083Y020901D01*
X033137Y020831D01*
X033207Y020777D01*
X033289Y020743D01*
X033376Y020732D01*
X033464Y020743D01*
X033546Y020777D01*
X033616Y020831D01*
X033669Y020901D01*
X033703Y020982D01*
X033715Y02107D01*
X033703Y021158D01*
X033669Y021239D01*
X033616Y021309D01*
X033546Y021363D01*
X033464Y021397D01*
X033376Y021408D01*
D02*
G37*
G36*
X03054D02*
X030452Y021397D01*
X030371Y021363D01*
X030301Y021309D01*
X030247Y021239D01*
X030213Y021158D01*
X030202Y02107D01*
X030213Y020982D01*
X030247Y020901D01*
X030301Y020831D01*
X030371Y020777D01*
X030452Y020743D01*
X03054Y020732D01*
X030628Y020743D01*
X030709Y020777D01*
X030779Y020831D01*
X030833Y020901D01*
X030867Y020982D01*
X030878Y02107D01*
X030867Y021158D01*
X030833Y021239D01*
X030779Y021309D01*
X030709Y021363D01*
X030628Y021397D01*
X03054Y021408D01*
D02*
G37*
G36*
X035323Y02102D02*
X035001D01*
Y020698D01*
X035049Y020704D01*
X035141Y020742D01*
X035219Y020802D01*
X035279Y020881D01*
X035317Y020972D01*
X035323Y02102D01*
D02*
G37*
G36*
X034901D02*
X034579D01*
X034585Y020972D01*
X034623Y020881D01*
X034683Y020802D01*
X034762Y020742D01*
X034853Y020704D01*
X034901Y020698D01*
Y02102D01*
D02*
G37*
G36*
X0317D02*
X031377D01*
Y020698D01*
X031425Y020704D01*
X031517Y020742D01*
X031595Y020802D01*
X031655Y020881D01*
X031693Y020972D01*
X0317Y02102D01*
D02*
G37*
G36*
X031277D02*
X030955D01*
X030961Y020972D01*
X030999Y020881D01*
X03106Y020802D01*
X031138Y020742D01*
X031229Y020704D01*
X031277Y020698D01*
Y02102D01*
D02*
G37*
G36*
X035483Y020291D02*
Y020129D01*
X035645D01*
X035639Y020164D01*
X03559Y020236D01*
X035518Y020284D01*
X035483Y020291D01*
D02*
G37*
G36*
X035383D02*
X035348Y020284D01*
X035276Y020236D01*
X035228Y020164D01*
X035221Y020129D01*
X035383D01*
Y020291D01*
D02*
G37*
G36*
X034302D02*
Y020129D01*
X034464D01*
X034457Y020164D01*
X034409Y020236D01*
X034337Y020284D01*
X034302Y020291D01*
D02*
G37*
G36*
X034202D02*
X034167Y020284D01*
X034095Y020236D01*
X034046Y020164D01*
X03404Y020129D01*
X034202D01*
Y020291D01*
D02*
G37*
G36*
X033121D02*
Y020129D01*
X033283D01*
X033276Y020164D01*
X033228Y020236D01*
X033156Y020284D01*
X033121Y020291D01*
D02*
G37*
G36*
X033021D02*
X032986Y020284D01*
X032914Y020236D01*
X032865Y020164D01*
X032858Y020129D01*
X033021D01*
Y020291D01*
D02*
G37*
G36*
X03194D02*
Y020129D01*
X032102D01*
X032095Y020164D01*
X032047Y020236D01*
X031975Y020284D01*
X03194Y020291D01*
D02*
G37*
G36*
X03184D02*
X031805Y020284D01*
X031733Y020236D01*
X031684Y020164D01*
X031677Y020129D01*
X03184D01*
Y020291D01*
D02*
G37*
G36*
X030759D02*
Y020129D01*
X030921D01*
X030914Y020164D01*
X030866Y020236D01*
X030794Y020284D01*
X030759Y020291D01*
D02*
G37*
G36*
X030659D02*
X030624Y020284D01*
X030551Y020236D01*
X030503Y020164D01*
X030496Y020129D01*
X030659D01*
Y020291D01*
D02*
G37*
G36*
X029578D02*
Y020129D01*
X02974D01*
X029733Y020164D01*
X029685Y020236D01*
X029613Y020284D01*
X029578Y020291D01*
D02*
G37*
G36*
X029478D02*
X029442Y020284D01*
X02937Y020236D01*
X029322Y020164D01*
X029315Y020129D01*
X029478D01*
Y020291D01*
D02*
G37*
G36*
X028396D02*
Y020129D01*
X028559D01*
X028552Y020164D01*
X028504Y020236D01*
X028432Y020284D01*
X028396Y020291D01*
D02*
G37*
G36*
X028296D02*
X028261Y020284D01*
X028189Y020236D01*
X028141Y020164D01*
X028134Y020129D01*
X028296D01*
Y020291D01*
D02*
G37*
G36*
X024853D02*
Y020129D01*
X025016D01*
X025009Y020164D01*
X02496Y020236D01*
X024888Y020284D01*
X024853Y020291D01*
D02*
G37*
G36*
X024753D02*
X024718Y020284D01*
X024646Y020236D01*
X024598Y020164D01*
X024591Y020129D01*
X024753D01*
Y020291D01*
D02*
G37*
G36*
X023672D02*
Y020129D01*
X023834D01*
X023827Y020164D01*
X023779Y020236D01*
X023707Y020284D01*
X023672Y020291D01*
D02*
G37*
G36*
X023572D02*
X023537Y020284D01*
X023465Y020236D01*
X023417Y020164D01*
X02341Y020129D01*
X023572D01*
Y020291D01*
D02*
G37*
G36*
X022491D02*
Y020129D01*
X022653D01*
X022646Y020164D01*
X022598Y020236D01*
X022526Y020284D01*
X022491Y020291D01*
D02*
G37*
G36*
X022391D02*
X022356Y020284D01*
X022284Y020236D01*
X022235Y020164D01*
X022229Y020129D01*
X022391D01*
Y020291D01*
D02*
G37*
G36*
X035645Y020029D02*
X035483D01*
Y019866D01*
X035518Y019873D01*
X03559Y019921D01*
X035639Y019994D01*
X035645Y020029D01*
D02*
G37*
G36*
X035383D02*
X035221D01*
X035228Y019994D01*
X035276Y019921D01*
X035348Y019873D01*
X035383Y019866D01*
Y020029D01*
D02*
G37*
G36*
X034464D02*
X034302D01*
Y019866D01*
X034337Y019873D01*
X034409Y019921D01*
X034457Y019994D01*
X034464Y020029D01*
D02*
G37*
G36*
X034202D02*
X03404D01*
X034046Y019994D01*
X034095Y019921D01*
X034167Y019873D01*
X034202Y019866D01*
Y020029D01*
D02*
G37*
G36*
X033283D02*
X033121D01*
Y019866D01*
X033156Y019873D01*
X033228Y019921D01*
X033276Y019994D01*
X033283Y020029D01*
D02*
G37*
G36*
X033021D02*
X032858D01*
X032865Y019994D01*
X032914Y019921D01*
X032986Y019873D01*
X033021Y019866D01*
Y020029D01*
D02*
G37*
G36*
X032102D02*
X03194D01*
Y019866D01*
X031975Y019873D01*
X032047Y019921D01*
X032095Y019994D01*
X032102Y020029D01*
D02*
G37*
G36*
X03184D02*
X031677D01*
X031684Y019994D01*
X031733Y019921D01*
X031805Y019873D01*
X03184Y019866D01*
Y020029D01*
D02*
G37*
G36*
X030921D02*
X030759D01*
Y019866D01*
X030794Y019873D01*
X030866Y019921D01*
X030914Y019994D01*
X030921Y020029D01*
D02*
G37*
G36*
X030659D02*
X030496D01*
X030503Y019994D01*
X030551Y019921D01*
X030624Y019873D01*
X030659Y019866D01*
Y020029D01*
D02*
G37*
G36*
X02974D02*
X029578D01*
Y019866D01*
X029613Y019873D01*
X029685Y019921D01*
X029733Y019994D01*
X02974Y020029D01*
D02*
G37*
G36*
X029478D02*
X029315D01*
X029322Y019994D01*
X02937Y019921D01*
X029442Y019873D01*
X029478Y019866D01*
Y020029D01*
D02*
G37*
G36*
X028559D02*
X028396D01*
Y019866D01*
X028432Y019873D01*
X028504Y019921D01*
X028552Y019994D01*
X028559Y020029D01*
D02*
G37*
G36*
X028296D02*
X028134D01*
X028141Y019994D01*
X028189Y019921D01*
X028261Y019873D01*
X028296Y019866D01*
Y020029D01*
D02*
G37*
G36*
X025016D02*
X024853D01*
Y019866D01*
X024888Y019873D01*
X02496Y019921D01*
X025009Y019994D01*
X025016Y020029D01*
D02*
G37*
G36*
X024753D02*
X024591D01*
X024598Y019994D01*
X024646Y019921D01*
X024718Y019873D01*
X024753Y019866D01*
Y020029D01*
D02*
G37*
G36*
X023834D02*
X023672D01*
Y019866D01*
X023707Y019873D01*
X023779Y019921D01*
X023827Y019994D01*
X023834Y020029D01*
D02*
G37*
G36*
X023572D02*
X02341D01*
X023417Y019994D01*
X023465Y019921D01*
X023537Y019873D01*
X023572Y019866D01*
Y020029D01*
D02*
G37*
G36*
X022653D02*
X022491D01*
Y019866D01*
X022526Y019873D01*
X022598Y019921D01*
X022646Y019994D01*
X022653Y020029D01*
D02*
G37*
G36*
X022391D02*
X022229D01*
X022235Y019994D01*
X022284Y019921D01*
X022356Y019873D01*
X022391Y019866D01*
Y020029D01*
D02*
G37*
%LPD*%
G36*
X032763Y048096D02*
Y044761D01*
X032763Y044761D01*
X032763Y044697D01*
X032751Y04457D01*
X032726Y044445D01*
X032689Y044323D01*
X03264Y044205D01*
X03258Y044093D01*
X032509Y043987D01*
X032428Y043888D01*
X032383Y043843D01*
X02895Y04041D01*
X02822Y04041D01*
Y04106D01*
X03167Y04451D01*
Y047983D01*
X03167Y048109D01*
X03176Y0482D01*
X032659Y0482D01*
X032763Y048096D01*
D02*
G37*
G36*
X022987Y039567D02*
X022987Y038697D01*
X02279Y0385D01*
X022Y0385D01*
X02128Y03778D01*
Y036497D01*
X02178Y035997D01*
Y032D01*
X021614Y031834D01*
X020766Y031834D01*
X020593Y032007D01*
Y039553D01*
X02082Y03978D01*
X022773D01*
X022987Y039567D01*
D02*
G37*
G36*
X02708Y03882D02*
X034152D01*
X034276Y038697D01*
X034276Y038206D01*
X03415Y038081D01*
X03368D01*
X03368Y038081D01*
X03368D01*
X033586Y038174D01*
X033587Y038174D01*
X033587Y038174D01*
X026921Y038174D01*
X026823Y038174D01*
X02663Y038212D01*
X026449Y038287D01*
X026286Y038396D01*
X026216Y038465D01*
X02592Y038762D01*
Y038878D01*
X026412Y03937D01*
X026528D01*
X02708Y03882D01*
D02*
G37*
G36*
X026646Y034195D02*
X026646Y032106D01*
X02642Y03188D01*
X0254D01*
X025188Y032092D01*
Y0326D01*
X024848Y03294D01*
X024671D01*
X024479Y033131D01*
X024476Y034334D01*
X024476Y034364D01*
X024493Y034421D01*
X024526Y034471D01*
X024572Y034509D01*
X0246Y03452D01*
X0246Y03452D01*
X02632Y03452D01*
X026646Y034195D01*
D02*
G37*
D10*
X03252Y030792D02*
X032879Y031151D01*
X03252Y03071D02*
Y030792D01*
X035165Y024245D02*
X035792D01*
X03573Y024234D02*
X035781D01*
X035792Y024245D01*
X03261Y0268D02*
X035165Y024245D01*
X035024Y024824D02*
Y024906D01*
X033218Y026712D02*
X035024Y024906D01*
X033218Y026712D02*
Y02864D01*
X025193Y02307D02*
X025493Y02277D01*
X02633D01*
X025193Y02307D02*
Y023597D01*
X025626Y023619D02*
X02838D01*
X02905Y0262D02*
X030848Y024402D01*
X031139D01*
X025044Y026434D02*
X02509Y02648D01*
X02385Y026434D02*
X025044D01*
X0357Y02799D02*
Y028083D01*
X03597Y028353D01*
X03575Y02947D02*
X035769D01*
X036409Y03011D01*
X035822Y02672D02*
X03685Y027748D01*
X03568Y02672D02*
X035822D01*
X02832Y02638D02*
X03082Y02388D01*
X03204D01*
X028409Y02325D02*
X02881Y023652D01*
X025499Y02325D02*
X028409D01*
X02881Y023652D02*
Y02399D01*
X036667Y028353D02*
X03685Y028535D01*
X03597Y028353D02*
X036667D01*
X036409Y03011D02*
X03685D01*
X025525Y02194D02*
X026355Y02111D01*
X02499Y02194D02*
X025525D01*
X025659Y023614D02*
X02573D01*
X025645Y0236D02*
X025659Y023614D01*
X025626Y023619D02*
X025645Y0236D01*
X025193Y023597D02*
X02689Y025294D01*
X027143Y02111D02*
Y021113D01*
X0279Y02187D01*
X02689Y025294D02*
Y027277D01*
X028473Y02886D01*
X02832Y02638D02*
Y027607D01*
X02905Y0262D02*
Y02854D01*
X028158Y029344D02*
X028569D01*
X029278Y028634D01*
Y028631D02*
X030731Y027178D01*
X029278Y028631D02*
Y028634D01*
X029435Y02957D02*
X03106D01*
X03084Y029888D02*
X03382Y032868D01*
X030731Y027178D02*
X032888D01*
X03291Y0272D01*
X03109Y028711D02*
X035142Y032764D01*
X03109Y028709D02*
Y028711D01*
X035142Y032764D02*
X035276D01*
X032637Y029222D02*
X033218Y02864D01*
X032637Y029222D02*
Y029634D01*
X036038Y032397D02*
Y036174D01*
X03297Y029329D02*
X036038Y032397D01*
X02422Y03049D02*
Y04018D01*
X02421Y04019D02*
X02422Y04018D01*
Y03049D02*
X02676Y02795D01*
X029428Y029563D02*
X029435Y02957D01*
X035827Y036385D02*
X036038Y036174D01*
X0364Y036663D02*
Y036937D01*
X035857Y03748D02*
X0364Y036937D01*
X034157Y03748D02*
X035857D01*
X03212Y035999D02*
X033961Y03784D01*
X03212Y03582D02*
Y035999D01*
X02682Y032171D02*
Y03722D01*
Y032171D02*
X029428Y029563D01*
X03074Y03022D02*
X03176Y03124D01*
X030221Y03022D02*
X03074D01*
X03176Y03124D02*
X03282Y0323D01*
X03002Y030421D02*
Y0305D01*
Y030421D02*
X030221Y03022D01*
X03362Y03784D02*
X033961D01*
X0335Y03796D02*
X03362Y03784D01*
X026982Y03796D02*
X0335D01*
D60*
X033279Y022847D02*
Y025674D01*
X032873Y02608D02*
X033279Y025674D01*
X025895Y027028D02*
Y027035D01*
Y027028D02*
X026484Y02644D01*
X02563Y0273D02*
X025895Y027035D01*
X022563Y03236D02*
X023257Y031666D01*
Y031077D02*
Y031666D01*
X028635Y032326D02*
X03212D01*
X0258Y03272D02*
X02582D01*
D63*
X031327Y02107D02*
D03*
X03054D02*
D03*
X027143Y02111D02*
D03*
X026355D02*
D03*
X025568D02*
D03*
X02478D02*
D03*
X023993D02*
D03*
X023206D02*
D03*
X03685Y03011D02*
D03*
Y029323D02*
D03*
Y028535D02*
D03*
Y027748D02*
D03*
Y02696D02*
D03*
X034951Y02107D02*
D03*
X034164D02*
D03*
X033376D02*
D03*
D64*
X029753D02*
D03*
X02793Y02111D02*
D03*
X032589Y02107D02*
D03*
D65*
X0208Y047638D02*
D03*
X03745Y02108D02*
D03*
X02074Y0211D02*
D03*
X037444Y047638D02*
D03*
D66*
X03685Y030897D02*
D03*
D67*
X032215Y047598D02*
D03*
D68*
X030315Y047498D02*
D03*
X028315D02*
D03*
D69*
X02215Y0391D02*
D03*
D70*
Y0371D02*
D03*
D71*
X02123Y03366D02*
D03*
D72*
X02273D02*
D03*
D73*
X036024Y030709D02*
D03*
X023031Y037795D02*
D03*
X03252Y03071D02*
D03*
X032879Y031151D02*
D03*
X035433Y024803D02*
D03*
X03573Y024234D02*
D03*
X035024Y024824D02*
D03*
X02633Y02277D02*
D03*
X031139Y024402D02*
D03*
X02385Y026434D02*
D03*
X038386Y044882D02*
D03*
X037795Y043701D02*
D03*
X038386Y04252D02*
D03*
X037795Y041339D02*
D03*
X038386Y040157D02*
D03*
X037795Y038976D02*
D03*
X038386Y037795D02*
D03*
X037795Y036614D02*
D03*
X038386Y035433D02*
D03*
X037795Y034252D02*
D03*
X038386Y033071D02*
D03*
X037795Y03189D02*
D03*
X038386Y030709D02*
D03*
X037795Y029528D02*
D03*
X038386Y028346D02*
D03*
X037795Y027165D02*
D03*
X038386Y025984D02*
D03*
X037795Y024803D02*
D03*
X038386Y023622D02*
D03*
X036614Y046063D02*
D03*
X037205Y044882D02*
D03*
Y04252D02*
D03*
Y040157D02*
D03*
Y033071D02*
D03*
X036614Y03189D02*
D03*
X037205Y025984D02*
D03*
X036614Y024803D02*
D03*
X037205Y023622D02*
D03*
X035433Y048425D02*
D03*
Y046063D02*
D03*
X036024Y04252D02*
D03*
X035433Y038976D02*
D03*
X036024Y037795D02*
D03*
X035433Y027165D02*
D03*
X036024Y025984D02*
D03*
Y023622D02*
D03*
X035433Y020079D02*
D03*
X034252Y048425D02*
D03*
X034843Y047244D02*
D03*
X034252Y046063D02*
D03*
X034843Y044882D02*
D03*
X034252Y043701D02*
D03*
Y041339D02*
D03*
X034843Y040157D02*
D03*
X034252Y038976D02*
D03*
X034843Y035433D02*
D03*
Y033071D02*
D03*
X034252Y024803D02*
D03*
Y020079D02*
D03*
X033661Y047244D02*
D03*
X033071Y046063D02*
D03*
X033661Y044882D02*
D03*
Y04252D02*
D03*
X033071Y041339D02*
D03*
X033661Y030709D02*
D03*
Y028346D02*
D03*
Y023622D02*
D03*
X033071Y020079D02*
D03*
X03189Y041339D02*
D03*
X03248Y040157D02*
D03*
X03189Y036614D02*
D03*
Y034252D02*
D03*
Y024803D02*
D03*
X03248Y023622D02*
D03*
X03189Y022441D02*
D03*
Y020079D02*
D03*
X031299Y047244D02*
D03*
X030709Y041339D02*
D03*
X031299Y033071D02*
D03*
Y028346D02*
D03*
Y023622D02*
D03*
X030709Y020079D02*
D03*
X029528Y046063D02*
D03*
X030118Y044882D02*
D03*
X029528Y043701D02*
D03*
X030118Y040157D02*
D03*
Y033071D02*
D03*
Y028346D02*
D03*
X029528Y022441D02*
D03*
Y020079D02*
D03*
X028346Y043701D02*
D03*
Y034252D02*
D03*
X028937Y033071D02*
D03*
X028346Y020079D02*
D03*
X027165Y046063D02*
D03*
X027756Y040157D02*
D03*
X027165Y027165D02*
D03*
X025984Y048425D02*
D03*
X026575Y047244D02*
D03*
Y044882D02*
D03*
X025984Y043701D02*
D03*
X026575Y04252D02*
D03*
X025984Y041339D02*
D03*
X026575Y040157D02*
D03*
Y037795D02*
D03*
Y030709D02*
D03*
X024803Y048425D02*
D03*
X025394Y047244D02*
D03*
X024803Y046063D02*
D03*
X025394Y044882D02*
D03*
Y04252D02*
D03*
X024803Y041339D02*
D03*
Y036614D02*
D03*
X025394Y035433D02*
D03*
Y030709D02*
D03*
Y028346D02*
D03*
X024803Y027165D02*
D03*
Y024803D02*
D03*
Y020079D02*
D03*
X023622Y048425D02*
D03*
X024213Y047244D02*
D03*
X023622Y046063D02*
D03*
X024213Y044882D02*
D03*
Y04252D02*
D03*
X023622Y041339D02*
D03*
Y036614D02*
D03*
Y029528D02*
D03*
X024213Y028346D02*
D03*
Y025984D02*
D03*
X023622Y024803D02*
D03*
Y020079D02*
D03*
X022441Y048425D02*
D03*
X023031Y047244D02*
D03*
X022441Y046063D02*
D03*
X023031Y044882D02*
D03*
X022441Y043701D02*
D03*
X023031Y04252D02*
D03*
X022441Y041339D02*
D03*
X023031Y040157D02*
D03*
Y035433D02*
D03*
X022441Y034252D02*
D03*
X023031Y025984D02*
D03*
X022441Y024803D02*
D03*
Y020079D02*
D03*
X02185Y044882D02*
D03*
X02126Y043701D02*
D03*
X02185Y04252D02*
D03*
Y028346D02*
D03*
Y025984D02*
D03*
X02126Y024803D02*
D03*
X02185Y023622D02*
D03*
X020079Y046063D02*
D03*
X020669Y044882D02*
D03*
X020079Y043701D02*
D03*
X020669Y04252D02*
D03*
X020079Y041339D02*
D03*
Y038976D02*
D03*
Y034252D02*
D03*
Y03189D02*
D03*
Y029528D02*
D03*
X020669Y028346D02*
D03*
X020079Y027165D02*
D03*
X020669Y025984D02*
D03*
X020079Y024803D02*
D03*
X020669Y023622D02*
D03*
X024922Y02754D02*
D03*
X0357Y02799D02*
D03*
X03575Y02947D02*
D03*
X03568Y02672D02*
D03*
X03204Y02388D02*
D03*
X02838Y023619D02*
D03*
X02881Y02399D02*
D03*
X02499Y02194D02*
D03*
X02573Y023614D02*
D03*
X025499Y02325D02*
D03*
X0279Y02187D02*
D03*
X032873Y02608D02*
D03*
X033279Y022847D02*
D03*
X02905Y02854D02*
D03*
X03106Y02957D02*
D03*
X03084Y029888D02*
D03*
X03261Y0268D02*
D03*
X03291Y0272D02*
D03*
X03109Y028709D02*
D03*
X032637Y029634D02*
D03*
X03297Y029329D02*
D03*
X02421Y04019D02*
D03*
X026484Y02644D02*
D03*
X02563Y0273D02*
D03*
X02676Y02795D02*
D03*
X02509Y02648D02*
D03*
X02832Y027607D02*
D03*
X02148Y03209D02*
D03*
X02079Y03938D02*
D03*
X02126D02*
D03*
X02082Y0386D02*
D03*
X02125D02*
D03*
X02876Y0412D02*
D03*
Y04066D02*
D03*
X02913Y04092D02*
D03*
X02841D02*
D03*
X026484Y03853D02*
D03*
X026772Y038843D02*
D03*
X02646Y039129D02*
D03*
X026152Y038843D02*
D03*
X023257Y031077D02*
D03*
X035276Y032764D02*
D03*
X035827Y036385D02*
D03*
X034157Y03748D02*
D03*
X0364Y036663D02*
D03*
X03382Y032868D02*
D03*
X03002Y0305D02*
D03*
X028158Y029344D02*
D03*
X028473Y02886D02*
D03*
X03212Y032326D02*
D03*
X03282Y0323D02*
D03*
X028635Y032326D02*
D03*
X02118Y03445D02*
D03*
X0208Y03426D02*
D03*
Y034638D02*
D03*
X020817Y0321D02*
D03*
X021497Y03264D02*
D03*
X02082D02*
D03*
X02682Y03722D02*
D03*
X02582Y03272D02*
D03*
X025518D02*
D03*
X0247Y03402D02*
D03*
X02468Y03432D02*
D03*
X03212Y03582D02*
D03*
X033961Y03784D02*
D03*
X026982Y03796D02*
D03*
X03412Y03828D02*
D03*
Y03862D02*
D03*
X03385Y038262D02*
D03*
X03382Y03862D02*
D03*
X022563Y03236D02*
D03*
X030008Y03482D02*
D03*
X03128Y0353D02*
D03*
X0294Y035266D02*
D03*
X030315Y03592D02*
D03*
X031281Y0359D02*
D03*
X03132Y036638D02*
D03*
X031288Y03728D02*
D03*
X03032Y03658D02*
D03*
Y03728D02*
D03*
X0294Y0359D02*
D03*
X02938Y03662D02*
D03*
X02936Y037254D02*
D03*
X030692Y03482D02*
D03*
X03036Y034232D02*
D03*
X030775Y0338D02*
D03*
X03Y03377D02*
D03*
M02*
