G04*
G04 #@! TF.GenerationSoftware,Altium Limited,Altium Designer,18.1.6 (161)*
G04*
G04 Layer_Color=8388736*
%FSTAX24Y24*%
%MOIN*%
G70*
G01*
G75*
%ADD34R,0.0394X0.0197*%
%ADD35R,0.0611X0.0493*%
G04:AMPARAMS|DCode=36|XSize=69.4mil|YSize=19mil|CornerRadius=6.8mil|HoleSize=0mil|Usage=FLASHONLY|Rotation=0.000|XOffset=0mil|YOffset=0mil|HoleType=Round|Shape=RoundedRectangle|*
%AMROUNDEDRECTD36*
21,1,0.0694,0.0055,0,0,0.0*
21,1,0.0559,0.0190,0,0,0.0*
1,1,0.0135,0.0280,-0.0028*
1,1,0.0135,-0.0280,-0.0028*
1,1,0.0135,-0.0280,0.0028*
1,1,0.0135,0.0280,0.0028*
%
%ADD36ROUNDEDRECTD36*%
G04:AMPARAMS|DCode=37|XSize=69.4mil|YSize=19mil|CornerRadius=6.8mil|HoleSize=0mil|Usage=FLASHONLY|Rotation=270.000|XOffset=0mil|YOffset=0mil|HoleType=Round|Shape=RoundedRectangle|*
%AMROUNDEDRECTD37*
21,1,0.0694,0.0055,0,0,270.0*
21,1,0.0559,0.0190,0,0,270.0*
1,1,0.0135,-0.0028,-0.0280*
1,1,0.0135,-0.0028,0.0280*
1,1,0.0135,0.0028,0.0280*
1,1,0.0135,0.0028,-0.0280*
%
%ADD37ROUNDEDRECTD37*%
%ADD38R,0.0316X0.0474*%
%ADD39R,0.0552X0.0671*%
%ADD40R,0.0671X0.0552*%
%ADD41R,0.0552X0.0592*%
%ADD42R,0.0493X0.0611*%
%ADD43R,0.1438X0.0533*%
%ADD44R,0.1379X0.0730*%
%ADD45R,0.0454X0.0730*%
%ADD46O,0.0612X0.0179*%
%ADD47R,0.0749X0.0344*%
%ADD48R,0.0749X0.0344*%
%ADD49R,0.1580X0.0867*%
%ADD50C,0.0631*%
%ADD51R,0.0631X0.0631*%
%ADD52C,0.2442*%
%ADD53R,0.0631X0.0631*%
%ADD54R,0.1180X0.1280*%
%ADD55O,0.1180X0.1280*%
%ADD56R,0.1280X0.1180*%
%ADD57O,0.1280X0.1180*%
%ADD58R,0.0789X0.0789*%
%ADD59C,0.0789*%
D34*
X034992Y024146D02*
D03*
Y024402D02*
D03*
X034283D02*
D03*
Y024146D02*
D03*
Y02389D02*
D03*
X034992D02*
D03*
X025965Y022298D02*
D03*
X025256D02*
D03*
Y022554D02*
D03*
Y02281D02*
D03*
X025965D02*
D03*
Y022554D02*
D03*
D35*
X030125Y023114D02*
D03*
Y022346D02*
D03*
X031003Y023114D02*
D03*
Y022346D02*
D03*
X029625Y032301D02*
D03*
Y033069D02*
D03*
X02534Y038364D02*
D03*
Y037596D02*
D03*
X034874Y041343D02*
D03*
Y042111D02*
D03*
X025374Y041343D02*
D03*
Y042111D02*
D03*
X034005Y023114D02*
D03*
Y022346D02*
D03*
X03522Y023114D02*
D03*
Y022346D02*
D03*
X028029D02*
D03*
Y023114D02*
D03*
X027037Y022346D02*
D03*
Y023114D02*
D03*
X024268Y022266D02*
D03*
Y023034D02*
D03*
X02339Y022256D02*
D03*
Y023024D02*
D03*
D36*
X03196Y030525D02*
D03*
Y030328D02*
D03*
Y030131D02*
D03*
Y029934D02*
D03*
Y029737D02*
D03*
Y029541D02*
D03*
Y029344D02*
D03*
Y029147D02*
D03*
Y02895D02*
D03*
Y028753D02*
D03*
Y028556D02*
D03*
Y028359D02*
D03*
Y028163D02*
D03*
Y027966D02*
D03*
Y027769D02*
D03*
Y027572D02*
D03*
X027488D02*
D03*
Y027769D02*
D03*
Y027966D02*
D03*
Y028163D02*
D03*
Y028359D02*
D03*
Y028556D02*
D03*
Y028753D02*
D03*
Y02895D02*
D03*
Y029147D02*
D03*
Y029344D02*
D03*
Y029541D02*
D03*
Y029737D02*
D03*
Y029934D02*
D03*
Y030131D02*
D03*
Y030328D02*
D03*
Y030525D02*
D03*
D37*
X0312Y026812D02*
D03*
X031003D02*
D03*
X030806D02*
D03*
X03061D02*
D03*
X030413D02*
D03*
X030216D02*
D03*
X030019D02*
D03*
X029822D02*
D03*
X029625D02*
D03*
X029429D02*
D03*
X029232D02*
D03*
X029035D02*
D03*
X028838D02*
D03*
X028641D02*
D03*
X028444D02*
D03*
X028247D02*
D03*
Y031285D02*
D03*
X028444D02*
D03*
X028641D02*
D03*
X028838D02*
D03*
X029035D02*
D03*
X029232D02*
D03*
X029429D02*
D03*
X029625D02*
D03*
X029822D02*
D03*
X030019D02*
D03*
X030216D02*
D03*
X030413D02*
D03*
X03061D02*
D03*
X030806D02*
D03*
X031003D02*
D03*
X0312D02*
D03*
D38*
X025366Y031446D02*
D03*
X026114D02*
D03*
X02574Y032234D02*
D03*
D39*
X03501Y025521D02*
D03*
X034301D02*
D03*
X030026Y025521D02*
D03*
X030734D02*
D03*
X03501Y031165D02*
D03*
X034301D02*
D03*
X028445Y025521D02*
D03*
X027736D02*
D03*
X022231Y030985D02*
D03*
X021523D02*
D03*
X026109Y033408D02*
D03*
X0254D02*
D03*
X026504Y025521D02*
D03*
X025796D02*
D03*
X032294Y025521D02*
D03*
X031586D02*
D03*
D40*
X02788Y033035D02*
D03*
Y032326D02*
D03*
X02607Y029706D02*
D03*
Y030414D02*
D03*
Y02771D02*
D03*
Y028419D02*
D03*
X03258Y02308D02*
D03*
Y022371D02*
D03*
X024702Y030436D02*
D03*
Y029728D02*
D03*
X02534Y034994D02*
D03*
Y034286D02*
D03*
X037009Y044016D02*
D03*
Y043307D02*
D03*
X02338D02*
D03*
Y044016D02*
D03*
X02535Y035931D02*
D03*
Y03664D02*
D03*
Y0393D02*
D03*
Y040009D02*
D03*
X037009Y041368D02*
D03*
Y042077D02*
D03*
X02684Y041368D02*
D03*
Y042077D02*
D03*
D41*
X022685Y04185D02*
D03*
X023452D02*
D03*
D42*
X034276Y02948D02*
D03*
X035044D02*
D03*
X034276Y02798D02*
D03*
X035044D02*
D03*
X034276Y03218D02*
D03*
X035044D02*
D03*
X034276Y02674D02*
D03*
X035044D02*
D03*
X020752Y04188D02*
D03*
X02152D02*
D03*
X034276Y03374D02*
D03*
X035044D02*
D03*
X034256Y036002D02*
D03*
X035024D02*
D03*
X034276Y034932D02*
D03*
X035044D02*
D03*
X021365Y025496D02*
D03*
X022132D02*
D03*
X023962D02*
D03*
X023194D02*
D03*
D43*
X031808Y044931D02*
D03*
Y042509D02*
D03*
X02832D02*
D03*
Y044931D02*
D03*
D44*
X02211Y027228D02*
D03*
D45*
X021204Y029807D02*
D03*
X02211D02*
D03*
X023016D02*
D03*
D46*
X033295Y044171D02*
D03*
Y043915D02*
D03*
Y04366D02*
D03*
Y043404D02*
D03*
X035599Y044171D02*
D03*
Y043915D02*
D03*
Y04366D02*
D03*
Y043404D02*
D03*
X024627Y044172D02*
D03*
Y043916D02*
D03*
Y04366D02*
D03*
Y043404D02*
D03*
X026932Y044172D02*
D03*
Y043916D02*
D03*
Y04366D02*
D03*
Y043404D02*
D03*
D47*
X027612Y039D02*
D03*
X027611Y0385D02*
D03*
Y038D02*
D03*
Y0375D02*
D03*
X027611Y037D02*
D03*
X027611Y0365D02*
D03*
Y036D02*
D03*
Y0355D02*
D03*
X027612Y0345D02*
D03*
X027611Y035D02*
D03*
D48*
X033089Y0385D02*
D03*
X033088Y039D02*
D03*
X033089Y038D02*
D03*
Y0375D02*
D03*
Y037D02*
D03*
X033089Y0365D02*
D03*
X033089Y036D02*
D03*
Y0355D02*
D03*
Y035D02*
D03*
X033088Y0345D02*
D03*
D49*
X020405Y03366D02*
D03*
X023555D02*
D03*
D50*
X031327Y02107D02*
D03*
X03054D02*
D03*
X027143Y02111D02*
D03*
X026355D02*
D03*
X025568D02*
D03*
X02478D02*
D03*
X023993D02*
D03*
X023206D02*
D03*
X03685Y03011D02*
D03*
Y029323D02*
D03*
Y028535D02*
D03*
Y027748D02*
D03*
Y02696D02*
D03*
X034951Y02107D02*
D03*
X034164D02*
D03*
X033376D02*
D03*
D51*
X029753D02*
D03*
X02793Y02111D02*
D03*
X032589Y02107D02*
D03*
D52*
X0208Y047638D02*
D03*
X03745Y02108D02*
D03*
X02074Y0211D02*
D03*
X037444Y047638D02*
D03*
D53*
X03685Y030897D02*
D03*
D54*
X032215Y047598D02*
D03*
D55*
X030315Y047498D02*
D03*
X028315D02*
D03*
D56*
X02215Y0391D02*
D03*
D57*
Y0371D02*
D03*
D58*
X02123Y03366D02*
D03*
D59*
X02273D02*
D03*
M02*
