G04*
G04 #@! TF.GenerationSoftware,Altium Limited,Altium Designer,18.1.6 (161)*
G04*
G04 Layer_Color=16711935*
%FSTAX24Y24*%
%MOIN*%
G70*
G01*
G75*
%ADD11C,0.0079*%
%ADD14C,0.0050*%
%ADD16C,0.0039*%
D11*
X028188Y030525D02*
G03*
X028188Y030525I-000039J0D01*
G01*
D14*
X031732Y027041D02*
Y031056D01*
X027716Y027041D02*
Y031056D01*
X031732D01*
X027716Y027041D02*
X031732D01*
D16*
X029859Y023143D02*
X030391D01*
X029859Y022317D02*
X030391D01*
Y023143D01*
X029859Y022317D02*
Y023143D01*
X030738D02*
X031269D01*
X030738Y022317D02*
X031269D01*
Y023143D01*
X030738Y022317D02*
Y023143D01*
X025149Y031564D02*
X026331D01*
X025149Y032116D02*
X026331D01*
X025149Y031564D02*
Y032116D01*
X026331Y031564D02*
Y032116D01*
X034222Y025235D02*
X035089D01*
X034222Y025806D02*
X035089D01*
Y025235D02*
Y025806D01*
X034222Y025235D02*
Y025806D01*
X029947Y025806D02*
X030813D01*
X029947Y025235D02*
X030813D01*
X029947D02*
Y025806D01*
X030813Y025235D02*
Y025806D01*
X028165Y032248D02*
Y033114D01*
X027595Y032248D02*
Y033114D01*
X028165D01*
X027595Y032248D02*
X028165D01*
X034222Y03088D02*
X035089D01*
X034222Y031451D02*
X035089D01*
Y03088D02*
Y031451D01*
X034222Y03088D02*
Y031451D01*
X028524Y025235D02*
Y025806D01*
X027657Y025235D02*
Y025806D01*
Y025235D02*
X028524D01*
X027657Y025806D02*
X028524D01*
X025785Y029627D02*
Y030493D01*
X026355Y029627D02*
Y030493D01*
X025785Y029627D02*
X026355D01*
X025785Y030493D02*
X026355D01*
X025785Y027631D02*
Y028497D01*
X026355Y027631D02*
Y028497D01*
X025785Y027631D02*
X026355D01*
X025785Y028497D02*
X026355D01*
X032865Y022292D02*
Y023159D01*
X032295Y022292D02*
Y023159D01*
X032865D01*
X032295Y022292D02*
X032865D01*
X024417Y030515D02*
X024988D01*
X024417Y029649D02*
X024988D01*
Y030515D01*
X024417Y029649D02*
Y030515D01*
X021444Y0307D02*
X02231D01*
X021444Y031271D02*
X02231D01*
Y0307D02*
Y031271D01*
X021444Y0307D02*
Y031271D01*
X025625Y034207D02*
Y035073D01*
X025055Y034207D02*
Y035073D01*
X025625D01*
X025055Y034207D02*
X025625D01*
X025321Y033123D02*
X026187D01*
X025321Y033693D02*
X026187D01*
Y033123D02*
Y033693D01*
X025321Y033123D02*
Y033693D01*
X036724Y044095D02*
X037295D01*
X036724Y043228D02*
X037295D01*
Y044095D01*
X036724Y043228D02*
Y044095D01*
X023095Y043228D02*
Y044095D01*
X023665Y043228D02*
Y044095D01*
X023095Y043228D02*
X023665D01*
X023095Y044095D02*
X023665D01*
X025065Y035853D02*
Y036719D01*
X025635Y035853D02*
Y036719D01*
X025065Y035853D02*
X025635D01*
X025065Y036719D02*
X025635D01*
X025717Y025235D02*
X026583D01*
X025717Y025806D02*
X026583D01*
Y025235D02*
Y025806D01*
X025717Y025235D02*
Y025806D01*
X034247Y029746D02*
X035073D01*
X034247Y029214D02*
X035073D01*
X034247D02*
Y029746D01*
X035073Y029214D02*
Y029746D01*
X034247Y028246D02*
X035073D01*
X034247Y027714D02*
X035073D01*
X034247D02*
Y028246D01*
X035073Y027714D02*
Y028246D01*
X034247Y032446D02*
X035073D01*
X034247Y031914D02*
X035073D01*
X034247D02*
Y032446D01*
X035073Y031914D02*
Y032446D01*
X034247Y027006D02*
X035073D01*
X034247Y026474D02*
X035073D01*
X034247D02*
Y027006D01*
X035073Y026474D02*
Y027006D01*
X020723Y041614D02*
Y042146D01*
X02155Y041614D02*
Y042146D01*
X020723D02*
X02155D01*
X020723Y041614D02*
X02155D01*
X02936Y032272D02*
Y033099D01*
X029891Y032272D02*
Y033099D01*
X02936Y032272D02*
X029891D01*
X02936Y033099D02*
X029891D01*
X032477Y042421D02*
Y045019D01*
X031138Y042421D02*
Y045019D01*
X032477D01*
X031138Y042421D02*
X032477D01*
X034247Y033474D02*
Y034006D01*
X035073Y033474D02*
Y034006D01*
X034247D02*
X035073D01*
X034247Y033474D02*
X035073D01*
X034227Y036267D02*
X035053D01*
X034227Y035736D02*
X035053D01*
X034227D02*
Y036267D01*
X035053Y035736D02*
Y036267D01*
X025606Y037567D02*
Y038393D01*
X025074Y037567D02*
Y038393D01*
X025606D01*
X025074Y037567D02*
X025606D01*
X034247Y035198D02*
X035073D01*
X034247Y034667D02*
X035073D01*
X034247D02*
Y035198D01*
X035073Y034667D02*
Y035198D01*
X027651Y042421D02*
Y045019D01*
X028989Y042421D02*
Y045019D01*
X027651Y042421D02*
X028989D01*
X027651Y045019D02*
X028989D01*
X021335Y025762D02*
X022162D01*
X021335Y025231D02*
X022162D01*
X021335D02*
Y025762D01*
X022162Y025231D02*
Y025762D01*
X023165Y025231D02*
X023991D01*
X023165Y025762D02*
X023991D01*
Y025231D02*
Y025762D01*
X023165Y025231D02*
Y025762D01*
X020791Y027789D02*
Y029246D01*
X023429Y027789D02*
Y029246D01*
X020791Y027789D02*
X023429D01*
X020791Y029246D02*
X023429D01*
X025065Y039221D02*
Y040087D01*
X025635Y039221D02*
Y040087D01*
X025065Y039221D02*
X025635D01*
X025065Y040087D02*
X025635D01*
X032373Y025235D02*
Y025806D01*
X031507Y025235D02*
Y025806D01*
Y025235D02*
X032373D01*
X031507Y025806D02*
X032373D01*
X036724Y041289D02*
Y042155D01*
X037295Y041289D02*
Y042155D01*
X036724Y041289D02*
X037295D01*
X036724Y042155D02*
X037295D01*
X026555Y041289D02*
Y042155D01*
X027125Y041289D02*
Y042155D01*
X026555Y041289D02*
X027125D01*
X026555Y042155D02*
X027125D01*
X034609Y041313D02*
Y04214D01*
X03514Y041313D02*
Y04214D01*
X034609Y041313D02*
X03514D01*
X034609Y04214D02*
X03514D01*
X025108Y041313D02*
Y04214D01*
X02564Y041313D02*
Y04214D01*
X025108Y041313D02*
X02564D01*
X025108Y04214D02*
X02564D01*
X033739Y023143D02*
X034271D01*
X033739Y022317D02*
X034271D01*
Y023143D01*
X033739Y022317D02*
Y023143D01*
X034954D02*
X035486D01*
X034954Y022317D02*
X035486D01*
Y023143D01*
X034954Y022317D02*
Y023143D01*
X027763Y022317D02*
Y023143D01*
X028295Y022317D02*
Y023143D01*
X027763Y022317D02*
X028295D01*
X027763Y023143D02*
X028295D01*
X026771Y022317D02*
Y023143D01*
X027303Y022317D02*
Y023143D01*
X026771Y022317D02*
X027303D01*
X026771Y023143D02*
X027303D01*
X024003Y022237D02*
Y023063D01*
X024534Y022237D02*
Y023063D01*
X024003Y022237D02*
X024534D01*
X024003Y023063D02*
X024534D01*
X023124Y022227D02*
Y023053D01*
X023656Y022227D02*
Y023053D01*
X023124Y022227D02*
X023656D01*
X023124Y023053D02*
X023656D01*
M02*
