G04*
G04 #@! TF.GenerationSoftware,Altium Limited,Altium Designer,18.1.6 (161)*
G04*
G04 Layer_Color=16711935*
%FSTAX24Y24*%
%MOIN*%
G70*
G01*
G75*
%ADD50C,0.0631*%
%ADD51R,0.0631X0.0631*%
%ADD52C,0.2442*%
%ADD53R,0.0631X0.0631*%
%ADD54R,0.1180X0.1280*%
%ADD55O,0.1180X0.1280*%
%ADD56R,0.1280X0.1180*%
%ADD57O,0.1280X0.1180*%
%ADD58R,0.0789X0.0789*%
%ADD59C,0.0789*%
D50*
X031327Y02107D02*
D03*
X03054D02*
D03*
X027143Y02111D02*
D03*
X026355D02*
D03*
X025568D02*
D03*
X02478D02*
D03*
X023993D02*
D03*
X023206D02*
D03*
X03685Y03011D02*
D03*
Y029323D02*
D03*
Y028535D02*
D03*
Y027748D02*
D03*
Y02696D02*
D03*
X034951Y02107D02*
D03*
X034164D02*
D03*
X033376D02*
D03*
D51*
X029753D02*
D03*
X02793Y02111D02*
D03*
X032589Y02107D02*
D03*
D52*
X0208Y047638D02*
D03*
X03745Y02108D02*
D03*
X02074Y0211D02*
D03*
X037444Y047638D02*
D03*
D53*
X03685Y030897D02*
D03*
D54*
X032215Y047598D02*
D03*
D55*
X030315Y047498D02*
D03*
X028315D02*
D03*
D56*
X02215Y0391D02*
D03*
D57*
Y0371D02*
D03*
D58*
X02123Y03366D02*
D03*
D59*
X02273D02*
D03*
M02*
