M48
;Layer_Color=9474304
;FILE_FORMAT=2:4
INCH,LZ
;TYPE=PLATED
T1F00S00C0.0118
T2F00S00C0.0315
T3F00S00C0.0394
T4F00S00C0.0600
T5F00S00C0.1181
%
T01
X03189Y020079
X033071
X034252
X035433
X036024Y023622
X03573Y024234
X035433Y024803
X035024Y024824
X034252Y024803
X033661Y023622
X033279Y022847
X03248Y023622
X03204Y02388
X031299Y023622
X03189Y024803
X032873Y02608
X03261Y0268
X03291Y0272
X033661Y028346
X03297Y029329
X032637Y029634
X03252Y03071
X032879Y031151
X033661Y030709
X036024
X03575Y02947
X0357Y02799
X035433Y027165
X03568Y02672
X036024Y025984
X037205
X038386
X037795Y027165
X038386Y028346
X037795Y029528
X038386Y030709
X037795Y024803
X036614
X037205Y023622
X038386
X03189Y022441
X031299Y028346
X03109Y028709
X03106Y02957
X03084Y029888
X03002Y0305
X030118Y028346
X02905Y02854
X028473Y02886
X028158Y029344
X02832Y027607
X027165Y027165
X02676Y02795
X025394Y028346
X024213
X024922Y02754
X024803Y027165
X02563Y0273
X02509Y02648
X02385Y026434
X024213Y025984
X023031
X02185
X020669
X02126Y024803
X022441
X023622
X024803
X02573Y023614
X025499Y02325
X02633Y02277
X02499Y02194
X024803Y020079
X023622
X022441
X02185Y023622
X020669
X020079Y024803
Y027165
X020669Y028346
X02185
X023622Y029528
X023257Y031077
X025394Y030709
X026575
X026484Y02644
X02838Y023619
X02881Y02399
X029528Y022441
X0279Y02187
X028346Y020079
X029528
X030709
X031139Y024402
X020079Y029528
Y03189
X020817Y0321
X02082Y03264
X021497
X02148Y03209
X022563Y03236
X022441Y034252
X02118Y03445
X0208Y034638
Y03426
X020079Y034252
X023031Y035433
X023622Y036614
X024803
X025394Y035433
X02468Y03432
X0247Y03402
X025518Y03272
X02582
X028635Y032326
X028937Y033071
X030118
X03Y03377
X030775Y0338
X03036Y034232
X030692Y03482
X030008
X0294Y035266
Y0359
X02938Y03662
X02936Y037254
X03032Y03728
Y03658
X030315Y03592
X028346Y034252
X02682Y03722
X026575Y037795
X026982Y03796
X026484Y03853
X026772Y038843
X02646Y039129
X026152Y038843
X026575Y040157
X027756
X02841Y04092
X02876Y04066
Y0412
X02913Y04092
X030118Y040157
X030709Y041339
X029528Y043701
X028346
X025984
X026575Y044882
X025394
X024213
X023031
X02185
X020669
X02126Y043701
X022441
X023031Y04252
X024213
X025394
X026575
X025984Y041339
X024803
X023622
X022441
X023031Y040157
X02421Y04019
X023031Y037795
X02125Y0386
X02082
X02079Y03938
X02126
X020079Y038976
Y041339
X020669Y04252
X02185
X020079Y043701
Y046063
X022441
X023622
X024803
X027165
X029528
X030118Y044882
X033661
X034843
X035433Y046063
X036614
X037205Y044882
X038386
X037795Y043701
X038386Y04252
X037205
X036024
X033661
X034252Y043701
Y046063
X033071
Y041339
X034252
X034843Y040157
X035433Y038976
X034252
X03412Y03862
X03382
X03385Y038262
X03412Y03828
X033961Y03784
X034157Y03748
X036024Y037795
X0364Y036663
X035827Y036385
X034843Y035433
Y033071
X035276Y032764
X03382Y032868
X03282Y0323
X03212Y032326
X031299Y033071
X03189Y034252
X03128Y0353
X031281Y0359
X03132Y036638
X03189Y036614
X03212Y03582
X031288Y03728
X03248Y040157
X03189Y041339
X037795
X038386Y040157
X037205
X037795Y038976
X038386Y037795
X037795Y036614
X038386Y035433
X037795Y034252
X038386Y033071
X037205
X037795Y03189
X036614
X034843Y047244
X033661
X034252Y048425
X035433
X031299Y047244
X026575
X025394
X024213
X023031
X023622Y048425
X024803
X025984
X022441
T02
X031327Y02107
X032589
X033376
X034164
X034951
X03685Y02696
Y027748
Y028535
Y029323
Y03011
Y030897
X03054Y02107
X029753
X02793Y02111
X027143
X026355
X025568
X02478
X023993
X023206
T03
X02123Y03366
X02273
T04
X02215Y0371
Y0391
X032215Y047598
X030315Y047498
X028315
T05
X03745Y02108
X02074Y0211
X037444Y047638
X0208
M30
